# 3ds Max Wavefront OBJ Exporter v0.97b - (c)2007 guruware
# File Created: 23.05.2019 11:35:29

mtllib Cordes.mtl

#
# object cordes
#

v  -0.2798 -0.7574 -0.7512
v  -0.2259 -0.7869 -0.7517
v  -0.2240 -1.3170 -0.7598
v  -0.2853 -1.2574 -0.7598
v  0.1782 0.0310 -0.4904
v  0.0741 0.0310 -0.5107
v  0.1100 0.0310 -0.4558
v  -0.6367 0.0310 0.0405
v  -0.6217 0.0310 0.0974
v  -0.5857 0.0310 0.0608
v  -0.5968 0.0310 0.0099
v  0.1418 0.0310 -0.4515
v  0.2283 0.0310 -0.3863
v  0.3418 0.0310 -0.3670
v  0.2491 0.0310 -0.4370
v  0.0047 0.0310 -0.4112
v  0.0057 0.0310 -0.4604
v  -0.0685 0.0310 -0.4266
v  -0.4085 0.0310 -0.1402
v  -0.4253 0.0310 -0.1251
v  -0.4116 0.0310 -0.0821
v  -0.3928 0.0310 -0.1038
v  0.4558 0.0310 -0.2146
v  0.4642 0.0310 -0.1131
v  0.5136 0.0310 -0.1583
v  0.5067 0.0310 -0.2426
v  0.6105 0.0310 -0.2477
v  0.5902 0.0310 -0.2954
v  0.5561 0.0310 -0.2688
v  0.5668 0.0310 -0.2068
v  -0.2792 -0.7004 -0.7503
v  -0.2262 -0.7295 -0.7507
v  -0.5491 0.0310 -0.3866
v  -0.5936 0.0310 -0.3420
v  -0.5674 0.0310 -0.3003
v  -0.5356 0.0310 -0.3251
v  -0.5243 0.0310 0.0149
v  -0.4807 0.0310 -0.0337
v  -0.4959 0.0310 -0.0752
v  -0.5329 0.0310 -0.0367
v  0.2980 0.0310 0.0578
v  0.3867 0.0310 -0.0424
v  0.3784 0.0310 -0.0856
v  0.3421 0.0310 -0.0716
v  0.2686 0.0310 -0.0062
v  0.2698 0.0310 0.0322
v  0.3947 0.0310 -0.3271
v  0.3416 0.0310 -0.3008
v  0.3944 0.0310 -0.2609
v  0.3950 0.0310 -0.4172
v  0.3420 0.0310 -0.4243
v  0.3948 0.0310 -0.3637
v  0.3857 -0.8260 -0.7523
v  0.3271 -0.9121 -0.7537
v  0.3338 -0.8081 -0.7520
v  0.3925 -0.7220 -0.7505
v  0.0346 -0.8911 -0.7534
v  -0.0216 -0.8806 -0.7533
v  -0.0262 -0.8259 -0.7523
v  0.0270 -0.8358 -0.7525
v  0.1035 0.0310 0.1037
v  0.1572 0.0310 0.0860
v  0.1322 0.0310 0.0385
v  0.0816 0.0310 0.0551
v  0.1883 0.0310 0.2003
v  0.2013 0.0310 0.1671
v  0.1884 0.0310 0.1481
v  0.1698 0.0310 0.1672
v  0.4888 0.0310 0.1667
v  0.4954 0.0310 0.1198
v  0.4493 0.0310 0.1185
v  0.4345 0.0310 0.1726
v  0.6584 0.0310 0.0136
v  0.6412 0.0310 -0.0817
v  0.6036 0.0310 0.0076
v  0.6206 0.0310 0.1060
v  0.6480 0.0310 -0.2810
v  0.6228 0.0310 -0.3298
v  0.3423 0.0310 -0.5139
v  0.3953 0.0310 -0.5215
v  0.3955 0.0310 -0.5751
v  0.3425 0.0310 -0.5675
v  0.0788 0.0310 -0.4066
v  -0.0024 0.0310 -0.3775
v  0.0047 0.0310 -0.3191
v  0.0509 0.0310 -0.3626
v  -0.0976 0.0310 0.1218
v  -0.0321 0.0310 0.1361
v  -0.0528 0.0310 0.0773
v  -0.1058 0.0310 0.0657
v  -0.0439 0.0310 0.2347
v  0.0129 0.0310 0.2307
v  -0.0116 0.0310 0.1793
v  -0.0683 0.0310 0.1833
v  -0.2260 0.0310 -0.7377
v  -0.2790 0.0310 -0.7377
v  -0.4191 0.0310 -0.5173
v  -0.3772 0.0310 -0.4843
v  -0.6167 0.0310 -0.3187
v  -0.3537 0.0310 0.6060
v  -0.3148 0.0310 0.5602
v  0.3114 0.0310 0.5737
v  0.2754 0.0310 0.4964
v  -0.2727 0.0310 -0.2368
v  -0.3071 0.0310 -0.2778
v  -0.7283 0.0310 0.2067
v  -0.6875 0.0310 0.2120
v  -0.6896 0.0310 0.3672
v  -0.6760 0.0310 0.4114
v  -0.5971 0.0310 0.6679
v  -0.5532 0.0310 0.6305
v  -0.6253 0.0310 0.3958
v  -0.6389 0.0310 0.3516
v  -0.2022 0.0310 0.8616
v  -0.1902 0.0310 0.8085
v  0.3752 0.0310 0.8552
v  0.3414 0.0310 0.8026
v  0.6890 0.0310 0.1911
v  0.6339 0.0310 0.1836
v  -0.1659 0.0310 -0.4933
v  -0.1520 0.0310 -0.4379
v  -0.4384 0.0310 -0.2443
v  -0.4142 0.0310 -0.2429
v  -0.2958 0.0310 0.0784
v  -0.2647 0.0310 0.0309
v  0.6734 0.0310 -0.3760
v  0.7283 0.0310 -0.3544
v  0.6963 0.0310 -0.7377
v  0.6433 0.0310 -0.7377
v  0.6196 -0.4829 -0.7464
v  0.5690 -0.4631 -0.7461
v  -0.3740 -0.6484 -0.7493
v  -0.4150 -0.6863 -0.7500
v  -0.6150 -0.2436 -0.7424
v  -0.5635 -0.2289 -0.7422
v  -0.6509 0.0310 -0.7377
v  -0.5979 0.0310 -0.7377
v  -0.4996 0.0310 0.0869
v  -0.4535 0.0310 0.0497
v  -0.1484 0.0310 0.2212
v  -0.1505 0.0310 0.1734
v  0.3431 0.0310 -0.7377
v  0.3961 0.0310 -0.7377
v  0.4036 -0.5514 -0.7476
v  0.3506 -0.5500 -0.7476
v  0.3654 -1.1390 -0.7576
v  0.3138 -1.1161 -0.7572
v  0.2391 -1.2687 -0.7598
v  0.2304 -1.2018 -0.7586
v  0.0313 -1.1442 -0.7577
v  0.0786 -1.1108 -0.7571
v  -0.0315 -0.5397 -0.7475
v  0.0215 -0.5403 -0.7475
v  -0.0090 0.0310 -0.7377
v  0.0440 0.0310 -0.7377
v  -0.0058 0.0310 -0.5645
v  0.0472 0.0310 -0.5655
v  0.3036 0.0310 0.2124
v  0.3194 0.0310 0.1473
v  0.7211 0.0310 -0.1393
v  0.6628 0.0310 -0.1367
v  0.5909 0.0310 -0.4406
v  0.5656 0.0310 -0.4211
v  0.4894 0.0310 -0.5885
v  0.4596 0.0310 -0.5307
v  -0.1062 0.0310 -0.2138
v  -0.0532 0.0310 -0.1985
v  0.0020 0.0310 0.3311
v  0.0488 0.0310 0.3062
# 169 vertices

vn 0.0000 0.0171 -0.9999
vn -0.0002 0.0163 -0.9999
vn 0.0139 0.0154 -0.9998
vn 0.0154 0.0169 -0.9997
vn 0.0000 1.0000 -0.0000
vn -0.0001 0.0171 -0.9999
vn 0.0001 0.0170 -0.9999
vn -0.0000 0.0169 -0.9999
vn 0.0000 0.0169 -0.9999
vn 0.0002 0.0168 -0.9999
vn 0.0001 0.0169 -0.9999
vn 0.0001 0.0168 -0.9999
vn 0.0000 0.5595 -0.8288
vn 0.0000 0.8092 -0.5875
vn 0.0000 -1.0000 -0.0000
vn 0.0000 0.7629 -0.6466
vn 0.0000 0.6615 -0.7499
vn -0.0001 0.0170 -0.9999
vn 0.0000 0.7098 -0.7044
vn 0.0000 0.7144 -0.6997
vn 0.0000 0.7166 -0.6974
vn 0.0000 0.7095 -0.7047
vn 0.0000 0.0168 -0.9999
vn 0.0000 0.7004 -0.7137
vn 0.0000 0.7257 -0.6880
# 25 vertex normals

vt 0.3012 0.9452 0.0000
vt 0.3063 0.9476 0.0000
vt 0.3134 0.9958 0.0000
vt 0.3071 0.9911 0.0000
vt 0.3459 0.8502 0.0000
vt 0.3363 0.8521 0.0000
vt 0.3396 0.8470 0.0000
vt 0.2707 0.8011 0.0000
vt 0.2721 0.7959 0.0000
vt 0.2754 0.7993 0.0000
vt 0.2744 0.8040 0.0000
vt 0.3425 0.8466 0.0000
vt 0.3505 0.8406 0.0000
vt 0.3609 0.8388 0.0000
vt 0.3524 0.8453 0.0000
vt 0.3298 0.8429 0.0000
vt 0.3299 0.8475 0.0000
vt 0.3231 0.8443 0.0000
vt 0.2917 0.8179 0.0000
vt 0.2902 0.8165 0.0000
vt 0.2914 0.8126 0.0000
vt 0.2932 0.8146 0.0000
vt 0.3714 0.8248 0.0000
vt 0.3722 0.8154 0.0000
vt 0.3768 0.8196 0.0000
vt 0.3761 0.8274 0.0000
vt 0.3857 0.8278 0.0000
vt 0.3838 0.8322 0.0000
vt 0.3807 0.8298 0.0000
vt 0.3817 0.8240 0.0000
vt 0.3013 0.9398 0.0000
vt 0.3062 0.9424 0.0000
vt 0.2780 0.8406 0.0000
vt 0.2739 0.8364 0.0000
vt 0.2764 0.8326 0.0000
vt 0.2792 0.8349 0.0000
vt 0.2810 0.8036 0.0000
vt 0.2851 0.8081 0.0000
vt 0.2836 0.8120 0.0000
vt 0.2803 0.8084 0.0000
vt 0.3569 0.7996 0.0000
vt 0.3651 0.8089 0.0000
vt 0.3643 0.8129 0.0000
vt 0.3610 0.8116 0.0000
vt 0.3542 0.8056 0.0000
vt 0.3543 0.8020 0.0000
vt 0.3658 0.8352 0.0000
vt 0.3609 0.8327 0.0000
vt 0.3658 0.8291 0.0000
vt 0.3658 0.8435 0.0000
vt 0.3610 0.8441 0.0000
vt 0.3658 0.8385 0.0000
vt 0.3626 0.9519 0.0000
vt 0.3569 0.9597 0.0000
vt 0.3574 0.9499 0.0000
vt 0.3634 0.9425 0.0000
vt 0.3299 0.9580 0.0000
vt 0.3247 0.9570 0.0000
vt 0.3244 0.9519 0.0000
vt 0.3292 0.9529 0.0000
vt 0.3390 0.7954 0.0000
vt 0.3439 0.7971 0.0000
vt 0.3416 0.8014 0.0000
vt 0.3369 0.7999 0.0000
vt 0.3468 0.7865 0.0000
vt 0.3480 0.7896 0.0000
vt 0.3468 0.7913 0.0000
vt 0.3451 0.7896 0.0000
vt 0.3745 0.7896 0.0000
vt 0.3751 0.7939 0.0000
vt 0.3708 0.7940 0.0000
vt 0.3695 0.7890 0.0000
vt 0.3901 0.8037 0.0000
vt 0.3885 0.8125 0.0000
vt 0.3851 0.8043 0.0000
vt 0.3866 0.7952 0.0000
vt 0.3892 0.8309 0.0000
vt 0.3868 0.8354 0.0000
vt 0.3610 0.8524 0.0000
vt 0.3659 0.8531 0.0000
vt 0.3659 0.8581 0.0000
vt 0.3610 0.8574 0.0000
vt 0.3367 0.8425 0.0000
vt 0.3292 0.8398 0.0000
vt 0.3298 0.8344 0.0000
vt 0.3341 0.8384 0.0000
vt 0.3204 0.7938 0.0000
vt 0.3264 0.7924 0.0000
vt 0.3245 0.7979 0.0000
vt 0.3196 0.7989 0.0000
vt 0.3254 0.7833 0.0000
vt 0.3306 0.7837 0.0000
vt 0.3283 0.7884 0.0000
vt 0.3231 0.7881 0.0000
vt 0.3085 0.8724 0.0000
vt 0.3036 0.8723 0.0000
vt 0.2904 0.8523 0.0000
vt 0.2941 0.8492 0.0000
vt 0.2718 0.8342 0.0000
vt 0.2968 0.7490 0.0000
vt 0.3004 0.7533 0.0000
vt 0.3581 0.7520 0.0000
vt 0.3548 0.7592 0.0000
vt 0.3043 0.8268 0.0000
vt 0.3011 0.8306 0.0000
vt 0.2622 0.7858 0.0000
vt 0.2660 0.7854 0.0000
vt 0.2658 0.7711 0.0000
vt 0.2671 0.7670 0.0000
vt 0.2743 0.7433 0.0000
vt 0.2784 0.7468 0.0000
vt 0.2717 0.7684 0.0000
vt 0.2705 0.7725 0.0000
vt 0.3108 0.7255 0.0000
vt 0.3119 0.7304 0.0000
vt 0.3640 0.7261 0.0000
vt 0.3609 0.7309 0.0000
vt 0.3929 0.7873 0.0000
vt 0.3879 0.7880 0.0000
vt 0.3141 0.8505 0.0000
vt 0.3154 0.8454 0.0000
vt 0.2890 0.8275 0.0000
vt 0.2912 0.8274 0.0000
vt 0.3021 0.7978 0.0000
vt 0.3050 0.8021 0.0000
vt 0.3915 0.8396 0.0000
vt 0.3966 0.8376 0.0000
vt 0.3936 0.8730 0.0000
vt 0.3887 0.8728 0.0000
vt 0.3831 0.9197 0.0000
vt 0.3785 0.9178 0.0000
vt 0.2924 0.9353 0.0000
vt 0.2886 0.9388 0.0000
vt 0.2699 0.8981 0.0000
vt 0.2747 0.8968 0.0000
vt 0.2672 0.8726 0.0000
vt 0.2720 0.8728 0.0000
vt 0.2833 0.7970 0.0000
vt 0.2876 0.8004 0.0000
vt 0.3157 0.7846 0.0000
vt 0.3155 0.7890 0.0000
vt 0.3611 0.8732 0.0000
vt 0.3660 0.8731 0.0000
vt 0.3674 0.9271 0.0000
vt 0.3626 0.9266 0.0000
vt 0.3606 0.9807 0.0000
vt 0.3559 0.9786 0.0000
vt 0.3489 0.9926 0.0000
vt 0.3481 0.9864 0.0000
vt 0.3296 0.9813 0.0000
vt 0.3340 0.9782 0.0000
vt 0.3247 0.9255 0.0000
vt 0.3296 0.9257 0.0000
vt 0.3286 0.8730 0.0000
vt 0.3335 0.8731 0.0000
vt 0.3289 0.8570 0.0000
vt 0.3338 0.8571 0.0000
vt 0.3574 0.7854 0.0000
vt 0.3589 0.7914 0.0000
vt 0.3959 0.8178 0.0000
vt 0.3905 0.8176 0.0000
vt 0.3839 0.8456 0.0000
vt 0.3816 0.8438 0.0000
vt 0.3746 0.8593 0.0000
vt 0.3718 0.8540 0.0000
vt 0.3196 0.8247 0.0000
vt 0.3245 0.8233 0.0000
vt 0.3296 0.7745 0.0000
vt 0.3339 0.7767 0.0000
# 169 texture coords

o cordes
g cordes
usemtl wire_008008136
s 1
f 1/1/1 2/2/2 3/3/3 4/4/4 
s 2
f 5/5/5 6/6/5 7/7/5 
f 8/8/5 9/9/5 10/10/5 11/11/5 
f 12/12/5 13/13/5 14/14/5 15/15/5 
f 16/16/5 17/17/5 18/18/5 
f 19/19/5 20/20/5 21/21/5 22/22/5 
f 23/23/5 24/24/5 25/25/5 26/26/5 
f 27/27/5 28/28/5 29/29/5 30/30/5 
s 1
f 1/1/1 31/31/6 32/32/7 2/2/2 
s 2
f 33/33/5 34/34/5 35/35/5 36/36/5 
f 37/37/5 38/38/5 39/39/5 40/40/5 
f 41/41/5 42/42/5 43/43/5 44/44/5 45/45/5 46/46/5 
f 47/47/5 14/14/5 48/48/5 49/49/5 
f 50/50/5 51/51/5 14/14/5 52/52/5 
s 1
f 53/53/8 54/54/9 55/55/10 56/56/11 
f 57/57/12 58/58/11 59/59/7 60/60/7 
s 2
f 61/61/5 62/62/5 63/63/5 64/64/5 
f 65/65/5 66/66/5 67/67/5 68/68/5 
f 69/69/5 70/70/5 71/71/5 72/72/5 
f 73/73/5 74/74/5 75/75/5 76/76/5 
f 27/27/5 77/77/5 78/78/5 28/28/5 
f 79/79/5 80/80/5 81/81/5 82/82/5 
f 6/6/5 17/17/5 16/16/5 83/83/5 7/7/5 
f 84/84/5 85/85/5 86/86/5 83/83/5 16/16/5 
f 87/87/5 88/88/5 89/89/5 90/90/5 
f 91/91/5 92/92/5 93/93/5 94/94/5 
f 95/95/13 96/96/14 97/97/5 98/98/5 
f 98/98/5 97/97/5 33/33/5 36/36/5 
f 35/35/5 34/34/5 99/99/5 8/8/5 11/11/5 
f 10/10/5 9/9/5 100/100/5 101/101/5 
f 101/101/5 100/100/5 102/102/5 103/103/5 
f 103/103/5 102/102/5 69/69/5 72/72/5 
f 23/23/5 26/26/5 47/47/5 49/49/5 
f 104/104/5 105/105/5 19/19/5 22/22/5 
f 9/9/5 8/8/5 106/106/5 107/107/5 
f 107/107/5 106/106/5 108/108/5 109/109/15 110/110/5 111/111/5 112/112/5 113/113/5 
f 111/111/5 110/110/5 114/114/5 115/115/5 
f 115/115/5 114/114/5 116/116/5 117/117/5 
f 117/117/5 116/116/5 118/118/5 119/119/5 
f 119/119/5 118/118/5 73/73/5 76/76/5 
f 75/75/5 74/74/5 27/27/5 30/30/5 
f 29/29/5 28/28/5 50/50/5 52/52/5 
f 12/12/5 15/15/5 5/5/5 7/7/5 
f 16/16/5 18/18/5 105/105/5 104/104/5 
f 13/13/5 12/12/5 7/7/5 83/83/5 
f 18/18/5 17/17/5 120/120/5 121/121/5 
f 121/121/5 120/120/5 122/122/5 123/123/5 
f 123/123/5 122/122/5 20/20/5 19/19/5 
f 21/21/5 20/20/5 39/39/5 38/38/5 
f 22/22/5 21/21/5 124/124/5 125/125/5 
f 125/125/5 124/124/5 87/87/5 90/90/5 
f 89/89/5 88/88/5 61/61/5 64/64/5 
f 26/26/5 25/25/5 30/30/5 29/29/5 
f 126/126/5 127/127/5 128/128/16 129/129/17 
s 1
f 129/129/17 128/128/16 130/130/11 131/131/11 
f 131/131/11 130/130/11 53/53/8 56/56/11 
f 55/55/10 54/54/9 57/57/12 60/60/7 
f 32/32/7 31/31/6 96/96/14 95/95/13 
f 132/132/6 133/133/6 134/134/18 135/135/6 
f 135/135/6 134/134/18 136/136/19 137/137/20 
s 2
f 137/137/20 136/136/19 34/34/5 33/33/5 
f 36/36/5 35/35/5 40/40/5 39/39/5 
f 37/37/5 40/40/5 11/11/5 10/10/5 
f 38/38/5 37/37/5 138/138/5 139/139/5 
f 139/139/5 138/138/5 140/140/5 141/141/5 
f 141/141/5 140/140/5 91/91/5 94/94/5 
f 93/93/5 92/92/5 65/65/5 68/68/5 
f 43/43/5 42/42/5 24/24/5 23/23/5 
f 44/44/5 43/43/5 49/49/5 48/48/5 
f 48/48/5 14/14/5 13/13/5 
f 14/14/5 51/51/5 15/15/5 
f 47/47/5 52/52/5 14/14/5 
f 51/51/5 50/50/5 80/80/5 79/79/5 
s 1
f 142/142/21 143/143/22 144/144/11 145/145/11 
f 145/145/11 144/144/11 56/56/11 55/55/10 
f 54/54/9 53/53/8 146/146/11 147/147/11 
f 147/147/11 146/146/11 148/148/23 149/149/23 
f 149/149/23 148/148/23 150/150/12 151/151/12 
f 151/151/12 150/150/12 58/58/11 57/57/12 
f 59/59/7 58/58/11 2/2/2 32/32/7 
f 60/60/7 59/59/7 152/152/7 153/153/7 
f 153/153/7 152/152/7 154/154/24 155/155/25 
s 2
f 155/155/25 154/154/24 156/156/5 157/157/5 
f 157/157/5 156/156/5 17/17/5 6/6/5 
f 63/63/5 62/62/5 46/46/5 45/45/5 
f 86/86/5 85/85/5 64/64/5 63/63/5 
f 62/62/5 61/61/5 68/68/5 67/67/5 
f 66/66/5 65/65/5 158/158/5 159/159/5 
f 159/159/5 158/158/5 72/72/5 71/71/5 
f 71/71/5 70/70/5 25/25/5 24/24/5 
f 70/70/5 69/69/5 76/76/5 75/75/5 
f 74/74/5 73/73/5 160/160/5 161/161/5 
f 161/161/5 160/160/5 77/77/5 27/27/5 
f 78/78/5 77/77/5 127/127/5 126/126/5 
f 28/28/5 78/78/5 162/162/5 163/163/5 
f 163/163/5 162/162/5 164/164/5 165/165/5 
f 82/82/5 81/81/5 143/143/22 142/142/21 
f 165/165/5 164/164/5 81/81/5 80/80/5 
f 79/79/5 82/82/5 6/6/5 5/5/5 
f 85/85/5 84/84/5 166/166/5 167/167/5 
f 167/167/5 166/166/5 90/90/5 89/89/5 
f 88/88/5 87/87/5 94/94/5 93/93/5 
f 92/92/5 91/91/5 168/168/5 169/169/5 
s 1
f 1/1/1 133/133/6 132/132/6 31/31/6 
s 2
f 46/46/5 67/67/5 66/66/5 41/41/5 
# 100 polygons - 5 triangles

