# 3ds Max Wavefront OBJ Exporter v0.97b - (c)2007 guruware
# File Created: 23.05.2019 11:36:46

mtllib Parasol.mtl

#
# object Parasol
#

v  0.0843 -0.0060 -0.0049
v  -0.0186 0.0030 -0.0646
v  0.2329 2.7052 -0.0386
v  0.2909 2.7002 -0.0049
v  -0.0186 0.0030 0.0547
v  0.2329 2.7052 0.0287
v  0.2414 3.0500 0.0059
v  0.2459 3.0504 -0.0049
v  0.2414 3.0500 -0.0158
v  0.2306 3.0491 -0.0203
v  0.2198 3.0482 -0.0158
v  0.2154 3.0478 -0.0049
v  0.2198 3.0482 0.0059
v  0.2306 3.0491 0.0104
v  1.5377 2.0250 -0.0049
v  1.3176 2.0455 -0.4110
v  1.2625 2.1336 -0.3917
v  1.4713 2.1247 -0.0049
v  1.1838 1.9940 -0.8625
v  0.7263 1.9937 -1.0022
v  0.6993 2.0843 -0.9549
v  1.1342 2.0952 -0.8219
v  0.3295 1.9193 -1.2178
v  -0.0982 1.9216 -0.9924
v  -0.0862 2.0156 -0.9457
v  0.3203 2.0240 -1.1603
v  -0.5248 1.8445 -0.8625
v  -0.6643 1.8721 -0.4152
v  -0.6255 1.9684 -0.3958
v  -0.4936 1.9528 -0.8219
v  -0.8787 1.8136 -0.0049
v  -0.6651 1.8720 0.4033
v  -0.6263 1.9683 0.3839
v  -0.8307 1.9233 -0.0049
v  -0.5248 1.8445 0.8527
v  -0.0874 1.9225 0.9870
v  -0.0759 2.0165 0.9400
v  -0.4935 1.9528 0.8120
v  0.3295 1.9193 1.2079
v  0.6994 1.9914 1.0035
v  0.6736 2.0821 0.9557
v  0.3203 2.0240 1.1504
v  1.1838 1.9940 0.8527
v  1.3237 2.0460 0.3861
v  1.2684 2.1341 0.3676
v  1.1342 2.0952 0.8120
v  0.2922 2.7700 -0.0049
v  0.2814 2.7691 -0.0311
v  0.2553 2.7668 -0.0419
v  0.2293 2.7645 -0.0311
v  0.2185 2.7636 -0.0049
v  0.2293 2.7645 0.0212
v  0.2553 2.7668 0.0320
v  0.2814 2.7691 0.0212
v  1.0123 2.2171 -0.7111
v  0.5297 2.4006 -0.2464
v  0.5802 2.4050 -0.1241
v  1.1242 2.2382 -0.3393
v  0.3088 2.1555 -1.0036
v  0.2892 2.3796 -0.3463
v  0.4067 2.3899 -0.2975
v  0.6374 2.1956 -0.8261
v  -0.3947 2.0940 -0.7111
v  0.0487 2.3585 -0.2464
v  0.1648 2.3687 -0.2946
v  -0.0416 2.1362 -0.8181
v  -0.6861 2.0685 -0.0049
v  -0.0509 2.3498 -0.0049
v  -0.0012 2.3542 -0.1253
v  -0.5077 2.0955 -0.3428
v  -0.3947 2.0940 0.7012
v  0.0487 2.3585 0.2365
v  -0.0015 2.3541 0.1148
v  -0.5084 2.0954 0.3312
v  0.3088 2.1555 0.9937
v  0.2892 2.3796 0.3365
v  0.1680 2.3690 0.2861
v  -0.0327 2.1370 0.8119
v  1.0123 2.2171 0.7012
v  0.5297 2.4006 0.2365
v  0.3988 2.3892 0.2909
v  0.6152 2.1937 0.8254
v  1.3037 2.2426 -0.0049
v  0.6293 2.4093 -0.0049
v  0.5820 2.4052 0.1098
v  1.1293 2.2387 0.3171
v  0.3168 2.5741 -0.1152
v  0.3822 2.5798 -0.0499
v  0.2256 2.5661 -0.1142
v  0.1630 2.5606 -0.0503
v  0.1629 2.5606 0.0402
v  0.2268 2.5662 0.1048
v  0.3139 2.5738 0.1066
v  0.3829 2.5798 0.0383
v  1.0810 2.1721 -0.7756
v  1.2027 2.2002 -0.3698
v  0.3132 2.1049 -1.0948
v  0.6714 2.1537 -0.9011
v  -0.4545 2.0378 -0.7756
v  -0.0695 2.0889 -0.8923
v  -0.7725 2.0099 -0.0049
v  -0.5782 2.0444 -0.3736
v  -0.4545 2.0378 0.7657
v  -0.5790 2.0443 0.3619
v  0.3132 2.1049 1.0849
v  -0.0599 2.0897 0.8864
v  1.0810 2.1721 0.7657
v  0.6472 2.1516 0.9012
v  1.3990 2.1999 -0.0049
v  1.2082 2.2007 0.3465
# 110 vertices

vn 0.9971 -0.0761 -0.0000
vn -0.4971 0.0546 -0.8660
vn -0.4971 0.0546 0.8660
vn 0.4726 0.7025 0.5321
vn 0.6922 0.7217 0.0000
vn 0.4726 0.7025 -0.5321
vn -0.0574 0.6561 -0.7525
vn -0.5874 0.6098 -0.5320
vn -0.8070 0.5906 -0.0000
vn -0.5874 0.6098 0.5320
vn -0.0574 0.6561 0.7525
vn 0.8324 0.5541 0.0002
vn 0.7642 0.5506 -0.3359
vn 0.7111 0.6277 -0.3167
vn 0.7906 0.6123 0.0011
vn 0.5765 0.5318 -0.6204
vn 0.2932 0.5094 -0.8091
vn 0.2669 0.5888 -0.7630
vn 0.5454 0.5911 -0.5942
vn -0.0413 0.4777 -0.8775
vn -0.3744 0.4510 -0.8102
vn -0.3627 0.5337 -0.7640
vn -0.0454 0.5394 -0.8408
vn -0.6597 0.4236 -0.6208
vn -0.8484 0.4095 -0.3355
vn -0.8095 0.4946 -0.3163
vn -0.6387 0.4874 -0.5954
vn -0.9160 0.4012 0.0000
vn -0.8483 0.4095 0.3357
vn -0.8094 0.4946 0.3165
vn -0.8848 0.4659 0.0001
vn -0.6598 0.4236 0.6207
vn -0.3756 0.4509 0.8097
vn -0.3637 0.5336 0.7635
vn -0.6391 0.4874 0.5950
vn -0.0410 0.4777 0.8775
vn 0.2964 0.5096 0.8078
vn 0.2696 0.5890 0.7618
vn -0.0441 0.5393 0.8410
vn 0.5766 0.5318 0.6203
vn 0.7635 0.5505 0.3377
vn 0.7105 0.6276 0.3182
vn 0.5457 0.5914 0.5937
vn 0.9396 0.3423 -0.0000
vn 0.6579 0.3171 -0.6831
vn -0.0226 0.2577 -0.9660
vn -0.7030 0.1984 -0.6830
vn -0.9848 0.1736 0.0000
vn -0.7030 0.1982 0.6830
vn -0.0226 0.2582 0.9658
vn 0.6581 0.3165 0.6832
vn 0.2244 0.9259 -0.3039
vn 0.2510 0.9102 -0.3294
vn 0.4195 0.8843 -0.2050
vn 0.3021 0.9400 -0.1588
vn -0.0779 0.8994 -0.4301
vn -0.0771 0.8815 -0.4659
vn 0.1306 0.8591 -0.4949
vn 0.0789 0.9204 -0.3828
vn -0.3813 0.8728 -0.3045
vn -0.4054 0.8527 -0.3295
vn -0.2778 0.8234 -0.4949
vn -0.2369 0.8928 -0.3830
vn -0.5071 0.8619 0.0001
vn -0.5413 0.8408 -0.0000
vn -0.5666 0.7981 -0.2050
vn -0.4607 0.8733 -0.1586
vn -0.3814 0.8729 0.3043
vn -0.8069 0.0998 -0.5822
vn -0.5253 -0.2617 0.8097
vn -0.5666 0.7981 0.2050
vn -0.4607 0.8733 0.1587
vn -0.0773 0.8994 0.4303
vn -0.0771 0.8814 0.4661
vn -0.2778 0.8234 0.4949
vn -0.2372 0.8928 0.3829
vn 0.2244 0.9260 0.3036
vn 0.2509 0.9103 0.3293
vn 0.1306 0.8591 0.4949
vn 0.0796 0.9205 0.3825
vn 0.3500 0.9368 0.0004
vn 0.3871 0.9220 -0.0000
vn 0.4195 0.8843 0.2050
vn 0.3020 0.9399 0.1591
vn 0.2376 0.6494 -0.7224
vn 0.6630 0.6853 -0.3014
vn -0.3593 0.5960 -0.7181
vn -0.7741 0.5593 -0.2966
vn -0.7735 0.5599 0.2970
vn -0.3601 0.5948 0.7187
vn 0.2306 0.6491 0.7249
vn 0.6633 0.6871 0.2964
vn 0.4142 0.7736 -0.4795
vn 0.5145 0.8225 -0.2424
vn -0.0626 0.7318 -0.6786
vn 0.1742 0.7927 -0.5842
vn -0.5414 0.6898 -0.4807
vn -0.3079 0.7505 -0.5848
vn -0.7401 0.6725 0.0001
vn -0.6497 0.7206 -0.2422
vn -0.5417 0.6899 0.4802
vn -0.6497 0.7206 0.2423
vn -0.0614 0.7316 0.6790
vn -0.3085 0.7505 0.5845
vn 0.4143 0.7740 0.4789
vn 0.1757 0.7929 0.5835
vn 0.6124 0.7906 0.0009
vn 0.5142 0.8225 0.2432
# 108 vertex normals

vt 0.4201 0.0136 -0.0000
vt 0.4312 0.0106 0.0000
vt 0.5103 0.3058 0.0000
vt 0.4992 0.3088 -0.0000
vt 0.4414 0.0079 -0.0000
vt 0.5204 0.3031 -0.0000
vt 0.4487 0.0059 -0.0000
vt 0.5278 0.3011 -0.0000
vt 0.6185 0.3282 -0.1168
vt 0.6205 0.3292 -0.1164
vt 0.6211 0.3314 -0.1166
vt 0.6201 0.3333 -0.1166
vt 0.6179 0.3340 -0.1166
vt 0.6160 0.3329 -0.1166
vt 0.6153 0.3308 -0.1166
vt 0.6164 0.3288 -0.1166
vt 0.7199 0.1548 0.0000
vt 0.6893 0.1871 0.0000
vt 0.6823 0.1807 0.0000
vt 0.7104 0.1513 0.0000
vt 0.6592 0.2213 0.0000
vt 0.6132 0.2226 0.0000
vt 0.6128 0.2131 0.0000
vt 0.6549 0.2121 0.0000
vt 0.5691 0.2254 0.0000
vt 0.5353 0.1935 0.0000
vt 0.5418 0.1865 0.0000
vt 0.5726 0.2159 0.0000
vt 0.5026 0.1645 0.0000
vt 0.5016 0.1193 0.0000
vt 0.5111 0.1189 0.0000
vt 0.5118 0.1602 0.0000
vt 0.4990 0.0745 0.0000
vt 0.5297 0.0420 0.0000
vt 0.5368 0.0484 0.0000
vt 0.5085 0.0780 0.0000
vt 0.5597 0.0080 0.0000
vt 0.6044 0.0067 0.0000
vt 0.6049 0.0161 0.0000
vt 0.5640 0.0171 0.0000
vt 0.6497 0.0037 0.0000
vt 0.6798 0.0323 0.0000
vt 0.6736 0.0395 0.0000
vt 0.6463 0.0132 0.0000
vt 0.7161 0.0648 0.0000
vt 0.7173 0.1118 0.0000
vt 0.7078 0.1121 0.0000
vt 0.7070 0.0691 0.0000
vt 0.5905 0.2790 -0.0679
vt 0.5949 0.2762 -0.0669
vt 0.6085 0.3284 -0.1150
vt 0.6066 0.3294 -0.1162
vt 0.6001 0.2739 -0.0660
vt 0.6102 0.3271 -0.1141
vt 0.6062 0.2724 -0.0656
vt 0.6119 0.3262 -0.1138
vt 0.6127 0.2718 -0.0662
vt 0.6135 0.3259 -0.1144
vt 0.6192 0.2722 -0.0676
vt 0.6151 0.3261 -0.1157
vt 0.6254 0.2735 -0.0688
vt 0.6168 0.3269 -0.1168
vt 0.6307 0.2756 -0.0688
vt 0.6350 0.2785 -0.0679
vt 0.6483 0.1977 0.0000
vt 0.6218 0.1422 0.0000
vt 0.6296 0.1334 0.0000
vt 0.6703 0.1697 0.0000
vt 0.5780 0.2012 0.0000
vt 0.5988 0.1433 0.0000
vt 0.6099 0.1426 0.0000
vt 0.6123 0.1970 0.0000
vt 0.5261 0.1534 0.0000
vt 0.5819 0.1280 0.0000
vt 0.5902 0.1353 0.0000
vt 0.5527 0.1748 0.0000
vt 0.5236 0.0834 0.0000
vt 0.5815 0.1044 0.0000
vt 0.5817 0.1163 0.0000
vt 0.5273 0.1181 0.0000
vt 0.5706 0.0315 0.0000
vt 0.5973 0.0872 0.0000
vt 0.5974 0.0870 0.0000
vt 0.5895 0.0958 0.0000
vt 0.5487 0.0594 0.0000
vt 0.6409 0.0280 0.0000
vt 0.6201 0.0858 0.0000
vt 0.6087 0.0866 0.0000
vt 0.6056 0.0323 0.0000
vt 0.6927 0.0759 0.0000
vt 0.6368 0.1014 0.0000
vt 0.6276 0.0929 0.0000
vt 0.6631 0.0517 0.0000
vt 0.6953 0.1458 0.0000
vt 0.6375 0.1248 0.0000
vt 0.6371 0.1136 0.0000
vt 0.6916 0.1127 0.0000
vt 0.5745 0.2414 0.1157
vt 0.5615 0.2521 0.1154
vt 0.5892 0.2348 0.1164
vt 0.6042 0.2316 0.1170
vt 0.6196 0.2313 0.1159
vt 0.6349 0.2340 0.1139
vt 0.6492 0.2397 0.1133
vt 0.6635 0.2503 0.1144
vt 0.6728 0.2640 0.1154
vt 0.6092 0.1190 0.0000
vt 0.6122 0.1174 0.0000
vt 0.6064 0.1181 0.0000
vt 0.6052 0.1158 0.0000
vt 0.6065 0.1120 0.0000
vt 0.6102 0.1102 0.0000
vt 0.6122 0.1110 0.0000
vt 0.6135 0.1143 0.0000
vt 0.6516 0.2049 0.0000
vt 0.6762 0.1751 0.0000
vt 0.5753 0.2085 0.0000
vt 0.6125 0.2050 0.0000
vt 0.5190 0.1568 0.0000
vt 0.5473 0.1806 0.0000
vt 0.5161 0.0807 0.0000
vt 0.5193 0.1186 0.0000
vt 0.5673 0.0244 0.0000
vt 0.5428 0.0539 0.0000
vt 0.6436 0.0207 0.0000
vt 0.6052 0.0243 0.0000
vt 0.6998 0.0725 0.0000
vt 0.6682 0.0456 0.0000
vt 0.7028 0.1486 0.0000
vt 0.6996 0.1124 0.0000
# 130 texture coords

o Parasol
g Parasol
usemtl wire_057008136
s 1
f 1/1/1 2/2/2 3/3/2 4/4/1 
s 2
f 2/2/2 5/5/3 6/6/3 3/3/2 
s 4
f 5/5/3 1/7/1 4/8/1 6/6/3 
s 1
f 7/9/4 8/10/5 9/11/6 10/12/7 11/13/8 12/14/9 13/15/10 14/16/11 
s 2
f 15/17/12 16/18/13 17/19/14 18/20/15 
f 19/21/16 20/22/17 21/23/18 22/24/19 
f 23/25/20 24/26/21 25/27/22 26/28/23 
f 27/29/24 28/30/25 29/31/26 30/32/27 
f 31/33/28 32/34/29 33/35/30 34/36/31 
f 35/37/32 36/38/33 37/39/34 38/40/35 
f 39/41/36 40/42/37 41/43/38 42/44/39 
f 43/45/40 44/46/41 45/47/42 46/48/43 
f 47/49/44 48/50/45 9/51/6 8/52/5 
f 48/50/45 49/53/46 10/54/7 9/51/6 
f 49/53/46 50/55/47 11/56/8 10/54/7 
f 50/55/47 51/57/48 12/58/9 11/56/8 
f 51/57/48 52/59/49 13/60/10 12/58/9 
f 52/59/49 53/61/50 14/62/11 13/60/10 
f 53/61/50 54/63/51 7/9/4 14/62/11 
f 54/63/51 47/64/44 8/10/5 7/9/4 
f 55/65/52 56/66/53 57/67/54 58/68/55 
f 59/69/56 60/70/57 61/71/58 62/72/59 
f 63/73/60 64/74/61 65/75/62 66/76/63 
f 67/77/64 68/78/65 69/79/66 70/80/67 
f 71/81/68 72/82/69 72/83/70 73/84/71 74/85/72 
f 75/86/73 76/87/74 77/88/75 78/89/76 
f 79/90/77 80/91/78 81/92/79 82/93/80 
f 83/94/81 84/95/82 85/96/83 86/97/84 
f 87/98/85 48/50/45 88/99/86 
f 89/100/87 49/53/46 87/98/85 
f 90/101/88 50/55/47 89/100/87 
f 91/102/89 51/57/48 90/101/88 
f 92/103/90 52/59/49 91/102/89 
f 93/104/91 53/61/50 92/103/90 
f 94/105/92 54/63/51 93/104/91 
f 88/106/86 47/64/44 94/105/92 
f 56/66/53 87/107/85 88/108/86 
f 60/70/57 89/109/87 87/107/85 
f 64/74/61 90/110/88 89/109/87 
f 68/78/65 91/111/89 90/110/88 
f 72/82/69 92/112/90 91/111/89 72/83/70 
f 76/87/74 93/113/91 92/112/90 
f 80/91/78 94/114/92 93/113/91 
f 84/95/82 88/108/86 94/114/92 
f 22/24/19 95/115/93 96/116/94 17/19/14 
f 26/28/23 97/117/95 98/118/96 21/23/18 
f 30/32/27 99/119/97 100/120/98 25/27/22 
f 34/36/31 101/121/99 102/122/100 29/31/26 
f 38/40/35 103/123/101 104/124/102 33/35/30 
f 42/44/39 105/125/103 106/126/104 37/39/34 
f 46/48/43 107/127/105 108/128/106 41/43/38 
f 18/20/15 109/129/107 110/130/108 45/47/42 
f 95/115/93 55/65/52 58/68/55 96/116/94 
f 97/117/95 59/69/56 62/72/59 98/118/96 
f 99/119/97 63/73/60 66/76/63 100/120/98 
f 101/121/99 67/77/64 70/80/67 102/122/100 
f 103/123/101 71/81/68 74/85/72 104/124/102 
f 105/125/103 75/86/73 78/89/76 106/126/104 
f 107/127/105 79/90/77 82/93/80 108/128/106 
f 109/129/107 83/94/81 86/97/84 110/130/108 
f 32/34/29 35/37/32 38/40/35 33/35/30 
f 73/84/71 68/78/65 67/77/64 74/85/72 
f 104/124/102 101/121/99 34/36/31 33/35/30 
f 74/85/72 67/77/64 101/121/99 104/124/102 
f 36/38/33 39/41/36 42/44/39 37/39/34 
f 77/88/75 72/82/69 71/81/68 78/89/76 
f 106/126/104 103/123/101 38/40/35 37/39/34 
f 78/89/76 71/81/68 103/123/101 106/126/104 
f 40/42/37 43/45/40 46/48/43 41/43/38 
f 81/92/79 76/87/74 75/86/73 82/93/80 
f 108/128/106 105/125/103 42/44/39 41/43/38 
f 82/93/80 75/86/73 105/125/103 108/128/106 
f 44/46/41 15/17/12 18/20/15 45/47/42 
f 85/96/83 80/91/78 79/90/77 86/97/84 
f 110/130/108 107/127/105 46/48/43 45/47/42 
f 86/97/84 79/90/77 107/127/105 110/130/108 
f 16/18/13 19/21/16 22/24/19 17/19/14 
f 57/67/54 84/95/82 83/94/81 58/68/55 
f 96/116/94 109/129/107 18/20/15 17/19/14 
f 58/68/55 83/94/81 109/129/107 96/116/94 
f 20/22/17 23/25/20 26/28/23 21/23/18 
f 61/71/58 56/66/53 55/65/52 62/72/59 
f 98/118/96 95/115/93 22/24/19 21/23/18 
f 62/72/59 55/65/52 95/115/93 98/118/96 
f 24/26/21 27/29/24 30/32/27 25/27/22 
f 65/75/62 60/70/57 59/69/56 66/76/63 
f 100/120/98 97/117/95 26/28/23 25/27/22 
f 66/76/63 59/69/56 97/117/95 100/120/98 
f 28/30/25 31/33/28 34/36/31 29/31/26 
f 69/79/66 64/74/61 63/73/60 70/80/67 
f 102/122/100 99/119/97 30/32/27 29/31/26 
f 70/80/67 63/73/60 99/119/97 102/122/100 
f 72/82/69 77/88/75 92/112/90 
f 92/112/90 77/88/75 76/87/74 
f 76/87/74 81/92/79 93/113/91 
f 93/113/91 81/92/79 80/91/78 
f 80/91/78 85/96/83 94/114/92 
f 94/114/92 85/96/83 84/95/82 
f 84/95/82 57/67/54 88/108/86 
f 88/108/86 57/67/54 56/66/53 
f 56/66/53 61/71/58 87/107/85 
f 87/107/85 61/71/58 60/70/57 
f 60/70/57 65/75/62 89/109/87 
f 89/109/87 65/75/62 64/74/61 
f 64/74/61 69/79/66 90/110/88 
f 90/110/88 69/79/66 68/78/65 
f 68/78/65 73/84/71 91/111/89 
f 91/111/89 73/84/71 72/83/70 
f 52/59/49 51/57/48 91/102/89 
f 51/57/48 50/55/47 90/101/88 
f 50/55/47 49/53/46 89/100/87 
f 49/53/46 48/50/45 87/98/85 
f 48/50/45 47/49/44 88/99/86 
f 47/64/44 54/63/51 94/105/92 
f 54/63/51 53/61/50 93/104/91 
f 53/61/50 52/59/49 92/103/90 
# 77 polygons - 39 triangles

