# 3ds Max Wavefront OBJ Exporter v0.97b - (c)2007 guruware
# File Created: 23.05.2019 11:06:37

mtllib PortPonton2.mtl

#
# object Ponton_2
#

v  0.1257 0.1928 -2.4441
v  -1.5593 0.1928 -2.2591
v  -1.4485 0.1928 2.2486
v  0.2375 0.1928 2.1028
v  0.1257 -0.0000 -2.4441
v  -1.5593 0.0000 -2.2591
v  -16.3704 0.0000 -1.5566
v  -16.3246 0.0000 1.8081
v  -16.3246 0.1928 1.8081
v  -16.3704 0.1928 -1.5566
v  -14.9744 0.0000 1.8129
v  -14.9744 0.1928 1.8129
v  -1.4485 0.0000 2.2486
v  0.2375 -0.0000 2.1028
v  -6.5581 0.1928 -2.1296
v  -7.5668 0.1928 -2.0606
v  -7.7353 0.1928 2.0178
v  -6.7283 0.1928 1.9910
v  -6.5581 0.0000 -2.1296
v  -7.5668 -0.0000 -2.0606
v  -7.7353 -0.0000 2.0178
v  -6.7283 0.0000 1.9910
v  -9.2695 0.1928 -1.7707
v  -10.6349 0.1928 -1.9050
v  -10.4166 0.1928 1.8583
v  -9.1981 0.1928 2.1494
v  -9.2695 0.0000 -1.7707
v  -10.6349 0.0000 -1.9050
v  -10.4166 0.0000 1.8583
v  -9.1981 0.0000 2.1494
v  -15.0208 0.1928 -1.5982
v  -15.0208 0.0000 -1.5982
v  -9.2088 0.0000 1.5631
v  -9.2593 0.0000 -1.2123
v  -6.7028 0.0000 1.3747
v  -6.5823 0.0000 -1.5426
v  -7.5908 -0.0000 -1.4797
v  -7.7101 -0.0000 1.4078
v  -10.6110 0.0000 -1.5036
v  -9.0892 0.0000 -1.9341
v  -9.0364 0.0000 1.9357
v  -9.0364 0.1928 1.9357
v  -9.0892 0.1928 -1.9341
v  -7.6862 0.0000 1.9440
v  -7.6862 0.1928 1.9440
v  -7.7396 0.1928 -1.9791
v  -7.7396 0.0000 -1.9791
v  -3.1346 0.1928 -2.1763
v  -4.1434 0.1928 -2.1073
v  -4.3118 0.1928 1.9711
v  -3.3048 0.1928 1.9444
v  -3.1346 0.0000 -2.1763
v  -4.1434 -0.0000 -2.1073
v  -4.3118 -0.0000 1.9711
v  -3.3048 0.0000 1.9444
v  -3.2794 0.0000 1.3280
v  -3.1589 0.0000 -1.5893
v  -4.1674 -0.0000 -1.5263
v  -4.2866 -0.0000 1.3611
v  -10.9743 0.1928 -1.9702
v  -11.9473 0.1928 -1.9022
v  -11.4049 0.1928 2.1436
v  -10.4179 0.1928 1.9423
v  -10.9743 0.0000 -1.9702
v  -11.9473 -0.0000 -1.9022
v  -11.4049 -0.0000 2.1436
v  -10.4179 0.0000 1.9423
v  -10.4999 0.0000 1.3309
v  -11.8700 -0.0000 -1.3258
v  -11.4860 -0.0000 1.5384
v  -13.3072 0.0000 -1.5331
v  -12.9683 0.0000 1.8148
v  -12.9683 0.1928 1.8148
v  -13.3072 0.1928 -1.5331
v  -11.6228 0.0000 1.7019
v  -11.6228 0.1928 1.7019
v  -11.9664 0.1928 -1.6921
v  -11.9664 0.0000 -1.6921
v  -13.3224 0.1928 -1.5821
v  -14.9615 0.1928 -1.4446
v  -14.8698 0.1928 1.7583
v  -13.2299 0.1928 1.6487
v  -13.3224 0.0000 -1.5821
v  -14.9615 0.0000 -1.4446
v  -14.8698 0.0000 1.7583
v  -13.2299 0.0000 1.6487
v  -3.0264 0.0000 -2.2477
v  -2.9674 0.0000 2.0840
v  -2.9674 0.1928 2.0840
v  -3.0264 0.1928 -2.2477
v  -1.6171 0.0000 2.0955
v  -1.6171 0.1928 2.0955
v  -1.6769 0.1928 -2.2959
v  -1.6769 0.0000 -2.2959
v  -5.6037 -0.0858 -2.0104
v  -5.7474 -0.0401 1.8568
v  -5.7654 0.1518 1.8539
v  -5.6217 0.1061 -2.0133
v  -4.4052 0.0871 1.9319
v  -4.4233 0.2791 1.9290
v  -4.2776 0.2328 -1.9916
v  -4.2596 0.0408 -1.9886
v  -6.7274 0.1928 2.0203
v  -5.7187 0.1928 1.9513
v  -5.5502 0.1928 -2.1271
v  -6.5572 0.1928 -2.1004
v  -6.7274 0.0000 2.0203
v  -5.7187 -0.0000 1.9513
v  -5.5502 -0.0000 -2.1271
v  -6.5572 0.0000 -2.1004
v  -6.5827 0.0000 -1.4840
v  -6.7031 0.0000 1.4333
v  -5.6947 -0.0000 1.3703
v  -5.5754 -0.0000 -1.5171
v  -0.1996 0.7241 -2.0945
v  0.1362 0.7041 -2.0985
v  0.2996 0.6772 -2.3913
v  0.1273 0.6705 -2.6801
v  -0.2085 0.6906 -2.6761
v  -0.3719 0.7174 -2.3833
v  -0.6103 -7.0445 -2.1294
v  -0.7212 -7.0263 -1.9308
v  -0.6042 -7.0217 -1.7349
v  -0.3765 -7.0353 -1.7376
v  -0.2656 -7.0535 -1.9362
v  -0.3825 -7.0581 -2.1321
v  -0.1159 0.6947 2.6468
v  0.2194 0.6684 2.6416
v  0.3836 0.6700 2.3480
v  0.2126 0.6980 2.0597
v  -0.1227 0.7243 2.0649
v  -0.2870 0.7226 2.3585
v  -0.6804 -7.0148 1.7716
v  -0.7918 -7.0159 1.9707
v  -0.6758 -7.0349 2.1663
v  -0.4483 -7.0527 2.1627
v  -0.3369 -7.0516 1.9636
v  -0.4529 -7.0327 1.7680
v  -8.3048 0.6341 2.6784
v  -7.9684 0.6341 2.6738
v  -7.8042 0.6847 2.3847
v  -7.9763 0.7353 2.1001
v  -8.3126 0.7353 2.1047
v  -8.4769 0.6847 2.3939
v  -8.2756 -6.9270 0.8481
v  -8.3871 -6.9613 1.0443
v  -8.2703 -6.9956 1.2374
v  -8.0422 -6.9956 1.2343
v  -7.9307 -6.9613 1.0381
v  -8.0475 -6.9270 0.8450
v  -8.4598 0.7036 -1.8823
v  -8.1247 0.7329 -1.8894
v  -7.9612 0.7221 -2.1831
v  -8.1326 0.6821 -2.4697
v  -8.4677 0.6529 -2.4626
v  -8.6312 0.6637 -2.1689
v  -7.7267 -7.0393 -1.7056
v  -7.8377 -7.0319 -1.5064
v  -7.7214 -7.0048 -1.3119
v  -7.4941 -6.9850 -1.3167
v  -7.3831 -6.9923 -1.5160
v  -7.4994 -7.0194 -1.7105
v  -15.6075 0.7241 -1.5101
v  -15.2717 0.7041 -1.5141
v  -15.1083 0.6772 -1.8069
v  -15.2807 0.6705 -2.0957
v  -15.6164 0.6906 -2.0917
v  -15.7798 0.7174 -1.7989
v  -16.0182 -7.0445 -1.5450
v  -16.1291 -7.0263 -1.3464
v  -16.0122 -7.0217 -1.1505
v  -15.7844 -7.0353 -1.1532
v  -15.6735 -7.0535 -1.3518
v  -15.7905 -7.0581 -1.5477
v  -15.5372 0.6947 2.2561
v  -15.2018 0.6684 2.2508
v  -15.0376 0.6700 1.9573
v  -15.2086 0.6980 1.6690
v  -15.5439 0.7243 1.6742
v  -15.7082 0.7226 1.9677
v  -16.1016 -7.0148 1.3808
v  -16.2130 -7.0159 1.5800
v  -16.0970 -7.0349 1.7755
v  -15.8695 -7.0527 1.7720
v  -15.7581 -7.0516 1.5728
v  -15.8741 -7.0327 1.3773
v  0.2820 0.0319 -2.1664
v  -16.4559 0.0319 -1.4889
v  -16.4496 0.0319 -1.0285
v  0.2947 0.0319 -1.2350
v  0.2820 -0.2148 -2.1664
v  -16.4559 -0.2148 -1.4889
v  -16.4496 -0.2148 -1.0285
v  0.2947 -0.2148 -1.2350
v  0.3401 0.0319 2.0977
v  0.3285 0.0319 1.2486
v  -16.4192 0.0319 1.2031
v  -16.4129 0.0319 1.6634
v  0.3401 -0.2148 2.0977
v  -16.4129 -0.2148 1.6634
v  -16.4192 -0.2148 1.2031
v  0.3285 -0.2148 1.2486
# 202 vertices

vn 0.5394 0.5730 -0.6171
vn -0.6123 0.5820 -0.5352
vn -0.5460 0.5742 0.6101
vn 0.6067 0.5807 0.5429
vn 0.6583 0.0000 -0.7528
vn -0.7528 0.0000 -0.6583
vn -0.7226 0.0000 -0.6912
vn -0.7035 0.0000 0.7107
vn -0.5740 0.5783 0.5798
vn -0.5896 0.5783 -0.5639
vn 0.7107 0.0000 0.7035
vn 0.5807 0.5765 0.5749
vn -0.6669 0.0000 0.7452
vn 0.7452 0.0000 0.6669
vn 0.5723 0.5718 -0.5878
vn -0.5820 0.5833 -0.5666
vn -0.5833 0.5739 0.5748
vn 0.5713 0.5810 0.5797
vn 0.6974 0.0000 -0.7167
vn -0.7167 0.0000 -0.6974
vn -0.7123 -0.0000 0.7019
vn 0.7019 0.0000 0.7123
vn 0.5965 0.5838 -0.5508
vn -0.5694 0.5696 -0.5927
vn -0.6166 0.5943 0.5163
vn 0.5168 0.5653 0.6429
vn 0.7347 0.0000 -0.6784
vn -0.6934 0.0000 -0.7206
vn -0.7668 0.0000 0.6419
vn 0.6266 0.0000 0.7793
vn 0.5648 0.5765 -0.5905
vn 0.6912 0.0000 -0.7226
vn 0.0000 1.0000 -0.0000
vn 0.9998 0.0000 -0.0182
vn 0.9991 0.0000 0.0413
vn -0.0054 1.0000 -0.0002
vn -0.9991 0.0000 -0.0413
vn 0.0000 -1.0000 -0.0000
vn -0.7236 0.0000 -0.6902
vn -0.7045 0.0000 0.7097
vn -0.5747 0.5784 0.5790
vn -0.5903 0.5784 -0.5630
vn 0.7097 0.0000 0.7045
vn 0.5800 0.5763 0.5757
vn 0.5642 0.5764 -0.5912
vn 0.6904 0.0000 -0.7235
vn -0.5833 0.5738 0.5749
vn 0.5713 0.5810 0.5796
vn 0.6975 0.0000 -0.7166
vn -0.7124 0.0000 0.7018
vn 0.7017 0.0000 0.7124
vn 0.5116 0.5812 -0.6328
vn -0.6347 0.5741 -0.5173
vn -0.4746 0.5739 0.6674
vn 0.6654 0.5806 0.4692
vn 0.6281 0.0000 -0.7781
vn -0.7752 0.0000 -0.6317
vn -0.5796 0.0000 0.8149
vn 0.8149 0.0000 0.5796
vn -0.0000 1.0000 0.0000
vn -0.0026 1.0000 0.0003
vn -0.0014 1.0000 0.0002
vn -0.7801 0.0000 -0.6257
vn -0.6388 0.0000 0.7693
vn -0.5212 0.5783 0.6276
vn -0.6364 0.5783 -0.5105
vn 0.7693 0.0000 0.6389
vn 0.6286 0.5765 0.5221
vn 0.5112 0.5765 -0.6375
vn 0.6256 0.0000 -0.7801
vn 0.5454 0.5745 -0.6103
vn -0.6073 0.5803 -0.5426
vn -0.5501 0.5754 0.6052
vn 0.6031 0.5794 0.5482
vn 0.6663 0.0000 -0.7457
vn -0.7457 0.0000 -0.6663
vn -0.6726 0.0000 0.7400
vn 0.7400 0.0000 0.6726
vn -0.7243 0.0000 -0.6894
vn -0.7054 0.0000 0.7088
vn -0.5753 0.5786 0.5782
vn -0.5908 0.5785 -0.5624
vn 0.7090 0.0000 0.7052
vn 0.5795 0.5762 0.5764
vn 0.5635 0.5762 -0.5920
vn 0.6894 0.0000 -0.7243
vn -0.6845 -0.0754 -0.7251
vn -0.7364 -0.0589 0.6740
vn -0.6548 0.5278 0.5410
vn -0.6124 0.5143 -0.6004
vn 0.6701 0.0743 0.7385
vn 0.4936 0.6344 0.5949
vn 0.5368 0.6206 -0.5715
vn 0.7232 0.0574 -0.6883
vn -0.5723 0.5718 0.5878
vn 0.5820 0.5833 0.5666
vn 0.5833 0.5739 -0.5748
vn -0.5713 0.5810 -0.5797
vn -0.6974 0.0000 0.7167
vn 0.7167 0.0000 0.6974
vn 0.7123 -0.0000 -0.7019
vn -0.7019 0.0000 -0.7123
vn 0.0050 1.0000 0.0002
vn 0.9991 -0.0000 0.0413
vn -0.3513 0.6662 0.6579
vn 0.4437 0.6187 0.6484
vn 0.8306 0.5551 -0.0448
vn 0.4225 0.5392 -0.7286
vn -0.3724 0.5867 -0.7191
vn -0.7593 0.6502 -0.0259
vn -0.5131 -0.0340 -0.8576
vn -0.9989 0.0458 0.0127
vn -0.4866 0.0659 0.8712
vn 0.5115 0.0062 0.8593
vn 0.9972 -0.0736 -0.0111
vn 0.4849 -0.0936 -0.8695
vn -0.3412 0.5982 0.7251
vn 0.4527 0.5359 0.7126
vn 0.8416 0.5398 0.0177
vn 0.4366 0.6060 -0.6649
vn -0.3572 0.6683 -0.6525
vn -0.7462 0.6644 0.0425
vn -0.5095 0.0692 -0.8577
vn -0.9978 0.0643 0.0149
vn -0.4894 -0.0188 0.8719
vn 0.5073 -0.0970 0.8563
vn 0.9956 -0.0921 -0.0163
vn 0.4872 -0.0090 -0.8732
vn -0.3875 0.4758 0.7896
vn 0.4089 0.4758 0.7788
vn 0.7978 0.5956 0.0942
vn 0.3903 0.7153 -0.5796
vn -0.4060 0.7153 -0.5687
vn -0.7949 0.5956 0.1159
vn -0.5116 0.1366 -0.8483
vn -0.9998 -0.0137 0.0112
vn -0.4883 -0.1641 0.8571
vn 0.5115 -0.1641 0.8435
vn 0.9998 -0.0137 -0.0160
vn 0.4883 0.1366 -0.8619
vn -0.4407 0.6257 0.6437
vn 0.3526 0.6948 0.6268
vn 0.7398 0.6693 -0.0686
vn 0.3338 0.5746 -0.7472
vn -0.4594 0.5055 -0.7304
vn -0.8466 0.5310 -0.0349
vn -0.5085 -0.1327 -0.8508
vn -0.9947 -0.1006 0.0224
vn -0.4850 0.0182 0.8743
vn 0.5109 0.1051 0.8532
vn 0.9971 0.0730 -0.0200
vn 0.4874 -0.0459 -0.8720
vn 0.4367 0.6060 -0.6649
vn -0.7461 0.6644 0.0425
vn 0.5623 0.5760 -0.5934
vn -0.5920 0.5789 -0.5608
vn -0.5697 0.5775 0.5848
vn 0.5848 0.5773 0.5698
vn 0.6878 0.0000 -0.7259
vn -0.7260 0.0000 -0.6877
vn -0.6978 0.0000 0.7163
vn 0.7162 0.0000 0.6979
vn 0.5748 0.5753 0.5819
vn 0.5738 0.5782 -0.5801
vn -0.5808 0.5765 -0.5747
vn -0.5797 0.5795 0.5728
vn 0.7027 0.0000 0.7114
vn -0.7114 0.0000 0.7028
vn -0.7109 0.0000 -0.7033
vn 0.7032 0.0000 -0.7110
# 170 vertex normals

vt 0.9803 0.4279 0.0000
vt 0.9748 0.5134 0.0000
vt 0.8013 0.5122 0.0000
vt 0.8053 0.4266 0.0000
vt 0.9873 0.4224 0.0000
vt 0.9817 0.5196 0.0000
vt 0.7764 0.9702 0.0000
vt 0.6342 0.9712 0.0000
vt 0.6411 0.9653 0.0000
vt 0.7694 0.9643 0.0000
vt 0.6327 0.8919 0.0000
vt 0.6397 0.8977 0.0000
vt 0.7943 0.5178 0.0000
vt 0.7984 0.4206 0.0000
vt 0.9713 0.8286 0.0000
vt 0.9685 0.8782 0.0000
vt 0.8120 0.8891 0.0000
vt 0.8131 0.8396 0.0000
vt 0.9776 0.8230 0.0000
vt 0.9761 0.8843 0.0000
vt 0.8056 0.8948 0.0000
vt 0.8056 0.8337 0.0000
vt 0.7821 0.5635 0.0000
vt 0.7884 0.6318 0.0000
vt 0.6441 0.6242 0.0000
vt 0.6319 0.5637 0.0000
vt 0.7891 0.5572 0.0000
vt 0.7949 0.6371 0.0000
vt 0.6367 0.6312 0.0000
vt 0.6251 0.5590 0.0000
vt 0.7698 0.8967 0.0000
vt 0.7767 0.8909 0.0000
vt 0.6527 0.5544 0.0000
vt 0.7624 0.5537 0.0000
vt 0.8342 0.8282 0.0000
vt 0.9495 0.8206 0.0000
vt 0.9488 0.8896 0.0000
vt 0.8347 0.8971 0.0000
vt 0.7741 0.6405 0.0000
vt 0.9703 0.9736 0.0000
vt 0.8082 0.9749 0.0000
vt 0.8151 0.9689 0.0000
vt 0.9633 0.9678 0.0000
vt 0.8065 0.8956 0.0000
vt 0.8135 0.9013 0.0000
vt 0.9639 0.9001 0.0000
vt 0.9708 0.8943 0.0000
vt 0.9714 0.6032 0.0000
vt 0.9686 0.6528 0.0000
vt 0.8121 0.6637 0.0000
vt 0.8132 0.6142 0.0000
vt 0.9777 0.5977 0.0000
vt 0.9761 0.6589 0.0000
vt 0.8057 0.6694 0.0000
vt 0.8057 0.6083 0.0000
vt 0.8343 0.6028 0.0000
vt 0.9496 0.5952 0.0000
vt 0.9489 0.6642 0.0000
vt 0.8348 0.6717 0.0000
vt 0.7848 0.6615 0.0000
vt 0.7844 0.7093 0.0000
vt 0.6282 0.6873 0.0000
vt 0.6338 0.6386 0.0000
vt 0.7930 0.6557 0.0000
vt 0.7901 0.7150 0.0000
vt 0.6201 0.6926 0.0000
vt 0.6281 0.6324 0.0000
vt 0.6578 0.6325 0.0000
vt 0.7619 0.7156 0.0000
vt 0.6480 0.7001 0.0000
vt 0.7753 0.7950 0.0000
vt 0.6334 0.7804 0.0000
vt 0.6413 0.7748 0.0000
vt 0.7693 0.7889 0.0000
vt 0.6382 0.7013 0.0000
vt 0.6442 0.7073 0.0000
vt 0.7739 0.7216 0.0000
vt 0.7818 0.7161 0.0000
vt 0.7692 0.8015 0.0000
vt 0.7655 0.8846 0.0000
vt 0.6435 0.8830 0.0000
vt 0.6462 0.7999 0.0000
vt 0.7763 0.7958 0.0000
vt 0.7723 0.8906 0.0000
vt 0.6365 0.8887 0.0000
vt 0.6394 0.7940 0.0000
vt 0.9802 0.5952 0.0000
vt 0.7998 0.5965 0.0000
vt 0.8067 0.5906 0.0000
vt 0.9732 0.5893 0.0000
vt 0.7980 0.5172 0.0000
vt 0.8050 0.5229 0.0000
vt 0.9738 0.5217 0.0000
vt 0.9807 0.5159 0.0000
vt 0.9740 0.7443 0.0000
vt 0.8120 0.7554 0.0000
vt 0.8181 0.7490 0.0000
vt 0.9663 0.7383 0.0000
vt 0.8069 0.6762 0.0000
vt 0.8142 0.6813 0.0000
vt 0.9643 0.6704 0.0000
vt 0.9708 0.6648 0.0000
vt 0.8126 0.8178 0.0000
vt 0.8154 0.7682 0.0000
vt 0.9719 0.7573 0.0000
vt 0.9708 0.8068 0.0000
vt 0.8063 0.8233 0.0000
vt 0.8078 0.7621 0.0000
vt 0.9783 0.7516 0.0000
vt 0.9783 0.8127 0.0000
vt 0.9497 0.8182 0.0000
vt 0.8344 0.8258 0.0000
vt 0.8351 0.7568 0.0000
vt 0.9492 0.7493 0.0000
vt 0.2287 0.9019 0.0000
vt 0.2552 0.9016 0.0000
vt 0.2684 0.9247 0.0000
vt 0.2552 0.9477 0.0000
vt 0.2287 0.9477 0.0000
vt 0.2154 0.9247 0.0000
vt 0.1842 0.4404 0.0000
vt 0.2043 0.4404 0.0000
vt 0.2043 0.9019 0.0000
vt 0.1799 0.9019 0.0000
vt 0.2244 0.4404 0.0000
vt 0.2424 0.4401 0.0000
vt 0.1303 0.4384 0.0000
vt 0.1482 0.4394 0.0000
vt 0.1269 0.9004 0.0000
vt 0.1004 0.8990 0.0000
vt 0.1662 0.4401 0.0000
vt 0.1534 0.9014 0.0000
vt 0.2328 0.9518 0.0000
vt 0.2173 0.9303 0.0000
vt 0.2280 0.9061 0.0000
vt 0.2543 0.9034 0.0000
vt 0.2699 0.9248 0.0000
vt 0.2592 0.9490 0.0000
vt 0.1393 0.4415 0.0000
vt 0.1572 0.4429 0.0000
vt 0.1487 0.9063 0.0000
vt 0.1223 0.9043 0.0000
vt 0.1751 0.4441 0.0000
vt 0.1751 0.9081 0.0000
vt 0.1930 0.4441 0.0000
vt 0.2016 0.9081 0.0000
vt 0.2110 0.4427 0.0000
vt 0.2288 0.4409 0.0000
vt 0.1213 0.4409 0.0000
vt 0.0958 0.9034 0.0000
vt 0.2335 0.9525 0.0000
vt 0.2171 0.9316 0.0000
vt 0.2269 0.9073 0.0000
vt 0.2530 0.9039 0.0000
vt 0.2694 0.9247 0.0000
vt 0.2596 0.9490 0.0000
vt 0.1421 0.4350 0.0000
vt 0.1596 0.4379 0.0000
vt 0.1483 0.9093 0.0000
vt 0.1224 0.9051 0.0000
vt 0.1774 0.4398 0.0000
vt 0.1745 0.9121 0.0000
vt 0.1954 0.4391 0.0000
vt 0.2010 0.9112 0.0000
vt 0.2129 0.4365 0.0000
vt 0.2307 0.4342 0.0000
vt 0.1242 0.4335 0.0000
vt 0.0960 0.9029 0.0000
vt 0.2313 0.9051 0.0000
vt 0.2575 0.9033 0.0000
vt 0.2702 0.9280 0.0000
vt 0.2563 0.9505 0.0000
vt 0.2299 0.9497 0.0000
vt 0.2174 0.9264 0.0000
vt 0.1672 0.4427 0.0000
vt 0.1853 0.4425 0.0000
vt 0.2052 0.9082 0.0000
vt 0.1788 0.9084 0.0000
vt 0.2033 0.4409 0.0000
vt 0.2211 0.4385 0.0000
vt 0.1135 0.4405 0.0000
vt 0.1315 0.4404 0.0000
vt 0.1260 0.9051 0.0000
vt 0.0995 0.9053 0.0000
vt 0.1494 0.4415 0.0000
vt 0.1524 0.9066 0.0000
vt 0.2278 0.9037 0.0000
vt 0.2676 0.9265 0.0000
vt 0.2543 0.9495 0.0000
vt 0.2278 0.9495 0.0000
vt 0.2145 0.9265 0.0000
vt 0.1833 0.4422 0.0000
vt 0.2034 0.4422 0.0000
vt 0.2034 0.9037 0.0000
vt 0.1790 0.9037 0.0000
vt 0.2235 0.4423 0.0000
vt 0.2415 0.4420 0.0000
vt 0.1294 0.4402 0.0000
vt 0.1473 0.4412 0.0000
vt 0.1260 0.9023 0.0000
vt 0.0996 0.9008 0.0000
vt 0.1653 0.4419 0.0000
vt 0.1525 0.9032 0.0000
vt 0.2303 0.9530 0.0000
vt 0.2154 0.9311 0.0000
vt 0.2268 0.9072 0.0000
vt 0.2532 0.9052 0.0000
vt 0.2681 0.9271 0.0000
vt 0.2567 0.9510 0.0000
vt 0.1518 0.4402 0.0000
vt 0.1697 0.4420 0.0000
vt 0.1476 0.9050 0.0000
vt 0.1212 0.9023 0.0000
vt 0.1875 0.4438 0.0000
vt 0.1739 0.9076 0.0000
vt 0.2055 0.4443 0.0000
vt 0.2004 0.9084 0.0000
vt 0.2235 0.4435 0.0000
vt 0.2414 0.4422 0.0000
vt 0.1339 0.4390 0.0000
vt 0.0948 0.9005 0.0000
vt 0.0631 0.0301 0.0000
vt 0.0453 0.9041 0.0000
vt 0.0297 0.9040 0.0000
vt 0.0315 0.0300 0.0000
vt 0.0765 0.0303 0.0000
vt 0.0587 0.9043 0.0000
vt 0.0453 0.9175 0.0000
vt 0.0297 0.9174 0.0000
vt 0.0315 0.0166 0.0000
vt 0.0632 0.0167 0.0000
vt 0.0163 0.9040 0.0000
vt 0.0181 0.0299 0.0000
vt 0.0340 0.0257 0.0000
vt 0.0628 0.0265 0.0000
vt 0.0456 0.9005 0.0000
vt 0.0299 0.9000 0.0000
vt 0.0206 0.0256 0.0000
vt 0.0165 0.8999 0.0000
vt 0.0295 0.9134 0.0000
vt 0.0452 0.9139 0.0000
vt 0.0632 0.0132 0.0000
vt 0.0344 0.0123 0.0000
vt 0.0762 0.0268 0.0000
vt 0.0590 0.9007 0.0000
# 245 texture coords

o Ponton_2
g Ponton_2
usemtl wire_135006006
s 1
f 1/1/1 2/2/2 3/3/3 4/4/4 
s 2
f 5/5/5 6/6/6 2/2/2 1/1/1 
s 1
f 7/7/7 8/8/8 9/9/9 10/10/10 
s 2
f 8/8/8 11/11/11 12/12/12 9/9/9 
f 13/13/13 14/14/14 4/4/4 3/3/3 
s 1
f 15/15/15 16/16/16 17/17/17 18/18/18 
s 2
f 19/19/19 20/20/20 16/16/16 15/15/15 
f 21/21/21 22/22/22 18/18/18 17/17/17 
s 1
f 23/23/23 24/24/24 25/25/25 26/26/26 
s 2
f 27/27/27 28/28/28 24/24/24 23/23/23 
f 29/29/29 30/30/30 26/26/26 25/25/25 
s 4
f 31/31/31 10/10/10 9/9/9 12/12/12 
s 2
f 32/32/32 7/7/7 10/10/10 31/31/31 
s 4
f 5/5/5 1/1/1 4/4/4 14/14/14 
s 1
f 11/11/11 32/32/32 31/31/31 12/12/12 
s 4
f 30/30/30 33/33/33 34/34/34 27/27/27 23/23/23 26/26/26 
f 22/22/22 35/35/35 36/36/35 19/19/19 15/15/15 18/18/18 
f 6/6/6 13/13/13 3/3/3 2/2/2 
f 17/17/17 16/16/16 20/20/20 37/37/36 38/38/37 21/21/21 
f 25/25/25 24/24/24 28/28/28 39/39/38 29/29/29 
s 1
f 40/40/39 41/41/40 42/42/41 43/43/42 
s 2
f 41/41/40 44/44/43 45/45/44 42/42/41 
s 4
f 46/46/45 43/43/42 42/42/41 45/45/44 
s 2
f 47/47/46 40/40/39 43/43/42 46/46/45 
s 1
f 44/44/43 47/47/46 46/46/45 45/45/44 
f 48/48/15 49/49/16 50/50/47 51/51/48 
s 2
f 52/52/49 53/53/20 49/49/16 48/48/15 
f 54/54/50 55/55/51 51/51/48 50/50/47 
s 4
f 55/55/51 56/56/35 57/57/35 52/52/49 48/48/15 51/51/48 
f 50/50/47 49/49/16 53/53/20 58/58/37 59/59/37 54/54/50 
s 1
f 60/60/52 61/61/53 62/62/54 63/63/55 
s 2
f 64/64/56 65/65/57 61/61/53 60/60/52 
f 66/66/58 67/67/59 63/63/55 62/62/54 
s 4
f 67/67/59 68/68/60 64/64/56 60/60/52 63/63/55 
f 62/62/54 61/61/53 65/65/57 69/69/61 70/70/62 66/66/58 
s 1
f 71/71/63 72/72/64 73/73/65 74/74/66 
s 2
f 72/72/64 75/75/67 76/76/68 73/73/65 
s 4
f 77/77/69 74/74/66 73/73/65 76/76/68 
s 2
f 78/78/70 71/71/63 74/74/66 77/77/69 
s 1
f 75/75/67 78/78/70 77/77/69 76/76/68 
f 79/79/71 80/80/72 81/81/73 82/82/74 
s 2
f 83/83/75 84/84/76 80/80/72 79/79/71 
f 85/85/77 86/86/78 82/82/74 81/81/73 
s 4
f 83/83/75 79/79/71 82/82/74 86/86/78 
f 84/84/76 85/85/77 81/81/73 80/80/72 
s 1
f 87/87/79 88/88/80 89/89/81 90/90/82 
s 2
f 88/88/80 91/91/83 92/92/84 89/89/81 
s 4
f 93/93/85 90/90/82 89/89/81 92/92/84 
s 2
f 94/94/86 87/87/79 90/90/82 93/93/85 
s 1
f 91/91/83 94/94/86 93/93/85 92/92/84 
f 95/95/87 96/96/88 97/97/89 98/98/90 
s 2
f 96/96/88 99/99/91 100/100/92 97/97/89 
s 4
f 101/101/93 98/98/90 97/97/89 100/100/92 
s 2
f 102/102/94 95/95/87 98/98/90 101/101/93 
s 1
f 99/99/91 102/102/94 101/101/93 100/100/92 
f 103/103/95 104/104/96 105/105/97 106/106/98 
s 2
f 107/107/99 108/108/100 104/104/96 103/103/95 
f 109/109/101 110/110/102 106/106/98 105/105/97 
s 4
f 110/110/102 111/111/37 112/112/37 107/107/99 103/103/95 106/106/98 
f 105/105/97 104/104/96 108/108/100 113/113/103 114/114/104 109/109/101 
s 1
f 115/115/105 116/116/106 117/117/107 118/118/108 119/119/109 120/120/110 
s 2
f 121/121/111 122/122/112 120/123/110 119/124/109 
s 4
f 122/122/112 123/125/113 115/115/105 120/123/110 
f 123/125/113 124/126/114 116/116/106 115/115/105 
s 2
f 124/127/114 125/128/115 117/129/107 116/130/106 
s 4
f 125/128/115 126/131/116 118/132/108 117/129/107 
f 126/131/116 121/121/111 119/124/109 118/132/108 
s 1
f 127/133/117 128/134/118 129/135/119 130/136/120 131/137/121 132/138/122 
s 2
f 133/139/123 134/140/124 132/141/122 131/142/121 
s 4
f 134/140/124 135/143/125 127/144/117 132/141/122 
f 135/143/125 136/145/126 128/146/118 127/144/117 
s 2
f 136/145/126 137/147/127 129/135/119 128/146/118 
s 4
f 137/147/127 138/148/128 130/136/120 129/135/119 
f 138/149/128 133/139/123 131/142/121 130/150/120 
s 1
f 139/151/129 140/152/130 141/153/131 142/154/132 143/155/133 144/156/134 
s 2
f 145/157/135 146/158/136 144/159/134 143/160/133 
s 4
f 146/158/136 147/161/137 139/162/129 144/159/134 
f 147/161/137 148/163/138 140/164/130 139/162/129 
s 2
f 148/163/138 149/165/139 141/153/131 140/164/130 
s 4
f 149/165/139 150/166/140 142/154/132 141/153/131 
f 150/167/140 145/157/135 143/160/133 142/168/132 
s 1
f 151/169/141 152/170/142 153/171/143 154/172/144 155/173/145 156/174/146 
s 2
f 157/175/147 158/176/148 156/177/146 155/178/145 
s 4
f 158/176/148 159/179/149 151/169/141 156/177/146 
f 159/179/149 160/180/150 152/170/142 151/169/141 
s 2
f 160/181/150 161/182/151 153/183/143 152/184/142 
s 4
f 161/182/151 162/185/152 154/186/144 153/183/143 
f 162/185/152 157/175/147 155/178/145 154/186/144 
s 1
f 163/187/105 164/136/106 165/188/107 166/189/108 167/190/109 168/191/110 
s 2
f 169/192/111 170/193/112 168/194/110 167/195/109 
s 4
f 170/193/112 171/196/113 163/187/105 168/194/110 
f 171/196/113 172/197/114 164/136/106 163/187/105 
s 2
f 172/198/114 173/199/115 165/200/107 164/201/106 
s 4
f 173/199/115 174/202/116 166/203/108 165/200/107 
f 174/202/116 169/192/111 167/195/109 166/203/108 
s 1
f 175/204/117 176/205/118 177/206/119 178/207/153 179/208/121 180/209/154 
s 2
f 181/210/123 182/211/124 180/212/154 179/213/121 
s 4
f 182/211/124 183/214/125 175/215/117 180/212/154 
f 183/214/125 184/216/126 176/217/118 175/215/117 
s 2
f 184/216/126 185/218/127 177/206/119 176/217/118 
s 4
f 185/218/127 186/219/128 178/207/153 177/206/119 
f 186/220/128 181/210/123 179/213/121 178/221/153 
s 1
f 187/222/155 188/223/156 189/224/157 190/225/158 
s 2
f 191/226/159 192/227/160 188/223/156 187/222/155 
s 4
f 192/228/160 193/229/161 189/224/157 188/223/156 
f 194/230/162 191/231/159 187/222/155 190/225/158 
s 2
f 189/224/157 193/232/161 194/233/162 190/225/158 
s 1
f 195/234/163 196/235/164 197/236/165 198/237/166 
s 2
f 199/238/167 195/234/163 198/237/166 200/239/168 
s 4
f 200/240/168 198/237/166 197/236/165 201/241/169 
f 202/242/170 196/235/164 195/234/163 199/243/167 
s 2
f 197/236/165 196/235/164 202/244/170 201/245/169 
# 112 polygons

