# 3ds Max Wavefront OBJ Exporter v0.97b - (c)2007 guruware
# File Created: 12.04.2019 17:21:35

mtllib Fern02.mtl

#
# object Fern02
#

v  -0.0068 0.0489 -0.0134
v  -0.1073 0.1806 0.0572
v  -0.0252 0.2587 0.0529
v  -0.1365 0.3596 0.1801
v  -0.0369 0.4255 0.1306
v  -0.1022 0.4986 0.3323
v  -0.0352 0.5117 0.2852
v  -0.0251 0.5434 0.4667
v  0.0728 0.2010 0.0425
v  0.0810 0.3842 0.1624
v  0.0401 0.5147 0.3207
v  0.0036 -0.0011 -0.0073
v  -0.2655 0.1413 0.0301
v  -0.2081 0.2447 0.1829
v  -0.5352 0.2938 0.2380
v  -0.4007 0.4173 0.3611
v  -0.7406 0.3525 0.5227
v  -0.6174 0.4029 0.5701
v  -0.8238 0.2846 0.7755
v  -0.0498 0.1553 0.2520
v  -0.2747 0.3108 0.5060
v  -0.5703 0.3636 0.6980
v  0.0036 0.0242 0.0010
v  0.2402 0.1712 -0.1450
v  0.1229 0.2767 -0.2648
v  0.4071 0.3283 -0.4513
v  0.2295 0.4542 -0.5114
v  0.4823 0.3889 -0.8033
v  0.3469 0.4400 -0.7970
v  0.4565 0.3192 -1.0749
v  -0.0538 0.1844 -0.2644
v  0.0520 0.3443 -0.5956
v  0.2501 0.3993 -0.8976
v  0.0000 -0.0000 0.0000
v  0.0299 0.0520 -0.2000
v  -0.0766 0.1289 -0.2075
v  -0.0513 0.1099 -0.4336
v  -0.1516 0.2123 -0.3895
v  -0.1982 0.1154 -0.6262
v  -0.2496 0.1679 -0.5642
v  -0.3513 0.0564 -0.7158
v  -0.1540 0.0942 -0.1059
v  -0.2735 0.1609 -0.3200
v  -0.3435 0.1487 -0.5519
v  -0.1092 0.1527 -0.2739
v  -0.2588 0.2606 -0.1754
v  -0.3984 0.3118 -0.5065
v  -0.4983 0.4425 -0.3340
v  -0.7505 0.3675 -0.6529
v  -0.7715 0.4211 -0.5112
v  -1.0356 0.2874 -0.6788
v  -0.2904 0.1624 0.0081
v  -0.6173 0.3236 -0.1660
v  -0.8936 0.3752 -0.4302
v  0.2437 0.2536 0.0483
v  0.1591 0.3421 -0.0618
v  0.4608 0.4833 -0.0094
v  0.3322 0.6057 -0.1271
v  0.6728 0.6426 -0.1618
v  0.5984 0.7061 -0.2478
v  0.8993 0.7032 -0.3825
v  0.1269 0.2730 -0.1893
v  0.3198 0.5067 -0.2964
v  0.5806 0.6579 -0.3495
v  0.0874 0.2536 0.2326
v  0.1176 0.3303 0.1102
v  0.2510 0.4833 0.3866
v  0.2644 0.5939 0.2228
v  0.4922 0.6426 0.4865
v  0.5073 0.6942 0.3854
v  0.7991 0.7032 0.5625
v  0.2278 0.2730 0.0081
v  0.4205 0.5067 0.1155
v  0.6030 0.6579 0.3092
# 74 vertices

vn 0.9321 0.2908 -0.2158
vn 0.8145 0.3137 -0.4881
vn 0.8836 0.4125 -0.2218
vn 0.5635 0.5329 -0.6313
vn 0.6985 0.6828 -0.2140
vn 0.2404 0.8513 -0.4664
vn 0.3843 0.9054 -0.1803
vn 0.1490 0.9786 -0.1421
vn 0.9236 0.3774 0.0677
vn 0.7344 0.6338 0.2428
vn 0.3585 0.9221 0.1454
vn 0.5276 0.7554 0.3886
vn 0.6449 0.7555 0.1152
vn 0.4500 0.8343 0.3184
vn 0.5093 0.8341 -0.2119
vn 0.2207 0.9672 0.1256
vn 0.0723 0.9133 -0.4007
vn -0.0755 0.9897 -0.1218
vn -0.2638 0.9254 -0.2719
vn 0.2839 0.7815 0.5555
vn -0.0592 0.8753 0.4799
vn -0.3266 0.9416 0.0824
vn -0.6397 0.7544 -0.1470
vn -0.6372 0.7558 0.1505
vn -0.5405 0.8336 -0.1142
vn -0.3816 0.8356 0.3952
vn -0.2531 0.9670 -0.0304
vn 0.0944 0.9151 0.3921
vn 0.1175 0.9901 0.0770
vn 0.3504 0.9262 0.1391
vn -0.4836 0.7796 -0.3979
vn -0.1392 0.8733 -0.4669
vn 0.2654 0.9408 -0.2107
vn -0.3337 0.8405 0.4268
vn -0.1096 0.7821 0.6135
vn -0.2291 0.8989 0.3736
vn 0.2509 0.7797 0.5737
vn 0.0434 0.9769 0.2091
vn 0.5636 0.7998 0.2066
vn 0.3599 0.9329 -0.0084
vn 0.5366 0.8302 -0.1512
vn -0.4181 0.8963 0.1480
vn -0.2334 0.9593 -0.1587
vn 0.2257 0.9247 -0.3067
vn -0.2638 0.7675 0.5843
vn 0.0291 0.7708 0.6364
vn -0.2135 0.8446 0.4909
vn 0.3163 0.8465 0.4283
vn -0.0787 0.9721 0.2208
vn 0.4006 0.9153 -0.0418
vn 0.0950 0.9877 -0.1242
vn 0.1989 0.9191 -0.3402
vn -0.4818 0.7875 0.3842
vn -0.4866 0.8731 0.0308
vn -0.1606 0.9333 -0.3212
vn -0.5113 0.4436 -0.7361
vn -0.8160 0.4394 -0.3757
vn -0.4595 0.5457 -0.7008
vn -0.7788 0.6154 -0.1217
vn -0.3407 0.8063 -0.4835
vn -0.5739 0.8039 0.1558
vn -0.1326 0.9805 -0.1448
vn -0.0608 0.9971 0.0460
vn -0.0111 0.4813 -0.8765
vn 0.1968 0.6688 -0.7169
vn 0.3470 0.8503 -0.3957
vn 0.3624 0.4294 -0.8272
vn -0.1776 0.4034 -0.8976
vn 0.3072 0.5309 -0.7898
vn -0.3566 0.5974 -0.7183
vn 0.1897 0.7946 -0.5767
vn -0.4431 0.8058 -0.3929
vn 0.0065 0.9702 -0.2423
vn -0.0549 0.9970 -0.0544
vn 0.7239 0.4951 -0.4805
vn 0.6693 0.7011 -0.2459
vn 0.4399 0.8980 0.0133
# 77 vertex normals

vt 0.9789 0.9735 0.0000
vt 0.6183 0.8869 0.0000
vt 0.7016 0.6962 0.0000
vt 0.2713 0.6639 0.0000
vt 0.4607 0.4553 0.0000
vt 0.0896 0.4113 0.0000
vt 0.2747 0.2693 0.0000
vt 0.0346 0.0292 0.0000
vt 0.8866 0.5611 0.0000
vt 0.6726 0.2626 0.0000
vt 0.3958 0.1051 0.0000
# 11 texture coords

o Fern02
g Fern02
usemtl Material__57
s 1
f 1/1/1 2/2/2 3/3/3 
f 3/3/3 2/2/2 4/4/4 5/5/5 
f 5/5/5 4/4/4 6/6/6 7/7/7 
f 7/7/7 6/6/6 8/8/8 
f 1/1/1 3/3/3 9/9/9 
f 9/9/9 3/3/3 5/5/5 10/10/10 
f 10/10/10 5/5/5 7/7/7 11/11/11 
f 11/11/11 7/7/7 8/8/8 
f 12/1/12 13/2/13 14/3/14 
f 14/3/14 13/2/13 15/4/15 16/5/16 
f 16/5/16 15/4/15 17/6/17 18/7/18 
f 18/7/18 17/6/17 19/8/19 
f 12/1/12 14/3/14 20/9/20 
f 20/9/20 14/3/14 16/5/16 21/10/21 
f 21/10/21 16/5/16 18/7/18 22/11/22 
f 22/11/22 18/7/18 19/8/19 
f 23/1/23 24/2/24 25/3/25 
f 25/3/25 24/2/24 26/4/26 27/5/27 
f 27/5/27 26/4/26 28/6/28 29/7/29 
f 29/7/29 28/6/28 30/8/30 
f 23/1/23 25/3/25 31/9/31 
f 31/9/31 25/3/25 27/5/27 32/10/32 
f 32/10/32 27/5/27 29/7/29 33/11/33 
f 33/11/33 29/7/29 30/8/30 
f 34/1/34 35/2/35 36/3/36 
f 36/3/36 35/2/35 37/4/37 38/5/38 
f 38/5/38 37/4/37 39/6/39 40/7/40 
f 40/7/40 39/6/39 41/8/41 
f 34/1/34 36/3/36 42/9/42 
f 42/9/42 36/3/36 38/5/38 43/10/43 
f 43/10/43 38/5/38 40/7/40 44/11/44 
f 44/11/44 40/7/40 41/8/41 
f 34/1/45 45/2/46 46/3/47 
f 46/3/47 45/2/46 47/4/48 48/5/49 
f 48/5/49 47/4/48 49/6/50 50/7/51 
f 50/7/51 49/6/50 51/8/52 
f 34/1/45 46/3/47 52/9/53 
f 52/9/53 46/3/47 48/5/49 53/10/54 
f 53/10/54 48/5/49 50/7/51 54/11/55 
f 54/11/55 50/7/51 51/8/52 
f 34/1/56 55/2/57 56/3/58 
f 56/3/58 55/2/57 57/4/59 58/5/60 
f 58/5/60 57/4/59 59/6/61 60/7/62 
f 60/7/62 59/6/61 61/8/63 
f 34/1/56 56/3/58 62/9/64 
f 62/9/64 56/3/58 58/5/60 63/10/65 
f 63/10/65 58/5/60 60/7/62 64/11/66 
f 64/11/66 60/7/62 61/8/63 
f 34/1/67 65/2/68 66/3/69 
f 66/3/69 65/2/68 67/4/70 68/5/71 
f 68/5/71 67/4/70 69/6/72 70/7/73 
f 70/7/73 69/6/72 71/8/74 
f 34/1/67 66/3/69 72/9/75 
f 72/9/75 66/3/69 68/5/71 73/10/76 
f 73/10/76 68/5/71 70/7/73 74/11/77 
f 74/11/77 70/7/73 71/8/74 
# 28 polygons - 28 triangles

