# 3ds Max Wavefront OBJ Exporter v0.97b - (c)2007 guruware
# File Created: 12.04.2019 17:28:54

mtllib PalmTree02.mtl

#
# object PalmTree02
#

v  1.0408 5.8560 0.0930
v  0.3742 5.8657 0.0705
v  0.3035 6.2768 0.2983
v  -0.4985 5.7988 0.2205
v  -0.5361 6.2721 0.5388
v  -1.2013 5.5308 0.5992
v  -1.2657 5.8428 0.7538
v  -1.7009 5.0977 0.8889
v  0.5307 5.8425 0.4821
v  -0.3337 5.7999 0.8381
v  -1.1128 5.5349 0.9873
v  1.0689 5.8384 0.0706
v  0.8229 5.6343 -0.3397
v  0.6319 5.9327 -0.2991
v  0.3934 5.4415 -0.6681
v  0.1653 5.7915 -0.6135
v  -0.0995 5.2112 -0.8531
v  -0.2485 5.4397 -0.8173
v  -0.5366 4.9394 -0.8743
v  0.5624 5.7460 -0.0034
v  0.0788 5.5763 -0.2618
v  -0.3052 5.2994 -0.5875
v  1.0212 5.7396 0.0978
v  1.1799 5.4608 -0.2191
v  0.9952 5.6375 -0.4624
v  1.1295 5.0392 -0.5845
v  0.9052 5.2471 -0.8679
v  0.9289 4.5662 -0.7951
v  0.7821 4.7020 -0.9801
v  0.6680 4.1885 -0.7605
v  0.7552 5.5562 -0.2167
v  0.6166 5.1545 -0.5817
v  0.5934 4.6416 -0.7933
v  1.0462 5.8712 0.1002
v  1.3966 5.5970 -0.3701
v  1.2601 5.9614 -0.5836
v  1.5645 5.3313 -1.0119
v  1.3944 5.7588 -1.2636
v  1.5369 5.0202 -1.6554
v  1.4256 5.2992 -1.8198
v  1.3480 4.6638 -2.1539
v  0.8858 5.7339 -0.5118
v  0.9475 5.4967 -1.1830
v  1.1335 5.1283 -1.7673
v  1.0426 5.8960 0.0915
v  0.8517 5.9098 -0.5159
v  0.7583 6.2741 -0.3682
v  0.4144 5.8945 -1.0544
v  0.2982 6.3223 -0.8738
v  -0.2104 5.6409 -1.4543
v  -0.2865 5.9202 -1.3361
v  -0.6540 5.5717 -1.5338
v  0.5038 6.0706 -0.1206
v  -0.0057 6.0887 -0.5770
v  -0.4851 5.7679 -1.1421
v  1.0471 5.8689 0.0951
v  1.7055 5.6900 0.2050
v  1.6958 5.7722 -0.1664
v  2.4197 5.2968 0.0003
v  2.3839 5.3689 -0.4362
v  2.9002 4.7505 -0.3370
v  2.8880 4.8115 -0.6284
v  2.9792 4.2212 -0.6476
v  1.4404 5.6723 -0.4403
v  2.0997 5.2754 -0.7791
v  2.6909 4.7365 -0.8467
v  1.0543 5.7926 0.0788
v  1.4742 5.6348 0.6374
v  1.8067 5.8441 0.3428
v  2.0843 5.3421 1.0462
v  2.4760 5.5817 0.6914
v  2.6883 4.8954 1.2952
v  2.9441 5.0516 1.0633
v  3.1284 4.3474 1.3927
v  1.6758 5.4369 0.1015
v  2.3278 5.1030 0.3989
v  2.8475 4.7391 0.8720
v  1.0807 5.8043 0.0910
v  0.7305 5.4489 0.5085
v  1.0477 5.7747 0.8040
v  0.6387 5.0709 1.0788
v  1.0224 5.4529 1.4259
v  0.7584 4.6462 1.6204
v  1.0094 4.8955 1.8470
v  1.0108 4.2010 1.9928
v  1.3931 5.5581 0.6369
v  1.4390 5.2028 1.2340
v  1.2818 4.7324 1.7218
v  1.0574 5.7924 0.0621
v  1.2662 6.0428 0.5834
v  1.3778 6.1740 0.4291
v  1.4708 6.1999 1.0619
v  1.7038 6.3332 0.9304
v  1.7916 6.1356 1.5688
v  1.9779 6.2418 1.4776
v  2.1518 5.9160 1.9742
v  1.4825 6.0093 0.4205
v  1.8466 6.0801 0.8378
v  2.0938 6.0576 1.4209
v  1.0841 5.8249 0.0572
v  0.5409 6.0731 0.7232
v  0.7157 6.3793 0.8420
v  0.0839 6.1520 1.3036
v  0.3094 6.4297 1.5683
v  -0.2287 5.7517 1.8889
v  -0.0632 5.9673 2.1080
v  -0.3363 5.0736 2.3656
v  0.8664 6.0315 0.8494
v  0.6147 5.9316 1.5167
v  0.1551 5.5981 2.0892
v  1.0214 5.8423 0.1076
v  1.3779 5.9964 -0.0158
v  1.2545 6.1744 -0.1644
v  1.7069 6.0620 -0.3471
v  1.5549 6.2343 -0.5229
v  1.9195 5.8899 -0.7305
v  1.8211 6.0235 -0.8471
v  1.9570 5.5085 -1.0181
v  1.0794 6.0159 -0.2642
v  1.3463 6.0855 -0.6471
v  1.6838 5.9052 -0.9267
v  0.3129 0.0000 0.2979
v  0.1226 0.0000 0.4362
v  -0.1127 0.0000 0.4362
v  -0.3031 0.0000 0.2979
v  -0.3758 0.0000 0.0741
v  -0.3031 0.0000 -0.1496
v  -0.1127 0.0000 -0.2879
v  0.1226 0.0000 -0.2879
v  0.3129 0.0000 -0.1496
v  0.3856 0.0000 0.0741
v  0.1851 1.5438 -0.1009
v  0.1733 2.9811 -0.0540
v  0.2187 2.9728 0.0741
v  0.2267 1.5567 0.0741
v  0.0208 1.5478 -0.2117
v  0.0414 3.0093 -0.1375
v  -0.1788 1.5693 -0.2147
v  -0.1233 3.0610 -0.1430
v  -0.3296 1.5897 -0.1057
v  -0.2469 3.0941 -0.0626
v  -0.3848 1.5892 0.0741
v  -0.2688 3.0742 0.0741
v  -0.3229 1.5896 0.2540
v  -0.2212 3.0699 0.2109
v  -0.1729 1.5808 0.3630
v  -0.1104 3.0647 0.2913
v  0.0233 1.5599 0.3600
v  0.0420 3.0250 0.2858
v  0.1821 1.5566 0.2492
v  0.1800 2.9874 0.2023
v  1.0757 5.8117 0.0859
v  1.0793 5.8101 0.0741
v  1.0757 5.8117 0.0624
v  1.0664 5.8160 0.0551
v  1.0550 5.8213 0.0551
v  1.0457 5.8256 0.0624
v  1.0421 5.8273 0.0741
v  1.0457 5.8256 0.0859
v  1.0550 5.8213 0.0932
v  1.0664 5.8160 0.0932
v  0.4958 4.3764 -0.0087
v  0.5137 4.3737 0.0741
v  0.4385 4.3912 -0.0617
v  0.3559 4.4147 -0.0646
v  0.2847 4.4370 -0.0132
v  0.2539 4.4494 0.0741
v  0.2789 4.4450 0.1615
v  0.3488 4.4267 0.2129
v  0.4284 4.4048 0.2100
v  0.4880 4.3850 0.1570
# 171 vertices

vn 0.4741 0.8756 -0.0926
vn -0.0765 0.4952 -0.8654
vn 0.1892 0.9782 -0.0860
vn -0.3593 0.4525 -0.8162
vn -0.2449 0.9694 0.0141
vn -0.5765 0.3129 -0.7548
vn -0.6579 0.7481 0.0867
vn -0.8352 0.5201 0.1785
vn 0.3979 0.5515 0.7331
vn 0.1107 0.5546 0.8247
vn -0.2501 0.4819 0.8398
vn 0.2861 0.9535 -0.0949
vn 0.5298 0.4436 -0.7229
vn 0.0941 0.9644 -0.2472
vn 0.3321 0.3483 -0.8766
vn -0.2135 0.8658 -0.4526
vn 0.0959 0.2148 -0.9719
vn -0.4922 0.6375 -0.5927
vn -0.6346 0.4380 -0.6368
vn -0.3633 0.8263 0.4304
vn -0.5902 0.7435 0.3144
vn -0.7872 0.5933 0.1684
vn 0.2144 0.9591 -0.1848
vn 0.8326 0.4645 -0.3016
vn 0.1841 0.8325 -0.5225
vn 0.8242 0.1299 -0.5512
vn 0.1001 0.4673 -0.8784
vn 0.6607 -0.2504 -0.7076
vn -0.0115 -0.0265 -0.9996
vn -0.0893 -0.3746 -0.9229
vn -0.5571 0.7767 -0.2939
vn -0.6952 0.4713 -0.5427
vn -0.7118 0.0579 -0.7000
vn 0.2044 0.9602 0.1905
vn 0.8746 0.4457 0.1911
vn 0.2704 0.9617 -0.0457
vn 0.9389 0.3408 -0.0470
vn 0.3398 0.8489 -0.4049
vn 0.9343 0.1979 -0.2964
vn 0.3593 0.6089 -0.7072
vn 0.3434 0.4040 -0.8479
vn -0.5324 0.8227 -0.1992
vn -0.5141 0.7302 -0.4500
vn -0.4569 0.5706 -0.6823
vn 0.5991 0.7594 0.2540
vn 0.7958 0.3961 -0.4580
vn 0.4357 0.8996 0.0298
vn 0.5081 0.4453 -0.7372
vn 0.0826 0.9397 -0.3320
vn 0.2138 0.4292 -0.8775
vn -0.2152 0.7923 -0.5709
vn -0.3477 0.7123 -0.6097
vn -0.1739 0.8445 0.5066
vn -0.4691 0.8597 0.2023
vn -0.6253 0.7799 -0.0274
vn 0.1173 0.9902 -0.0752
vn 0.3854 0.9071 0.1689
vn 0.2976 0.9437 -0.1442
vn 0.6354 0.7650 0.1047
vn 0.5621 0.7891 -0.2477
vn 0.8862 0.4618 0.0376
vn 0.8236 0.4489 -0.3466
vn 0.9131 0.1534 -0.3779
vn 0.1433 0.8922 -0.4282
vn 0.3689 0.7492 -0.5501
vn 0.6004 0.4453 -0.6643
vn 0.0509 0.9429 -0.3292
vn -0.0923 0.8614 0.4995
vn 0.2786 0.9302 -0.2388
vn 0.1106 0.7591 0.6415
vn 0.5966 0.7994 -0.0708
vn 0.3165 0.5872 0.7450
vn 0.8290 0.5484 0.1093
vn 0.9144 0.3412 0.2179
vn 0.4095 0.3687 -0.8345
vn 0.6288 0.2503 -0.7362
vn 0.8127 0.0999 -0.5741
vn -0.2007 0.9791 0.0313
vn -0.7653 0.6292 0.1358
vn -0.1146 0.9525 0.2822
vn -0.8032 0.4773 0.3566
vn -0.1315 0.7625 0.6334
vn -0.7795 0.2708 0.5649
vn -0.1434 0.4443 0.8843
vn -0.2407 0.1990 0.9500
vn 0.5899 0.7727 0.2346
vn 0.6069 0.6035 0.5172
vn 0.5549 0.3451 0.7569
vn -0.2848 0.7778 -0.5603
vn -0.6657 0.7457 0.0279
vn -0.0734 0.8658 -0.4950
vn -0.4675 0.8637 0.1881
vn 0.1719 0.9694 -0.1752
vn -0.2586 0.8533 0.4527
vn 0.3591 0.9159 0.1797
vn 0.4122 0.8212 0.3945
vn 0.5668 0.4432 -0.6945
vn 0.7043 0.5424 -0.4581
vn 0.8255 0.5494 -0.1294
vn 0.3201 0.8381 -0.4418
vn -0.5557 0.6195 -0.5545
vn 0.2627 0.9471 -0.1844
vn -0.6959 0.6767 -0.2406
vn 0.0128 0.9490 0.3149
vn -0.8541 0.4914 0.1707
vn -0.2383 0.6502 0.7215
vn -0.2784 0.3437 0.8969
vn 0.8730 0.4101 0.2640
vn 0.7403 0.3801 0.5545
vn 0.4878 0.2395 0.8394
vn -0.4028 0.7323 0.5490
vn 0.1861 0.7238 0.6645
vn -0.2116 0.9256 0.3139
vn 0.5638 0.7586 0.3266
vn 0.1383 0.9848 -0.1053
vn 0.8368 0.5302 -0.1366
vn 0.4631 0.7268 -0.5072
vn 0.6082 0.3900 -0.6914
vn -0.6429 0.7658 -0.0127
vn -0.3704 0.8094 -0.4557
vn 0.0285 0.5643 -0.8251
vn 0.0000 -1.0000 -0.0000
vn 0.8059 0.0581 -0.5892
vn 0.7938 -0.0683 -0.6044
vn 0.9954 -0.0957 0.0004
vn 0.9986 0.0528 -0.0019
vn 0.2972 0.0535 -0.9533
vn 0.2900 0.0061 -0.9570
vn -0.2977 0.0428 -0.9537
vn -0.2850 0.1003 -0.9533
vn -0.8181 0.0356 -0.5740
vn -0.8084 0.2038 -0.5522
vn -0.9990 0.0340 0.0282
vn -0.9768 0.2089 0.0476
vn -0.8066 0.0391 0.5898
vn -0.7946 0.1852 0.5782
vn -0.3049 0.0455 0.9513
vn -0.3057 0.1085 0.9459
vn 0.2990 0.0530 0.9528
vn 0.2851 0.0072 0.9585
vn 0.8079 0.0559 0.5867
vn 0.7901 -0.0661 0.6094
vn 0.4198 0.9076 0.0000
vn 0.7967 -0.2307 -0.5586
vn 0.8050 -0.2999 -0.5119
vn 0.9294 -0.3655 0.0508
vn 0.9571 -0.2880 0.0311
vn 0.9953 0.0969 0.0020
vn 0.8134 0.0893 -0.5749
vn 0.3249 -0.0518 -0.9443
vn 0.3575 -0.0817 -0.9303
vn 0.3138 0.0653 -0.9472
vn -0.2447 0.1726 -0.9541
vn -0.2315 0.1960 -0.9529
vn -0.2934 0.0329 -0.9554
vn -0.7288 0.3633 -0.5803
vn -0.6820 0.4070 -0.6077
vn -0.8069 0.0036 -0.5907
vn -0.9045 0.4265 0.0073
vn -0.8673 0.4962 -0.0408
vn -1.0000 -0.0056 0.0075
vn -0.7397 0.3622 0.5671
vn -0.7065 0.4233 0.5672
vn -0.8032 0.0059 0.5956
vn -0.2652 0.1791 0.9474
vn -0.2373 0.2015 0.9503
vn -0.2947 0.0338 0.9550
vn 0.3133 -0.0481 0.9484
vn 0.3473 -0.0799 0.9343
vn 0.3170 0.0651 0.9462
vn 0.7726 -0.2221 0.5948
vn 0.7724 -0.2897 0.5653
vn 0.8144 0.0893 0.5734
# 173 vertex normals

vt 0.5434 0.0108 0.0000
vt 0.7620 0.0967 0.0000
vt 0.6556 0.1712 0.0000
vt 0.9062 0.2347 0.0000
vt 0.7679 0.3315 0.0000
vt 0.9866 0.4174 0.0000
vt 0.8802 0.4919 0.0000
vt 0.9925 0.6522 0.0000
vt 0.5493 0.2457 0.0000
vt 0.6296 0.4284 0.0000
vt 0.7738 0.5664 0.0000
vt 0.1482 0.7336 0.0000
vt 0.0995 0.6985 -0.6180
vt 0.0807 0.6415 -1.0000
vt 0.0990 0.5844 -1.0000
vt 0.1474 0.5489 -0.6180
vt 0.2074 0.5486 0.0000
vt 0.2561 0.5837 0.6180
vt 0.2749 0.6407 1.0000
vt 0.2566 0.6978 1.0000
vt 0.2082 0.7333 1.0000
vt 0.4564 0.2718 1.0000
vt 0.6157 0.4810 1.0000
vt 0.5953 0.4978 1.0000
vt 0.4316 0.2938 1.0000
vt 0.4866 0.2518 1.0000
vt 0.6403 0.4626 1.0000
vt 0.2575 0.4593 1.0000
vt 0.4635 0.6386 1.0000
vt 0.4405 0.6621 1.0000
vt 0.2321 0.4855 1.0000
vt 0.2809 0.4349 1.0000
vt 0.4827 0.6183 1.0000
vt 0.3031 0.4089 1.0000
vt 0.4972 0.5975 1.0000
vt 0.3276 0.3845 1.0000
vt 0.5159 0.5782 1.0000
vt 0.3517 0.3610 1.0000
vt 0.5350 0.5612 1.0000
vt 0.3772 0.3357 1.0000
vt 0.5549 0.5389 1.0000
vt 0.4051 0.3137 1.0000
vt 0.5767 0.5157 1.0000
vt 0.2324 0.8650 1.0000
vt 0.2458 0.8567 1.0000
vt 0.2615 0.8580 1.0000
vt 0.2735 0.8685 1.0000
vt 0.2772 0.8840 0.6180
vt 0.2712 0.8988 -0.0000
vt 0.2578 0.9070 -0.6180
vt 0.2421 0.9057 -1.0000
vt 0.2302 0.8953 -1.0000
vt 0.2264 0.8797 -0.6180
vt 0.7938 0.6724 1.0000
vt 0.9821 0.8688 1.0000
vt 0.9723 0.8767 1.0000
vt 0.7776 0.6866 1.0000
vt 0.2615 0.0624 1.0000
vt 0.2962 0.0376 1.0000
vt 0.8086 0.6595 1.0000
vt 0.9930 0.8634 1.0000
vt 0.3323 0.0146 1.0000
vt 0.6684 0.8038 1.0000
vt 0.8949 0.9729 1.0000
vt 0.8817 0.9824 1.0000
vt 0.6564 0.8211 1.0000
vt 0.0112 0.3028 1.0000
vt 0.0398 0.2702 1.0000
vt 0.6834 0.7865 1.0000
vt 0.9145 0.9648 1.0000
vt 0.0685 0.2368 1.0000
vt 0.6997 0.7689 1.0000
vt 0.9326 0.9545 1.0000
vt 0.0982 0.2040 1.0000
vt 0.7158 0.7514 1.0000
vt 0.9457 0.9405 1.0000
vt 0.1291 0.1727 1.0000
vt 0.7318 0.7342 1.0000
vt 0.9540 0.9231 1.0000
vt 0.1613 0.1430 1.0000
vt 0.7466 0.7183 1.0000
vt 0.9596 0.9047 1.0000
vt 0.1943 0.1149 1.0000
vt 0.7612 0.7026 1.0000
vt 0.9657 0.8884 1.0000
vt 0.2278 0.0882 1.0000
# 86 texture coords

o PalmTree02
g PalmTree02
usemtl Material__57
s 1
f 1/1/1 2/2/2 3/3/3 
f 3/3/3 2/2/2 4/4/4 5/5/5 
f 5/5/5 4/4/4 6/6/6 7/7/7 
f 7/7/7 6/6/6 8/8/8 
f 1/1/1 3/3/3 9/9/9 
f 9/9/9 3/3/3 5/5/5 10/10/10 
f 10/10/10 5/5/5 7/7/7 11/11/11 
f 11/11/11 7/7/7 8/8/8 
f 12/1/12 13/2/13 14/3/14 
f 14/3/14 13/2/13 15/4/15 16/5/16 
f 16/5/16 15/4/15 17/6/17 18/7/18 
f 18/7/18 17/6/17 19/8/19 
f 12/1/12 14/3/14 20/9/20 
f 20/9/20 14/3/14 16/5/16 21/10/21 
f 21/10/21 16/5/16 18/7/18 22/11/22 
f 22/11/22 18/7/18 19/8/19 
f 23/1/23 24/2/24 25/3/25 
f 25/3/25 24/2/24 26/4/26 27/5/27 
f 27/5/27 26/4/26 28/6/28 29/7/29 
f 29/7/29 28/6/28 30/8/30 
f 23/1/23 25/3/25 31/9/31 
f 31/9/31 25/3/25 27/5/27 32/10/32 
f 32/10/32 27/5/27 29/7/29 33/11/33 
f 33/11/33 29/7/29 30/8/30 
f 34/1/34 35/2/35 36/3/36 
f 36/3/36 35/2/35 37/4/37 38/5/38 
f 38/5/38 37/4/37 39/6/39 40/7/40 
f 40/7/40 39/6/39 41/8/41 
f 34/1/34 36/3/36 42/9/42 
f 42/9/42 36/3/36 38/5/38 43/10/43 
f 43/10/43 38/5/38 40/7/40 44/11/44 
f 44/11/44 40/7/40 41/8/41 
f 45/1/45 46/2/46 47/3/47 
f 47/3/47 46/2/46 48/4/48 49/5/49 
f 49/5/49 48/4/48 50/6/50 51/7/51 
f 51/7/51 50/6/50 52/8/52 
f 45/1/45 47/3/47 53/9/53 
f 53/9/53 47/3/47 49/5/49 54/10/54 
f 54/10/54 49/5/49 51/7/51 55/11/55 
f 55/11/55 51/7/51 52/8/52 
f 56/1/56 57/2/57 58/3/58 
f 58/3/58 57/2/57 59/4/59 60/5/60 
f 60/5/60 59/4/59 61/6/61 62/7/62 
f 62/7/62 61/6/61 63/8/63 
f 56/1/56 58/3/58 64/9/64 
f 64/9/64 58/3/58 60/5/60 65/10/65 
f 65/10/65 60/5/60 62/7/62 66/11/66 
f 66/11/66 62/7/62 63/8/63 
f 67/1/67 68/2/68 69/3/69 
f 69/3/69 68/2/68 70/4/70 71/5/71 
f 71/5/71 70/4/70 72/6/72 73/7/73 
f 73/7/73 72/6/72 74/8/74 
f 67/1/67 69/3/69 75/9/75 
f 75/9/75 69/3/69 71/5/71 76/10/76 
f 76/10/76 71/5/71 73/7/73 77/11/77 
f 77/11/77 73/7/73 74/8/74 
f 78/1/78 79/2/79 80/3/80 
f 80/3/80 79/2/79 81/4/81 82/5/82 
f 82/5/82 81/4/81 83/6/83 84/7/84 
f 84/7/84 83/6/83 85/8/85 
f 78/1/78 80/3/80 86/9/86 
f 86/9/86 80/3/80 82/5/82 87/10/87 
f 87/10/87 82/5/82 84/7/84 88/11/88 
f 88/11/88 84/7/84 85/8/85 
f 89/1/89 90/2/90 91/3/91 
f 91/3/91 90/2/90 92/4/92 93/5/93 
f 93/5/93 92/4/92 94/6/94 95/7/95 
f 95/7/95 94/6/94 96/8/96 
f 89/1/89 91/3/91 97/9/97 
f 97/9/97 91/3/91 93/5/93 98/10/98 
f 98/10/98 93/5/93 95/7/95 99/11/99 
f 99/11/99 95/7/95 96/8/96 
f 100/1/100 101/2/101 102/3/102 
f 102/3/102 101/2/101 103/4/103 104/5/104 
f 104/5/104 103/4/103 105/6/105 106/7/106 
f 106/7/106 105/6/105 107/8/107 
f 100/1/100 102/3/102 108/9/108 
f 108/9/108 102/3/102 104/5/104 109/10/109 
f 109/10/109 104/5/104 106/7/106 110/11/110 
f 110/11/110 106/7/106 107/8/107 
f 111/1/111 112/2/112 113/3/113 
f 113/3/113 112/2/112 114/4/114 115/5/115 
f 115/5/115 114/4/114 116/6/116 117/7/117 
f 117/7/117 116/6/116 118/8/118 
f 111/1/111 113/3/113 119/9/119 
f 119/9/119 113/3/113 115/5/115 120/10/120 
f 120/10/120 115/5/115 117/7/117 121/11/121 
f 121/11/121 117/7/117 118/8/118 
usemtl Material__56
f 122/12/122 123/13/122 124/14/122 125/15/122 126/16/122 127/17/122 128/18/122 129/19/122 130/20/122 131/21/122 
s 8
f 132/22/123 133/23/124 134/24/125 135/25/126 
f 136/26/127 137/27/128 133/23/124 132/22/123 
f 138/28/129 139/29/130 137/30/128 136/31/127 
f 140/32/131 141/33/132 139/29/130 138/28/129 
f 142/34/133 143/35/134 141/33/132 140/32/131 
f 144/36/135 145/37/136 143/35/134 142/34/133 
f 146/38/137 147/39/138 145/37/136 144/36/135 
f 148/40/139 149/41/140 147/39/138 146/38/137 
f 150/42/141 151/43/142 149/41/140 148/40/139 
f 135/25/126 134/24/125 151/43/142 150/42/141 
s 1
f 152/44/143 153/45/143 154/46/143 155/47/143 156/48/143 157/49/143 158/50/143 159/51/143 160/52/143 161/53/143 
s 8
f 162/54/144 154/55/145 153/56/146 163/57/147 
f 133/23/124 162/54/144 163/57/147 134/24/125 
f 135/25/126 131/58/148 130/59/149 132/22/123 
f 164/60/150 155/61/151 154/55/145 162/54/144 
f 137/27/128 164/60/150 162/54/144 133/23/124 
f 132/22/123 130/59/149 129/62/152 136/26/127 
f 165/63/153 156/64/154 155/65/151 164/66/150 
f 139/29/130 165/63/153 164/66/150 137/30/128 
f 136/31/127 129/67/152 128/68/155 138/28/129 
f 166/69/156 157/70/157 156/64/154 165/63/153 
f 141/33/132 166/69/156 165/63/153 139/29/130 
f 138/28/129 128/68/155 127/71/158 140/32/131 
f 167/72/159 158/73/160 157/70/157 166/69/156 
f 143/35/134 167/72/159 166/69/156 141/33/132 
f 140/32/131 127/71/158 126/74/161 142/34/133 
f 168/75/162 159/76/163 158/73/160 167/72/159 
f 145/37/136 168/75/162 167/72/159 143/35/134 
f 142/34/133 126/74/161 125/77/164 144/36/135 
f 169/78/165 160/79/166 159/76/163 168/75/162 
f 147/39/138 169/78/165 168/75/162 145/37/136 
f 144/36/135 125/77/164 124/80/167 146/38/137 
f 170/81/168 161/82/169 160/79/166 169/78/165 
f 149/41/140 170/81/168 169/78/165 147/39/138 
f 146/38/137 124/80/167 123/83/170 148/40/139 
f 171/84/171 152/85/172 161/82/169 170/81/168 
f 151/43/142 171/84/171 170/81/168 149/41/140 
f 148/40/139 123/83/170 122/86/173 150/42/141 
f 163/57/147 153/56/146 152/85/172 171/84/171 
f 134/24/125 163/57/147 171/84/171 151/43/142 
f 150/42/141 122/86/173 131/58/148 135/25/126 
# 86 polygons - 44 triangles

