# 3ds Max Wavefront OBJ Exporter v0.97b - (c)2007 guruware
# File Created: 12.04.2019 17:32:21

mtllib PalmTree03.mtl

#
# object PalmTree03
#

v  0.3080 0.0000 0.2238
v  0.1177 0.0000 0.3621
v  -0.1177 0.0000 0.3621
v  -0.3080 0.0000 0.2238
v  -0.3807 0.0000 0.0000
v  -0.3080 0.0000 -0.2238
v  -0.1177 0.0000 -0.3621
v  0.1177 0.0000 -0.3621
v  0.3080 0.0000 -0.2238
v  0.3807 0.0000 -0.0000
v  0.2038 1.6049 -0.1750
v  0.1377 3.2006 -0.1282
v  0.1786 3.1968 -0.0000
v  0.2602 1.6038 -0.0000
v  0.0546 1.6076 -0.2858
v  0.0278 3.2104 -0.2117
v  -0.1334 1.6109 -0.2889
v  -0.1144 3.2226 -0.2172
v  -0.2878 1.6136 -0.1798
v  -0.2342 3.2325 -0.1368
v  -0.3470 1.6146 0.0000
v  -0.2806 3.2362 0.0000
v  -0.2878 1.6136 0.1798
v  -0.2342 3.2325 0.1368
v  -0.1334 1.6109 0.2889
v  -0.1144 3.2226 0.2172
v  0.0546 1.6076 0.2858
v  0.0278 3.2104 0.2117
v  0.2038 1.6049 0.1750
v  0.1377 3.2006 0.1282
v  0.4727 6.3814 0.0118
v  0.4765 6.3804 -0.0000
v  0.4727 6.3814 -0.0118
v  0.4628 6.3840 -0.0191
v  0.4506 6.3872 -0.0191
v  0.4407 6.3898 -0.0118
v  0.4370 6.3908 -0.0000
v  0.4407 6.3898 0.0118
v  0.4506 6.3872 0.0191
v  0.4628 6.3840 0.0191
v  0.2252 4.7842 -0.0829
v  0.2516 4.7789 -0.0000
v  0.1562 4.7981 -0.1359
v  0.0682 4.8152 -0.1388
v  -0.0059 4.8290 -0.0873
v  -0.0346 4.8343 0.0000
v  -0.0059 4.8290 0.0873
v  0.0682 4.8152 0.1388
v  0.1562 4.7981 0.1359
v  0.2252 4.7842 0.0829
v  0.4248 6.3776 -0.0003
v  0.3097 6.1916 -0.6305
v  -0.0172 6.5187 -0.7403
v  0.0070 5.8433 -1.3892
v  -0.4139 6.2235 -1.4602
v  -0.4320 5.3184 -1.8799
v  -0.6650 5.5664 -1.9780
v  -0.7069 4.7138 -2.1627
v  -0.0449 6.1475 -0.3722
v  -0.5475 5.7900 -1.0759
v  -0.7843 5.2835 -1.6979
v  0.4558 6.3732 0.0245
v  0.8443 6.1769 -0.2602
v  0.6975 6.3935 -0.5025
v  1.1153 5.9227 -0.6978
v  0.9357 6.1744 -0.9839
v  1.2460 5.5904 -1.1479
v  1.1285 5.7545 -1.3348
v  1.2417 5.2081 -1.4933
v  0.4459 6.1477 -0.4441
v  0.6340 5.8874 -0.9198
v  0.9313 5.5673 -1.2931
v  0.4434 6.2616 0.0118
v  0.8420 6.1002 0.1475
v  0.9949 6.2519 -0.1320
v  1.2780 5.7503 0.1113
v  1.4538 5.9263 -0.2233
v  1.5485 5.2813 -0.0122
v  1.6631 5.3961 -0.2309
v  1.5514 4.8428 -0.1522
v  0.7320 6.0627 -0.2720
v  1.1451 5.7051 -0.3954
v  1.4616 5.2518 -0.3435
v  0.4154 6.3924 0.0028
v  0.9975 6.3181 0.2766
v  1.0879 6.6556 0.0028
v  1.7038 6.2262 0.3335
v  1.8091 6.6194 0.0028
v  2.3831 6.0335 0.2190
v  2.4518 6.2901 0.0028
v  2.9026 5.7259 0.0028
v  0.9975 6.3181 -0.2709
v  1.7038 6.2262 -0.3278
v  2.3831 6.0335 -0.2134
v  0.4127 6.3680 0.0272
v  0.8035 6.5832 -0.3027
v  0.5437 6.8602 -0.3244
v  1.0622 6.8330 -0.7984
v  0.7503 7.1552 -0.8276
v  1.2000 6.9908 -1.3744
v  0.9961 7.2010 -1.3937
v  1.2378 6.9896 -1.9227
v  0.3741 6.5631 -0.4908
v  0.5436 6.8087 -1.0255
v  0.8609 6.9749 -1.5230
v  0.4489 6.3957 0.0119
v  0.5005 6.5885 0.6643
v  0.7827 6.7794 0.5108
v  0.9253 6.6956 1.3896
v  1.2657 6.8801 1.2027
v  1.5102 6.5440 1.9733
v  1.7327 6.6873 1.8510
v  2.0240 6.1529 2.2341
v  1.0384 6.6043 0.2847
v  1.5750 6.7147 0.9312
v  1.9350 6.5565 1.6735
v  0.4558 6.3245 0.0245
v  0.0458 6.2078 0.6002
v  0.3441 6.5531 0.7819
v  -0.1518 6.0462 1.3485
v  0.2085 6.4477 1.5622
v  -0.1628 5.7649 2.0881
v  0.0728 6.0268 2.2277
v  -0.0389 5.3649 2.6610
v  0.6424 6.1718 0.6991
v  0.5687 6.0028 1.4679
v  0.3084 5.7365 2.1662
v  -0.1647 6.2853 -0.0448
v  -0.1462 6.5925 0.2539
v  -0.8311 6.2161 0.1218
v  -0.8058 6.5731 0.4804
v  -1.4234 6.0369 0.4295
v  -1.4068 6.2698 0.6640
v  -1.8430 5.7361 0.7723
v  0.0076 6.2456 0.4538
v  -0.6230 6.1682 0.7239
v  -1.2873 6.0055 0.8233
v  0.0369 6.7171 -0.3118
v  0.0739 6.8602 -0.1339
v  -0.3397 6.9722 -0.6095
v  -0.4094 7.1552 -0.3836
v  -0.8884 7.0537 -0.8469
v  -0.9519 7.2010 -0.6778
v  -1.4578 6.9896 -0.9647
v  -0.0519 6.7336 -0.0544
v  -0.5449 6.9479 -0.2056
v  -1.0657 7.0546 -0.5505
# 147 vertices

vn 0.0000 -1.0000 -0.0000
vn 0.8107 0.0603 -0.5823
vn 0.8127 0.0115 -0.5825
vn 1.0000 0.0034 -0.0000
vn 0.9980 0.0630 -0.0000
vn 0.3201 0.0529 -0.9459
vn 0.3263 0.0334 -0.9447
vn -0.2948 0.0431 -0.9546
vn -0.2847 0.0620 -0.9566
vn -0.8032 0.0346 -0.5948
vn -0.7962 0.0868 -0.5988
vn -0.9995 0.0312 0.0000
vn -0.9953 0.0966 0.0000
vn -0.8032 0.0346 0.5948
vn -0.7962 0.0868 0.5988
vn -0.2948 0.0431 0.9546
vn -0.2847 0.0620 0.9566
vn 0.3201 0.0529 0.9459
vn 0.3263 0.0334 0.9447
vn 0.8107 0.0603 0.5823
vn 0.8127 0.0115 0.5825
vn 0.2558 0.9667 -0.0000
vn 0.8088 -0.0629 -0.5847
vn 0.8051 -0.0987 -0.5849
vn 0.9903 -0.1391 0.0000
vn 0.9958 -0.0917 0.0000
vn 0.9972 0.0747 -0.0000
vn 0.8103 0.0700 -0.5818
vn 0.3278 0.0122 -0.9447
vn 0.3288 0.0060 -0.9444
vn 0.3186 0.0572 -0.9462
vn -0.2745 0.1082 -0.9555
vn -0.2676 0.1377 -0.9536
vn -0.2979 0.0406 -0.9537
vn -0.7789 0.1894 -0.5979
vn -0.7646 0.2475 -0.5951
vn -0.8047 0.0266 -0.5931
vn -0.9753 0.2210 0.0000
vn -0.9570 0.2899 0.0000
vn -0.9998 0.0212 0.0000
vn -0.7789 0.1894 0.5979
vn -0.7646 0.2475 0.5951
vn -0.8047 0.0266 0.5931
vn -0.2745 0.1082 0.9555
vn -0.2676 0.1377 0.9536
vn -0.2979 0.0406 0.9537
vn 0.3278 0.0122 0.9447
vn 0.3288 0.0060 0.9444
vn 0.3186 0.0572 0.9462
vn 0.8088 -0.0629 0.5847
vn 0.8051 -0.0987 0.5849
vn 0.8103 0.0700 0.5818
vn -0.0211 0.9797 0.1994
vn 0.6921 0.5877 -0.4192
vn -0.1087 0.9900 -0.0903
vn 0.5983 0.4549 -0.6596
vn -0.2892 0.8355 -0.4673
vn 0.5288 0.2486 -0.8115
vn -0.3898 0.4921 -0.7784
vn -0.4594 0.2096 -0.8631
vn -0.7462 0.5139 0.4231
vn -0.8919 0.4158 0.1781
vn -0.9618 0.2374 -0.1365
vn -0.0750 0.9972 0.0040
vn 0.6906 0.6961 0.1963
vn 0.0287 0.9757 -0.2173
vn 0.8193 0.5733 -0.0041
vn 0.1853 0.8257 -0.5328
vn 0.8937 0.3935 -0.2158
vn 0.3158 0.5516 -0.7720
vn 0.3757 0.3291 -0.8664
vn -0.6756 0.5959 -0.4341
vn -0.5916 0.4698 -0.6552
vn -0.4573 0.2944 -0.8392
vn -0.0052 0.9961 -0.0875
vn 0.3460 0.7354 0.5827
vn 0.3395 0.9248 -0.1716
vn 0.6598 0.4604 0.5939
vn 0.7465 0.6163 -0.2508
vn 0.8646 0.0805 0.4959
vn 0.9547 0.1393 -0.2628
vn 0.9475 -0.2239 -0.2285
vn -0.0140 0.6129 -0.7900
vn 0.2662 0.3265 -0.9069
vn 0.5091 -0.0405 -0.8598
vn -0.3645 0.9312 -0.0000
vn -0.1099 0.6476 0.7540
vn -0.1268 0.9919 0.0000
vn 0.1540 0.6082 0.7787
vn 0.2551 0.9669 0.0000
vn 0.4238 0.5143 0.7456
vn 0.6028 0.7979 0.0000
vn 0.7812 0.6242 -0.0000
vn -0.1099 0.6476 -0.7540
vn 0.1540 0.6082 -0.7787
vn 0.4238 0.5143 -0.7456
vn -0.3432 0.6047 0.7187
vn 0.4976 0.5276 0.6885
vn -0.2814 0.7801 0.5588
vn 0.6147 0.6323 0.4715
vn -0.1523 0.9575 0.2451
vn 0.6941 0.6911 0.2014
vn 0.0007 0.9942 -0.1080
vn 0.1003 0.9388 -0.3294
vn -0.8824 0.4629 0.0840
vn -0.8105 0.5655 -0.1528
vn -0.6705 0.6272 -0.3963
vn -0.3268 0.8421 -0.4290
vn -0.5383 0.8427 -0.0051
vn -0.2062 0.9483 -0.2412
vn -0.3617 0.8837 0.2970
vn 0.0113 0.9974 0.0708
vn -0.1164 0.7663 0.6318
vn 0.2628 0.8688 0.4196
vn 0.4157 0.6687 0.6165
vn 0.1347 0.8688 -0.4764
vn 0.3553 0.9111 -0.2089
vn 0.5932 0.7946 0.1294
vn 0.1030 0.9564 -0.2735
vn -0.6950 0.6981 -0.1722
vn 0.0659 0.9972 -0.0345
vn -0.7653 0.6387 0.0795
vn 0.0007 0.9410 0.3385
vn -0.7822 0.5212 0.3414
vn -0.0652 0.7443 0.6647
vn -0.1030 0.5568 0.8242
vn 0.7901 0.6085 0.0739
vn 0.7684 0.5462 0.3336
vn 0.6863 0.4326 0.5847
vn 0.3867 0.9202 -0.0604
vn -0.1123 0.6998 -0.7055
vn 0.1650 0.9861 0.0215
vn -0.3713 0.6683 -0.6446
vn -0.1968 0.9696 0.1453
vn -0.6196 0.5782 -0.5309
vn -0.5328 0.8089 0.2486
vn -0.7093 0.6397 0.2961
vn 0.3790 0.5866 0.7158
vn 0.1360 0.5513 0.8231
vn -0.1338 0.4662 0.8745
vn 0.7618 0.6024 0.2383
vn 0.7251 0.5154 -0.4568
vn 0.5871 0.7546 0.2931
vn 0.5173 0.7012 -0.4906
vn 0.2503 0.9558 0.1544
vn 0.2054 0.7780 -0.5937
vn -0.1072 0.9937 -0.0318
vn -0.2951 0.9398 -0.1722
vn 0.0723 0.5227 0.8494
vn -0.1358 0.6799 0.7206
vn -0.4094 0.7535 0.5144
# 151 vertex normals

vt 0.1486 0.7588 0.0000
vt 0.1025 0.7256 -0.6180
vt 0.0847 0.6717 -1.0000
vt 0.1020 0.6176 -1.0000
vt 0.1479 0.5840 -0.6180
vt 0.2047 0.5838 0.0000
vt 0.2508 0.6170 0.6180
vt 0.2685 0.6709 1.0000
vt 0.2512 0.7250 1.0000
vt 0.2054 0.7586 1.0000
vt 0.4387 0.2482 1.0000
vt 0.6126 0.4605 1.0000
vt 0.5887 0.4742 1.0000
vt 0.4141 0.2678 1.0000
vt 0.4645 0.2294 1.0000
vt 0.6396 0.4490 1.0000
vt 0.2474 0.4346 1.0000
vt 0.4576 0.6201 1.0000
vt 0.4433 0.6455 1.0000
vt 0.2265 0.4591 1.0000
vt 0.2682 0.4103 1.0000
vt 0.4736 0.5961 1.0000
vt 0.2902 0.3860 1.0000
vt 0.4908 0.5733 1.0000
vt 0.3139 0.3612 1.0000
vt 0.5088 0.5511 1.0000
vt 0.3386 0.3364 1.0000
vt 0.5276 0.5296 1.0000
vt 0.3638 0.3124 1.0000
vt 0.5471 0.5090 1.0000
vt 0.3894 0.2892 1.0000
vt 0.5673 0.4904 1.0000
vt 0.3651 0.8086 1.0000
vt 0.3804 0.7937 1.0000
vt 0.4015 0.7909 1.0000
vt 0.4204 0.8012 1.0000
vt 0.4298 0.8207 0.6180
vt 0.4262 0.8419 -0.0000
vt 0.4109 0.8568 -0.6180
vt 0.3898 0.8596 -1.0000
vt 0.3709 0.8493 -1.0000
vt 0.3615 0.8298 -0.6180
vt 0.8177 0.6799 1.0000
vt 0.9596 0.8566 1.0000
vt 0.9510 0.8682 1.0000
vt 0.7939 0.6893 1.0000
vt 0.2292 0.0607 1.0000
vt 0.2608 0.0350 1.0000
vt 0.8444 0.6739 1.0000
vt 0.9728 0.8503 1.0000
vt 0.2931 0.0103 1.0000
vt 0.6837 0.8226 1.0000
vt 0.8823 0.9824 1.0000
vt 0.8688 0.9922 1.0000
vt 0.6722 0.8451 1.0000
vt 0.0169 0.2742 1.0000
vt 0.0443 0.2439 1.0000
vt 0.6992 0.8029 1.0000
vt 0.9006 0.9752 1.0000
vt 0.0718 0.2131 1.0000
vt 0.7155 0.7835 1.0000
vt 0.9168 0.9656 1.0000
vt 0.0991 0.1841 1.0000
vt 0.7307 0.7633 1.0000
vt 0.9290 0.9501 1.0000
vt 0.1247 0.1579 1.0000
vt 0.7448 0.7425 1.0000
vt 0.9371 0.9288 1.0000
vt 0.1496 0.1332 1.0000
vt 0.7587 0.7220 1.0000
vt 0.9424 0.9057 1.0000
vt 0.1751 0.1091 1.0000
vt 0.7744 0.7036 1.0000
vt 0.9475 0.8841 1.0000
vt 0.2009 0.0857 1.0000
vt 0.9880 0.6128 0.0000
vt 0.7822 0.5304 0.0000
vt 0.8624 0.4631 0.0000
vt 0.6289 0.4039 0.0000
vt 0.7368 0.3134 0.0000
vt 0.5309 0.2310 0.0000
vt 0.6111 0.1637 0.0000
vt 0.4855 0.0139 0.0000
vt 0.9426 0.3958 0.0000
vt 0.8446 0.2229 0.0000
vt 0.6914 0.0963 0.0000
# 86 texture coords

o PalmTree03
g PalmTree03
usemtl Material__56
s 1
f 1/1/1 2/2/1 3/3/1 4/4/1 5/5/1 6/6/1 7/7/1 8/8/1 9/9/1 10/10/1 
s 8
f 11/11/2 12/12/3 13/13/4 14/14/5 
f 15/15/6 16/16/7 12/12/3 11/11/2 
f 17/17/8 18/18/9 16/19/7 15/20/6 
f 19/21/10 20/22/11 18/18/9 17/17/8 
f 21/23/12 22/24/13 20/22/11 19/21/10 
f 23/25/14 24/26/15 22/24/13 21/23/12 
f 25/27/16 26/28/17 24/26/15 23/25/14 
f 27/29/18 28/30/19 26/28/17 25/27/16 
f 29/31/20 30/32/21 28/30/19 27/29/18 
f 14/14/5 13/13/4 30/32/21 29/31/20 
s 1
f 31/33/22 32/34/22 33/35/22 34/36/22 35/37/22 36/38/22 37/39/22 38/40/22 39/41/22 40/42/22 
s 8
f 41/43/23 33/44/24 32/45/25 42/46/26 
f 12/12/3 41/43/23 42/46/26 13/13/4 
f 14/14/5 10/47/27 9/48/28 11/11/2 
f 43/49/29 34/50/30 33/44/24 41/43/23 
f 16/16/7 43/49/29 41/43/23 12/12/3 
f 11/11/2 9/48/28 8/51/31 15/15/6 
f 44/52/32 35/53/33 34/54/30 43/55/29 
f 18/18/9 44/52/32 43/55/29 16/19/7 
f 15/20/6 8/56/31 7/57/34 17/17/8 
f 45/58/35 36/59/36 35/53/33 44/52/32 
f 20/22/11 45/58/35 44/52/32 18/18/9 
f 17/17/8 7/57/34 6/60/37 19/21/10 
f 46/61/38 37/62/39 36/59/36 45/58/35 
f 22/24/13 46/61/38 45/58/35 20/22/11 
f 19/21/10 6/60/37 5/63/40 21/23/12 
f 47/64/41 38/65/42 37/62/39 46/61/38 
f 24/26/15 47/64/41 46/61/38 22/24/13 
f 21/23/12 5/63/40 4/66/43 23/25/14 
f 48/67/44 39/68/45 38/65/42 47/64/41 
f 26/28/17 48/67/44 47/64/41 24/26/15 
f 23/25/14 4/66/43 3/69/46 25/27/16 
f 49/70/47 40/71/48 39/68/45 48/67/44 
f 28/30/19 49/70/47 48/67/44 26/28/17 
f 25/27/16 3/69/46 2/72/49 27/29/18 
f 50/73/50 31/74/51 40/71/48 49/70/47 
f 30/32/21 50/73/50 49/70/47 28/30/19 
f 27/29/18 2/72/49 1/75/52 29/31/20 
f 42/46/26 32/45/25 31/74/51 50/73/50 
f 13/13/4 42/46/26 50/73/50 30/32/21 
f 29/31/20 1/75/52 10/47/27 14/14/5 
usemtl Material__57
s 1
f 51/76/53 52/77/54 53/78/55 
f 53/78/55 52/77/54 54/79/56 55/80/57 
f 55/80/57 54/79/56 56/81/58 57/82/59 
f 57/82/59 56/81/58 58/83/60 
f 51/76/53 53/78/55 59/84/61 
f 59/84/61 53/78/55 55/80/57 60/85/62 
f 60/85/62 55/80/57 57/82/59 61/86/63 
f 61/86/63 57/82/59 58/83/60 
f 62/76/64 63/77/65 64/78/66 
f 64/78/66 63/77/65 65/79/67 66/80/68 
f 66/80/68 65/79/67 67/81/69 68/82/70 
f 68/82/70 67/81/69 69/83/71 
f 62/76/64 64/78/66 70/84/72 
f 70/84/72 64/78/66 66/80/68 71/85/73 
f 71/85/73 66/80/68 68/82/70 72/86/74 
f 72/86/74 68/82/70 69/83/71 
f 73/76/75 74/77/76 75/78/77 
f 75/78/77 74/77/76 76/79/78 77/80/79 
f 77/80/79 76/79/78 78/81/80 79/82/81 
f 79/82/81 78/81/80 80/83/82 
f 73/76/75 75/78/77 81/84/83 
f 81/84/83 75/78/77 77/80/79 82/85/84 
f 82/85/84 77/80/79 79/82/81 83/86/85 
f 83/86/85 79/82/81 80/83/82 
f 84/76/86 85/77/87 86/78/88 
f 86/78/88 85/77/87 87/79/89 88/80/90 
f 88/80/90 87/79/89 89/81/91 90/82/92 
f 90/82/92 89/81/91 91/83/93 
f 84/76/86 86/78/88 92/84/94 
f 92/84/94 86/78/88 88/80/90 93/85/95 
f 93/85/95 88/80/90 90/82/92 94/86/96 
f 94/86/96 90/82/92 91/83/93 
f 95/76/97 96/77/98 97/78/99 
f 97/78/99 96/77/98 98/79/100 99/80/101 
f 99/80/101 98/79/100 100/81/102 101/82/103 
f 101/82/103 100/81/102 102/83/104 
f 95/76/97 97/78/99 103/84/105 
f 103/84/105 97/78/99 99/80/101 104/85/106 
f 104/85/106 99/80/101 101/82/103 105/86/107 
f 105/86/107 101/82/103 102/83/104 
f 106/76/108 107/77/109 108/78/110 
f 108/78/110 107/77/109 109/79/111 110/80/112 
f 110/80/112 109/79/111 111/81/113 112/82/114 
f 112/82/114 111/81/113 113/83/115 
f 106/76/108 108/78/110 114/84/116 
f 114/84/116 108/78/110 110/80/112 115/85/117 
f 115/85/117 110/80/112 112/82/114 116/86/118 
f 116/86/118 112/82/114 113/83/115 
f 117/76/119 118/77/120 119/78/121 
f 119/78/121 118/77/120 120/79/122 121/80/123 
f 121/80/123 120/79/122 122/81/124 123/82/125 
f 123/82/125 122/81/124 124/83/126 
f 117/76/119 119/78/121 125/84/127 
f 125/84/127 119/78/121 121/80/123 126/85/128 
f 126/85/128 121/80/123 123/82/125 127/86/129 
f 127/86/129 123/82/125 124/83/126 
f 117/76/130 128/77/131 129/78/132 
f 129/78/132 128/77/131 130/79/133 131/80/134 
f 131/80/134 130/79/133 132/81/135 133/82/136 
f 133/82/136 132/81/135 134/83/137 
f 117/76/130 129/78/132 135/84/138 
f 135/84/138 129/78/132 131/80/134 136/85/139 
f 136/85/139 131/80/134 133/82/136 137/86/140 
f 137/86/140 133/82/136 134/83/137 
f 95/76/141 138/77/142 139/78/143 
f 139/78/143 138/77/142 140/79/144 141/80/145 
f 141/80/145 140/79/144 142/81/146 143/82/147 
f 143/82/147 142/81/146 144/83/148 
f 95/76/141 139/78/143 145/84/149 
f 145/84/149 139/78/143 141/80/145 146/85/150 
f 146/85/150 141/80/145 143/82/147 147/86/151 
f 147/86/151 143/82/147 144/83/148 
# 78 polygons - 36 triangles

