# 3ds Max Wavefront OBJ Exporter v0.97b - (c)2007 guruware
# File Created: 12.04.2019 17:25:57

mtllib PalmTree01.mtl

#
# object Palmtree01
#

v  -0.0608 4.4844 0.0007
v  -0.3068 4.2804 -0.4097
v  -0.4978 4.5787 -0.3690
v  -0.7363 4.0875 -0.7380
v  -0.9643 4.4375 -0.6835
v  -1.2291 3.8572 -0.9231
v  -1.3782 4.0857 -0.8872
v  -1.6662 3.5854 -0.9442
v  -0.5673 4.3920 -0.0733
v  -1.0509 4.2224 -0.3318
v  -1.4349 3.9454 -0.6574
v  -0.1084 4.5231 0.0279
v  0.0503 4.2443 -0.2890
v  -0.1345 4.4210 -0.5323
v  -0.0001 3.8227 -0.6544
v  -0.2244 4.0306 -0.9378
v  -0.2008 3.3497 -0.8651
v  -0.3475 3.4855 -1.0500
v  -0.4617 2.9719 -0.8305
v  -0.3744 4.3397 -0.2867
v  -0.5131 3.9379 -0.6516
v  -0.5362 3.4251 -0.8632
v  -0.0711 4.4999 -0.0182
v  -0.4858 4.5536 -0.1382
v  -0.4397 4.7497 0.0503
v  -0.9582 4.5322 -0.1102
v  -0.9028 4.7603 0.1174
v  -1.4266 4.3035 0.0118
v  -1.3904 4.4524 0.1606
v  -1.6449 4.1849 0.1996
v  -0.4009 4.5373 0.2277
v  -0.8557 4.5125 0.3318
v  -1.3596 4.2906 0.3008
v  -0.0777 4.5175 -0.0203
v  -0.2222 4.2421 0.3766
v  0.0872 4.4946 0.5078
v  -0.1378 3.9491 0.8164
v  0.2337 4.2451 0.9674
v  0.0929 3.6199 1.1790
v  0.3358 3.8131 1.2775
v  0.3755 3.2749 1.3834
v  0.2945 4.3267 0.2945
v  0.4862 4.0513 0.7172
v  0.5010 3.6867 1.1142
v  -0.1578 4.5170 -0.0326
v  0.2170 4.3854 0.1641
v  0.2722 4.5221 0.0862
v  0.5412 4.2250 0.3151
v  0.6683 4.3437 0.1879
v  0.8545 3.9252 0.3503
v  0.9607 4.0133 0.2544
v  1.0976 3.5891 0.2740
v  0.2638 4.4316 -0.0213
v  0.6194 4.2440 -0.0019
v  0.9349 3.9348 0.1149
v  -0.0920 4.5101 -0.0230
v  -0.5130 4.7025 0.4932
v  -0.3775 4.9398 0.5853
v  -0.8672 4.7636 0.9430
v  -0.6924 4.9789 1.1482
v  -1.1095 4.4534 1.3966
v  -0.9812 4.6205 1.5664
v  -1.1929 3.9279 1.7661
v  -0.2607 4.6703 0.5910
v  -0.4558 4.5929 1.1082
v  -0.8120 4.3343 1.5519
v  -0.1056 4.4884 0.0093
v  0.2716 4.6425 0.0153
v  0.2064 4.8205 -0.1666
v  0.6940 4.7080 -0.1835
v  0.6114 4.8803 -0.4007
v  1.0250 4.5359 -0.4711
v  0.9724 4.6695 -0.6142
v  1.1585 4.1545 -0.7285
v  0.0761 4.6619 -0.3202
v  0.4579 4.7315 -0.5888
v  0.8706 4.5512 -0.7361
v  0.1407 0.0000 0.1135
v  0.0478 0.0000 0.1810
v  -0.0671 0.0000 0.1810
v  -0.1601 0.0000 0.1135
v  -0.1956 0.0000 0.0042
v  -0.1601 0.0000 -0.1050
v  -0.0671 0.0000 -0.1726
v  0.0478 0.0000 -0.1726
v  0.1407 0.0000 -0.1050
v  0.1762 0.0000 0.0042
v  0.0378 1.5675 -0.0812
v  -0.0333 3.0349 -0.0577
v  -0.0111 3.0367 0.0042
v  0.0575 1.5755 0.0042
v  -0.0422 1.5624 -0.1352
v  -0.0983 3.0316 -0.0980
v  -0.1401 1.5644 -0.1367
v  -0.1816 3.0351 -0.1006
v  -0.2143 1.5679 -0.0835
v  -0.2434 3.0351 -0.0618
v  -0.2411 1.5653 0.0042
v  -0.2511 3.0231 0.0042
v  -0.2111 1.5681 0.0920
v  -0.2284 3.0270 0.0703
v  -0.1377 1.5703 0.1452
v  -0.1761 3.0384 0.1091
v  -0.0415 1.5684 0.1437
v  -0.1000 3.0390 0.1064
v  0.0359 1.5736 0.0896
v  -0.0309 3.0387 0.0661
v  -0.0539 4.4578 0.0160
v  -0.0504 4.4561 0.0042
v  -0.0539 4.4578 -0.0076
v  -0.0632 4.4621 -0.0149
v  -0.0747 4.4674 -0.0149
v  -0.0839 4.4717 -0.0076
v  -0.0875 4.4733 0.0042
v  -0.0839 4.4717 0.0160
v  -0.0747 4.4674 0.0233
v  -0.0632 4.4621 0.0233
v  -0.1633 4.4672 0.0545
v  0.1400 4.4171 -0.0647
v  0.0907 4.5852 -0.2541
v  0.4049 4.2636 -0.3369
v  0.3421 4.4595 -0.5618
v  0.5462 4.0052 -0.6164
v  0.5051 4.1331 -0.7633
v  0.5238 3.7175 -0.7898
v  -0.1061 4.4188 -0.2665
v  0.1076 4.2656 -0.5806
v  0.3518 4.0066 -0.7758
# 128 vertices

vn 0.2861 0.9535 -0.0949
vn 0.5298 0.4436 -0.7229
vn 0.0941 0.9644 -0.2472
vn 0.3321 0.3483 -0.8766
vn -0.2135 0.8658 -0.4526
vn 0.0959 0.2148 -0.9719
vn -0.4922 0.6375 -0.5927
vn -0.6346 0.4380 -0.6368
vn -0.3633 0.8263 0.4304
vn -0.5902 0.7435 0.3144
vn -0.7872 0.5933 0.1684
vn 0.2144 0.9591 -0.1848
vn 0.8326 0.4645 -0.3016
vn 0.1841 0.8325 -0.5225
vn 0.8242 0.1299 -0.5512
vn 0.1001 0.4673 -0.8784
vn 0.6607 -0.2504 -0.7076
vn -0.0115 -0.0265 -0.9996
vn -0.0893 -0.3746 -0.9229
vn -0.5571 0.7767 -0.2939
vn -0.6952 0.4713 -0.5427
vn -0.7118 0.0579 -0.7000
vn 0.5516 0.8316 -0.0645
vn 0.0813 0.6850 -0.7240
vn 0.2743 0.9616 -0.0116
vn -0.3125 0.7055 -0.6361
vn -0.2246 0.9713 0.0789
vn -0.5962 0.6354 -0.4908
vn -0.5911 0.7962 0.1289
vn -0.6988 0.6916 0.1826
vn 0.3152 0.6455 0.6957
vn -0.1033 0.6367 0.7642
vn -0.3812 0.5630 0.7333
vn -0.1779 0.9791 0.0980
vn -0.6727 0.6292 0.3893
vn -0.0112 0.9525 0.3044
vn -0.6328 0.4773 0.6098
vn 0.0931 0.7625 0.6402
vn -0.5393 0.2708 0.7974
vn 0.1677 0.4443 0.8801
vn 0.0988 0.1990 0.9750
vn 0.6345 0.7727 0.0187
vn 0.7472 0.6035 0.2785
vn 0.7804 0.3451 0.5215
vn -0.0700 0.9750 0.2111
vn -0.0913 0.5936 0.7995
vn 0.1585 0.9768 0.1442
vn 0.1867 0.5555 0.8103
vn 0.5371 0.8170 0.2095
vn 0.4555 0.3518 0.8178
vn 0.8098 0.5232 0.2655
vn 0.8996 0.3048 0.3128
vn 0.3164 0.7387 -0.5951
vn 0.5759 0.6413 -0.5070
vn 0.8194 0.4158 -0.3946
vn 0.3201 0.8381 -0.4418
vn -0.5557 0.6195 -0.5545
vn 0.2627 0.9471 -0.1844
vn -0.6959 0.6767 -0.2406
vn 0.0128 0.9490 0.3149
vn -0.8541 0.4914 0.1707
vn -0.2383 0.6502 0.7215
vn -0.2784 0.3437 0.8969
vn 0.8730 0.4101 0.2640
vn 0.7403 0.3801 0.5545
vn 0.4878 0.2395 0.8394
vn -0.5663 0.7323 0.3782
vn -0.0524 0.7238 0.6880
vn -0.3062 0.9256 0.2226
vn 0.4180 0.7586 0.4998
vn 0.1659 0.9848 -0.0516
vn 0.8331 0.5302 0.1579
vn 0.6087 0.7268 -0.3182
vn 0.8080 0.3900 -0.4417
vn -0.5998 0.7658 -0.2319
vn -0.1922 0.8094 -0.5549
vn 0.3089 0.5643 -0.7656
vn 0.0000 -1.0000 -0.0000
vn 0.8067 0.0561 -0.5882
vn 0.7911 0.0403 -0.6103
vn 0.9992 0.0385 -0.0093
vn 0.9982 0.0607 0.0004
vn 0.2975 0.0369 -0.9540
vn 0.2900 0.0414 -0.9561
vn -0.2950 0.0112 -0.9554
vn -0.2816 0.0465 -0.9584
vn -0.8185 -0.0120 -0.5744
vn -0.8386 0.0563 -0.5418
vn -0.9993 -0.0193 0.0307
vn -0.9963 0.0469 0.0718
vn -0.8066 -0.0096 0.5910
vn -0.8105 0.0492 0.5837
vn -0.3040 0.0121 0.9526
vn -0.3098 0.0495 0.9495
vn 0.2989 0.0369 0.9536
vn 0.2840 0.0418 0.9579
vn 0.8069 0.0556 0.5880
vn 0.7926 0.0403 0.6084
vn 0.4198 0.9076 -0.0000
vn 0.7556 0.0336 -0.6542
vn 0.9995 0.0274 -0.0151
vn 0.9973 0.0727 0.0036
vn 0.8158 0.0643 -0.5747
vn 0.2399 0.0508 -0.9695
vn 0.3125 0.0397 -0.9491
vn -0.3295 0.0812 -0.9407
vn -0.2947 0.0083 -0.9556
vn -0.8719 0.1135 -0.4763
vn -0.8066 -0.0194 -0.5908
vn -0.9890 0.1123 0.0961
vn -0.9995 -0.0291 0.0075
vn -0.8335 0.1038 0.5427
vn -0.8031 -0.0182 0.5956
vn -0.3764 0.0820 0.9228
vn -0.2960 0.0088 0.9552
vn 0.2318 0.0512 0.9714
vn 0.3161 0.0399 0.9479
vn 0.7555 0.0347 0.6542
vn 0.8158 0.0645 0.5747
vn -0.1755 0.9591 0.2222
vn 0.5381 0.6977 0.4729
vn 0.0529 0.9970 -0.0560
vn 0.8242 0.5186 0.2273
vn 0.3613 0.8255 -0.4336
vn 0.9709 0.2282 -0.0728
vn 0.5743 0.4300 -0.6966
vn 0.6325 0.0775 -0.7707
vn -0.5633 0.7054 -0.4303
vn -0.3799 0.5270 -0.7602
vn -0.1169 0.2358 -0.9648
# 130 vertex normals

vt 0.5359 0.9804 0.0000
vt 0.3391 0.9116 0.0000
vt 0.4073 0.8271 0.0000
vt 0.1782 0.7580 0.0000
vt 0.2786 0.6738 0.0000
vt 0.0683 0.5889 0.0000
vt 0.1499 0.5204 0.0000
vt 0.0213 0.3671 0.0000
vt 0.5023 0.7746 0.0000
vt 0.3789 0.5896 0.0000
vt 0.2315 0.4519 0.0000
vt 0.5227 0.2159 0.0000
vt 0.4822 0.1868 -0.6180
vt 0.4666 0.1394 -1.0000
vt 0.4818 0.0919 -1.0000
vt 0.5221 0.0624 -0.6180
vt 0.5720 0.0622 0.0000
vt 0.6124 0.0914 0.6180
vt 0.6280 0.1387 1.0000
vt 0.6128 0.1862 1.0000
vt 0.5726 0.2157 1.0000
vt 0.4613 0.3396 1.0000
vt 0.7377 0.6217 1.0000
vt 0.7247 0.6350 1.0000
vt 0.4476 0.3558 1.0000
vt 0.4800 0.3215 1.0000
vt 0.7522 0.6071 1.0000
vt 0.3351 0.4751 1.0000
vt 0.6260 0.7440 1.0000
vt 0.6129 0.7613 1.0000
vt 0.3168 0.4940 1.0000
vt 0.3521 0.4574 1.0000
vt 0.6373 0.7293 1.0000
vt 0.3686 0.4382 1.0000
vt 0.6461 0.7140 1.0000
vt 0.3854 0.4204 1.0000
vt 0.6605 0.6991 1.0000
vt 0.4005 0.4040 1.0000
vt 0.6770 0.6853 1.0000
vt 0.4160 0.3859 1.0000
vt 0.6935 0.6678 1.0000
vt 0.4329 0.3698 1.0000
vt 0.7107 0.6496 1.0000
vt 0.7667 0.1102 1.0000
vt 0.7724 0.1077 1.0000
vt 0.7785 0.1092 1.0000
vt 0.7826 0.1140 1.0000
vt 0.7831 0.1203 0.6180
vt 0.7798 0.1257 -0.0000
vt 0.7741 0.1282 -0.6180
vt 0.7681 0.1267 -1.0000
vt 0.7640 0.1219 -1.0000
vt 0.7635 0.1156 -0.6180
vt 0.9885 0.9080 1.0000
vt 0.9764 0.9196 1.0000
vt 0.1556 0.0472 1.0000
vt 0.1782 0.0263 1.0000
vt 0.9949 0.9026 1.0000
vt 0.2018 0.0065 1.0000
vt 0.9094 0.9835 1.0000
vt 0.9012 0.9904 1.0000
vt 0.0035 0.2119 1.0000
vt 0.0251 0.1898 1.0000
vt 0.9194 0.9758 1.0000
vt 0.0464 0.1672 1.0000
vt 0.9291 0.9678 1.0000
vt 0.0658 0.1461 1.0000
vt 0.9382 0.9595 1.0000
vt 0.0832 0.1265 1.0000
vt 0.9466 0.9509 1.0000
vt 0.1005 0.1066 1.0000
vt 0.9548 0.9421 1.0000
vt 0.1178 0.0868 1.0000
vt 0.9632 0.9330 1.0000
vt 0.1356 0.0675 1.0000
# 75 texture coords

o Palmtree01
g Palmtree01
usemtl Material__57
s 1
f 1/1/1 2/2/2 3/3/3 
f 3/3/3 2/2/2 4/4/4 5/5/5 
f 5/5/5 4/4/4 6/6/6 7/7/7 
f 7/7/7 6/6/6 8/8/8 
f 1/1/1 3/3/3 9/9/9 
f 9/9/9 3/3/3 5/5/5 10/10/10 
f 10/10/10 5/5/5 7/7/7 11/11/11 
f 11/11/11 7/7/7 8/8/8 
f 12/1/12 13/2/13 14/3/14 
f 14/3/14 13/2/13 15/4/15 16/5/16 
f 16/5/16 15/4/15 17/6/17 18/7/18 
f 18/7/18 17/6/17 19/8/19 
f 12/1/12 14/3/14 20/9/20 
f 20/9/20 14/3/14 16/5/16 21/10/21 
f 21/10/21 16/5/16 18/7/18 22/11/22 
f 22/11/22 18/7/18 19/8/19 
f 23/1/23 24/2/24 25/3/25 
f 25/3/25 24/2/24 26/4/26 27/5/27 
f 27/5/27 26/4/26 28/6/28 29/7/29 
f 29/7/29 28/6/28 30/8/30 
f 23/1/23 25/3/25 31/9/31 
f 31/9/31 25/3/25 27/5/27 32/10/32 
f 32/10/32 27/5/27 29/7/29 33/11/33 
f 33/11/33 29/7/29 30/8/30 
f 34/1/34 35/2/35 36/3/36 
f 36/3/36 35/2/35 37/4/37 38/5/38 
f 38/5/38 37/4/37 39/6/39 40/7/40 
f 40/7/40 39/6/39 41/8/41 
f 34/1/34 36/3/36 42/9/42 
f 42/9/42 36/3/36 38/5/38 43/10/43 
f 43/10/43 38/5/38 40/7/40 44/11/44 
f 44/11/44 40/7/40 41/8/41 
f 45/1/45 46/2/46 47/3/47 
f 47/3/47 46/2/46 48/4/48 49/5/49 
f 49/5/49 48/4/48 50/6/50 51/7/51 
f 51/7/51 50/6/50 52/8/52 
f 45/1/45 47/3/47 53/9/53 
f 53/9/53 47/3/47 49/5/49 54/10/54 
f 54/10/54 49/5/49 51/7/51 55/11/55 
f 55/11/55 51/7/51 52/8/52 
f 56/1/56 57/2/57 58/3/58 
f 58/3/58 57/2/57 59/4/59 60/5/60 
f 60/5/60 59/4/59 61/6/61 62/7/62 
f 62/7/62 61/6/61 63/8/63 
f 56/1/56 58/3/58 64/9/64 
f 64/9/64 58/3/58 60/5/60 65/10/65 
f 65/10/65 60/5/60 62/7/62 66/11/66 
f 66/11/66 62/7/62 63/8/63 
f 67/1/67 68/2/68 69/3/69 
f 69/3/69 68/2/68 70/4/70 71/5/71 
f 71/5/71 70/4/70 72/6/72 73/7/73 
f 73/7/73 72/6/72 74/8/74 
f 67/1/67 69/3/69 75/9/75 
f 75/9/75 69/3/69 71/5/71 76/10/76 
f 76/10/76 71/5/71 73/7/73 77/11/77 
f 77/11/77 73/7/73 74/8/74 
usemtl Material__56
f 78/12/78 79/13/78 80/14/78 81/15/78 82/16/78 83/17/78 84/18/78 85/19/78 86/20/78 87/21/78 
s 8
f 88/22/79 89/23/80 90/24/81 91/25/82 
f 92/26/83 93/27/84 89/23/80 88/22/79 
f 94/28/85 95/29/86 93/30/84 92/31/83 
f 96/32/87 97/33/88 95/29/86 94/28/85 
f 98/34/89 99/35/90 97/33/88 96/32/87 
f 100/36/91 101/37/92 99/35/90 98/34/89 
f 102/38/93 103/39/94 101/37/92 100/36/91 
f 104/40/95 105/41/96 103/39/94 102/38/93 
f 106/42/97 107/43/98 105/41/96 104/40/95 
f 91/25/82 90/24/81 107/43/98 106/42/97 
s 1
f 108/44/99 109/45/99 110/46/99 111/47/99 112/48/99 113/49/99 114/50/99 115/51/99 116/52/99 117/53/99 
s 8
f 89/23/80 110/54/100 109/55/101 90/24/81 
f 91/25/82 87/56/102 86/57/103 88/22/79 
f 93/27/84 111/58/104 110/54/100 89/23/80 
f 88/22/79 86/57/103 85/59/105 92/26/83 
f 95/29/86 112/60/106 111/61/104 93/30/84 
f 92/31/83 85/62/105 84/63/107 94/28/85 
f 97/33/88 113/64/108 112/60/106 95/29/86 
f 94/28/85 84/63/107 83/65/109 96/32/87 
f 99/35/90 114/66/110 113/64/108 97/33/88 
f 96/32/87 83/65/109 82/67/111 98/34/89 
f 101/37/92 115/68/112 114/66/110 99/35/90 
f 98/34/89 82/67/111 81/69/113 100/36/91 
f 103/39/94 116/70/114 115/68/112 101/37/92 
f 100/36/91 81/69/113 80/71/115 102/38/93 
f 105/41/96 117/72/116 116/70/114 103/39/94 
f 102/38/93 80/71/115 79/73/117 104/40/95 
f 107/43/98 108/74/118 117/72/116 105/41/96 
f 104/40/95 79/73/117 78/75/119 106/42/97 
f 90/24/81 109/55/101 108/74/118 107/43/98 
f 106/42/97 78/75/119 87/56/102 91/25/82 
usemtl Material__57
s 1
f 118/1/120 119/2/121 120/3/122 
f 120/3/122 119/2/121 121/4/123 122/5/124 
f 122/5/124 121/4/123 123/6/125 124/7/126 
f 124/7/126 123/6/125 125/8/127 
f 118/1/120 120/3/122 126/9/128 
f 126/9/128 120/3/122 122/5/124 127/10/129 
f 127/10/129 122/5/124 124/7/126 128/11/130 
f 128/11/130 124/7/126 125/8/127 
# 64 polygons - 32 triangles

