# 3ds Max Wavefront OBJ Exporter v0.97b - (c)2007 guruware
# File Created: 23.05.2019 15:37:21

mtllib BarilOBJ.mtl

#
# object Baril
#

v  0.1590 -0.4719 -0.2754
v  -0.3071 -0.4719 0.0823
v  -0.2754 -0.4719 -0.1590
v  -0.0823 -0.4719 -0.3071
v  -0.3362 -0.1355 -0.1941
v  -0.3362 0.1355 -0.1941
v  -0.1005 0.1355 -0.3750
v  -0.1005 -0.1355 -0.3750
v  -0.3750 -0.1355 0.1005
v  -0.3750 0.1355 0.1005
v  -0.1941 -0.1355 0.3362
v  -0.1941 0.1355 0.3362
v  0.1005 -0.1355 0.3750
v  0.1005 0.1355 0.3750
v  0.3362 -0.1355 0.1941
v  0.3362 0.1355 0.1941
v  0.3750 -0.1355 -0.1005
v  0.3750 0.1355 -0.1005
v  0.1941 -0.1355 -0.3362
v  0.1941 0.1355 -0.3362
v  0.1590 0.4719 -0.2754
v  -0.3071 0.4719 0.0823
v  -0.1590 0.4719 0.2754
v  0.3071 0.4719 -0.0823
v  -0.3154 0.2524 -0.1821
v  -0.2754 0.4719 -0.1590
v  -0.0823 0.4719 -0.3071
v  -0.0943 0.2524 -0.3518
v  -0.0943 -0.2524 -0.3518
v  -0.3154 -0.2524 -0.1821
v  -0.3518 0.2524 0.0943
v  -0.3518 -0.2524 0.0943
v  -0.1821 0.2524 0.3154
v  -0.1590 -0.4719 0.2754
v  -0.1821 -0.2524 0.3154
v  0.0943 0.2524 0.3518
v  0.0823 0.4719 0.3071
v  0.0823 -0.4719 0.3071
v  0.0943 -0.2524 0.3518
v  0.3154 0.2524 0.1821
v  0.2754 0.4719 0.1590
v  0.2754 -0.4719 0.1590
v  0.3154 -0.2524 0.1821
v  0.3518 0.2524 -0.0943
v  0.3071 -0.4719 -0.0823
v  0.3518 -0.2524 -0.0943
v  0.1821 0.2524 -0.3154
v  0.1821 -0.2524 -0.3154
v  -0.3575 0.1419 -0.2064
v  -0.3367 0.2588 -0.1944
v  -0.1006 0.2588 -0.3755
v  -0.1068 0.1419 -0.3987
v  -0.1068 -0.1419 -0.3987
v  -0.1006 -0.2588 -0.3755
v  -0.3367 -0.2588 -0.1944
v  -0.3575 -0.1419 -0.2064
v  -0.3987 0.1419 0.1068
v  -0.3755 0.2588 0.1006
v  -0.3755 -0.2588 0.1006
v  -0.3987 -0.1419 0.1068
v  -0.2064 0.1419 0.3575
v  -0.1944 0.2588 0.3367
v  -0.1944 -0.2588 0.3367
v  -0.2064 -0.1419 0.3575
v  0.1068 0.1419 0.3987
v  0.1006 0.2588 0.3755
v  0.1006 -0.2588 0.3755
v  0.1068 -0.1419 0.3987
v  0.3575 0.1419 0.2064
v  0.3367 0.2588 0.1944
v  0.3367 -0.2588 0.1944
v  0.3575 -0.1419 0.2064
v  0.3987 0.1419 -0.1068
v  0.3755 0.2588 -0.1006
v  0.3755 -0.2588 -0.1006
v  0.3987 -0.1419 -0.1068
v  0.2064 0.1419 -0.3575
v  0.1944 0.2588 -0.3367
v  0.1944 -0.2588 -0.3367
v  0.2064 -0.1419 -0.3575
# 80 vertices

vn 0.0000 -1.0000 -0.0000
vn -0.8660 0.0000 -0.5000
vn -0.2588 0.0000 -0.9659
vn -0.9659 0.0000 0.2588
vn -0.5000 0.0000 0.8660
vn 0.2588 0.0000 0.9659
vn 0.8660 0.0000 0.5000
vn 0.9659 0.0000 -0.2588
vn 0.5000 0.0000 -0.8660
vn 0.0000 1.0000 -0.0000
vn -0.8474 0.2061 -0.4893
vn -0.2533 0.2061 -0.9452
vn -0.2533 -0.2061 -0.9452
vn -0.8474 -0.2061 -0.4893
vn -0.9452 0.2061 0.2533
vn -0.9452 -0.2061 0.2533
vn -0.4893 0.2061 0.8474
vn -0.4893 -0.2061 0.8474
vn 0.2533 0.2061 0.9452
vn 0.2533 -0.2061 0.9452
vn 0.8474 0.2061 0.4893
vn 0.8474 -0.2061 0.4893
vn 0.9452 0.2061 -0.2533
vn 0.9452 -0.2061 -0.2533
vn 0.4893 0.2061 -0.8474
vn 0.4893 -0.2061 -0.8474
vn -0.8483 0.2012 -0.4898
vn -0.2535 0.2012 -0.9462
vn -0.2535 -0.2012 -0.9462
vn -0.8483 -0.2012 -0.4898
vn -0.9462 0.2012 0.2535
vn -0.9462 -0.2012 0.2535
vn -0.4898 0.2012 0.8483
vn -0.4898 -0.2012 0.8483
vn 0.2535 0.2012 0.9462
vn 0.2535 -0.2012 0.9462
vn 0.8483 0.2012 0.4898
vn 0.8483 -0.2012 0.4898
vn 0.9462 0.2012 -0.2535
vn 0.9462 -0.2012 -0.2535
vn 0.4898 0.2012 -0.8483
vn 0.4898 -0.2012 -0.8483
vn -0.0653 -0.9677 -0.2436
vn -0.2184 -0.9677 -0.1261
vn -0.2436 -0.9677 0.0653
vn -0.1261 -0.9677 0.2184
vn 0.0653 -0.9677 0.2436
vn 0.2184 -0.9677 0.1261
vn 0.2436 -0.9677 -0.0653
vn 0.1261 -0.9677 -0.2184
vn 0.2184 0.9677 0.1261
vn 0.0653 0.9677 0.2436
vn -0.1261 0.9677 0.2184
vn -0.2436 0.9677 0.0653
vn -0.2184 0.9677 -0.1261
vn -0.0653 0.9677 -0.2436
vn 0.1261 0.9677 -0.2184
vn 0.2436 0.9677 -0.0653
# 58 vertex normals

vt 0.1717 0.4681 0.3408
vt 0.0033 0.4694 0.3408
vt 0.0523 0.4197 0.3408
vt 0.1220 0.4192 -0.3408
vt 0.9921 0.1604 -0.0000
vt 0.9921 0.2640 -0.0000
vt 0.8707 0.2640 -0.0000
vt 0.8707 0.1604 -0.0000
vt 0.1280 0.1604 -0.0000
vt 0.1280 0.2640 -0.0000
vt 0.0066 0.2640 -0.0000
vt 0.0066 0.1604 -0.0000
vt 0.2512 0.1604 -0.0000
vt 0.2512 0.2640 -0.0000
vt 0.3751 0.1604 -0.0000
vt 0.3751 0.2640 -0.0000
vt 0.4993 0.1604 -0.0000
vt 0.4993 0.2640 -0.0000
vt 0.6235 0.1604 -0.0000
vt 0.6235 0.2640 -0.0000
vt 0.7474 0.1604 0.0000
vt 0.7474 0.2640 0.0000
vt 0.0030 0.4687 1.1637
vt 0.1714 0.4684 0.4820
vt 0.1715 0.5382 -0.4820
vt 0.0031 0.5384 -0.4820
vt 0.9921 0.3310 -0.0000
vt 0.9921 0.4157 -0.0000
vt 0.8707 0.4157 -0.0000
vt 0.8707 0.3310 -0.0000
vt 0.8707 0.0933 -0.0000
vt 0.8707 0.0087 -0.0000
vt 0.9921 0.0087 -0.0000
vt 0.9921 0.0933 -0.0000
vt 0.1280 0.3310 -0.0000
vt 0.1280 0.4157 -0.0000
vt 0.0066 0.4157 -0.0000
vt 0.0066 0.3310 -0.0000
vt 0.0066 0.0933 -0.0000
vt 0.0066 0.0087 -0.0000
vt 0.1280 0.0087 -0.0000
vt 0.1280 0.0933 -0.0000
vt 0.2512 0.3310 -0.0000
vt 0.2512 0.4157 -0.0000
vt 0.2512 0.0087 -0.0000
vt 0.2512 0.0933 -0.0000
vt 0.3751 0.3310 -0.0000
vt 0.3751 0.4157 -0.0000
vt 0.3751 0.0087 -0.0000
vt 0.3751 0.0933 -0.0000
vt 0.4993 0.3310 -0.0000
vt 0.4993 0.4157 -0.0000
vt 0.4993 0.0087 -0.0000
vt 0.4993 0.0933 -0.0000
vt 0.6235 0.3310 -0.0000
vt 0.6235 0.4157 -0.0000
vt 0.6235 0.0087 -0.0000
vt 0.6235 0.0933 -0.0000
vt 0.7474 0.3310 0.0000
vt 0.7474 0.4157 0.0000
vt 0.7474 0.0087 0.0000
vt 0.7474 0.0933 0.0000
vt 0.9921 0.2749 -0.0000
vt 0.9921 0.3207 -0.0000
vt 0.8707 0.3207 -0.0000
vt 0.8707 0.2749 -0.0000
vt 0.8707 0.1494 -0.0000
vt 0.8707 0.1036 -0.0000
vt 0.9921 0.1036 -0.0000
vt 0.9921 0.1494 -0.0000
vt 0.1280 0.2749 -0.0000
vt 0.1280 0.3207 -0.0000
vt 0.0066 0.3207 -0.0000
vt 0.0066 0.2749 -0.0000
vt 0.0066 0.1494 -0.0000
vt 0.0066 0.1036 -0.0000
vt 0.1280 0.1036 -0.0000
vt 0.1280 0.1494 -0.0000
vt 0.2512 0.2749 -0.0000
vt 0.2512 0.3207 -0.0000
vt 0.2512 0.1036 -0.0000
vt 0.2512 0.1494 -0.0000
vt 0.3751 0.2749 -0.0000
vt 0.3751 0.3207 -0.0000
vt 0.3751 0.1036 -0.0000
vt 0.3751 0.1494 -0.0000
vt 0.4993 0.2749 -0.0000
vt 0.4993 0.3207 -0.0000
vt 0.4993 0.1036 -0.0000
vt 0.4993 0.1494 -0.0000
vt 0.6235 0.2749 -0.0000
vt 0.6235 0.3207 -0.0000
vt 0.6235 0.1036 -0.0000
vt 0.6235 0.1494 -0.0000
vt 0.7474 0.2749 0.0000
vt 0.7474 0.3207 0.0000
vt 0.7474 0.1036 0.0000
vt 0.7474 0.1494 0.0000
vt 0.0523 0.4193 1.1637
vt 0.1220 0.4192 1.1637
vt 0.1222 0.5875 -1.1637
vt 0.0525 0.5876 -1.1637
vt 0.1722 0.5378 0.3408
vt 0.0039 0.5392 0.3408
vt 0.1233 0.5875 0.3408
vt 0.0536 0.5881 0.3408
# 106 texture coords

o Baril
g Baril
usemtl Material__738
s off
f 1/1/1 2/2/1 3/3/1 4/4/1 
s 1
f 5/5/2 6/6/2 7/7/3 8/8/3 
f 9/9/4 10/10/4 6/11/2 5/12/2 
f 11/13/5 12/14/5 10/10/4 9/9/4 
f 13/15/6 14/16/6 12/14/5 11/13/5 
f 15/17/7 16/18/7 14/16/6 13/15/6 
f 17/19/8 18/20/8 16/18/7 15/17/7 
f 19/21/9 20/22/9 18/20/8 17/19/8 
f 8/8/3 7/7/3 20/22/9 19/21/9 
s off
f 21/23/10 22/24/10 23/25/10 24/26/10 
s 1
f 25/27/11 26/28/11 27/29/12 28/30/12 
f 29/31/13 4/32/13 3/33/14 30/34/14 
f 31/35/15 22/36/15 26/37/11 25/38/11 
f 30/39/14 3/40/14 2/41/16 32/42/16 
f 33/43/17 23/44/17 22/36/15 31/35/15 
f 32/42/16 2/41/16 34/45/18 35/46/18 
f 36/47/19 37/48/19 23/44/17 33/43/17 
f 35/46/18 34/45/18 38/49/20 39/50/20 
f 40/51/21 41/52/21 37/48/19 36/47/19 
f 39/50/20 38/49/20 42/53/22 43/54/22 
f 44/55/23 24/56/23 41/52/21 40/51/21 
f 43/54/22 42/53/22 45/57/24 46/58/24 
f 47/59/25 21/60/25 24/56/23 44/55/23 
f 46/58/24 45/57/24 1/61/26 48/62/26 
f 28/30/12 27/29/12 21/60/25 47/59/25 
f 48/62/26 1/61/26 4/32/13 29/31/13 
s 2
f 49/63/27 50/64/27 51/65/28 52/66/28 
f 53/67/29 54/68/29 55/69/30 56/70/30 
f 57/71/31 58/72/31 50/73/27 49/74/27 
f 56/75/30 55/76/30 59/77/32 60/78/32 
f 61/79/33 62/80/33 58/72/31 57/71/31 
f 60/78/32 59/77/32 63/81/34 64/82/34 
f 65/83/35 66/84/35 62/80/33 61/79/33 
f 64/82/34 63/81/34 67/85/36 68/86/36 
f 69/87/37 70/88/37 66/84/35 65/83/35 
f 68/86/36 67/85/36 71/89/38 72/90/38 
f 73/91/39 74/92/39 70/88/37 69/87/37 
f 72/90/38 71/89/38 75/93/40 76/94/40 
f 77/95/41 78/96/41 74/92/39 73/91/39 
f 76/94/40 75/93/40 79/97/42 80/98/42 
f 52/66/28 51/65/28 78/96/41 77/95/41 
f 80/98/42 79/97/42 54/68/29 53/67/29 
s 8
f 7/7/43 6/6/44 49/63/44 52/66/43 
f 6/11/44 10/10/45 57/71/45 49/74/44 
f 10/10/45 12/14/46 61/79/46 57/71/45 
f 12/14/46 14/16/47 65/83/47 61/79/46 
f 14/16/47 16/18/48 69/87/48 65/83/47 
f 16/18/48 18/20/49 73/91/49 69/87/48 
f 18/20/49 20/22/50 77/95/50 73/91/49 
f 20/22/50 7/7/43 52/66/43 77/95/50 
f 25/27/51 28/30/52 51/65/52 50/64/51 
f 28/30/52 47/59/53 78/96/53 51/65/52 
f 47/59/53 44/55/54 74/92/54 78/96/53 
f 44/55/54 40/51/55 70/88/55 74/92/54 
f 40/51/55 36/47/56 66/84/56 70/88/55 
f 36/47/56 33/43/57 62/80/57 66/84/56 
f 33/43/57 31/35/58 58/72/58 62/80/57 
f 31/35/58 25/38/51 50/73/51 58/72/58 
f 5/5/55 8/8/56 53/67/56 56/70/55 
f 8/8/56 19/21/57 80/98/57 53/67/56 
f 19/21/57 17/19/58 76/94/58 80/98/57 
f 17/19/58 15/17/51 72/90/51 76/94/58 
f 15/17/51 13/15/52 68/86/52 72/90/51 
f 13/15/52 11/13/53 64/82/53 68/86/52 
f 11/13/53 9/9/54 60/78/54 64/82/53 
f 9/9/54 5/12/55 56/75/55 60/78/54 
f 29/31/47 30/34/48 55/69/48 54/68/47 
f 30/39/48 32/42/49 59/77/49 55/76/48 
f 32/42/49 35/46/50 63/81/50 59/77/49 
f 35/46/50 39/50/43 67/85/43 63/81/50 
f 39/50/43 43/54/44 71/89/44 67/85/43 
f 43/54/44 46/58/45 75/93/45 71/89/44 
f 46/58/45 48/62/46 79/97/46 75/93/45 
f 48/62/46 29/31/47 54/68/47 79/97/46 
s off
f 21/23/10 27/99/10 26/100/10 22/24/10 
f 23/25/10 37/101/10 41/102/10 24/26/10 
f 1/1/1 45/103/1 34/104/1 2/2/1 
f 45/103/1 42/105/1 38/106/1 34/104/1 
# 78 polygons

