# 3ds Max Wavefront OBJ Exporter v0.97b - (c)2007 guruware
# File Created: 23.05.2019 15:34:34

mtllib GatlingAmmoOBJ.mtl

#
# object GatlingAmmo
#

v  0.0413 -0.4937 0.0716
v  -0.0413 -0.4937 0.0716
v  0.0413 -0.4937 -0.0716
v  0.0827 -0.4937 0.0000
v  0.0413 -0.4713 -0.0716
v  0.0827 -0.4713 0.0000
v  -0.0413 -0.4937 -0.0716
v  -0.0413 -0.4713 -0.0716
v  -0.0827 -0.4937 0.0000
v  -0.0827 -0.4713 0.0000
v  -0.0413 -0.4713 0.0716
v  0.0413 -0.4713 0.0716
v  0.0241 0.3468 -0.0417
v  0.0000 0.4937 0.0000
v  0.0481 0.3468 0.0000
v  -0.0241 0.3468 -0.0417
v  -0.0481 0.3468 0.0000
v  -0.0241 0.3468 0.0417
v  0.0241 0.3468 0.0417
v  0.0241 0.1812 -0.0417
v  0.0481 0.1812 0.0000
v  -0.0241 0.1812 -0.0417
v  -0.0481 0.1812 0.0000
v  -0.0241 0.1812 0.0417
v  0.0241 0.1812 0.0417
v  0.0364 0.0991 -0.0631
v  0.0728 0.0991 0.0000
v  -0.0364 0.0991 -0.0631
v  -0.0728 0.0991 0.0000
v  -0.0364 0.0991 0.0631
v  0.0364 0.0991 0.0631
v  0.0263 -0.4706 -0.0455
v  0.0263 -0.4192 -0.0455
v  0.0526 -0.4192 -0.0000
v  0.0526 -0.4706 -0.0000
v  -0.0263 -0.4706 -0.0455
v  -0.0263 -0.4192 -0.0455
v  -0.0526 -0.4706 0.0000
v  -0.0526 -0.4192 0.0000
v  -0.0263 -0.4706 0.0455
v  -0.0263 -0.4192 0.0455
v  0.0263 -0.4706 0.0455
v  0.0263 -0.4192 0.0455
v  0.0364 -0.4192 -0.0631
v  0.0728 -0.4192 0.0000
v  -0.0364 -0.4192 -0.0631
v  -0.0728 -0.4192 0.0000
v  -0.0364 -0.4192 0.0631
v  0.0364 -0.4192 0.0631
# 49 vertices

vn 0.0000 -1.0000 -0.0000
vn 1.0000 0.0000 0.0000
vn 0.5000 0.0000 -0.8660
vn -0.5000 0.0000 -0.8660
vn -1.0000 0.0000 0.0000
vn -0.5000 0.0000 0.8660
vn 0.5000 0.0000 0.8660
vn 0.4943 0.1504 -0.8562
vn 0.0000 1.0000 -0.0000
vn 0.9886 0.1504 0.0000
vn -0.4943 0.1504 -0.8562
vn -0.9886 0.1504 0.0000
vn -0.4943 0.1504 0.8562
vn 0.4943 0.1504 0.8562
vn 0.4941 0.1527 -0.8559
vn 0.9883 0.1527 0.0000
vn -0.4941 0.1527 -0.8559
vn -0.9883 0.1527 0.0000
vn -0.4941 0.1527 0.8559
vn 0.4941 0.1527 0.8559
vn 0.4951 0.1393 -0.8576
vn 0.9902 0.1393 -0.0000
vn -0.4951 0.1393 -0.8576
vn -0.9902 0.1393 0.0000
vn -0.4951 0.1393 0.8576
vn 0.4951 0.1393 0.8576
vn 0.5000 -0.0000 -0.8660
vn 1.0000 -0.0000 -0.0000
vn -0.5000 -0.0000 -0.8660
vn -1.0000 -0.0000 -0.0000
vn -0.5000 -0.0000 0.8660
vn 0.5000 -0.0000 0.8660
vn 1.0000 0.0000 -0.0000
vn 0.0226 0.9997 -0.0130
vn 0.0000 0.9997 -0.0260
vn -0.0226 0.9997 -0.0130
vn -0.0226 0.9997 0.0130
vn 0.0000 0.9997 0.0260
vn 0.0226 0.9997 0.0130
# 39 vertex normals

vt 0.2075 0.6669 -0.0000
vt 0.1911 0.6422 -0.4234
vt 0.2504 0.6385 0.4234
vt 0.2371 0.6650 0.4234
vt 0.1563 0.5900 0.0000
vt 0.1846 0.5900 0.0000
vt 0.1846 0.5998 0.0000
vt 0.1563 0.5998 0.0000
vt 0.0113 0.5900 0.0000
vt 0.0395 0.5900 0.0000
vt 0.0395 0.5998 0.0000
vt 0.0113 0.5998 0.0000
vt 0.0687 0.5900 0.0000
vt 0.0687 0.5998 0.0000
vt 0.0979 0.5900 -0.0000
vt 0.0979 0.5998 -0.0000
vt 0.1271 0.5900 0.0000
vt 0.1271 0.5998 0.0000
vt 0.2265 0.4888 0.0000
vt 0.2081 0.4570 0.0000
vt 0.2449 0.4570 0.0000
vt 0.1897 0.4888 0.0000
vt 0.1713 0.4570 0.0000
vt 0.1897 0.4252 0.0000
vt 0.2265 0.4252 0.0000
vt 0.2044 0.6156 -0.4234
vt 0.2340 0.6138 0.0000
vt 0.1846 0.9184 0.0000
vt 0.1846 0.9943 0.0000
vt 0.1563 0.9943 0.0000
vt 0.1563 0.9184 0.0000
vt 0.0395 0.9184 0.0000
vt 0.0395 0.9943 0.0000
vt 0.0113 0.9943 0.0000
vt 0.0113 0.9184 0.0000
vt 0.0687 0.9184 0.0000
vt 0.0687 0.9943 0.0000
vt 0.0979 0.9184 -0.0000
vt 0.0979 0.9943 -0.0000
vt 0.1271 0.9184 0.0000
vt 0.1271 0.9943 0.0000
vt 0.1846 0.8800 0.0000
vt 0.1563 0.8800 0.0000
vt 0.0395 0.8800 0.0000
vt 0.0113 0.8800 0.0000
vt 0.0687 0.8800 0.0000
vt 0.0979 0.8800 -0.0000
vt 0.1271 0.8800 0.0000
vt 0.1846 0.6105 0.0000
vt 0.1846 0.6335 0.0000
vt 0.1563 0.6335 0.0000
vt 0.1563 0.6105 0.0000
vt 0.0395 0.6105 0.0000
vt 0.0395 0.6335 0.0000
vt 0.0113 0.6335 0.0000
vt 0.0113 0.6105 0.0000
vt 0.0687 0.6105 0.0000
vt 0.0687 0.6335 0.0000
vt 0.0979 0.6105 -0.0000
vt 0.0979 0.6335 -0.0000
vt 0.1271 0.6105 0.0000
vt 0.1271 0.6335 0.0000
vt 0.1846 0.6413 0.0000
vt 0.1563 0.6413 0.0000
vt 0.0395 0.6413 0.0000
vt 0.0113 0.6413 0.0000
vt 0.0687 0.6413 0.0000
vt 0.0979 0.6413 -0.0000
vt 0.1271 0.6413 0.0000
# 69 texture coords

o GatlingAmmo
g GatlingAmmo
usemtl Material__738
s 1
f 1/1/1 2/2/1 3/3/1 4/4/1 
s 8
f 4/5/2 3/6/3 5/7/3 6/8/2 
f 3/9/3 7/10/4 8/11/4 5/12/3 
f 7/10/4 9/13/5 10/14/5 8/11/4 
f 9/13/5 2/15/6 11/16/6 10/14/5 
f 2/15/6 1/17/7 12/18/7 11/16/6 
f 1/17/7 4/5/2 6/8/2 12/18/7 
f 13/19/8 14/20/9 15/21/10 
f 16/22/11 14/20/9 13/19/8 
f 17/23/12 14/20/9 16/22/11 
f 18/24/13 14/20/9 17/23/12 
f 19/25/14 14/20/9 18/24/13 
f 15/21/10 14/20/9 19/25/14 
s 1
f 2/2/1 9/26/1 7/27/1 3/3/1 
s 8
f 20/28/15 13/29/8 15/30/10 21/31/16 
f 22/32/17 16/33/11 13/34/8 20/35/15 
f 23/36/18 17/37/12 16/33/11 22/32/17 
f 24/38/19 18/39/13 17/37/12 23/36/18 
f 25/40/20 19/41/14 18/39/13 24/38/19 
f 21/31/16 15/30/10 19/41/14 25/40/20 
f 26/42/21 20/28/15 21/31/16 27/43/22 
f 28/44/23 22/32/17 20/35/15 26/45/21 
f 29/46/24 23/36/18 22/32/17 28/44/23 
f 30/47/25 24/38/19 23/36/18 29/46/24 
f 31/48/26 25/40/20 24/38/19 30/47/25 
f 27/43/22 21/31/16 25/40/20 31/48/26 
f 32/49/27 33/50/27 34/51/28 35/52/28 
f 36/53/29 37/54/29 33/55/27 32/56/27 
f 38/57/30 39/58/30 37/54/29 36/53/29 
f 40/59/31 41/60/31 39/58/30 38/57/30 
f 42/61/32 43/62/32 41/60/31 40/59/31 
f 35/52/28 34/51/28 43/62/32 42/61/32 
f 44/63/3 26/42/21 27/43/22 45/64/33 
f 46/65/4 28/44/23 26/45/21 44/66/3 
f 47/67/5 29/46/24 28/44/23 46/65/4 
f 48/68/6 30/47/25 29/46/24 47/67/5 
f 49/69/7 31/48/26 30/47/25 48/68/6 
f 45/64/33 27/43/22 31/48/26 49/69/7 
s off
f 6/8/34 5/7/34 32/49/34 35/52/34 
f 5/12/35 8/11/35 36/53/35 32/56/35 
f 8/11/36 10/14/36 38/57/36 36/53/36 
f 10/14/37 11/16/37 40/59/37 38/57/37 
f 11/16/38 12/18/38 42/61/38 40/59/38 
f 12/18/39 6/8/39 35/52/39 42/61/39 
f 44/63/1 45/64/1 34/51/1 33/50/1 
f 45/64/1 49/69/1 43/62/1 34/51/1 
f 49/69/1 48/68/1 41/60/1 43/62/1 
f 48/68/1 47/67/1 39/58/1 41/60/1 
f 47/67/1 46/65/1 37/54/1 39/58/1 
f 46/65/1 44/66/1 33/55/1 37/54/1 
# 44 polygons - 6 triangles

