# 3ds Max Wavefront OBJ Exporter v0.97b - (c)2007 guruware
# File Created: 23.05.2019 15:35:01

mtllib PieuOBJ.mtl

#
# object Pieu
#

v  0.0723 -1.0627 0.1253
v  -0.0723 -1.0627 0.1253
v  0.0723 -1.0627 -0.1253
v  0.1446 -1.0627 0.0000
v  0.0723 0.3762 -0.1253
v  0.1446 0.3762 0.0000
v  -0.0723 -1.0627 -0.1253
v  -0.0723 0.3762 -0.1253
v  -0.1446 -1.0627 0.0000
v  -0.1446 0.3762 0.0000
v  -0.0723 0.3762 0.1253
v  0.0723 0.3762 0.1253
v  -0.0000 1.0627 0.0000
# 13 vertices

vn 0.3962 -0.6100 0.6862
vn -0.3962 -0.6100 0.6862
vn 0.3962 -0.6100 -0.6862
vn 0.7924 -0.6100 0.0000
vn 0.5000 0.0000 -0.8660
vn 1.0000 -0.0000 0.0000
vn -0.3962 -0.6100 -0.6862
vn -0.5000 0.0000 -0.8660
vn -0.7924 -0.6100 0.0000
vn -1.0000 -0.0000 0.0000
vn -0.5000 -0.0000 0.8660
vn 0.5000 -0.0000 0.8660
vn 0.4893 0.2061 -0.8474
vn -0.0000 1.0000 0.0000
vn 0.9785 0.2061 0.0000
vn -0.4893 0.2061 -0.8474
vn -0.9785 0.2061 0.0000
vn -0.4893 0.2061 0.8474
vn 0.4893 0.2061 0.8474
# 19 vertex normals

vt 0.3957 0.8081 -0.0000
vt 0.3584 0.7519 -0.8463
vt 0.4931 0.7435 0.8463
vt 0.4631 0.8040 0.8463
vt 0.9085 0.4224 0.0000
vt 0.9886 0.4224 0.0000
vt 0.9886 0.8413 0.0000
vt 0.9085 0.8413 0.0000
vt 0.5080 0.4224 0.0000
vt 0.5881 0.4224 0.0000
vt 0.5881 0.8413 0.0000
vt 0.5080 0.8413 0.0000
vt 0.6682 0.4224 0.0000
vt 0.6682 0.8413 0.0000
vt 0.7483 0.4224 -0.0000
vt 0.7483 0.8413 -0.0000
vt 0.8284 0.4224 0.0000
vt 0.8284 0.8413 0.0000
vt 0.4273 0.6716 0.0000
vt 0.3556 0.5474 0.0000
vt 0.4990 0.5474 0.0000
vt 0.2839 0.6716 0.0000
vt 0.2122 0.5474 0.0000
vt 0.2839 0.4232 0.0000
vt 0.4273 0.4232 0.0000
vt 0.3885 0.6915 -0.8463
vt 0.4558 0.6873 0.0000
# 27 texture coords

o Pieu
g Pieu
usemtl Material__738
s 1
f 1/1/1 2/2/2 3/3/3 4/4/4 
f 4/5/4 3/6/3 5/7/5 6/8/6 
f 3/9/3 7/10/7 8/11/8 5/12/5 
f 7/10/7 9/13/9 10/14/10 8/11/8 
f 9/13/9 2/15/2 11/16/11 10/14/10 
f 2/15/2 1/17/1 12/18/12 11/16/11 
f 1/17/1 4/5/4 6/8/6 12/18/12 
s 2
f 5/19/13 13/20/14 6/21/15 
f 8/22/16 13/20/14 5/19/13 
f 10/23/17 13/20/14 8/22/16 
f 11/24/18 13/20/14 10/23/17 
f 12/25/19 13/20/14 11/24/18 
f 6/21/15 13/20/14 12/25/19 
s 1
f 2/2/2 9/26/9 7/27/7 3/3/3 
# 8 polygons - 6 triangles

