# 3ds Max Wavefront OBJ Exporter v0.97b - (c)2007 guruware
# File Created: 08.05.2019 19:43:45

mtllib Projectile.mtl

#
# object Sphere001
#

v  0.0000 1.5549 -0.0000
v  -0.0000 1.3466 -0.7775
v  -0.3887 1.3466 -0.6733
v  -0.6733 1.3466 -0.3887
v  -0.7775 1.3466 -0.0000
v  -0.6733 1.3466 0.3887
v  -0.3887 1.3466 0.6733
v  -0.0000 1.3466 0.7775
v  0.3887 1.3466 0.6733
v  0.6733 1.3466 0.3887
v  0.7775 1.3466 0.0000
v  0.6733 1.3466 -0.3887
v  0.3887 1.3466 -0.6733
v  -0.0000 0.7775 -1.3466
v  -0.6733 0.7775 -1.1662
v  -1.1662 0.7775 -0.6733
v  -1.3466 0.7775 -0.0000
v  -1.1662 0.7775 0.6733
v  -0.6733 0.7775 1.1662
v  -0.0000 0.7775 1.3466
v  0.6733 0.7775 1.1662
v  1.1662 0.7775 0.6733
v  1.3466 0.7775 0.0000
v  1.1662 0.7775 -0.6733
v  0.6733 0.7775 -1.1662
v  -0.0000 -0.0000 -1.5549
v  -0.7775 -0.0000 -1.3466
v  -1.3466 -0.0000 -0.7775
v  -1.5549 -0.0000 -0.0000
v  -1.3466 -0.0000 0.7775
v  -0.7775 -0.0000 1.3466
v  -0.0000 -0.0000 1.5549
v  0.7775 -0.0000 1.3466
v  1.3466 -0.0000 0.7775
v  1.5549 -0.0000 0.0000
v  1.3466 -0.0000 -0.7775
v  0.7775 -0.0000 -1.3466
v  -0.0000 -0.7775 -1.3466
v  -0.6733 -0.7775 -1.1662
v  -1.1662 -0.7775 -0.6733
v  -1.3466 -0.7775 -0.0000
v  -1.1662 -0.7775 0.6733
v  -0.6733 -0.7775 1.1662
v  -0.0000 -0.7775 1.3466
v  0.6733 -0.7775 1.1662
v  1.1662 -0.7775 0.6733
v  1.3466 -0.7775 0.0000
v  1.1662 -0.7775 -0.6733
v  0.6733 -0.7775 -1.1662
v  -0.0000 -1.3466 -0.7775
v  -0.3887 -1.3466 -0.6733
v  -0.6733 -1.3466 -0.3887
v  -0.7775 -1.3466 -0.0000
v  -0.6733 -1.3466 0.3887
v  -0.3887 -1.3466 0.6733
v  -0.0000 -1.3466 0.7775
v  0.3887 -1.3466 0.6733
v  0.6733 -1.3466 0.3887
v  0.7775 -1.3466 0.0000
v  0.6733 -1.3466 -0.3887
v  0.3887 -1.3466 -0.6733
v  0.0000 -1.5549 -0.0000
# 62 vertices

vn -0.0000 1.0000 -0.0000
vn 0.0000 0.8474 -0.5309
vn -0.2654 0.8474 -0.4598
vn -0.4598 0.8474 -0.2654
vn -0.5309 0.8474 -0.0000
vn -0.4598 0.8474 0.2654
vn -0.2655 0.8474 0.4598
vn -0.0000 0.8474 0.5309
vn 0.2654 0.8474 0.4598
vn 0.4598 0.8474 0.2655
vn 0.5309 0.8474 0.0000
vn 0.4598 0.8474 -0.2654
vn 0.2655 0.8474 -0.4598
vn 0.0000 0.4823 -0.8760
vn -0.4380 0.4823 -0.7586
vn -0.7586 0.4823 -0.4380
vn -0.8760 0.4823 -0.0000
vn -0.7586 0.4823 0.4380
vn -0.4380 0.4823 0.7586
vn -0.0000 0.4823 0.8760
vn 0.4380 0.4823 0.7586
vn 0.7586 0.4823 0.4380
vn 0.8760 0.4823 0.0000
vn 0.7586 0.4823 -0.4380
vn 0.4380 0.4823 -0.7586
vn 0.0000 -0.0000 -1.0000
vn -0.5000 -0.0000 -0.8660
vn -0.8660 -0.0000 -0.5000
vn -1.0000 -0.0000 -0.0000
vn -0.8660 -0.0000 0.5000
vn -0.5000 -0.0000 0.8660
vn -0.0000 -0.0000 1.0000
vn 0.5000 -0.0000 0.8660
vn 0.8660 -0.0000 0.5000
vn 1.0000 -0.0000 0.0000
vn 0.8660 -0.0000 -0.5000
vn 0.5000 -0.0000 -0.8660
vn 0.0000 -0.4823 -0.8760
vn -0.4380 -0.4823 -0.7586
vn -0.7586 -0.4823 -0.4380
vn -0.8760 -0.4823 -0.0000
vn -0.7586 -0.4823 0.4380
vn -0.4380 -0.4823 0.7586
vn -0.0000 -0.4823 0.8760
vn 0.4380 -0.4823 0.7586
vn 0.7586 -0.4823 0.4380
vn 0.8760 -0.4823 0.0000
vn 0.7586 -0.4823 -0.4380
vn 0.4380 -0.4823 -0.7586
vn 0.0000 -0.8474 -0.5309
vn -0.2654 -0.8474 -0.4598
vn -0.4598 -0.8474 -0.2654
vn -0.5309 -0.8474 -0.0000
vn -0.4598 -0.8474 0.2654
vn -0.2655 -0.8474 0.4598
vn -0.0000 -0.8474 0.5309
vn 0.2654 -0.8474 0.4598
vn 0.4598 -0.8474 0.2655
vn 0.5309 -0.8474 0.0000
vn 0.4598 -0.8474 -0.2654
vn 0.2655 -0.8474 -0.4598
vn 0.0000 -1.0000 -0.0000
# 62 vertex normals

vt 0.5000 0.5000 0.0000
vt 0.5000 0.7500 0.0000
vt 0.3750 0.7165 0.0000
vt 0.2835 0.6250 0.0000
vt 0.2500 0.5000 0.0000
vt 0.2835 0.3750 0.0000
vt 0.3750 0.2835 0.0000
vt 0.5000 0.2500 0.0000
vt 0.6250 0.2835 0.0000
vt 0.7165 0.3750 0.0000
vt 0.7500 0.5000 0.0000
vt 0.7165 0.6250 0.0000
vt 0.6250 0.7165 0.0000
vt 0.5000 0.9330 0.0000
vt 0.2835 0.8750 0.0000
vt 0.1250 0.7165 0.0000
vt 0.0670 0.5000 0.0000
vt 0.1250 0.2835 0.0000
vt 0.2835 0.1250 0.0000
vt 0.5000 0.0670 0.0000
vt 0.7165 0.1250 0.0000
vt 0.8750 0.2835 0.0000
vt 0.9330 0.5000 0.0000
vt 0.8750 0.7165 0.0000
vt 0.7165 0.8750 0.0000
vt 0.5000 1.0000 0.0000
vt 0.2500 0.9330 0.0000
vt 0.0670 0.7500 0.0000
vt 0.0000 0.5000 0.0000
vt 0.0670 0.2500 0.0000
vt 0.2500 0.0670 0.0000
vt 0.5000 0.0000 0.0000
vt 0.7500 0.0670 0.0000
vt 0.9330 0.2500 0.0000
vt 1.0000 0.5000 0.0000
vt 0.9330 0.7500 0.0000
vt 0.7500 0.9330 0.0000
# 37 texture coords

o Sphere001
g Sphere001
usemtl wire_227153153
s 1
f 1/1/1 2/2/2 3/3/3 
f 1/1/1 3/3/3 4/4/4 
f 1/1/1 4/4/4 5/5/5 
f 1/1/1 5/5/5 6/6/6 
f 1/1/1 6/6/6 7/7/7 
f 1/1/1 7/7/7 8/8/8 
f 1/1/1 8/8/8 9/9/9 
f 1/1/1 9/9/9 10/10/10 
f 1/1/1 10/10/10 11/11/11 
f 1/1/1 11/11/11 12/12/12 
f 1/1/1 12/12/12 13/13/13 
f 1/1/1 13/13/13 2/2/2 
f 2/2/2 14/14/14 15/15/15 3/3/3 
f 3/3/3 15/15/15 16/16/16 4/4/4 
f 4/4/4 16/16/16 17/17/17 5/5/5 
f 5/5/5 17/17/17 18/18/18 6/6/6 
f 6/6/6 18/18/18 19/19/19 7/7/7 
f 7/7/7 19/19/19 20/20/20 8/8/8 
f 8/8/8 20/20/20 21/21/21 9/9/9 
f 9/9/9 21/21/21 22/22/22 10/10/10 
f 10/10/10 22/22/22 23/23/23 11/11/11 
f 11/11/11 23/23/23 24/24/24 12/12/12 
f 12/12/12 24/24/24 25/25/25 13/13/13 
f 13/13/13 25/25/25 14/14/14 2/2/2 
f 14/14/14 26/26/26 27/27/27 15/15/15 
f 15/15/15 27/27/27 28/28/28 16/16/16 
f 16/16/16 28/28/28 29/29/29 17/17/17 
f 17/17/17 29/29/29 30/30/30 18/18/18 
f 18/18/18 30/30/30 31/31/31 19/19/19 
f 19/19/19 31/31/31 32/32/32 20/20/20 
f 20/20/20 32/32/32 33/33/33 21/21/21 
f 21/21/21 33/33/33 34/34/34 22/22/22 
f 22/22/22 34/34/34 35/35/35 23/23/23 
f 23/23/23 35/35/35 36/36/36 24/24/24 
f 24/24/24 36/36/36 37/37/37 25/25/25 
f 25/25/25 37/37/37 26/26/26 14/14/14 
f 26/26/26 38/14/38 39/15/39 27/27/27 
f 27/27/27 39/15/39 40/16/40 28/28/28 
f 28/28/28 40/16/40 41/17/41 29/29/29 
f 29/29/29 41/17/41 42/18/42 30/30/30 
f 30/30/30 42/18/42 43/19/43 31/31/31 
f 31/31/31 43/19/43 44/20/44 32/32/32 
f 32/32/32 44/20/44 45/21/45 33/33/33 
f 33/33/33 45/21/45 46/22/46 34/34/34 
f 34/34/34 46/22/46 47/23/47 35/35/35 
f 35/35/35 47/23/47 48/24/48 36/36/36 
f 36/36/36 48/24/48 49/25/49 37/37/37 
f 37/37/37 49/25/49 38/14/38 26/26/26 
f 38/14/38 50/2/50 51/3/51 39/15/39 
f 39/15/39 51/3/51 52/4/52 40/16/40 
f 40/16/40 52/4/52 53/5/53 41/17/41 
f 41/17/41 53/5/53 54/6/54 42/18/42 
f 42/18/42 54/6/54 55/7/55 43/19/43 
f 43/19/43 55/7/55 56/8/56 44/20/44 
f 44/20/44 56/8/56 57/9/57 45/21/45 
f 45/21/45 57/9/57 58/10/58 46/22/46 
f 46/22/46 58/10/58 59/11/59 47/23/47 
f 47/23/47 59/11/59 60/12/60 48/24/48 
f 48/24/48 60/12/60 61/13/61 49/25/49 
f 49/25/49 61/13/61 50/2/50 38/14/38 
f 62/1/62 51/3/51 50/2/50 
f 62/1/62 52/4/52 51/3/51 
f 62/1/62 53/5/53 52/4/52 
f 62/1/62 54/6/54 53/5/53 
f 62/1/62 55/7/55 54/6/54 
f 62/1/62 56/8/56 55/7/55 
f 62/1/62 57/9/57 56/8/56 
f 62/1/62 58/10/58 57/9/57 
f 62/1/62 59/11/59 58/10/58 
f 62/1/62 60/12/60 59/11/59 
f 62/1/62 61/13/61 60/12/60 
f 62/1/62 50/2/50 61/13/61 
# 48 polygons - 24 triangles

