# 3ds Max Wavefront OBJ Exporter v0.97b - (c)2007 guruware
# File Created: 23.05.2019 15:37:42

mtllib SmokeBomb.mtl

#
# object SmokeBomb
#

v  -0.0839 0.1329 -0.0839
v  -0.0000 0.1329 -0.1186
v  -0.0000 0.0648 -0.2912
v  -0.2059 0.0648 -0.2059
v  -0.1186 0.1329 0.0000
v  -0.2912 0.0648 0.0000
v  -0.0839 0.1329 0.0839
v  -0.2059 0.0648 0.2059
v  -0.0000 0.1329 0.1186
v  -0.0000 0.0648 0.2912
v  0.0839 0.1329 0.0839
v  0.2059 0.0648 0.2059
v  0.1186 0.1329 0.0000
v  0.2912 0.0648 0.0000
v  0.0839 0.1329 -0.0839
v  0.2059 0.0648 -0.2059
v  -0.0000 -0.2264 -0.4118
v  -0.2912 -0.2264 -0.2912
v  -0.4118 -0.2264 0.0000
v  -0.2912 -0.2264 0.2912
v  -0.0000 -0.2264 0.4118
v  0.2912 -0.2264 0.2912
v  0.4118 -0.2264 0.0000
v  0.2912 -0.2264 -0.2912
v  -0.0000 -0.5176 -0.2912
v  -0.2059 -0.5176 -0.2059
v  -0.2912 -0.5176 0.0000
v  -0.2059 -0.5176 0.2059
v  -0.0000 -0.5176 0.2912
v  0.2059 -0.5176 0.2059
v  0.2912 -0.5176 0.0000
v  0.2059 -0.5176 -0.2059
v  -0.0000 -0.6382 -0.0000
v  -0.0000 0.3099 -0.1186
v  -0.0839 0.3099 0.0839
v  -0.0000 0.3099 0.1186
v  0.0839 0.3099 -0.0839
v  -0.0839 0.3099 -0.0839
v  -0.1186 0.3099 0.0000
v  0.0839 0.3099 0.0839
v  0.1186 0.3099 0.0000
v  0.0396 0.2722 -0.0104
v  0.0165 0.2722 -0.0505
v  0.0480 0.4068 -0.0505
v  0.0687 0.3965 -0.0104
v  -0.0298 0.2722 -0.0505
v  0.0065 0.4273 -0.0505
v  -0.0529 0.2722 -0.0104
v  -0.0142 0.4376 -0.0104
v  -0.0298 0.2722 0.0297
v  0.0065 0.4273 0.0297
v  0.0165 0.2722 0.0297
v  0.0480 0.4068 0.0297
v  0.1359 0.5135 -0.0505
v  0.1500 0.4951 -0.0104
v  0.1079 0.5503 -0.0505
v  0.0938 0.5687 -0.0104
v  0.1079 0.5503 0.0297
v  0.1359 0.5135 0.0297
v  0.2621 0.5701 -0.0505
v  0.2665 0.5474 -0.0104
v  0.2532 0.6155 -0.0505
v  0.2488 0.6382 -0.0104
v  0.2532 0.6155 0.0297
v  0.2621 0.5701 0.0297
# 65 vertices

vn -0.2596 0.9301 -0.2596
vn 0.0000 0.9301 -0.3672
vn 0.0000 0.6680 -0.7442
vn -0.5262 0.6680 -0.5262
vn -0.3672 0.9301 -0.0000
vn -0.7442 0.6680 -0.0000
vn -0.2596 0.9301 0.2596
vn -0.5262 0.6680 0.5262
vn 0.0000 0.9301 0.3672
vn 0.0000 0.6680 0.7442
vn 0.2597 0.9301 0.2596
vn 0.5262 0.6680 0.5262
vn 0.3672 0.9301 -0.0000
vn 0.7442 0.6680 0.0000
vn 0.2597 0.9301 -0.2596
vn 0.5262 0.6680 -0.5262
vn 0.0000 -0.0000 -1.0000
vn -0.7071 -0.0000 -0.7071
vn -1.0000 -0.0000 -0.0000
vn -0.7071 -0.0000 0.7071
vn 0.0000 -0.0000 1.0000
vn 0.7071 -0.0000 0.7071
vn 1.0000 -0.0000 0.0000
vn 0.7071 -0.0000 -0.7071
vn 0.0000 -0.6630 -0.7486
vn -0.5294 -0.6630 -0.5294
vn -0.7486 -0.6630 -0.0000
vn -0.5294 -0.6630 0.5294
vn 0.0000 -0.6630 0.7486
vn 0.5294 -0.6630 0.5294
vn 0.7486 -0.6630 0.0000
vn 0.5294 -0.6630 -0.5294
vn 0.0000 -1.0000 -0.0000
vn 0.0000 1.0000 -0.0000
vn -0.3827 0.0000 -0.9239
vn -0.9239 0.0000 -0.3827
vn -0.9239 0.0000 0.3827
vn -0.3827 0.0000 0.9239
vn 0.3827 0.0000 0.9239
vn 0.9239 0.0000 0.3827
vn 0.9239 0.0000 -0.3827
vn 0.3827 0.0000 -0.9239
vn 0.9737 -0.2278 0.0000
vn 0.4389 -0.1027 -0.8926
vn 0.3955 -0.1957 -0.8974
vn 0.8962 -0.4436 0.0000
vn -0.5464 0.1278 -0.8277
vn -0.4937 0.2444 -0.8346
vn -0.9737 0.2278 0.0000
vn -0.8962 0.4436 0.0000
vn -0.5464 0.1278 0.8277
vn -0.4937 0.2444 0.8346
vn 0.4389 -0.1027 0.8926
vn 0.3955 -0.1957 0.8974
vn 0.2676 -0.3509 -0.8974
vn 0.6065 -0.7951 0.0000
vn -0.3341 0.4380 -0.8346
vn -0.6065 0.7951 0.0000
vn -0.3341 0.4380 0.8346
vn 0.2676 -0.3509 0.8974
vn 0.1845 -0.4113 -0.8926
vn 0.4094 -0.9124 0.0000
vn -0.2297 0.5119 -0.8277
vn -0.4094 0.9124 0.0000
vn -0.2297 0.5119 0.8277
vn 0.1845 -0.4113 0.8926
vn 0.9816 0.1908 0.0000
# 67 vertex normals

vt 0.1918 0.7094 0.0000
vt 0.1918 0.6860 0.0000
vt 0.2095 0.6860 0.0000
vt 0.2095 0.7094 0.0000
vt 0.1918 0.7350 0.0000
vt 0.2095 0.7350 0.0000
vt 0.1918 0.7609 0.0000
vt 0.2095 0.7609 0.0000
vt 0.1918 0.7869 0.0000
vt 0.2095 0.7869 0.0000
vt 0.1918 0.8129 0.0000
vt 0.2095 0.8129 0.0000
vt 0.1918 0.8388 0.0000
vt 0.2095 0.8388 0.0000
vt 0.1918 0.8644 0.0000
vt 0.2095 0.8644 0.0000
vt 0.1918 0.8878 0.0000
vt 0.2095 0.8878 0.0000
vt 0.2416 0.6860 0.0000
vt 0.2416 0.7094 0.0000
vt 0.2416 0.7350 0.0000
vt 0.2416 0.7609 0.0000
vt 0.2416 0.7869 0.0000
vt 0.2416 0.8129 0.0000
vt 0.2416 0.8388 0.0000
vt 0.2416 0.8644 0.0000
vt 0.2416 0.8878 0.0000
vt 0.2738 0.6860 0.0000
vt 0.2738 0.7094 0.0000
vt 0.2738 0.7350 0.0000
vt 0.2738 0.7609 0.0000
vt 0.2738 0.7869 0.0000
vt 0.2738 0.8129 0.0000
vt 0.2738 0.8388 0.0000
vt 0.2738 0.8644 0.0000
vt 0.2738 0.8878 0.0000
vt 0.3038 0.6992 0.0000
vt 0.3035 0.7207 0.0000
vt 0.3042 0.7472 0.0000
vt 0.3045 0.7736 0.0000
vt 0.3045 0.8002 0.0000
vt 0.3042 0.8266 0.0000
vt 0.3035 0.8531 0.0000
vt 0.3038 0.8746 0.0000
vt 0.2367 0.9834 0.0000
vt 0.1954 0.9660 0.0000
vt 0.2026 0.9489 0.0000
vt 0.2439 0.9663 0.0000
vt 0.2919 0.9395 0.0000
vt 0.2722 0.9395 0.0000
vt 0.2722 0.9012 0.0000
vt 0.2919 0.9012 0.0000
vt 0.2526 0.9395 0.0000
vt 0.2526 0.9012 0.0000
vt 0.2329 0.9395 0.0000
vt 0.2329 0.9012 0.0000
vt 0.2133 0.9395 0.0000
vt 0.2133 0.9012 0.0000
vt 0.1936 0.9395 0.0000
vt 0.1936 0.9012 0.0000
vt 0.3508 0.9395 0.0000
vt 0.3312 0.9395 0.0000
vt 0.3312 0.9012 0.0000
vt 0.3508 0.9012 0.0000
vt 0.3115 0.9395 0.0000
vt 0.3115 0.9012 0.0000
vt 0.2195 0.9904 0.0000
vt 0.2024 0.9832 0.0000
vt 0.2198 0.9419 0.0000
vt 0.2369 0.9491 0.0000
vt 0.4395 0.8110 0.0000
vt 0.4549 0.8110 0.0000
vt 0.4549 0.8605 0.0000
vt 0.4395 0.8605 0.0000
vt 0.3618 0.8110 0.0000
vt 0.3771 0.8110 0.0000
vt 0.3771 0.8605 0.0000
vt 0.3618 0.8605 0.0000
vt 0.3931 0.8110 0.0000
vt 0.3931 0.8605 0.0000
vt 0.4091 0.8110 0.0000
vt 0.4091 0.8605 0.0000
vt 0.4242 0.8110 0.0000
vt 0.4242 0.8605 0.0000
vt 0.4549 0.9104 0.0000
vt 0.4395 0.9104 0.0000
vt 0.3771 0.9104 0.0000
vt 0.3618 0.9104 0.0000
vt 0.3931 0.9104 0.0000
vt 0.4091 0.9104 0.0000
vt 0.4242 0.9104 0.0000
vt 0.4549 0.9601 0.0000
vt 0.4395 0.9601 0.0000
vt 0.3771 0.9601 0.0000
vt 0.3618 0.9601 0.0000
vt 0.3931 0.9601 0.0000
vt 0.4091 0.9601 0.0000
vt 0.4242 0.9601 0.0000
vt 0.2618 0.9622 1.1430
vt 0.2780 0.9503 1.1430
vt 0.2964 0.9583 1.1430
vt 0.2986 0.9783 -0.0000
vt 0.2824 0.9903 -1.1430
vt 0.2640 0.9822 -1.1430
# 104 texture coords

o SmokeBomb
g SmokeBomb
usemtl Material__738
s 1
f 1/1/1 2/2/2 3/3/3 4/4/4 
f 5/5/5 1/1/1 4/4/4 6/6/6 
f 7/7/7 5/5/5 6/6/6 8/8/8 
f 9/9/9 7/7/7 8/8/8 10/10/10 
f 11/11/11 9/9/9 10/10/10 12/12/12 
f 13/13/13 11/11/11 12/12/12 14/14/14 
f 15/15/15 13/13/13 14/14/14 16/16/16 
f 2/17/2 15/15/15 16/16/16 3/18/3 
f 3/3/3 17/19/17 18/20/18 4/4/4 
f 4/4/4 18/20/18 19/21/19 6/6/6 
f 6/6/6 19/21/19 20/22/20 8/8/8 
f 8/8/8 20/22/20 21/23/21 10/10/10 
f 10/10/10 21/23/21 22/24/22 12/12/12 
f 12/12/12 22/24/22 23/25/23 14/14/14 
f 14/14/14 23/25/23 24/26/24 16/16/16 
f 16/16/16 24/26/24 17/27/17 3/18/3 
f 17/19/17 25/28/25 26/29/26 18/20/18 
f 18/20/18 26/29/26 27/30/27 19/21/19 
f 19/21/19 27/30/27 28/31/28 20/22/20 
f 20/22/20 28/31/28 29/32/29 21/23/21 
f 21/23/21 29/32/29 30/33/30 22/24/22 
f 22/24/22 30/33/30 31/34/31 23/25/23 
f 23/25/23 31/34/31 32/35/32 24/26/24 
f 24/26/24 32/35/32 25/36/25 17/27/17 
f 33/37/33 26/29/26 25/28/25 
f 33/38/33 27/30/27 26/29/26 
f 33/39/33 28/31/28 27/30/27 
f 33/40/33 29/32/29 28/31/28 
f 33/41/33 30/33/30 29/32/29 
f 33/42/33 31/34/31 30/33/30 
f 33/43/33 32/35/32 31/34/31 
f 33/44/33 25/36/25 32/35/32 
f 34/45/34 35/46/34 36/47/34 37/48/34 
s off
f 2/49/35 1/50/35 38/51/35 34/52/35 
f 1/50/36 5/53/36 39/54/36 38/51/36 
f 5/53/37 7/55/37 35/56/37 39/54/37 
f 7/55/38 9/57/38 36/58/38 35/56/38 
f 9/57/39 11/59/39 40/60/39 36/58/39 
f 11/61/40 13/62/40 41/63/40 40/64/40 
f 13/62/41 15/65/41 37/66/41 41/63/41 
f 15/65/42 2/49/42 34/52/42 37/66/42 
s 1
f 34/45/34 38/67/34 39/68/34 35/46/34 
f 36/47/34 40/69/34 41/70/34 37/48/34 
s 8
f 42/71/43 43/72/44 44/73/45 45/74/46 
f 43/75/44 46/76/47 47/77/48 44/78/45 
f 46/76/47 48/79/49 49/80/50 47/77/48 
f 48/79/49 50/81/51 51/82/52 49/80/50 
f 50/81/51 52/83/53 53/84/54 51/82/52 
f 52/83/53 42/71/43 45/74/46 53/84/54 
f 45/74/46 44/73/45 54/85/55 55/86/56 
f 44/78/45 47/77/48 56/87/57 54/88/55 
f 47/77/48 49/80/50 57/89/58 56/87/57 
f 49/80/50 51/82/52 58/90/59 57/89/58 
f 51/82/52 53/84/54 59/91/60 58/90/59 
f 53/84/54 45/74/46 55/86/56 59/91/60 
f 55/86/56 54/85/55 60/92/61 61/93/62 
f 54/88/55 56/87/57 62/94/63 60/95/61 
f 56/87/57 57/89/58 63/96/64 62/94/63 
f 57/89/58 58/90/59 64/97/65 63/96/64 
f 58/90/59 59/91/60 65/98/66 64/97/65 
f 59/91/60 55/86/56 61/93/62 65/98/66 
s 1
f 65/99/67 61/100/67 60/101/67 62/102/67 63/103/67 64/104/67 
# 54 polygons - 8 triangles

