# 3ds Max Wavefront OBJ Exporter v0.97b - (c)2007 guruware
# File Created: 23.05.2019 10:12:25

mtllib BouletCoco.mtl

#
# object boulet_coco
#

v  0.0734 0.4302 5.4550
v  4.7936 0.4302 3.4999
v  3.4111 3.7678 3.4999
v  0.0734 5.1503 3.4999
v  -3.2642 3.7678 3.4999
v  -4.6467 0.4302 3.4999
v  -3.2642 -2.9074 3.4999
v  0.0734 -4.2899 3.4999
v  3.4111 -2.9074 3.4999
v  6.7487 0.4302 -1.2202
v  4.7936 5.1503 -1.2202
v  0.0734 7.1054 -1.2202
v  -4.6467 5.1503 -1.2202
v  -6.6018 0.4302 -1.2202
v  -4.6467 -4.2899 -1.2202
v  0.0734 -6.2451 -1.2202
v  4.7936 -4.2899 -1.2202
v  4.7936 0.4302 -5.9403
v  3.4111 3.7678 -5.9403
v  0.0734 5.1503 -5.9403
v  -3.2642 3.7678 -5.9403
v  -4.6467 0.4302 -5.9403
v  -3.2642 -2.9074 -5.9403
v  0.0734 -4.2899 -5.9403
v  3.4111 -2.9074 -5.9403
v  0.0734 0.4302 -7.8955
v  -10.4259 4.8319 -11.5217
v  -9.1579 1.9219 -5.2868
v  -7.2793 6.0432 -5.2419
v  -4.7877 4.0588 -1.1572
v  -6.0042 1.3894 -1.1742
v  -3.9597 10.3958 -9.9251
v  -5.2406 7.7705 -4.8122
v  -0.9987 9.3583 -4.7740
v  -0.7233 6.4218 -1.4633
v  -3.4708 5.3939 -1.4780
v  3.7330 9.0105 -11.0672
v  1.3341 8.8387 -5.4188
v  5.4587 6.9671 -5.3864
v  3.8209 5.2187 -1.4577
v  1.1504 6.4328 -1.4684
v  11.2655 5.9529 -11.8238
v  7.6452 6.5835 -5.5306
v  9.5906 2.4934 -5.4809
v  6.0922 1.6846 -1.4776
v  4.8309 4.3331 -1.4972
v  11.0415 -4.3576 -10.4712
v  9.5145 -1.3268 -4.9772
v  7.6337 -5.4471 -4.9323
v  4.9847 -3.3893 -1.4772
v  6.2022 -0.7204 -1.4951
v  3.7922 -8.7274 -11.4190
v  5.2905 -6.6994 -5.5341
v  1.0501 -8.2914 -5.4987
v  0.9189 -5.7513 -1.4536
v  3.6659 -4.7218 -1.4657
v  -4.5269 -10.4632 -11.7395
v  -1.5400 -9.0303 -5.5337
v  -5.6608 -7.1506 -5.4876
v  -3.6260 -4.5509 -1.4624
v  -0.9568 -5.7679 -1.4802
v  -9.8523 -3.6824 -14.2074
v  -7.3022 -4.9907 -6.6640
v  -8.8911 -0.7492 -6.6171
v  -5.9891 -0.4863 -1.4728
v  -4.9607 -3.2336 -1.4892
v  -3.3531 3.8417 -14.2762
v  -4.9614 3.0291 -8.2357
v  -2.1671 5.5447 -8.2220
v  -2.0729 4.5001 -3.4504
v  -3.8854 2.8739 -3.4499
v  -4.6739 0.3564 -16.4547
v  -5.2592 -1.3540 -9.1125
v  -5.0627 2.4008 -9.0896
v  -4.2616 1.7290 -3.4595
v  -4.3931 -0.7026 -3.4625
v  -2.9619 -2.7635 -18.4766
v  -2.3105 -4.5134 -9.9263
v  -4.8273 -1.7202 -9.8971
v  -3.8877 -1.7183 -3.4131
v  -2.2611 -3.5305 -3.4181
v  0.1446 -4.0685 -16.4916
v  1.8412 -4.8665 -9.1488
v  -1.9136 -4.6707 -9.1281
v  -1.2522 -4.0308 -3.4404
v  1.1793 -4.1622 -3.4421
v  3.0090 -2.4626 -15.0497
v  4.9494 -2.0280 -8.5287
v  2.1561 -4.5448 -8.5168
v  2.3154 -3.7886 -3.2874
v  4.1278 -2.1622 -3.2853
v  6.2816 0.2683 -15.3096
v  6.1022 2.0280 -8.5288
v  5.9026 -1.7266 -8.5014
v  4.5358 -1.0183 -3.4751
v  4.6680 1.4132 -3.4815
v  3.7664 4.6196 -16.9670
v  2.4988 5.8181 -9.2274
v  5.2475 3.2527 -9.1971
v  3.9684 2.8096 -3.4310
v  2.1905 4.4736 -3.4376
v  0.1548 5.6808 -14.7306
v  -1.5724 6.0042 -8.3537
v  2.1822 5.8065 -8.3347
v  1.4981 4.8147 -3.4207
v  -0.9334 4.9465 -3.4228
# 106 vertices

vn -0.0000 -0.0000 1.0000
vn 0.7486 -0.0000 0.6630
vn 0.5294 0.5294 0.6630
vn -0.0000 0.7486 0.6630
vn -0.5294 0.5294 0.6630
vn -0.7486 -0.0000 0.6630
vn -0.5294 -0.5294 0.6630
vn -0.0000 -0.7486 0.6630
vn 0.5294 -0.5294 0.6630
vn 1.0000 -0.0000 0.0000
vn 0.7071 0.7071 0.0000
vn -0.0000 1.0000 0.0000
vn -0.7071 0.7071 -0.0000
vn -1.0000 0.0000 -0.0000
vn -0.7071 -0.7071 -0.0000
vn -0.0000 -1.0000 -0.0000
vn 0.7071 -0.7071 0.0000
vn 0.7486 -0.0000 -0.6630
vn 0.5294 0.5294 -0.6630
vn 0.0000 0.7486 -0.6630
vn -0.5294 0.5294 -0.6630
vn -0.7486 0.0000 -0.6630
vn -0.5294 -0.5294 -0.6630
vn -0.0000 -0.7486 -0.6630
vn 0.5294 -0.5294 -0.6630
vn 0.0000 0.0000 -1.0000
vn -0.8528 0.3849 0.3531
vn -0.7961 0.3575 0.4883
vn -0.7938 0.3564 0.4928
vn -0.7274 0.3277 0.6029
vn -0.7286 0.3282 0.6012
vn -0.3293 0.8709 0.3647
vn -0.3027 0.7962 0.5239
vn -0.3016 0.7930 0.5294
vn -0.2689 0.7094 0.6515
vn -0.2694 0.7108 0.6497
vn 0.4037 0.8931 0.1986
vn 0.3828 0.8499 0.3622
vn 0.3818 0.8479 0.3679
vn 0.3568 0.7892 0.4999
vn 0.3573 0.7902 0.4979
vn 0.8138 0.3923 0.4288
vn 0.7495 0.3632 0.5534
vn 0.7471 0.3621 0.5575
vn 0.6777 0.3276 0.6584
vn 0.6789 0.3282 0.6568
vn 0.8219 -0.3705 0.4328
vn 0.7481 -0.3353 0.5726
vn 0.7452 -0.3339 0.5773
vn 0.6635 -0.2981 0.6862
vn 0.6649 -0.2987 0.6846
vn 0.3440 -0.9113 0.2264
vn 0.3276 -0.8642 0.3820
vn 0.3269 -0.8621 0.3873
vn 0.3030 -0.8026 0.5138
vn 0.3034 -0.8037 0.5118
vn -0.3807 -0.8439 0.3781
vn -0.3520 -0.7843 0.5109
vn -0.3509 -0.7819 0.5153
vn -0.3211 -0.7133 0.6230
vn -0.3216 -0.7145 0.6213
vn -0.9065 -0.3423 0.2471
vn -0.8687 -0.3295 0.3698
vn -0.8672 -0.3290 0.3738
vn -0.8211 -0.3102 0.4791
vn -0.8220 -0.3105 0.4774
vn -0.6668 0.7411 -0.0778
vn -0.6683 0.7420 0.0535
vn -0.6681 0.7418 0.0574
vn -0.6576 0.7331 0.1735
vn -0.6579 0.7333 0.1717
vn -0.9964 0.0526 -0.0672
vn -0.9977 0.0520 0.0432
vn -0.9976 0.0519 0.0465
vn -0.9877 0.0532 0.1469
vn -0.9880 0.0533 0.1453
vn -0.7410 -0.6668 -0.0800
vn -0.7427 -0.6694 0.0157
vn -0.7427 -0.6694 0.0186
vn -0.7397 -0.6643 0.1074
vn -0.7398 -0.6644 0.1060
vn -0.0524 -0.9940 -0.0959
vn -0.0520 -0.9985 0.0141
vn -0.0520 -0.9985 0.0174
vn -0.0535 -0.9916 0.1178
vn -0.0535 -0.9918 0.1162
vn 0.6617 -0.7350 -0.1479
vn 0.6691 -0.7427 -0.0263
vn 0.6692 -0.7428 -0.0228
vn 0.6653 -0.7415 0.0870
vn 0.6654 -0.7416 0.0853
vn 0.9978 -0.0528 0.0401
vn 0.9859 -0.0513 0.1592
vn 0.9853 -0.0512 0.1629
vn 0.9618 -0.0516 0.2688
vn 0.9623 -0.0516 0.2671
vn 0.6823 0.7311 -0.0015
vn 0.6780 0.7277 0.1041
vn 0.6777 0.7274 0.1073
vn 0.6687 0.7152 0.2033
vn 0.6689 0.7155 0.2018
vn 0.0527 0.9979 -0.0363
vn 0.0519 0.9946 0.0893
vn 0.0519 0.9943 0.0931
vn 0.0528 0.9774 0.2046
vn 0.0528 0.9778 0.2029
# 106 vertex normals

vt 0.8326 0.1688 0.0000
vt 0.7588 0.1688 0.0000
vt 0.7804 0.2210 0.0000
vt 0.8326 0.2426 0.0000
vt 0.8848 0.2210 0.0000
vt 0.9064 0.1688 0.0000
vt 0.8848 0.1166 0.0000
vt 0.8326 0.0950 0.0000
vt 0.7804 0.1166 0.0000
vt 0.6841 0.1688 0.0000
vt 0.7276 0.2737 0.0000
vt 0.8326 0.3172 0.0000
vt 0.9376 0.2737 0.0000
vt 0.9810 0.1688 0.0000
vt 0.9376 0.0638 0.0000
vt 0.8326 0.0203 0.0000
vt 0.7276 0.0638 0.0000
vt 0.6835 0.4850 0.0000
vt 0.7564 0.4850 0.0000
vt 0.7783 0.5380 0.0000
vt 0.7268 0.5896 0.0000
vt 0.8313 0.5600 0.0000
vt 0.8313 0.6328 0.0000
vt 0.8843 0.5380 0.0000
vt 0.9359 0.5896 0.0000
vt 0.9063 0.4850 0.0000
vt 0.9792 0.4850 0.0000
vt 0.8843 0.4320 0.0000
vt 0.9359 0.3805 0.0000
vt 0.8313 0.4101 0.0000
vt 0.8313 0.3372 0.0000
vt 0.7783 0.4320 0.0000
vt 0.7268 0.3805 0.0000
vt 0.8313 0.4850 0.0000
vt 0.5299 0.1132 0.0000
vt 0.2667 0.2073 0.0000
vt 0.2633 0.0112 0.0000
vt 0.0579 0.0467 0.0000
vt 0.0597 0.1737 0.0000
# 39 texture coords

o boulet_coco
g boulet_coco
usemtl wire_113135006
s 1
f 1/1/1 2/2/2 3/3/3 
f 1/1/1 3/3/3 4/4/4 
f 1/1/1 4/4/4 5/5/5 
f 1/1/1 5/5/5 6/6/6 
f 1/1/1 6/6/6 7/7/7 
f 1/1/1 7/7/7 8/8/8 
f 1/1/1 8/8/8 9/9/9 
f 1/1/1 9/9/9 2/2/2 
f 2/2/2 10/10/10 11/11/11 3/3/3 
f 3/3/3 11/11/11 12/12/12 4/4/4 
f 4/4/4 12/12/12 13/13/13 5/5/5 
f 5/5/5 13/13/13 14/14/14 6/6/6 
f 6/6/6 14/14/14 15/15/15 7/7/7 
f 7/7/7 15/15/15 16/16/16 8/8/8 
f 8/8/8 16/16/16 17/17/17 9/9/9 
f 9/9/9 17/17/17 10/10/10 2/2/2 
f 10/18/10 18/19/18 19/20/19 11/21/11 
f 11/21/11 19/20/19 20/22/20 12/23/12 
f 12/23/12 20/22/20 21/24/21 13/25/13 
f 13/25/13 21/24/21 22/26/22 14/27/14 
f 14/27/14 22/26/22 23/28/23 15/29/15 
f 15/29/15 23/28/23 24/30/24 16/31/16 
f 16/31/16 24/30/24 25/32/25 17/33/17 
f 17/33/17 25/32/25 18/19/18 10/18/10 
f 26/34/26 19/20/19 18/19/18 
f 26/34/26 20/22/20 19/20/19 
f 26/34/26 21/24/21 20/22/20 
f 26/34/26 22/26/22 21/24/21 
f 26/34/26 23/28/23 22/26/22 
f 26/34/26 24/30/24 23/28/23 
f 26/34/26 25/32/25 24/30/24 
f 26/34/26 18/19/18 25/32/25 
f 27/35/27 28/36/28 29/37/29 
f 30/38/30 29/37/29 28/36/28 31/39/31 
f 32/35/32 33/36/33 34/37/34 
f 35/38/35 34/37/34 33/36/33 36/39/36 
f 37/35/37 38/36/38 39/37/39 
f 40/38/40 39/37/39 38/36/38 41/39/41 
f 42/35/42 43/36/43 44/37/44 
f 45/38/45 44/37/44 43/36/43 46/39/46 
f 47/35/47 48/36/48 49/37/49 
f 50/38/50 49/37/49 48/36/48 51/39/51 
f 52/35/52 53/36/53 54/37/54 
f 55/38/55 54/37/54 53/36/53 56/39/56 
f 57/35/57 58/36/58 59/37/59 
f 60/38/60 59/37/59 58/36/58 61/39/61 
f 62/35/62 63/36/63 64/37/64 
f 65/38/65 64/37/64 63/36/63 66/39/66 
f 67/35/67 68/36/68 69/37/69 
f 70/38/70 69/37/69 68/36/68 71/39/71 
f 72/35/72 73/36/73 74/37/74 
f 75/38/75 74/37/74 73/36/73 76/39/76 
f 77/35/77 78/36/78 79/37/79 
f 80/38/80 79/37/79 78/36/78 81/39/81 
f 82/35/82 83/36/83 84/37/84 
f 85/38/85 84/37/84 83/36/83 86/39/86 
f 87/35/87 88/36/88 89/37/89 
f 90/38/90 89/37/89 88/36/88 91/39/91 
f 92/35/92 93/36/93 94/37/94 
f 95/38/95 94/37/94 93/36/93 96/39/96 
f 97/35/97 98/36/98 99/37/99 
f 100/38/100 99/37/99 98/36/98 101/39/101 
f 102/35/102 103/36/103 104/37/104 
f 105/38/105 104/37/104 103/36/103 106/39/106 
# 32 polygons - 32 triangles

