# 3ds Max Wavefront OBJ Exporter v0.97b - (c)2007 guruware
# File Created: 23.05.2019 10:12:00

mtllib CanonCoco.mtl

#
# object Canon_Coco
#

v  1.1032 8.8707 0.1933
v  0.6854 8.8677 0.9967
v  1.0102 -0.2377 1.1429
v  1.5615 -0.2339 0.0830
v  -0.1782 8.8613 1.2693
v  -0.1291 -0.2462 1.5026
v  -0.9816 8.8550 0.8514
v  -1.1890 -0.2545 0.9513
v  -1.2542 8.8527 -0.0122
v  -1.5486 -0.2576 -0.1881
v  -0.8363 8.8556 -0.8156
v  -0.9973 -0.2537 -1.2480
v  0.0273 8.8621 -1.0882
v  0.1420 -0.2452 -1.6076
v  0.8307 8.8683 -0.6703
v  1.2019 -0.2370 -1.0563
v  4.1455 7.7745 -4.6367
v  1.8273 6.2067 -4.1249
v  -1.0068 6.1425 -4.3644
v  -3.2743 7.6064 -5.2638
v  -4.1091 10.0393 -6.4795
v  -3.1924 12.5117 -7.5473
v  -0.8742 14.0795 -8.0591
v  1.9599 14.1437 -7.8196
v  4.2274 12.6798 -6.9202
v  5.0622 10.2469 -5.7045
v  4.0074 17.1528 6.7325
v  5.1215 13.7948 7.5362
v  1.0720 19.1960 6.0617
v  -2.5612 19.1314 5.8032
v  -5.4153 16.8382 5.6269
v  -6.4720 13.4219 6.1447
v  -5.3071 10.0864 6.8031
v  -2.4535 8.1689 7.8191
v  1.1093 8.2734 8.2625
v  4.0038 10.4523 8.3413
v  2.4226 9.7636 -0.8516
v  2.9803 11.4404 -1.2504
v  2.4226 13.0919 -1.7434
v  0.9627 14.0874 -2.1424
v  -0.8419 14.0465 -2.2949
v  -2.3019 12.9850 -2.1427
v  -2.8596 11.3082 -1.7439
v  -2.3019 9.6567 -1.2508
v  -0.8419 8.6612 -0.8519
v  0.9627 8.7021 -0.6994
v  5.0498 14.3836 9.7336
v  3.9551 17.6257 8.2442
v  3.4916 17.2887 8.2925
v  4.4769 14.3706 9.6852
v  3.9891 17.5251 7.8688
v  1.0086 19.5573 7.0543
v  0.8315 19.0250 7.1809
v  3.5256 17.1881 7.9171
v  0.9744 19.6375 7.3534
v  -2.7238 19.6375 7.3534
v  -2.5461 19.1092 7.4950
v  0.7967 19.1092 7.4950
v  -5.6561 17.3067 7.0537
v  -6.6155 14.4220 7.7398
v  -6.0426 14.4350 7.7882
v  -5.1926 16.9907 7.1804
v  -6.6155 13.3533 8.0261
v  -5.6561 10.5121 8.8743
v  -5.1926 10.8491 8.8260
v  -6.0426 13.3663 8.0745
v  -5.6780 10.5770 9.1168
v  -3.3478 9.0392 10.0068
v  -3.0250 9.4742 9.9303
v  -5.2146 10.9140 9.0685
v  -2.6756 8.4799 9.6888
v  0.8940 8.6297 10.3081
v  0.7170 9.1539 10.1516
v  -2.4985 9.0122 9.5622
v  1.0547 8.7355 10.4636
v  3.5208 10.3881 9.7326
v  3.0607 10.7021 9.6085
v  0.8772 9.2613 10.3128
v  4.1681 11.2689 9.5614
v  5.1275 14.1536 8.8753
v  4.5546 14.1406 8.8269
v  3.7937 11.5242 9.4591
v  3.1439 14.1087 8.7077
v  2.3843 16.3583 8.0361
v  2.3899 15.8816 6.6089
v  3.1276 13.8423 7.7137
v  0.3956 17.7142 7.4927
v  0.4792 17.1795 6.0721
v  -2.0626 17.6586 7.2849
v  -1.9225 17.2440 6.1854
v  -4.0513 16.2126 7.4923
v  -4.6318 14.4669 7.9074
v  -4.4676 13.4675 6.3148
v  -3.7923 15.7348 6.0660
v  -4.6318 13.3982 8.1938
v  -4.0513 11.6789 8.7070
v  -3.7274 11.3045 6.8633
v  -2.0626 10.3230 9.2505
v  -1.8767 10.0699 7.7122
v  0.3956 10.3786 9.4582
v  0.4829 10.1206 7.8951
v  1.9155 11.4838 9.2998
v  2.3877 11.6408 8.3497
v  2.5634 12.3630 9.1229
v  -2.6756 19.4739 6.7430
v  -2.4985 18.9496 6.8995
v  -5.8931 13.4351 6.1938
v  -3.2855 19.0304 6.8066
v  -2.9829 18.5974 6.9500
v  -2.2377 17.5313 7.3032
v  -2.3767 18.5863 5.9135
v  0.8315 9.0876 9.8436
v  -3.1887 8.7973 10.8735
v  -3.0117 9.3296 10.7469
v  3.6991 10.6764 8.3429
v  1.0086 8.5633 10.0002
v  1.6337 14.2865 -4.2956
v  1.3107 13.8606 -5.2220
v  1.6552 16.4166 -6.6903
v  2.0688 16.9620 -5.5040
v  0.3615 13.6657 -5.6747
v  0.4397 16.1671 -7.2700
v  -0.6580 13.8160 -5.3884
v  -0.8658 16.3595 -6.9034
v  -1.1505 14.2234 -4.5309
v  -1.4966 16.8813 -5.8053
v  -0.8276 14.6493 -3.6044
v  -1.0831 17.4266 -4.6189
v  0.1216 14.8442 -3.1518
v  0.1325 17.6762 -4.0392
v  1.1411 14.6939 -3.4381
v  1.4380 17.4837 -4.4059
v  0.2504 16.3987 -5.0917
v  0.2704 17.2064 -5.5447
v  0.0559 16.9733 -5.9367
v  0.0363 16.1797 -5.4916
v  0.5578 16.9847 -5.8943
v  0.5381 16.1910 -5.4492
v  0.2952 17.9533 -6.0393
v  0.0793 17.6742 -6.4010
v  0.5811 17.6856 -6.3585
v  0.3305 18.5604 -6.6194
v  0.1098 18.1989 -6.9022
v  0.6116 18.2102 -6.8598
v  0.3830 18.9221 -7.3372
v  0.1501 18.4770 -7.4543
v  0.6519 18.4884 -7.4119
v  0.4556 18.8955 -8.1891
v  0.2051 18.4569 -8.0989
v  0.7069 18.4682 -8.0565
v  0.5458 18.4155 -9.1284
v  0.2819 18.0480 -8.8992
v  0.7838 18.0594 -8.8568
v  0.6549 17.4639 -10.1636
v  0.3864 17.1364 -9.8909
v  0.8882 17.1478 -9.8484
# 156 vertices

vn 0.9947 0.0490 0.0907
vn 0.6404 0.0352 0.7673
vn 0.6446 0.0353 0.7637
vn 0.9953 0.0491 0.0829
vn -0.0870 0.0250 0.9959
vn -0.7639 0.0245 0.6449
vn -0.7675 0.0245 0.6406
vn -0.9960 0.0338 -0.0828
vn -0.9953 0.0339 -0.0906
vn -0.6447 0.0476 -0.7630
vn -0.6404 0.0477 -0.7665
vn 0.0862 0.0578 -0.9946
vn 0.7662 0.0584 -0.6400
vn 0.7626 0.0584 -0.6442
vn 0.6306 -0.6456 -0.4307
vn 0.2684 -0.8850 -0.3805
vn -0.1607 -0.8947 -0.4168
vn -0.5198 -0.6717 -0.5279
vn -0.6755 -0.2781 -0.6829
vn -0.5464 0.1430 -0.8252
vn -0.1709 0.4171 -0.8927
vn 0.2993 0.4277 -0.8529
vn 0.6701 0.1705 -0.7224
vn 0.7923 -0.2448 -0.5589
vn 0.8108 0.5600 -0.1704
vn 1.0000 -0.0021 -0.0039
vn 0.3146 0.8983 -0.3068
vn -0.3673 0.9086 -0.1989
vn -0.7951 0.5236 -0.3061
vn -1.0000 -0.0036 -0.0078
vn -0.7928 -0.6094 -0.0083
vn -0.2966 -0.9471 0.1223
vn 0.3145 -0.9332 0.1739
vn 0.7935 -0.5252 0.3076
vn -0.6490 0.5778 0.4949
vn -0.7882 0.1593 0.5945
vn -0.6490 -0.2529 0.7175
vn -0.2846 -0.5014 0.8171
vn 0.1658 -0.4912 0.8551
vn 0.5302 -0.2262 0.8172
vn 0.6694 0.1923 0.7176
vn 0.5302 0.6045 0.5946
vn 0.1658 0.8529 0.4950
vn -0.2846 0.8427 0.4569
vn 0.6022 -0.2716 0.7507
vn 0.2028 0.9276 0.3136
vn -0.8369 0.3951 0.3790
vn -0.5260 -0.4217 0.7386
vn 0.6094 0.7902 0.0648
vn 0.4937 0.8687 0.0410
vn 0.2172 -0.1556 0.9636
vn -0.5495 0.3619 0.7531
vn 0.6334 0.6325 0.4458
vn -0.6919 0.6031 0.3970
vn -0.4945 -0.4773 0.7264
vn 0.4406 -0.4690 0.7654
vn -0.6918 0.5930 0.4119
vn -0.7462 -0.2150 0.6301
vn -0.0701 -0.3670 0.9276
vn -0.0872 0.2578 0.9622
vn -0.7462 0.5012 0.4381
vn -0.9201 -0.3232 0.2213
vn -0.0755 0.7066 0.7036
vn -0.0701 0.7816 0.6198
vn -0.8870 0.1289 0.4434
vn -0.8263 -0.3244 0.4604
vn 0.2878 0.9096 0.2997
vn -0.0653 0.9443 0.3225
vn -0.1028 -0.8522 0.5129
vn 0.4961 -0.3314 0.8025
vn 0.2972 0.7905 0.5356
vn 0.2942 0.3718 0.8804
vn -0.2050 -0.5569 0.8049
vn 0.7416 0.0579 0.6684
vn 0.2603 0.7012 0.6637
vn -0.7026 0.4520 0.5496
vn 0.3087 -0.4862 0.8175
vn 0.9268 -0.1491 0.3446
vn -0.3685 -0.1744 0.9131
vn -0.3951 -0.2222 0.8914
vn -0.6506 0.1966 0.7336
vn -0.5399 -0.1313 0.8314
vn -0.8106 -0.5563 0.1826
vn -0.9999 0.0041 0.0153
vn -0.2500 -0.3289 0.9107
vn -0.3152 -0.8942 0.3180
vn -0.5347 -0.4518 0.7141
vn 0.2888 -0.8658 0.4085
vn 0.3981 -0.1101 0.9107
vn 0.4113 -0.3538 0.8400
vn 0.9374 0.0901 0.3364
vn 0.7927 -0.5200 0.3181
vn 0.4112 0.7265 0.5506
vn 0.3981 0.5507 0.7337
vn 0.7927 0.6094 0.0155
vn 0.1083 0.7483 0.6545
vn 0.2972 0.9472 -0.1199
vn -0.2500 0.7402 0.6242
vn -0.3152 0.9334 -0.1717
vn -0.1831 0.8438 0.5045
vn -0.7478 0.6061 0.2709
vn -0.7493 0.0768 0.6578
vn -0.7960 0.5500 -0.2528
vn -0.8244 -0.4839 0.2935
vn -0.0875 0.2578 0.9622
vn -0.1367 0.8829 0.4493
vn 0.3486 0.5052 0.7895
vn 0.6913 0.0379 0.7216
vn -0.2902 0.0946 0.9523
vn -0.2642 0.7542 0.6011
vn -0.2440 -0.4345 0.8670
vn 0.0366 0.6251 0.7797
vn 0.0948 0.1218 0.9880
vn 0.3013 -0.8962 0.3257
vn 0.9855 -0.0974 0.1392
vn 0.7564 -0.3995 -0.5179
vn 0.6321 0.2958 -0.7162
vn 0.8203 0.5441 -0.1761
vn 0.0831 -0.5377 -0.8390
vn 0.0787 0.1822 -0.9801
vn -0.6401 -0.4311 -0.6360
vn -0.5156 0.2698 -0.8132
vn -0.9895 -0.1421 -0.0277
vn -0.8028 0.5073 -0.3133
vn -0.7604 0.1600 0.6294
vn -0.6145 0.7556 0.2268
vn -0.0871 0.2982 0.9505
vn -0.0611 0.8692 0.4907
vn 0.6361 0.1916 0.7475
vn 0.5332 0.7816 0.3238
vn -0.0844 0.4890 0.8682
vn -0.0836 0.5210 0.8495
vn -0.8310 -0.2721 -0.4852
vn -0.8205 -0.2640 -0.5070
vn 0.9120 -0.2327 -0.3379
vn 0.9049 -0.2250 -0.3612
vn -0.0798 0.6241 0.7772
vn -0.8465 -0.3085 -0.4340
vn 0.9203 -0.2684 -0.2845
vn -0.0681 0.8039 0.5909
vn -0.8723 -0.3628 -0.3278
vn 0.9303 -0.3220 -0.1755
vn -0.0401 0.9762 0.2130
vn -0.9014 -0.4020 -0.1607
vn 0.9327 -0.3606 -0.0057
vn -0.0009 0.9685 -0.2492
vn -0.9111 -0.4116 0.0236
vn 0.9118 -0.3703 0.1776
vn 0.0295 0.8219 -0.5689
vn -0.9067 -0.3834 0.1758
vn 0.8806 -0.3430 0.3269
vn 0.0764 0.2396 -0.9679
vn -0.6917 -0.6974 -0.1875
vn 0.7440 -0.6649 -0.0661
# 154 vertex normals

vt 0.2463 0.7763 0.0000
vt 0.2721 0.7763 0.0000
vt 0.2721 0.9822 0.0000
vt 0.2463 0.9822 0.0000
vt 0.0661 0.7763 0.0000
vt 0.0919 0.7763 0.0000
vt 0.0919 0.9822 0.0000
vt 0.0661 0.9822 0.0000
vt 0.1176 0.7763 0.0000
vt 0.1176 0.9822 0.0000
vt 0.1434 0.7763 0.0000
vt 0.1434 0.9822 0.0000
vt 0.1691 0.7763 0.0000
vt 0.1691 0.9822 0.0000
vt 0.1949 0.7763 0.0000
vt 0.1949 0.9822 0.0000
vt 0.2206 0.7763 0.0000
vt 0.2206 0.9822 0.0000
vt 0.0948 0.5207 -0.1385
vt 0.1497 0.5404 -0.1402
vt 0.1818 0.5883 -0.1402
vt 0.1796 0.6460 -0.1402
vt 0.1439 0.6913 -0.1402
vt 0.0884 0.7070 -0.1402
vt 0.0342 0.6871 -0.1402
vt 0.0021 0.6392 -0.1402
vt 0.0043 0.5815 -0.1402
vt 0.0408 0.5360 -0.1419
vt 0.6087 0.5668 -0.1436
vt 0.5543 0.5638 -0.1352
vt 0.6029 0.3113 0.0593
vt 0.6709 0.3219 0.0475
vt 0.4998 0.5604 -0.1201
vt 0.5346 0.3045 0.0807
vt 0.4456 0.5545 -0.1121
vt 0.4664 0.2998 0.0865
vt 0.3873 0.5459 -0.1141
vt 0.4012 0.2964 0.0749
vt 0.3261 0.5334 -0.1173
vt 0.3396 0.2901 0.0671
vt 0.2650 0.5211 -0.1156
vt 0.2779 0.2822 0.0770
vt 0.2056 0.5126 -0.1145
vt 0.2110 0.2742 0.0903
vt 0.1489 0.5126 -0.1225
vt 0.1429 0.2715 0.0848
vt 0.0746 0.2751 0.0616
vt 0.0064 0.2856 0.0477
vt 0.3584 0.8775 -0.0665
vt 0.3242 0.8775 -0.0665
vt 0.2966 0.8574 -0.0665
vt 0.2860 0.8249 -0.0665
vt 0.2966 0.7924 -0.0665
vt 0.3243 0.7724 -0.0656
vt 0.3584 0.7724 -0.0673
vt 0.3861 0.7924 -0.0665
vt 0.3966 0.8249 -0.0665
vt 0.3861 0.8574 -0.0665
vt 0.7757 0.8395 0.0000
vt 0.7533 0.9114 0.0000
vt 0.7437 0.9061 0.0000
vt 0.7648 0.8387 0.0000
vt 0.7502 0.9147 0.0000
vt 0.6860 0.9632 0.0000
vt 0.6806 0.9507 0.0000
vt 0.7400 0.9069 0.0000
vt 0.6814 0.9650 0.0000
vt 0.6057 0.9658 0.0000
vt 0.6092 0.9552 0.0000
vt 0.6789 0.9539 0.0000
vt 0.5366 0.9147 0.0000
vt 0.5154 0.8470 0.0000
vt 0.5281 0.8470 0.0000
vt 0.5469 0.9069 0.0000
vt 0.5154 0.8217 0.0000
vt 0.5358 0.7559 0.0000
vt 0.5475 0.7637 0.0000
vt 0.5281 0.8217 0.0000
vt 0.5379 0.7530 0.0000
vt 0.5887 0.7148 0.0000
vt 0.5950 0.7234 0.0000
vt 0.5467 0.7596 0.0000
vt 0.6026 0.7043 0.0000
vt 0.6823 0.7040 0.0000
vt 0.6783 0.7144 0.0000
vt 0.6075 0.7169 0.0000
vt 0.6862 0.7054 0.0000
vt 0.7399 0.7462 0.0000
vt 0.7297 0.7538 0.0000
vt 0.6845 0.7160 0.0000
vt 0.7542 0.7666 0.0000
vt 0.7755 0.8343 0.0000
vt 0.7628 0.8343 0.0000
vt 0.7459 0.7729 0.0000
vt 0.1879 0.5670 0.0572
vt 0.2236 0.5670 0.0672
vt 0.2237 0.6099 0.0357
vt 0.1879 0.6068 0.0284
vt 0.2577 0.5670 0.0845
vt 0.2578 0.6130 0.0501
vt 0.2907 0.5670 0.0914
vt 0.2907 0.5906 0.0738
vt 0.3241 0.5670 0.0857
vt 0.3505 0.5670 0.0613
vt 0.3584 0.6031 0.0543
vt 0.3241 0.6148 0.0505
vt 0.3664 0.5670 0.0609
vt 0.3929 0.5670 0.0844
vt 0.3928 0.6097 0.0531
vt 0.4263 0.5670 0.0893
vt 0.4263 0.6067 0.0596
vt 0.4594 0.5670 0.0823
vt 0.4594 0.6048 0.0541
vt 0.4856 0.5670 0.0497
vt 0.4937 0.5853 0.0524
vt 0.5018 0.5670 0.0427
vt 0.5294 0.5670 0.0572
vt 0.5295 0.6068 0.0284
vt 0.5408 0.2591 0.1163
vt 0.4703 0.2514 0.1242
vt 0.4718 0.2394 0.1239
vt 0.5413 0.2532 0.1160
vt 0.6026 0.9643 0.0000
vt 0.6066 0.9518 0.0000
vt 0.5593 0.8217 0.0000
vt 0.5595 0.8343 0.0000
vt 0.5279 0.8343 0.0000
vt 0.5151 0.8343 0.0000
vt 0.5891 0.9542 0.0000
vt 0.5958 0.9438 0.0000
vt 0.2935 0.5670 0.0824
vt 0.6145 0.9200 0.0000
vt 0.6162 0.9211 0.0000
vt 0.6041 0.9494 0.0000
vt 0.6123 0.9182 0.0000
vt 0.7147 0.8879 0.0000
vt 0.7315 0.8343 0.0000
vt 0.6707 0.9211 0.0000
vt 0.5593 0.8470 0.0000
vt 0.5722 0.8879 0.0000
vt 0.5722 0.7807 0.0000
vt 0.6162 0.7476 0.0000
vt 0.6803 0.7168 0.0000
vt 0.6707 0.7476 0.0000
vt 0.7043 0.7729 0.0000
vt 0.7187 0.7933 0.0000
vt 0.5995 0.9595 0.0000
vt 0.6800 0.2862 0.0753
vt 0.6108 0.2707 0.0905
vt 0.6124 0.2634 0.0905
vt 0.6837 0.2695 0.0753
vt 0.2118 0.2376 0.1218
vt 0.2186 0.2131 0.1436
vt 0.2265 0.2286 0.0889
vt 0.5977 0.7168 0.0000
vt 0.5937 0.7043 0.0000
vt 0.2818 0.2364 0.1100
vt 0.2801 0.2411 0.1100
vt 0.7413 0.7607 0.0000
vt 0.7130 0.7820 0.0000
vt 0.1420 0.2376 0.1139
vt 0.1431 0.2314 0.1125
vt 0.6842 0.7043 0.0000
vt 0.0828 0.2408 0.0681
vt 0.1399 0.2284 0.1108
vt 0.7479 0.7558 0.0000
vt 0.7303 0.6355 0.0000
vt 0.7525 0.6355 0.0000
vt 0.7503 0.6972 0.0000
vt 0.7316 0.6972 0.0000
vt 0.5531 0.6355 0.0000
vt 0.5793 0.6355 0.0000
vt 0.5793 0.6967 0.0000
vt 0.5531 0.6967 0.0000
vt 0.6045 0.6355 0.0000
vt 0.6045 0.6967 0.0000
vt 0.6297 0.6355 0.0000
vt 0.6297 0.6967 0.0000
vt 0.6548 0.6355 0.0000
vt 0.6548 0.6967 0.0000
vt 0.6800 0.6355 0.0000
vt 0.6800 0.6967 0.0000
vt 0.7052 0.6355 0.0000
vt 0.7052 0.6967 0.0000
vt 0.7226 0.7079 0.0000
vt 0.7593 0.7079 0.0000
vt 0.7593 0.7231 0.0000
vt 0.7486 0.7339 0.0000
vt 0.7334 0.7339 0.0000
vt 0.7226 0.7231 0.0000
vt 0.0286 0.8218 0.0000
vt 0.0285 0.8041 0.0000
vt 0.0381 0.8039 0.0000
vt 0.0382 0.8216 0.0000
vt 0.0478 0.8039 0.0000
vt 0.0477 0.8216 0.0000
vt 0.0575 0.8041 0.0000
vt 0.0573 0.8218 0.0000
vt 0.0285 0.7876 0.0000
vt 0.0381 0.7873 0.0000
vt 0.0478 0.7873 0.0000
vt 0.0575 0.7876 0.0000
vt 0.0283 0.7729 0.0000
vt 0.0381 0.7725 0.0000
vt 0.0479 0.7725 0.0000
vt 0.0576 0.7729 0.0000
vt 0.0281 0.7596 0.0000
vt 0.0380 0.7595 0.0000
vt 0.0480 0.7595 0.0000
vt 0.0579 0.7596 0.0000
vt 0.0282 0.7455 0.0000
vt 0.0380 0.7458 0.0000
vt 0.0479 0.7458 0.0000
vt 0.0577 0.7455 0.0000
vt 0.0284 0.7270 0.0000
vt 0.0381 0.7274 0.0000
vt 0.0478 0.7274 0.0000
vt 0.0576 0.7270 0.0000
vt 0.0288 0.7006 0.0000
vt 0.0382 0.7010 0.0000
vt 0.0477 0.7010 0.0000
vt 0.0571 0.7006 0.0000
vt 0.0430 0.6925 0.0000
vt 0.4039 0.2480 0.1115
vt 0.4558 0.2507 0.0920
vt 0.3487 0.2449 0.0776
vt 0.3355 0.2442 0.0774
vt 0.0014 0.2491 0.0753
vt 0.0608 0.2425 0.0609
vt 0.2239 0.7724 -0.0832
vt 0.1879 0.7724 -0.0914
vt 0.2581 0.7724 -0.0689
vt 0.2910 0.7724 -0.0619
vt 0.3926 0.7724 -0.0661
vt 0.4260 0.7724 -0.0641
vt 0.4591 0.7724 -0.0710
vt 0.4935 0.7724 -0.0846
vt 0.5295 0.7724 -0.0914
# 238 texture coords

o Canon_Coco
g Canon_Coco
usemtl wire_113135006
s 8
f 1/1/1 2/2/2 3/3/3 4/4/4 
f 2/5/2 5/6/5 6/7/5 3/8/3 
f 5/6/5 7/9/6 8/10/7 6/7/5 
f 7/9/6 9/11/8 10/12/9 8/10/7 
f 9/11/8 11/13/10 12/14/11 10/12/9 
f 11/13/10 13/15/12 14/16/12 12/14/11 
f 13/15/12 15/17/13 16/18/14 14/16/12 
f 15/17/13 1/1/1 4/4/4 16/18/14 
s off
f 17/19/15 18/20/16 19/21/17 20/22/18 21/23/19 22/24/20 23/25/21 24/26/22 25/27/23 26/28/24 
s 300040
f 26/29/24 25/30/23 27/31/25 28/32/26 
s 188416
f 25/30/23 24/33/22 29/34/27 27/31/25 
s 724992
f 24/33/22 23/35/21 30/36/28 29/34/27 
s 1835040
f 23/35/21 22/37/20 31/38/29 30/36/28 
s 1122368
f 22/37/20 21/39/19 32/40/30 31/38/29 
s 197248
f 21/39/19 20/41/18 33/42/31 32/40/30 
s 149760
f 20/41/18 19/43/17 34/44/32 33/42/31 
s 94208
f 19/43/17 18/45/16 35/46/33 34/44/32 
s 229632
f 18/45/16 17/19/15 36/47/34 35/46/33 
s 393218
f 17/19/15 26/28/24 28/48/26 36/47/34 
s 1
f 37/49/35 38/50/36 39/51/37 40/52/38 41/53/39 42/54/40 43/55/41 44/56/42 45/57/43 46/58/44 
s off
f 47/59/45 48/60/46 49/61/47 50/62/48 
f 51/63/49 52/64/50 53/65/51 54/66/52 
f 55/67/53 56/68/54 57/69/55 58/70/56 
s 334
f 59/71/57 60/72/58 61/73/59 62/74/60 
s 32
f 63/75/61 64/76/62 65/77/63 66/78/64 
s off
f 67/79/65 68/80/66 69/81/67 70/82/68 
f 71/83/69 72/84/70 73/85/71 74/86/72 
f 75/87/73 76/88/74 77/89/75 78/90/76 
s 1032
f 79/91/77 80/92/78 81/93/79 82/94/80 
s 10518
f 83/95/81 84/96/82 85/97/83 86/98/84 
s 5512
f 84/96/82 87/99/85 88/100/86 85/97/83 
s 4100
f 87/99/85 89/101/87 90/102/88 88/100/86 
s 35872
f 91/103/89 92/104/90 93/105/91 94/106/92 
s 16386
f 93/105/91 95/107/93 96/108/94 97/109/95 
s 17548
f 96/108/94 98/110/96 99/111/97 97/109/95 
s 132178
f 98/110/96 100/112/98 101/113/99 99/111/97 
s 131584
f 100/112/98 102/114/100 103/115/101 101/113/99 
s 8200
f 103/115/101 104/116/102 83/117/81 86/118/84 
s 640
f 52/119/50 105/120/103 56/121/54 55/122/53 
s 2
f 105/123/103 106/124/104 57/69/55 56/68/54 
s 776
f 95/125/93 93/126/91 107/127/105 66/78/64 
s 4096
f 60/72/58 32/128/30 107/127/105 61/73/59 
s 192
f 108/129/106 59/71/57 62/74/60 109/130/107 
s 49152
f 110/131/108 91/103/89 94/106/92 90/102/88 
s 64
f 90/132/88 89/133/87 106/124/104 111/134/109 
s 16
f 110/135/108 90/132/88 111/134/109 109/130/107 
s 609
f 54/66/52 84/136/82 83/137/81 81/93/79 
s 512
f 53/65/51 87/138/85 84/136/82 54/66/52 
s 9
f 61/73/59 92/139/90 91/140/89 62/74/60 
s 73776
f 65/77/63 96/141/94 95/125/93 66/78/64 
s 65792
f 74/86/72 98/142/96 96/141/94 65/77/63 
s 39200
f 112/143/110 100/144/98 98/142/96 74/86/72 
s 32768
f 77/89/75 102/145/100 100/144/98 112/143/110 
s 1025
f 81/93/79 83/137/81 104/146/102 82/94/80 
s off
f 53/65/51 52/64/50 55/67/53 58/70/56 
s 256
f 107/127/105 32/128/30 63/75/61 66/78/64 
s 69632
f 107/127/105 93/126/91 92/139/90 61/73/59 
s 8833
f 62/74/60 91/140/89 110/135/108 109/130/107 
s 8270
f 106/124/104 105/123/103 30/147/28 111/134/109 
s 1040
f 111/134/109 30/147/28 108/129/106 109/130/107 
s 512
f 80/148/78 51/149/49 48/150/46 47/151/45 
s off
f 51/63/49 54/66/52 49/61/47 48/60/46 
f 54/66/52 81/93/79 50/62/48 49/61/47 
f 81/93/79 80/92/78 47/59/45 50/62/48 
s 256
f 71/152/69 113/153/111 68/154/66 
s off
f 71/83/69 74/86/72 114/155/112 113/156/111 
s 10
f 74/86/72 65/77/63 70/82/68 69/81/67 
s off
f 65/77/63 64/76/62 67/79/65 70/82/68 
f 68/80/66 113/156/111 114/155/112 69/81/67 
s 456
f 68/154/66 67/157/65 64/158/62 71/152/69 
s 2
f 69/81/67 114/155/112 74/86/72 
s off
f 115/159/113 103/160/101 102/145/100 77/89/75 
f 104/146/102 103/160/101 115/159/113 82/94/80 
f 106/124/104 89/133/87 87/138/85 53/65/51 
f 106/124/104 53/65/51 58/70/56 57/69/55 
s 1024
f 71/152/69 116/161/114 72/162/70 
s off
f 116/163/114 112/143/110 73/85/71 72/84/70 
f 112/143/110 74/86/72 73/85/71 
s 128
f 116/161/114 76/164/74 75/165/73 
s off
f 77/89/75 112/143/110 78/90/76 
f 112/143/110 116/163/114 75/87/73 78/90/76 
f 77/89/75 76/88/74 36/166/34 115/159/113 
f 115/159/113 36/166/34 79/91/77 82/94/80 
s 8
f 117/167/115 118/168/116 119/169/117 120/170/118 
f 118/171/116 121/172/119 122/173/120 119/174/117 
f 121/172/119 123/175/121 124/176/122 122/173/120 
f 123/175/121 125/177/123 126/178/124 124/176/122 
f 125/177/123 127/179/125 128/180/126 126/178/124 
f 127/179/125 129/181/127 130/182/128 128/180/126 
f 129/181/127 131/183/129 132/184/130 130/182/128 
f 131/183/129 117/167/115 120/170/118 132/184/130 
s 1
f 132/185/130 120/170/118 119/169/117 122/186/120 124/187/122 126/188/124 128/189/126 130/190/128 
f 133/191/131 134/192/132 135/193/133 136/194/134 
s 2
f 136/194/134 135/193/133 137/195/135 138/196/136 
s 4
f 138/196/136 137/195/135 134/197/132 133/198/131 
s 1
f 134/192/132 139/199/137 140/200/138 135/193/133 
s 2
f 135/193/133 140/200/138 141/201/139 137/195/135 
s 4
f 137/195/135 141/201/139 139/202/137 134/197/132 
s 1
f 139/199/137 142/203/140 143/204/141 140/200/138 
s 2
f 140/200/138 143/204/141 144/205/142 141/201/139 
s 4
f 141/201/139 144/205/142 142/206/140 139/202/137 
s 1
f 142/203/140 145/207/143 146/208/144 143/204/141 
s 2
f 143/204/141 146/208/144 147/209/145 144/205/142 
s 4
f 144/205/142 147/209/145 145/210/143 142/206/140 
s 1
f 145/207/143 148/211/146 149/212/147 146/208/144 
s 2
f 146/208/144 149/212/147 150/213/148 147/209/145 
s 4
f 147/209/145 150/213/148 148/214/146 145/210/143 
s 1
f 148/211/146 151/215/149 152/216/150 149/212/147 
s 2
f 149/212/147 152/216/150 153/217/151 150/213/148 
s 4
f 150/213/148 153/217/151 151/218/149 148/214/146 
s 1
f 151/215/149 154/219/152 155/220/153 152/216/150 
s 2
f 152/216/150 155/220/153 156/221/154 153/217/151 
s 4
f 153/217/151 156/221/154 154/222/152 151/218/149 
s 8
f 156/221/154 155/220/153 154/223/152 
s 6897
f 27/31/25 51/149/49 80/148/78 28/32/26 
s 8470
f 29/34/27 52/119/50 51/149/49 27/31/25 
s 67968
f 30/36/28 105/120/103 52/119/50 29/34/27 
s 295424
f 31/38/29 59/224/57 108/225/106 30/36/28 
s 59408
f 32/40/30 60/226/58 59/224/57 31/38/29 
s 1540
f 33/42/31 64/158/62 63/227/61 32/40/30 
s 2079
f 34/44/32 71/152/69 64/158/62 33/42/31 
s 9761
f 35/46/33 116/161/114 71/152/69 34/44/32 
s 33016
f 36/47/34 76/164/74 116/161/114 35/46/33 
s 2054
f 28/48/26 80/228/78 79/229/77 36/47/34 
s 5
f 85/97/83 39/230/37 38/231/36 86/98/84 
s 9
f 88/100/86 40/232/38 39/230/37 85/97/83 
s 7
f 90/102/88 41/233/39 40/232/38 88/100/86 
s 1029
f 93/105/91 43/55/41 42/54/40 94/106/92 
s 67
f 97/109/95 44/234/42 43/55/41 93/105/91 
s 9
f 99/111/97 45/235/43 44/234/42 97/109/95 
s 17
f 101/113/99 46/236/44 45/235/43 99/111/97 
s 517
f 103/115/101 37/237/35 46/236/44 101/113/99 
s 137
f 86/118/84 38/238/36 37/237/35 103/115/101 
s 16641
f 94/106/92 42/54/40 41/233/39 90/102/88 
# 127 polygons - 7 triangles

