# 3ds Max Wavefront OBJ Exporter v0.97b - (c)2007 guruware
# File Created: 06.05.2019 19:20:14

mtllib Case01.mtl

#
# object Case01
#

v  2.4082 0.0000 -1.7497
v  2.4082 3.5879 -1.7497
v  2.9767 3.5879 -0.0000
v  2.9767 0.0000 -0.0000
v  0.9199 0.0000 -2.8310
v  0.9199 3.5879 -2.8310
v  -0.9199 0.0000 -2.8310
v  -0.9199 3.5879 -2.8310
v  -2.4082 0.0000 -1.7497
v  -2.4082 3.5879 -1.7497
v  -2.9767 0.0000 -0.0000
v  -2.9767 3.5879 -0.0000
v  -2.4082 0.0000 1.7497
v  -2.4082 3.5879 1.7497
v  -0.9199 0.0000 2.8310
v  -0.9199 3.5879 2.8310
v  0.9199 0.0000 2.8310
v  0.9199 3.5879 2.8310
v  2.4082 0.0000 1.7497
v  2.4082 3.5879 1.7497
v  3.2134 3.1460 -2.3347
v  3.9720 3.1460 -0.0000
v  1.2274 3.1460 -3.7776
v  -1.2274 3.1460 -3.7776
v  -3.2134 3.1460 -2.3347
v  -3.9720 3.1460 -0.0000
v  -3.2134 3.1460 2.3347
v  -1.2274 3.1460 3.7776
v  1.2274 3.1460 3.7776
v  3.2134 3.1460 2.3347
v  3.2000 3.4280 -2.3249
v  3.9554 3.4280 -0.0000
v  1.2223 3.4280 -3.7618
v  -1.2223 3.4280 -3.7618
v  -3.2000 3.4280 -2.3249
v  -3.9554 3.4280 -0.0000
v  -3.2000 3.4280 2.3249
v  -1.2223 3.4280 3.7618
v  1.2223 3.4280 3.7618
v  3.2000 3.4280 2.3249
v  2.6736 4.0250 -1.9425
v  3.3047 4.0250 -0.0000
v  1.0212 4.0250 -3.1430
v  -1.0212 4.0250 -3.1430
v  -2.6736 4.0250 -1.9425
v  -3.3047 4.0250 -0.0000
v  -2.6736 4.0250 1.9425
v  -1.0212 4.0250 3.1430
v  1.0212 4.0250 3.1430
v  2.6736 4.0250 1.9425
v  1.8286 4.6920 -1.3285
v  2.2603 4.6920 -0.0000
v  0.6985 4.6920 -2.1496
v  -0.6985 4.6920 -2.1496
v  -1.8286 4.6920 -1.3285
v  -2.2603 4.6920 -0.0000
v  -1.8286 4.6920 1.3285
v  -0.6985 4.6920 2.1496
v  0.6985 4.6920 2.1496
v  1.8286 4.6920 1.3285
v  0.8916 5.0382 -0.0000
v  0.7213 5.0382 -0.5241
v  0.0000 5.5430 -0.0000
v  0.2755 5.0382 -0.8480
v  -0.2755 5.0382 -0.8480
v  -0.7213 5.0382 -0.5241
v  -0.8916 5.0382 -0.0000
v  -0.7213 5.0382 0.5241
v  -0.2755 5.0382 0.8480
v  0.2755 5.0382 0.8480
v  0.7213 5.0382 0.5241
# 71 vertices

vn 0.8090 0.0000 -0.5878
vn 1.0000 0.0000 -0.0000
vn 0.3090 0.0000 -0.9511
vn -0.3090 0.0000 -0.9511
vn -0.8090 0.0000 -0.5878
vn -1.0000 0.0000 0.0000
vn -0.8090 0.0000 0.5878
vn -0.3090 0.0000 0.9511
vn 0.3090 0.0000 0.9511
vn 0.8090 0.0000 0.5878
vn -0.3283 -0.9139 0.2385
vn 0.5375 -0.7474 -0.3905
vn 0.6644 -0.7474 -0.0000
vn -0.4058 -0.9139 0.0000
vn -0.1254 -0.9139 0.3860
vn 0.2053 -0.7474 -0.6319
vn 0.1254 -0.9139 0.3860
vn -0.2053 -0.7474 -0.6319
vn 0.3283 -0.9139 0.2385
vn -0.5375 -0.7474 -0.3905
vn 0.4058 -0.9139 0.0000
vn -0.6644 -0.7474 -0.0000
vn 0.3283 -0.9139 -0.2385
vn -0.5375 -0.7474 0.3905
vn 0.1254 -0.9139 -0.3860
vn -0.2053 -0.7474 0.6319
vn -0.1254 -0.9139 -0.3860
vn 0.2053 -0.7474 0.6319
vn -0.3283 -0.9139 -0.2385
vn 0.5375 -0.7474 0.3905
vn 0.7405 0.4028 -0.5380
vn 0.9153 0.4028 -0.0000
vn 0.2828 0.4028 -0.8705
vn -0.2828 0.4028 -0.8705
vn -0.7405 0.4028 -0.5380
vn -0.9153 0.4028 -0.0000
vn -0.7405 0.4028 0.5380
vn -0.2828 0.4028 0.8705
vn 0.2828 0.4028 0.8705
vn 0.7405 0.4028 0.5380
vn 0.5017 0.7845 -0.3645
vn 0.6201 0.7845 -0.0000
vn 0.1916 0.7845 -0.5897
vn -0.1916 0.7845 -0.5897
vn -0.5017 0.7845 -0.3645
vn -0.6201 0.7845 -0.0000
vn -0.5017 0.7845 0.3645
vn -0.1916 0.7845 0.5897
vn 0.1916 0.7845 0.5897
vn 0.5017 0.7845 0.3645
vn 0.3422 0.9062 -0.2486
vn 0.4229 0.9062 -0.0000
vn 0.1307 0.9062 -0.4022
vn -0.1307 0.9062 -0.4022
vn -0.3422 0.9062 -0.2486
vn -0.4229 0.9062 -0.0000
vn -0.3422 0.9062 0.2486
vn -0.1307 0.9062 0.4022
vn 0.1307 0.9062 0.4022
vn 0.3422 0.9062 0.2486
vn 0.3489 0.9372 -0.0000
vn 0.2823 0.9372 -0.2051
vn 0.0000 1.0000 -0.0000
vn 0.1078 0.9372 -0.3318
vn -0.1078 0.9372 -0.3318
vn -0.2823 0.9372 -0.2051
vn -0.3489 0.9372 -0.0000
vn -0.2823 0.9372 0.2051
vn -0.1078 0.9372 0.3318
vn 0.1078 0.9372 0.3318
vn 0.2823 0.9372 0.2051
# 71 vertex normals

vt 0.8854 0.8010 1.0000
vt 0.8854 0.9908 1.0000
vt 0.7881 0.9908 1.0000
vt 0.7881 0.8010 1.0000
vt 0.9827 0.8010 1.0000
vt 0.9827 0.9908 1.0000
vt 0.1068 0.8010 1.0000
vt 0.1068 0.9908 1.0000
vt 0.0095 0.9908 1.0000
vt 0.0095 0.8010 1.0000
vt 0.2041 0.8010 1.0000
vt 0.2041 0.9908 1.0000
vt 0.3015 0.8010 1.0000
vt 0.3015 0.9908 1.0000
vt 0.3988 0.8010 1.0000
vt 0.3988 0.9908 1.0000
vt 0.4961 0.8010 1.0000
vt 0.4961 0.9908 1.0000
vt 0.5934 0.8010 1.0000
vt 0.5934 0.9908 1.0000
vt 0.6907 0.8010 1.0000
vt 0.6907 0.9908 1.0000
vt 0.8324 0.6281 0.0000
vt 0.7791 0.5893 0.0000
vt 0.8435 0.3915 0.0000
vt 0.9094 0.3915 0.0000
vt 0.6313 0.7742 0.0000
vt 0.6109 0.7115 0.0000
vt 0.3825 0.7742 0.0000
vt 0.4029 0.7115 0.0000
vt 0.1814 0.6281 0.0000
vt 0.2347 0.5893 0.0000
vt 0.1044 0.3915 0.0000
vt 0.1703 0.3915 0.0000
vt 0.1814 0.1550 0.0000
vt 0.2347 0.1938 0.0000
vt 0.3825 0.0089 0.0000
vt 0.4029 0.0716 0.0000
vt 0.6313 0.0089 0.0000
vt 0.6109 0.0716 0.0000
vt 0.8324 0.1550 0.0000
vt 0.7791 0.1938 0.0000
vt 0.7787 0.5890 0.0000
vt 0.8432 0.3915 0.0000
vt 0.6107 0.7111 0.0000
vt 0.4031 0.7111 0.0000
vt 0.2351 0.5890 0.0000
vt 0.1706 0.3915 0.0000
vt 0.2351 0.1941 0.0000
vt 0.4031 0.0719 0.0000
vt 0.6107 0.0719 0.0000
vt 0.7787 0.1941 0.0000
vt 0.7322 0.5553 0.0000
vt 0.7858 0.3915 0.0000
vt 0.5929 0.6565 0.0000
vt 0.4208 0.6565 0.0000
vt 0.2816 0.5553 0.0000
vt 0.2280 0.3915 0.0000
vt 0.2816 0.2278 0.0000
vt 0.4208 0.1266 0.0000
vt 0.5929 0.1266 0.0000
vt 0.7322 0.2278 0.0000
vt 0.6572 0.5008 0.0000
vt 0.6932 0.3915 0.0000
vt 0.5642 0.5682 0.0000
vt 0.4496 0.5682 0.0000
vt 0.3566 0.5008 0.0000
vt 0.3206 0.3915 0.0000
vt 0.3566 0.2823 0.0000
vt 0.4496 0.2149 0.0000
vt 0.5642 0.2149 0.0000
vt 0.6572 0.2823 0.0000
vt 0.5816 0.3915 0.0000
vt 0.5673 0.4351 0.0000
vt 0.5069 0.3915 0.0000
vt 0.5299 0.4621 0.0000
vt 0.4839 0.4621 0.0000
vt 0.4465 0.4351 0.0000
vt 0.4321 0.3915 0.0000
vt 0.4465 0.3480 0.0000
vt 0.4839 0.3209 0.0000
vt 0.5299 0.3209 0.0000
vt 0.5673 0.3480 0.0000
# 83 texture coords

o Case01
g Case01
usemtl Case01_wire_135110008
s 1
f 1/1/1 2/2/1 3/3/2 4/4/2 
f 5/5/3 6/6/3 2/2/1 1/1/1 
f 7/7/4 8/8/4 6/9/3 5/10/3 
f 9/11/5 10/12/5 8/8/4 7/7/4 
f 11/13/6 12/14/6 10/12/5 9/11/5 
f 13/15/7 14/16/7 12/14/6 11/13/6 
f 15/17/8 16/18/8 14/16/7 13/15/7 
f 17/19/9 18/20/9 16/18/8 15/17/8 
f 19/21/10 20/22/10 18/20/9 17/19/9 
f 4/4/2 3/3/2 20/22/10 19/21/10 
s 2
f 2/23/11 21/24/12 22/25/13 3/26/14 
f 6/27/15 23/28/16 21/24/12 2/23/11 
f 8/29/17 24/30/18 23/28/16 6/27/15 
f 10/31/19 25/32/20 24/30/18 8/29/17 
f 12/33/21 26/34/22 25/32/20 10/31/19 
f 14/35/23 27/36/24 26/34/22 12/33/21 
f 16/37/25 28/38/26 27/36/24 14/35/23 
f 18/39/27 29/40/28 28/38/26 16/37/25 
f 20/41/29 30/42/30 29/40/28 18/39/27 
f 3/26/14 22/25/13 30/42/30 20/41/29 
f 21/24/12 31/43/31 32/44/32 22/25/13 
f 23/28/16 33/45/33 31/43/31 21/24/12 
f 24/30/18 34/46/34 33/45/33 23/28/16 
f 25/32/20 35/47/35 34/46/34 24/30/18 
f 26/34/22 36/48/36 35/47/35 25/32/20 
f 27/36/24 37/49/37 36/48/36 26/34/22 
f 28/38/26 38/50/38 37/49/37 27/36/24 
f 29/40/28 39/51/39 38/50/38 28/38/26 
f 30/42/30 40/52/40 39/51/39 29/40/28 
f 22/25/13 32/44/32 40/52/40 30/42/30 
f 31/43/31 41/53/41 42/54/42 32/44/32 
f 33/45/33 43/55/43 41/53/41 31/43/31 
f 34/46/34 44/56/44 43/55/43 33/45/33 
f 35/47/35 45/57/45 44/56/44 34/46/34 
f 36/48/36 46/58/46 45/57/45 35/47/35 
f 37/49/37 47/59/47 46/58/46 36/48/36 
f 38/50/38 48/60/48 47/59/47 37/49/37 
f 39/51/39 49/61/49 48/60/48 38/50/38 
f 40/52/40 50/62/50 49/61/49 39/51/39 
f 32/44/32 42/54/42 50/62/50 40/52/40 
f 41/53/41 51/63/51 52/64/52 42/54/42 
f 43/55/43 53/65/53 51/63/51 41/53/41 
f 44/56/44 54/66/54 53/65/53 43/55/43 
f 45/57/45 55/67/55 54/66/54 44/56/44 
f 46/58/46 56/68/56 55/67/55 45/57/45 
f 47/59/47 57/69/57 56/68/56 46/58/46 
f 48/60/48 58/70/58 57/69/57 47/59/47 
f 49/61/49 59/71/59 58/70/58 48/60/48 
f 50/62/50 60/72/60 59/71/59 49/61/49 
f 42/54/42 52/64/52 60/72/60 50/62/50 
f 61/73/61 62/74/62 63/75/63 
f 62/74/62 64/76/64 63/75/63 
f 64/76/64 65/77/65 63/75/63 
f 65/77/65 66/78/66 63/75/63 
f 66/78/66 67/79/67 63/75/63 
f 67/79/67 68/80/68 63/75/63 
f 68/80/68 69/81/69 63/75/63 
f 69/81/69 70/82/70 63/75/63 
f 70/82/70 71/83/71 63/75/63 
f 71/83/71 61/73/61 63/75/63 
f 62/74/62 61/73/61 52/64/52 51/63/51 
f 64/76/64 62/74/62 51/63/51 53/65/53 
f 65/77/65 64/76/64 53/65/53 54/66/54 
f 66/78/66 65/77/65 54/66/54 55/67/55 
f 67/79/67 66/78/66 55/67/55 56/68/56 
f 68/80/68 67/79/67 56/68/56 57/69/57 
f 69/81/69 68/80/68 57/69/57 58/70/58 
f 70/82/70 69/81/69 58/70/58 59/71/59 
f 71/83/71 70/82/70 59/71/59 60/72/60 
f 61/73/61 71/83/71 60/72/60 52/64/52 
# 60 polygons - 10 triangles

