# 3ds Max Wavefront OBJ Exporter v0.97b - (c)2007 guruware
# File Created: 06.05.2019 19:19:55

mtllib Case03.mtl

#
# object Case03
#

v  2.9725 0.0000 -2.1596
v  2.9725 4.4287 -2.1596
v  3.6742 4.4287 -0.0000
v  3.6742 0.0000 -0.0000
v  1.1354 0.0000 -3.4944
v  1.1354 4.4287 -3.4944
v  -1.1354 0.0000 -3.4944
v  -1.1354 4.4287 -3.4944
v  -2.9725 0.0000 -2.1596
v  -2.9725 4.4287 -2.1596
v  -3.6742 0.0000 -0.0000
v  -3.6742 4.4287 -0.0000
v  -2.9725 0.0000 2.1596
v  -2.9725 4.4287 2.1596
v  -1.1354 0.0000 3.4944
v  -1.1354 4.4287 3.4944
v  1.1354 0.0000 3.4944
v  1.1354 4.4287 3.4944
v  2.9725 0.0000 2.1596
v  2.9725 4.4287 2.1596
v  3.9664 3.7725 -2.8818
v  4.9027 3.7725 -0.0000
v  1.5150 3.7725 -4.6628
v  -1.5150 3.7725 -4.6628
v  -3.9664 3.7725 -2.8817
v  -4.9027 3.7725 -0.0000
v  -3.9664 3.7725 2.8818
v  -1.5150 3.7725 4.6628
v  1.5150 3.7725 4.6628
v  3.9664 3.7725 2.8817
v  3.9575 4.0710 -2.8753
v  4.8917 4.0710 -0.0000
v  1.5116 4.0710 -4.6523
v  -1.5116 4.0710 -4.6523
v  -3.9575 4.0710 -2.8753
v  -4.8917 4.0710 -0.0000
v  -3.9575 4.0710 2.8753
v  -1.5116 4.0710 4.6523
v  1.5116 4.0710 4.6523
v  3.9575 4.0710 2.8753
v  3.8347 4.3053 -2.7861
v  3.1478 4.7474 -2.2870
v  3.8909 4.7474 -0.0000
v  4.7399 4.3053 -0.0000
v  1.4647 4.3053 -4.5079
v  1.2023 4.7474 -3.7004
v  -1.4647 4.3053 -4.5079
v  -1.2023 4.7474 -3.7004
v  -3.8347 4.3053 -2.7861
v  -3.1478 4.7474 -2.2870
v  -4.7399 4.3053 -0.0000
v  -3.8909 4.7474 -0.0000
v  -3.8347 4.3053 2.7861
v  -3.1478 4.7474 2.2870
v  -1.4647 4.3053 4.5079
v  -1.2023 4.7474 3.7004
v  1.4647 4.3053 4.5079
v  1.2023 4.7474 3.7004
v  3.8347 4.3053 2.7861
v  3.1478 4.7474 2.2870
v  2.1139 5.7914 -1.5358
v  2.6129 5.7914 -0.0000
v  0.8074 5.7914 -2.4850
v  -0.8074 5.7914 -2.4850
v  -2.1139 5.7914 -1.5358
v  -2.6129 5.7914 -0.0000
v  -2.1139 5.7914 1.5358
v  -0.8074 5.7914 2.4850
v  0.8074 5.7914 2.4850
v  2.1139 5.7914 1.5358
v  0.8530 8.2464 -0.0000
v  0.6901 8.2464 -0.5014
v  0.0000 9.0431 -0.0000
v  0.2636 8.2464 -0.8112
v  -0.2636 8.2464 -0.8112
v  -0.6901 8.2464 -0.5014
v  -0.8530 8.2464 -0.0000
v  -0.6901 8.2464 0.5014
v  -0.2636 8.2464 0.8112
v  0.2636 8.2464 0.8112
v  0.6901 8.2464 0.5014
v  1.6705 7.0189 -0.0000
v  1.3514 7.0189 -0.9819
v  0.5162 7.0189 -1.5887
v  -0.5162 7.0189 -1.5887
v  -1.3514 7.0189 -0.9819
v  -1.6705 7.0189 -0.0000
v  -1.3514 7.0189 0.9819
v  -0.5162 7.0189 1.5887
v  0.5162 7.0189 1.5887
v  1.3514 7.0189 0.9819
# 91 vertices

vn 0.8090 0.0000 -0.5878
vn 1.0000 0.0000 -0.0000
vn 0.3090 0.0000 -0.9511
vn -0.3090 0.0000 -0.9511
vn -0.8090 0.0000 -0.5878
vn -1.0000 0.0000 0.0000
vn -0.8090 0.0000 0.5878
vn -0.3090 0.0000 0.9511
vn 0.3090 0.0000 0.9511
vn 0.8090 0.0000 0.5878
vn -0.3811 -0.8821 0.2769
vn 0.5125 -0.7738 -0.3723
vn 0.6334 -0.7738 -0.0000
vn -0.4711 -0.8821 0.0000
vn -0.1456 -0.8821 0.4480
vn 0.1957 -0.7738 -0.6024
vn 0.1456 -0.8821 0.4480
vn -0.1957 -0.7738 -0.6024
vn 0.3811 -0.8821 0.2769
vn -0.5125 -0.7738 -0.3723
vn 0.4711 -0.8821 0.0000
vn -0.6334 -0.7738 -0.0000
vn 0.3811 -0.8821 -0.2769
vn -0.5125 -0.7738 0.3723
vn 0.1456 -0.8821 -0.4480
vn -0.1957 -0.7738 0.6024
vn -0.1456 -0.8821 -0.4480
vn 0.1957 -0.7738 0.6024
vn -0.3811 -0.8821 -0.2769
vn 0.5125 -0.7738 0.3723
vn 0.7750 0.2871 -0.5630
vn 0.9579 0.2871 -0.0000
vn 0.2960 0.2871 -0.9110
vn -0.2960 0.2871 -0.9110
vn -0.7750 0.2871 -0.5630
vn -0.9579 0.2871 -0.0000
vn -0.7750 0.2871 0.5630
vn -0.2960 0.2871 0.9110
vn 0.2960 0.2871 0.9110
vn 0.7750 0.2871 0.5630
vn 0.5653 0.7154 -0.4107
vn 0.4333 0.8445 -0.3148
vn 0.5356 0.8445 -0.0000
vn 0.6988 0.7154 -0.0000
vn 0.2159 0.7154 -0.6646
vn 0.1655 0.8445 -0.5094
vn -0.2159 0.7154 -0.6646
vn -0.1655 0.8445 -0.5094
vn -0.5653 0.7154 -0.4107
vn -0.4333 0.8445 -0.3148
vn -0.6988 0.7154 -0.0000
vn -0.5356 0.8445 -0.0000
vn -0.5653 0.7154 0.4107
vn -0.4333 0.8445 0.3148
vn -0.2159 0.7154 0.6646
vn -0.1655 0.8445 0.5094
vn 0.2159 0.7154 0.6646
vn 0.1655 0.8445 0.5094
vn 0.5653 0.7154 0.4107
vn 0.4333 0.8445 0.3148
vn 0.5714 0.7079 -0.4151
vn 0.7063 0.7079 -0.0000
vn 0.2182 0.7079 -0.6717
vn -0.2182 0.7079 -0.6717
vn -0.5714 0.7079 -0.4151
vn -0.7063 0.7079 -0.0000
vn -0.5714 0.7079 0.4151
vn -0.2182 0.7079 0.6717
vn 0.2182 0.7079 0.6717
vn 0.5714 0.7079 0.4151
vn 0.7718 0.6358 -0.0000
vn 0.6244 0.6358 -0.4537
vn 0.0000 1.0000 -0.0000
vn 0.2385 0.6358 -0.7341
vn -0.2385 0.6358 -0.7341
vn -0.6244 0.6358 -0.4537
vn -0.7718 0.6358 0.0000
vn -0.6244 0.6358 0.4537
vn -0.2385 0.6358 0.7341
vn 0.2385 0.6358 0.7341
vn 0.6244 0.6358 0.4537
vn 0.8109 0.5851 -0.0000
vn 0.6561 0.5851 -0.4767
vn 0.2506 0.5851 -0.7712
vn -0.2506 0.5851 -0.7712
vn -0.6561 0.5851 -0.4767
vn -0.8109 0.5851 0.0000
vn -0.6561 0.5851 0.4767
vn -0.2506 0.5851 0.7712
vn 0.2506 0.5851 0.7712
vn 0.6561 0.5851 0.4767
# 91 vertex normals

vt 0.8937 0.8035 0.0000
vt 0.8937 0.9951 0.0000
vt 0.7954 0.9951 0.0000
vt 0.7954 0.8035 0.0000
vt 0.9920 0.8035 0.0000
vt 0.9920 0.9951 0.0000
vt 0.1074 0.8035 0.0000
vt 0.1074 0.9951 0.0000
vt 0.0092 0.9951 0.0000
vt 0.0092 0.8035 0.0000
vt 0.2057 0.8035 0.0000
vt 0.2057 0.9951 0.0000
vt 0.3040 0.8035 0.0000
vt 0.3040 0.9951 0.0000
vt 0.4023 0.8035 0.0000
vt 0.4023 0.9951 0.0000
vt 0.5006 0.8035 0.0000
vt 0.5006 0.9951 0.0000
vt 0.5989 0.8035 0.0000
vt 0.5989 0.9951 0.0000
vt 0.6971 0.8035 0.0000
vt 0.6971 0.9951 0.0000
vt 0.8498 0.6473 0.0000
vt 0.7918 0.6051 0.0000
vt 0.8577 0.4020 0.0000
vt 0.9295 0.4020 0.0000
vt 0.6412 0.7988 0.0000
vt 0.6191 0.7305 0.0000
vt 0.3834 0.7988 0.0000
vt 0.4056 0.7305 0.0000
vt 0.1748 0.6473 0.0000
vt 0.2329 0.6051 0.0000
vt 0.0951 0.4020 0.0000
vt 0.1669 0.4020 0.0000
vt 0.1748 0.1568 0.0000
vt 0.2329 0.1990 0.0000
vt 0.3834 0.0053 0.0000
vt 0.4056 0.0735 0.0000
vt 0.6412 0.0053 0.0000
vt 0.6191 0.0735 0.0000
vt 0.8498 0.1568 0.0000
vt 0.7918 0.1990 0.0000
vt 0.8266 0.6303 0.0000
vt 0.9008 0.4020 0.0000
vt 0.6323 0.7714 0.0000
vt 0.3923 0.7714 0.0000
vt 0.1981 0.6303 0.0000
vt 0.1239 0.4020 0.0000
vt 0.1981 0.1737 0.0000
vt 0.3923 0.0326 0.0000
vt 0.6323 0.0326 0.0000
vt 0.8266 0.1737 0.0000
vt 0.8076 0.6166 0.0000
vt 0.7549 0.5783 0.0000
vt 0.8122 0.4020 0.0000
vt 0.8773 0.4020 0.0000
vt 0.6251 0.7492 0.0000
vt 0.6050 0.6872 0.0000
vt 0.3995 0.7492 0.0000
vt 0.4197 0.6872 0.0000
vt 0.2170 0.6166 0.0000
vt 0.2697 0.5783 0.0000
vt 0.1473 0.4020 0.0000
vt 0.2124 0.4020 0.0000
vt 0.2170 0.1875 0.0000
vt 0.2697 0.2258 0.0000
vt 0.3995 0.0549 0.0000
vt 0.4197 0.1169 0.0000
vt 0.6251 0.0549 0.0000
vt 0.6050 0.1169 0.0000
vt 0.8076 0.1875 0.0000
vt 0.7549 0.2258 0.0000
vt 0.6783 0.5227 0.0000
vt 0.7175 0.4020 0.0000
vt 0.5757 0.5972 0.0000
vt 0.4489 0.5972 0.0000
vt 0.3463 0.5227 0.0000
vt 0.3071 0.4020 0.0000
vt 0.3463 0.2814 0.0000
vt 0.4489 0.2069 0.0000
vt 0.5757 0.2069 0.0000
vt 0.6783 0.2814 0.0000
vt 0.5581 0.4020 0.0000
vt 0.5494 0.4290 0.0000
vt 0.5123 0.4020 0.0000
vt 0.5265 0.4456 0.0000
vt 0.4982 0.4456 0.0000
vt 0.4752 0.4290 0.0000
vt 0.4665 0.4020 0.0000
vt 0.4752 0.3751 0.0000
vt 0.4982 0.3585 0.0000
vt 0.5265 0.3585 0.0000
vt 0.5494 0.3751 0.0000
vt 0.6351 0.4020 0.0000
vt 0.6117 0.4742 0.0000
vt 0.5503 0.5188 0.0000
vt 0.4744 0.5188 0.0000
vt 0.4130 0.4742 0.0000
vt 0.3895 0.4020 0.0000
vt 0.4130 0.3298 0.0000
vt 0.4744 0.2852 0.0000
vt 0.5503 0.2852 0.0000
vt 0.6117 0.3298 0.0000
# 103 texture coords

o Case03
g Case03
usemtl Case03_wire_135110008
s 2
f 1/1/1 2/2/1 3/3/2 4/4/2 
f 5/5/3 6/6/3 2/2/1 1/1/1 
f 7/7/4 8/8/4 6/9/3 5/10/3 
f 9/11/5 10/12/5 8/8/4 7/7/4 
f 11/13/6 12/14/6 10/12/5 9/11/5 
f 13/15/7 14/16/7 12/14/6 11/13/6 
f 15/17/8 16/18/8 14/16/7 13/15/7 
f 17/19/9 18/20/9 16/18/8 15/17/8 
f 19/21/10 20/22/10 18/20/9 17/19/9 
f 4/4/2 3/3/2 20/22/10 19/21/10 
s 1
f 2/23/11 21/24/12 22/25/13 3/26/14 
f 6/27/15 23/28/16 21/24/12 2/23/11 
f 8/29/17 24/30/18 23/28/16 6/27/15 
f 10/31/19 25/32/20 24/30/18 8/29/17 
f 12/33/21 26/34/22 25/32/20 10/31/19 
f 14/35/23 27/36/24 26/34/22 12/33/21 
f 16/37/25 28/38/26 27/36/24 14/35/23 
f 18/39/27 29/40/28 28/38/26 16/37/25 
f 20/41/29 30/42/30 29/40/28 18/39/27 
f 3/26/14 22/25/13 30/42/30 20/41/29 
f 21/24/12 31/43/31 32/44/32 22/25/13 
f 23/28/16 33/45/33 31/43/31 21/24/12 
f 24/30/18 34/46/34 33/45/33 23/28/16 
f 25/32/20 35/47/35 34/46/34 24/30/18 
f 26/34/22 36/48/36 35/47/35 25/32/20 
f 27/36/24 37/49/37 36/48/36 26/34/22 
f 28/38/26 38/50/38 37/49/37 27/36/24 
f 29/40/28 39/51/39 38/50/38 28/38/26 
f 30/42/30 40/52/40 39/51/39 29/40/28 
f 22/25/13 32/44/32 40/52/40 30/42/30 
f 41/53/41 42/54/42 43/55/43 44/56/44 
f 45/57/45 46/58/46 42/54/42 41/53/41 
f 47/59/47 48/60/48 46/58/46 45/57/45 
f 49/61/49 50/62/50 48/60/48 47/59/47 
f 51/63/51 52/64/52 50/62/50 49/61/49 
f 53/65/53 54/66/54 52/64/52 51/63/51 
f 55/67/55 56/68/56 54/66/54 53/65/53 
f 57/69/57 58/70/58 56/68/56 55/67/55 
f 59/71/59 60/72/60 58/70/58 57/69/57 
f 44/56/44 43/55/43 60/72/60 59/71/59 
f 61/73/61 62/74/62 43/55/43 42/54/42 
f 63/75/63 61/73/61 42/54/42 46/58/46 
f 64/76/64 63/75/63 46/58/46 48/60/48 
f 65/77/65 64/76/64 48/60/48 50/62/50 
f 66/78/66 65/77/65 50/62/50 52/64/52 
f 67/79/67 66/78/66 52/64/52 54/66/54 
f 68/80/68 67/79/67 54/66/54 56/68/56 
f 69/81/69 68/80/68 56/68/56 58/70/58 
f 70/82/70 69/81/69 58/70/58 60/72/60 
f 62/74/62 70/82/70 60/72/60 43/55/43 
f 71/83/71 72/84/72 73/85/73 
f 72/84/72 74/86/74 73/85/73 
f 74/86/74 75/87/75 73/85/73 
f 75/87/75 76/88/76 73/85/73 
f 76/88/76 77/89/77 73/85/73 
f 77/89/77 78/90/78 73/85/73 
f 78/90/78 79/91/79 73/85/73 
f 79/91/79 80/92/80 73/85/73 
f 80/92/80 81/93/81 73/85/73 
f 81/93/81 71/83/71 73/85/73 
f 82/94/82 62/74/62 61/73/61 83/95/83 
f 83/95/83 61/73/61 63/75/63 84/96/84 
f 84/96/84 63/75/63 64/76/64 85/97/85 
f 85/97/85 64/76/64 65/77/65 86/98/86 
f 86/98/86 65/77/65 66/78/66 87/99/87 
f 87/99/87 66/78/66 67/79/67 88/100/88 
f 88/100/88 67/79/67 68/80/68 89/101/89 
f 89/101/89 68/80/68 69/81/69 90/102/90 
f 90/102/90 69/81/69 70/82/70 91/103/91 
f 91/103/91 70/82/70 62/74/62 82/94/82 
f 71/83/71 82/94/82 83/95/83 72/84/72 
f 72/84/72 83/95/83 84/96/84 74/86/74 
f 74/86/74 84/96/84 85/97/85 75/87/75 
f 75/87/75 85/97/85 86/98/86 76/88/76 
f 76/88/76 86/98/86 87/99/87 77/89/77 
f 77/89/77 87/99/87 88/100/88 78/90/78 
f 78/90/78 88/100/88 89/101/89 79/91/79 
f 79/91/79 89/101/89 90/102/90 80/92/80 
f 80/92/80 90/102/90 91/103/91 81/93/81 
f 81/93/81 91/103/91 82/94/82 71/83/71 
f 41/53/41 44/56/44 32/44/32 31/43/31 
f 45/57/45 41/53/41 31/43/31 33/45/33 
f 47/59/47 45/57/45 33/45/33 34/46/34 
f 49/61/49 47/59/47 34/46/34 35/47/35 
f 51/63/51 49/61/49 35/47/35 36/48/36 
f 53/65/53 51/63/51 36/48/36 37/49/37 
f 55/67/55 53/65/53 37/49/37 38/50/38 
f 57/69/57 55/67/55 38/50/38 39/51/39 
f 59/71/59 57/69/57 39/51/39 40/52/40 
f 44/56/44 59/71/59 40/52/40 32/44/32 
# 80 polygons - 10 triangles

