# 3ds Max Wavefront OBJ Exporter v0.97b - (c)2007 guruware
# File Created: 12.04.2019 11:04:24

mtllib Fence.mtl

#
# object Fence
#

v  -0.0185 0.3275 -1.4611
v  -0.0650 0.3427 -1.4611
v  -0.0650 0.3916 -1.4611
v  -0.0185 0.4067 -1.4611
v  0.0103 0.3671 -1.4611
v  0.0264 0.3402 -0.5037
v  -0.0532 0.4319 0.4538
v  -0.0322 0.4029 0.4538
v  0.0552 0.3006 -0.5037
v  -0.0201 0.3251 -0.5037
v  -0.0872 0.4208 0.4538
v  -0.0201 0.2761 -0.5037
v  -0.0872 0.3850 0.4538
v  0.0264 0.2610 -0.5037
v  -0.0532 0.3740 0.4538
v  -0.0233 0.3424 1.4112
v  -0.0053 0.3671 1.4112
v  -0.0233 0.3919 1.4112
v  -0.0524 0.3824 1.4112
v  -0.0524 0.3518 1.4112
v  0.0585 -0.0354 1.1630
v  0.0119 -0.0354 1.1479
v  0.0119 -0.0354 1.0990
v  0.0585 -0.0354 1.0838
v  0.0872 -0.0354 1.1234
v  0.0585 1.1204 1.0838
v  0.0872 1.1204 1.1234
v  0.0119 1.1204 1.0990
v  0.0119 1.1204 1.1479
v  0.0585 1.1204 1.1630
v  -0.0220 0.8712 -1.4112
v  -0.0558 0.8822 -1.4112
v  -0.0558 0.9176 -1.4112
v  -0.0220 0.9286 -1.4112
v  -0.0012 0.8999 -1.4112
v  0.0136 0.8867 -0.4538
v  0.0164 0.8929 0.5037
v  0.0436 0.8555 0.5037
v  0.0390 0.8518 -0.4538
v  -0.0273 0.8734 -0.4538
v  -0.0275 0.8786 0.5037
v  -0.0273 0.8303 -0.4538
v  -0.0275 0.8324 0.5037
v  0.0136 0.8170 -0.4538
v  0.0164 0.8181 0.5037
v  -0.0172 0.8565 1.4611
v  0.0143 0.8999 1.4611
v  -0.0172 0.9433 1.4611
v  -0.0683 0.9267 1.4611
v  -0.0683 0.8731 1.4611
v  0.0585 -0.0354 -1.1835
v  0.0119 -0.0354 -1.1986
v  0.0119 -0.0354 -1.2475
v  0.0585 -0.0354 -1.2626
v  0.0872 -0.0354 -1.2231
v  0.0585 1.1204 -1.2626
v  0.0872 1.1204 -1.2231
v  0.0119 1.1204 -1.2475
v  0.0119 1.1204 -1.1986
v  0.0585 1.1204 -1.1835
# 60 vertices

vn 0.0000 0.0000 -1.0000
vn 0.3408 0.9401 -0.0055
vn 0.2830 0.9589 -0.0190
vn 0.9992 0.0281 0.0302
vn 0.9993 -0.0314 0.0226
vn -0.8167 0.5767 -0.0187
vn -0.8034 0.5947 -0.0303
vn -0.7847 -0.6198 0.0056
vn -0.8286 -0.5598 0.0067
vn 0.3198 -0.9471 0.0274
vn 0.2969 -0.9536 0.0494
vn 0.0000 0.0000 1.0000
vn 0.3242 0.9455 0.0294
vn 0.9995 -0.0137 -0.0285
vn 0.9986 0.0266 -0.0450
vn 0.2857 0.9568 0.0531
vn -0.8104 0.5835 0.0529
vn -0.8005 0.5942 0.0788
vn -0.7979 -0.6027 0.0081
vn -0.8270 -0.5622 -0.0003
vn 0.3155 -0.9480 -0.0411
vn 0.2995 -0.9507 -0.0801
vn 0.0000 -1.0000 -0.0000
vn 1.0000 0.0000 -0.0000
vn 0.3090 0.0000 -0.9511
vn 1.0000 -0.0000 0.0000
vn -0.8090 0.0000 -0.5878
vn -0.8090 -0.0000 0.5878
vn 0.3090 -0.0000 0.9511
vn 0.0000 1.0000 -0.0000
vn 0.3177 0.9481 0.0111
vn 0.3182 0.9478 -0.0228
vn 0.9999 -0.0078 0.0132
vn 0.9997 -0.0098 -0.0237
vn -0.8115 0.5838 0.0240
vn -0.8099 0.5856 -0.0340
vn -0.8021 -0.5972 -0.0040
vn -0.8026 -0.5965 -0.0035
vn 0.3113 -0.9498 -0.0322
vn 0.3131 -0.9494 0.0244
vn 0.2914 0.9557 -0.0400
vn 0.9994 0.0176 0.0298
vn 0.9990 0.0192 -0.0409
vn 0.2917 0.9560 0.0310
vn -0.8040 0.5911 -0.0639
vn -0.8037 0.5929 0.0513
vn -0.8217 -0.5698 -0.0108
vn -0.8223 -0.5690 -0.0064
vn 0.3010 -0.9524 0.0488
vn 0.3018 -0.9512 -0.0651
vn -0.0000 -1.0000 -0.0000
vn 1.0000 -0.0000 -0.0000
# 52 vertex normals

vt 0.4947 0.4794 1.0000
vt 0.4630 0.5062 1.0000
vt 0.4277 0.4845 1.0000
vt 0.4375 0.4441 1.0000
vt 0.4789 0.4410 -0.3820
vt 0.2382 0.3017 1.0000
vt 0.5002 0.2646 1.0000
vt 0.4989 0.3103 1.0000
vt 0.2342 0.3813 1.0000
vt 0.2410 0.1962 1.0000
vt 0.4991 0.2191 1.0000
vt 0.2392 0.1017 1.0000
vt 0.4961 0.1751 1.0000
vt 0.2371 0.0153 1.0000
vt 0.4971 0.1199 1.0000
vt 0.5056 0.3718 1.0000
vt 0.2376 0.4668 1.0000
vt 0.0248 0.7172 1.0000
vt 0.0453 0.6864 1.0000
vt 0.0810 0.6965 1.0000
vt 0.0824 0.7335 -0.3820
vt 0.0477 0.7463 -1.2361
vt 0.6713 0.2736 1.0000
vt 0.6800 0.3272 1.0000
vt 0.0478 0.3289 1.0000
vt 0.0244 0.2666 1.0000
vt 0.6669 0.2095 1.0000
vt 0.0200 0.2094 1.0000
vt 0.6708 0.1484 1.0000
vt 0.0420 0.1532 1.0000
vt 0.6777 0.0947 1.0000
vt 0.0545 0.0780 1.0000
vt 0.6774 0.3797 1.0000
vt 0.0375 0.4118 1.0000
vt 0.2342 0.5391 0.0000
vt 0.2015 0.5305 0.0000
vt 0.2015 0.5028 0.0000
vt 0.2342 0.4942 0.0000
vt 0.2544 0.5166 0.0000
vt 0.8216 0.0196 1.0000
vt 0.8459 0.0196 1.0000
vt 0.8459 0.9903 1.0000
vt 0.8216 0.9903 1.0000
vt 0.7151 0.0196 1.0000
vt 0.7543 0.0196 1.0000
vt 0.7543 0.9903 1.0000
vt 0.7151 0.9903 1.0000
vt 0.7581 0.0196 1.0000
vt 0.7581 0.9903 1.0000
vt 0.7972 0.0196 1.0000
vt 0.7972 0.9903 1.0000
vt 0.1519 0.5199 0.0000
vt 0.1721 0.5424 0.0000
vt 0.1519 0.5648 0.0000
vt 0.1192 0.5562 0.0000
vt 0.1192 0.5285 0.0000
vt 0.0317 0.5800 1.0000
vt 0.0658 0.5538 1.0000
vt 0.1012 0.5781 1.0000
vt 0.0890 0.6193 1.0000
vt 0.0461 0.6205 -0.3820
vt 0.3157 0.7974 1.0000
vt 0.4970 0.8049 1.0000
vt 0.4790 0.8932 1.0000
vt 0.3209 0.8812 1.0000
vt 0.3128 0.7083 1.0000
vt 0.5013 0.7076 1.0000
vt 0.3188 0.6233 1.0000
vt 0.4868 0.6136 1.0000
vt 0.3194 0.5408 1.0000
vt 0.4695 0.5257 1.0000
vt 0.4716 0.9816 1.0000
vt 0.3064 0.9633 1.0000
vt 0.3801 0.5003 1.0000
vt 0.3438 0.5278 1.0000
vt 0.3065 0.5017 1.0000
vt 0.3197 0.4582 -0.3820
vt 0.3652 0.4573 -1.2361
vt 0.7069 0.7918 1.0000
vt 0.6704 0.8753 1.0000
vt 0.1271 0.8234 1.0000
vt 0.1123 0.7690 1.0000
vt 0.7182 0.7078 1.0000
vt 0.1069 0.7178 1.0000
vt 0.6886 0.6266 1.0000
vt 0.1212 0.6665 1.0000
vt 0.6550 0.5363 1.0000
vt 0.1275 0.6039 1.0000
vt 0.6662 0.9763 1.0000
vt 0.1123 0.8880 1.0000
vt 0.0866 0.5177 0.0000
vt 0.0539 0.5091 0.0000
vt 0.0539 0.4814 0.0000
vt 0.0866 0.4728 0.0000
vt 0.1067 0.4953 0.0000
vt 0.9649 0.0142 1.0000
vt 0.9894 0.0142 1.0000
vt 0.9894 0.9933 1.0000
vt 0.9649 0.9933 1.0000
vt 0.8576 0.0142 1.0000
vt 0.8970 0.0142 1.0000
vt 0.8970 0.9933 1.0000
vt 0.8576 0.9933 1.0000
vt 0.9009 0.0142 1.0000
vt 0.9009 0.9933 1.0000
vt 0.9403 0.0142 1.0000
vt 0.9403 0.9933 1.0000
# 107 texture coords

o Fence
g Fence
usemtl wire_177028149
s 1
f 1/1/1 2/2/1 3/3/1 4/4/1 5/5/1 
s 8
f 6/6/2 7/7/3 8/8/4 9/9/5 
f 10/10/6 11/11/7 7/7/3 6/6/2 
f 12/12/8 13/13/9 11/11/7 10/10/6 
f 14/14/10 15/15/11 13/13/9 12/12/8 
f 9/9/5 8/8/4 15/16/11 14/17/10 
s 1
f 16/18/12 17/19/12 18/20/12 19/21/12 20/22/12 
s 8
f 7/7/3 18/23/13 17/24/14 8/8/4 
f 9/9/5 5/25/15 4/26/16 6/6/2 
f 11/11/7 19/27/17 18/23/13 7/7/3 
f 6/6/2 4/26/16 3/28/18 10/10/6 
f 13/13/9 20/29/19 19/27/17 11/11/7 
f 10/10/6 3/28/18 2/30/20 12/12/8 
f 15/15/11 16/31/21 20/29/19 13/13/9 
f 12/12/8 2/30/20 1/32/22 14/14/10 
f 8/8/4 17/24/14 16/33/21 15/16/11 
f 14/17/10 1/34/22 5/25/15 9/9/5 
s 1
f 21/35/23 22/36/23 23/37/23 24/38/23 25/39/23 
s 8
f 25/40/24 24/41/25 26/42/25 27/43/26 
f 24/44/25 23/45/27 28/46/27 26/47/25 
f 23/45/27 22/48/28 29/49/28 28/46/27 
f 22/48/28 21/50/29 30/51/29 29/49/28 
f 21/50/29 25/40/24 27/43/26 30/51/29 
s 1
f 30/52/30 27/53/30 26/54/30 28/55/30 29/56/30 
f 31/57/1 32/58/1 33/59/1 34/60/1 35/61/1 
s 8
f 36/62/31 37/63/32 38/64/33 39/65/34 
f 40/66/35 41/67/36 37/63/32 36/62/31 
f 42/68/37 43/69/38 41/67/36 40/66/35 
f 44/70/39 45/71/40 43/69/38 42/68/37 
f 39/65/34 38/64/33 45/72/40 44/73/39 
s 1
f 46/74/12 47/75/12 48/76/12 49/77/12 50/78/12 
s 8
f 37/63/32 48/79/41 47/80/42 38/64/33 
f 39/65/34 35/81/43 34/82/44 36/62/31 
f 41/67/36 49/83/45 48/79/41 37/63/32 
f 36/62/31 34/82/44 33/84/46 40/66/35 
f 43/69/38 50/85/47 49/83/45 41/67/36 
f 40/66/35 33/84/46 32/86/48 42/68/37 
f 45/71/40 46/87/49 50/85/47 43/69/38 
f 42/68/37 32/86/48 31/88/50 44/70/39 
f 38/64/33 47/80/42 46/89/49 45/72/40 
f 44/73/39 31/90/50 35/81/43 39/65/34 
s 1
f 51/91/51 52/92/51 53/93/51 54/94/51 55/95/51 
s 8
f 55/96/52 54/97/25 56/98/25 57/99/52 
f 54/100/25 53/101/27 58/102/27 56/103/25 
f 53/101/27 52/104/28 59/105/28 58/102/27 
f 52/104/28 51/106/29 60/107/29 59/105/28 
f 51/106/29 55/96/52 57/99/52 60/107/29 
s 1
f 60/94/30 57/95/30 56/91/30 58/92/30 59/93/30 
# 48 polygons

