# 3ds Max Wavefront OBJ Exporter v0.97b - (c)2007 guruware
# File Created: 06.05.2019 19:19:20

mtllib Hut03.mtl

#
# object Hut03
#

v  4.0375 0.0000 -0.0000
v  3.3358 0.0000 -2.1596
v  3.3358 4.4287 -2.1596
v  4.0375 4.4287 -0.0000
v  1.4987 0.0000 -3.4944
v  1.4987 4.4287 -3.4944
v  -0.7721 0.0000 -3.4944
v  -0.7721 4.4287 -3.4944
v  -2.6092 0.0000 -2.1596
v  -2.6092 4.4287 -2.1596
v  -3.3109 0.0000 0.0000
v  -3.3109 4.4287 0.0000
v  -2.6092 0.0000 2.1596
v  -2.6092 4.4287 2.1596
v  -0.7721 0.0000 3.4944
v  -0.7721 4.4287 3.4944
v  1.4987 0.0000 3.4944
v  1.4987 4.4287 3.4944
v  3.3358 0.0000 2.1596
v  3.3358 4.4287 2.1596
v  4.3297 3.7725 -2.8818
v  5.2660 3.7725 0.0000
v  1.8783 3.7725 -4.6628
v  -1.1517 3.7725 -4.6628
v  -3.6031 3.7725 -2.8817
v  -4.5394 3.7725 0.0000
v  -3.6031 3.7725 2.8818
v  -1.1517 3.7725 4.6628
v  1.8783 3.7725 4.6628
v  4.3297 3.7725 2.8817
v  4.3208 4.0710 -2.8753
v  5.2550 4.0710 0.0000
v  1.8749 4.0710 -4.6523
v  -1.1483 4.0710 -4.6523
v  -3.5941 4.0710 -2.8753
v  -4.5284 4.0710 0.0000
v  -3.5941 4.0710 2.8753
v  -1.1483 4.0710 4.6523
v  1.8749 4.0710 4.6523
v  4.3208 4.0710 2.8753
v  5.1032 4.3053 0.0000
v  4.1980 4.3053 -2.7861
v  2.4772 6.7565 -1.5358
v  2.9762 6.7565 0.0000
v  1.8280 4.3053 -4.5079
v  1.1707 6.7565 -2.4850
v  -1.1014 4.3053 -4.5079
v  -0.4441 6.7565 -2.4850
v  -3.4714 4.3053 -2.7861
v  -1.7506 6.7565 -1.5358
v  -4.3766 4.3053 0.0000
v  -2.2496 6.7565 0.0000
v  -3.4714 4.3053 2.7861
v  -1.7506 6.7565 1.5358
v  -1.1014 4.3053 4.5079
v  -0.4441 6.7565 2.4850
v  1.8280 4.3053 4.5079
v  1.1707 6.7565 2.4850
v  4.1980 4.3053 2.7861
v  2.4772 6.7565 1.5358
v  0.3633 9.8363 -0.0000
# 61 vertices

vn 1.0000 0.0000 -0.0000
vn 0.8090 0.0000 -0.5878
vn 0.3090 0.0000 -0.9511
vn -0.3090 0.0000 -0.9511
vn -0.8090 0.0000 -0.5878
vn -1.0000 0.0000 0.0000
vn -0.8090 0.0000 0.5878
vn -0.3090 0.0000 0.9511
vn 0.3090 0.0000 0.9511
vn 0.8090 0.0000 0.5878
vn -0.4711 -0.8821 0.0000
vn -0.3811 -0.8821 0.2769
vn 0.5125 -0.7738 -0.3723
vn 0.6334 -0.7738 -0.0000
vn -0.1456 -0.8821 0.4480
vn 0.1957 -0.7738 -0.6024
vn 0.1456 -0.8821 0.4480
vn -0.1957 -0.7738 -0.6024
vn 0.3811 -0.8821 0.2769
vn -0.5125 -0.7738 -0.3723
vn 0.4711 -0.8821 0.0000
vn -0.6334 -0.7738 -0.0000
vn 0.3811 -0.8821 -0.2769
vn -0.5125 -0.7738 0.3723
vn 0.1456 -0.8821 -0.4480
vn -0.1957 -0.7738 0.6024
vn -0.1456 -0.8821 -0.4480
vn 0.1957 -0.7738 0.6024
vn -0.3811 -0.8821 -0.2769
vn 0.5125 -0.7738 0.3723
vn 0.7750 0.2871 -0.5630
vn 0.9579 0.2871 -0.0000
vn 0.2960 0.2871 -0.9110
vn -0.2960 0.2871 -0.9110
vn -0.7750 0.2871 -0.5630
vn -0.9579 0.2871 -0.0000
vn -0.7750 0.2871 0.5630
vn -0.2960 0.2871 0.9110
vn 0.2960 0.2871 0.9110
vn 0.7750 0.2871 0.5630
vn 0.8042 0.5944 -0.0000
vn 0.6506 0.5944 -0.4727
vn 0.6136 0.6517 -0.4458
vn 0.7585 0.6517 -0.0000
vn 0.2485 0.5944 -0.7648
vn 0.2344 0.6517 -0.7213
vn -0.2485 0.5944 -0.7648
vn -0.2344 0.6517 -0.7213
vn -0.6506 0.5944 -0.4727
vn -0.6136 0.6517 -0.4458
vn -0.8042 0.5944 -0.0000
vn -0.7585 0.6517 -0.0000
vn -0.6506 0.5944 0.4727
vn -0.6136 0.6517 0.4458
vn -0.2485 0.5944 0.7648
vn -0.2344 0.6517 0.7213
vn 0.2485 0.5944 0.7648
vn 0.2344 0.6517 0.7213
vn 0.6506 0.5944 0.4727
vn 0.6136 0.6517 0.4458
vn 0.0000 1.0000 -0.0000
# 61 vertex normals

vt 0.7954 0.8035 0.0000
vt 0.8937 0.8035 0.0000
vt 0.8937 0.9951 0.0000
vt 0.7954 0.9951 0.0000
vt 0.9920 0.8035 0.0000
vt 0.9920 0.9951 0.0000
vt 0.0092 0.8035 0.0000
vt 0.1074 0.8035 0.0000
vt 0.1074 0.9951 0.0000
vt 0.0092 0.9951 0.0000
vt 0.2057 0.8035 0.0000
vt 0.2057 0.9951 0.0000
vt 0.3040 0.8035 0.0000
vt 0.3040 0.9951 0.0000
vt 0.4023 0.8035 0.0000
vt 0.4023 0.9951 0.0000
vt 0.5006 0.8035 0.0000
vt 0.5006 0.9951 0.0000
vt 0.5989 0.8035 0.0000
vt 0.5989 0.9951 0.0000
vt 0.6971 0.8035 0.0000
vt 0.6971 0.9951 0.0000
vt 0.8361 0.4050 0.0000
vt 0.7570 0.6483 0.0000
vt 0.7031 0.6091 0.0000
vt 0.7694 0.4050 0.0000
vt 0.5501 0.7986 0.0000
vt 0.5295 0.7352 0.0000
vt 0.2943 0.7986 0.0000
vt 0.3149 0.7352 0.0000
vt 0.0874 0.6483 0.0000
vt 0.1413 0.6091 0.0000
vt 0.0084 0.4050 0.0000
vt 0.0750 0.4050 0.0000
vt 0.0874 0.1618 0.0000
vt 0.1413 0.2009 0.0000
vt 0.2943 0.0114 0.0000
vt 0.3149 0.0748 0.0000
vt 0.5501 0.0114 0.0000
vt 0.5295 0.0748 0.0000
vt 0.7570 0.1618 0.0000
vt 0.7031 0.2009 0.0000
vt 0.7122 0.6157 0.0000
vt 0.7806 0.4050 0.0000
vt 0.5330 0.7459 0.0000
vt 0.3115 0.7459 0.0000
vt 0.1323 0.6157 0.0000
vt 0.0638 0.4050 0.0000
vt 0.1323 0.1944 0.0000
vt 0.3115 0.0642 0.0000
vt 0.5330 0.0642 0.0000
vt 0.7122 0.1944 0.0000
vt 0.7993 0.4050 0.0000
vt 0.7273 0.6266 0.0000
vt 0.5829 0.5217 0.0000
vt 0.6208 0.4050 0.0000
vt 0.5387 0.7636 0.0000
vt 0.4836 0.5939 0.0000
vt 0.3057 0.7636 0.0000
vt 0.3609 0.5939 0.0000
vt 0.1172 0.6266 0.0000
vt 0.2616 0.5217 0.0000
vt 0.0452 0.4050 0.0000
vt 0.2237 0.4050 0.0000
vt 0.1172 0.1834 0.0000
vt 0.2616 0.2883 0.0000
vt 0.3057 0.0464 0.0000
vt 0.3609 0.2162 0.0000
vt 0.5387 0.0464 0.0000
vt 0.4836 0.2162 0.0000
vt 0.7273 0.1834 0.0000
vt 0.5829 0.2883 0.0000
vt 0.4222 0.4050 0.0000
# 73 texture coords

o Hut03
g Hut03
usemtl wire_135110008
s 2
f 1/1/1 2/2/2 3/3/2 4/4/1 
f 2/2/2 5/5/3 6/6/3 3/3/2 
f 5/7/3 7/8/4 8/9/4 6/10/3 
f 7/8/4 9/11/5 10/12/5 8/9/4 
f 9/11/5 11/13/6 12/14/6 10/12/5 
f 11/13/6 13/15/7 14/16/7 12/14/6 
f 13/15/7 15/17/8 16/18/8 14/16/7 
f 15/17/8 17/19/9 18/20/9 16/18/8 
f 17/19/9 19/21/10 20/22/10 18/20/9 
f 19/21/10 1/1/1 4/4/1 20/22/10 
s 1
f 4/23/11 3/24/12 21/25/13 22/26/14 
f 3/24/12 6/27/15 23/28/16 21/25/13 
f 6/27/15 8/29/17 24/30/18 23/28/16 
f 8/29/17 10/31/19 25/32/20 24/30/18 
f 10/31/19 12/33/21 26/34/22 25/32/20 
f 12/33/21 14/35/23 27/36/24 26/34/22 
f 14/35/23 16/37/25 28/38/26 27/36/24 
f 16/37/25 18/39/27 29/40/28 28/38/26 
f 18/39/27 20/41/29 30/42/30 29/40/28 
f 20/41/29 4/23/11 22/26/14 30/42/30 
f 22/26/14 21/25/13 31/43/31 32/44/32 
f 21/25/13 23/28/16 33/45/33 31/43/31 
f 23/28/16 24/30/18 34/46/34 33/45/33 
f 24/30/18 25/32/20 35/47/35 34/46/34 
f 25/32/20 26/34/22 36/48/36 35/47/35 
f 26/34/22 27/36/24 37/49/37 36/48/36 
f 27/36/24 28/38/26 38/50/38 37/49/37 
f 28/38/26 29/40/28 39/51/39 38/50/38 
f 29/40/28 30/42/30 40/52/40 39/51/39 
f 30/42/30 22/26/14 32/44/32 40/52/40 
f 41/53/41 42/54/42 43/55/43 44/56/44 
f 42/54/42 45/57/45 46/58/46 43/55/43 
f 45/57/45 47/59/47 48/60/48 46/58/46 
f 47/59/47 49/61/49 50/62/50 48/60/48 
f 49/61/49 51/63/51 52/64/52 50/62/50 
f 51/63/51 53/65/53 54/66/54 52/64/52 
f 53/65/53 55/67/55 56/68/56 54/66/54 
f 55/67/55 57/69/57 58/70/58 56/68/56 
f 57/69/57 59/71/59 60/72/60 58/70/58 
f 59/71/59 41/53/41 44/56/44 60/72/60 
f 61/73/61 44/56/44 43/55/43 
f 61/73/61 43/55/43 46/58/46 
f 61/73/61 46/58/46 48/60/48 
f 61/73/61 48/60/48 50/62/50 
f 61/73/61 50/62/50 52/64/52 
f 61/73/61 52/64/52 54/66/54 
f 61/73/61 54/66/54 56/68/56 
f 61/73/61 56/68/56 58/70/58 
f 61/73/61 58/70/58 60/72/60 
f 61/73/61 60/72/60 44/56/44 
f 31/43/31 42/54/42 41/53/41 32/44/32 
f 33/45/33 45/57/45 42/54/42 31/43/31 
f 34/46/34 47/59/47 45/57/45 33/45/33 
f 35/47/35 49/61/49 47/59/47 34/46/34 
f 36/48/36 51/63/51 49/61/49 35/47/35 
f 37/49/37 53/65/53 51/63/51 36/48/36 
f 38/50/38 55/67/55 53/65/53 37/49/37 
f 39/51/39 57/69/57 55/67/55 38/50/38 
f 40/52/40 59/71/59 57/69/57 39/51/39 
f 32/44/32 41/53/41 59/71/59 40/52/40 
# 50 polygons - 10 triangles

