# 3ds Max Wavefront OBJ Exporter v0.97b - (c)2007 guruware
# File Created: 06.05.2019 19:19:35

mtllib Hut02.mtl

#
# object Hut02
#

v  3.7343 0.0000 -0.0000
v  3.0212 0.0000 -2.1950
v  3.0212 3.5879 -2.1950
v  3.7343 3.5879 -0.0000
v  1.1540 0.0000 -3.5516
v  1.1540 3.5879 -3.5516
v  -1.1540 0.0000 -3.5516
v  -1.1540 3.5879 -3.5516
v  -3.0212 0.0000 -2.1950
v  -3.0212 3.5879 -2.1950
v  -3.7343 0.0000 0.0000
v  -3.7343 3.5879 0.0000
v  -3.0212 0.0000 2.1950
v  -3.0212 3.5879 2.1950
v  -1.1540 0.0000 3.5516
v  -1.1540 3.5879 3.5516
v  1.1540 0.0000 3.5516
v  1.1540 3.5879 3.5516
v  3.0212 0.0000 2.1950
v  3.0212 3.5879 2.1950
v  3.7417 3.1561 -2.7185
v  4.6250 3.1561 0.0000
v  1.4292 3.1561 -4.3986
v  -1.4292 3.1561 -4.3986
v  -3.7417 3.1561 -2.7185
v  -4.6250 3.1561 0.0000
v  -3.7417 3.1561 2.7185
v  -1.4292 3.1561 4.3986
v  1.4292 3.1561 4.3986
v  3.7417 3.1561 2.7185
v  3.7590 3.3623 -2.7311
v  4.6464 3.3623 0.0000
v  1.4358 3.3623 -4.4190
v  -1.4358 3.3623 -4.4190
v  -3.7590 3.3623 -2.7311
v  -4.6464 3.3623 0.0000
v  -3.7590 3.3623 2.7311
v  -1.4358 3.3623 4.4190
v  1.4358 3.3623 4.4190
v  3.7590 3.3623 2.7311
v  3.4707 3.5975 -2.5216
v  4.2900 3.5975 0.0000
v  1.3257 3.5975 -4.0800
v  -1.3257 3.5975 -4.0800
v  -3.4707 3.5975 -2.5216
v  -4.2900 3.5975 0.0000
v  -3.4707 3.5975 2.5216
v  -1.3257 3.5975 4.0800
v  1.3257 3.5975 4.0800
v  3.4707 3.5975 2.5216
v  1.7563 5.2368 -1.2760
v  2.1709 5.2368 -0.0000
v  0.6708 5.2368 -2.0646
v  -0.6708 5.2368 -2.0646
v  -1.7563 5.2368 -1.2760
v  -2.1709 5.2368 0.0000
v  -1.7563 5.2368 1.2760
v  -0.6708 5.2368 2.0646
v  0.6708 5.2368 2.0646
v  1.7563 5.2368 1.2760
v  -0.0000 7.2813 -0.0000
# 61 vertices

vn 1.0000 0.0000 -0.0000
vn 0.8090 0.0000 -0.5878
vn 0.3090 0.0000 -0.9511
vn -0.3090 0.0000 -0.9511
vn -0.8090 0.0000 -0.5878
vn -1.0000 0.0000 0.0000
vn -0.8090 0.0000 0.5878
vn -0.3090 0.0000 0.9511
vn 0.3090 0.0000 0.9511
vn 0.8090 0.0000 0.5878
vn -0.4363 -0.8998 0.0000
vn -0.3530 -0.8998 0.2564
vn 0.4793 -0.8056 -0.3482
vn 0.5924 -0.8056 -0.0000
vn -0.1348 -0.8998 0.4149
vn 0.1831 -0.8056 -0.5634
vn 0.1348 -0.8998 0.4149
vn -0.1831 -0.8056 -0.5634
vn 0.3530 -0.8998 0.2564
vn -0.4793 -0.8056 -0.3482
vn 0.4363 -0.8998 -0.0000
vn -0.5924 -0.8056 0.0000
vn 0.3530 -0.8998 -0.2564
vn -0.4793 -0.8056 0.3482
vn 0.1348 -0.8998 -0.4149
vn -0.1831 -0.8056 0.5634
vn -0.1348 -0.8998 -0.4149
vn 0.1831 -0.8056 0.5634
vn -0.3530 -0.8998 -0.2564
vn 0.4793 -0.8056 0.3482
vn 0.7440 0.3928 -0.5405
vn 0.9196 0.3928 -0.0000
vn 0.2842 0.3928 -0.8746
vn -0.2842 0.3928 -0.8746
vn -0.7440 0.3928 -0.5405
vn -0.9196 0.3928 0.0000
vn -0.7440 0.3928 0.5405
vn -0.2842 0.3928 0.8746
vn 0.2842 0.3928 0.8746
vn 0.7440 0.3928 0.5405
vn 0.4666 0.8170 -0.3390
vn 0.5767 0.8170 -0.0000
vn 0.1782 0.8170 -0.5485
vn -0.1782 0.8170 -0.5485
vn -0.4666 0.8170 -0.3390
vn -0.5767 0.8170 -0.0000
vn -0.4666 0.8170 0.3390
vn -0.1782 0.8170 0.5485
vn 0.1782 0.8170 0.5485
vn 0.4666 0.8170 0.3390
vn 0.5209 0.7651 -0.3785
vn 0.6439 0.7651 -0.0000
vn 0.1990 0.7651 -0.6123
vn -0.1990 0.7651 -0.6123
vn -0.5209 0.7651 -0.3785
vn -0.6439 0.7651 -0.0000
vn -0.5209 0.7651 0.3785
vn -0.1990 0.7651 0.6123
vn 0.1990 0.7651 0.6123
vn 0.5209 0.7651 0.3785
vn 0.0000 1.0000 -0.0000
# 61 vertex normals

vt 0.7975 0.8393 1.0000
vt 0.8966 0.8393 1.0000
vt 0.8966 0.9934 1.0000
vt 0.7975 0.9934 1.0000
vt 0.9958 0.8393 1.0000
vt 0.9958 0.9934 1.0000
vt 0.0042 0.8393 1.0000
vt 0.1034 0.8393 1.0000
vt 0.1034 0.9934 1.0000
vt 0.0042 0.9934 1.0000
vt 0.2026 0.8393 1.0000
vt 0.2026 0.9934 1.0000
vt 0.3017 0.8393 1.0000
vt 0.3017 0.9934 1.0000
vt 0.4009 0.8393 1.0000
vt 0.4009 0.9934 1.0000
vt 0.5000 0.8393 1.0000
vt 0.5000 0.9934 1.0000
vt 0.5992 0.8393 1.0000
vt 0.5992 0.9934 1.0000
vt 0.6983 0.8393 1.0000
vt 0.6983 0.9934 1.0000
vt 0.9143 0.4158 0.0000
vt 0.8313 0.6716 0.0000
vt 0.7862 0.6389 0.0000
vt 0.8585 0.4158 0.0000
vt 0.6135 0.8294 0.0000
vt 0.5962 0.7763 0.0000
vt 0.3445 0.8294 0.0000
vt 0.3618 0.7763 0.0000
vt 0.1267 0.6716 0.0000
vt 0.1718 0.6389 0.0000
vt 0.0436 0.4158 0.0000
vt 0.0995 0.4158 0.0000
vt 0.1267 0.1600 0.0000
vt 0.1718 0.1928 0.0000
vt 0.3445 0.0022 0.0000
vt 0.3618 0.0554 0.0000
vt 0.6135 0.0022 0.0000
vt 0.5962 0.0554 0.0000
vt 0.8313 0.1600 0.0000
vt 0.7862 0.1928 0.0000
vt 0.8070 0.6540 0.0000
vt 0.8841 0.4158 0.0000
vt 0.6041 0.8005 0.0000
vt 0.3539 0.8005 0.0000
vt 0.1510 0.6540 0.0000
vt 0.0739 0.4158 0.0000
vt 0.1510 0.1776 0.0000
vt 0.3539 0.0311 0.0000
vt 0.6041 0.0311 0.0000
vt 0.8070 0.1776 0.0000
vt 0.7483 0.6113 0.0000
vt 0.8117 0.4158 0.0000
vt 0.5818 0.7318 0.0000
vt 0.3762 0.7318 0.0000
vt 0.2097 0.6113 0.0000
vt 0.1463 0.4158 0.0000
vt 0.2097 0.2203 0.0000
vt 0.3762 0.0998 0.0000
vt 0.5818 0.0998 0.0000
vt 0.7483 0.2203 0.0000
vt 0.6327 0.5274 0.0000
vt 0.6689 0.4158 0.0000
vt 0.5377 0.5963 0.0000
vt 0.4203 0.5963 0.0000
vt 0.3253 0.5274 0.0000
vt 0.2890 0.4158 0.0000
vt 0.3253 0.3043 0.0000
vt 0.4203 0.2353 0.0000
vt 0.5377 0.2353 0.0000
vt 0.6327 0.3043 0.0000
vt 0.4790 0.4158 0.0000
# 73 texture coords

o Hut02
g Hut02
usemtl wire_135110008
s 1
f 1/1/1 2/2/2 3/3/2 4/4/1 
f 2/2/2 5/5/3 6/6/3 3/3/2 
f 5/7/3 7/8/4 8/9/4 6/10/3 
f 7/8/4 9/11/5 10/12/5 8/9/4 
f 9/11/5 11/13/6 12/14/6 10/12/5 
f 11/13/6 13/15/7 14/16/7 12/14/6 
f 13/15/7 15/17/8 16/18/8 14/16/7 
f 15/17/8 17/19/9 18/20/9 16/18/8 
f 17/19/9 19/21/10 20/22/10 18/20/9 
f 19/21/10 1/1/1 4/4/1 20/22/10 
s 2
f 4/23/11 3/24/12 21/25/13 22/26/14 
f 3/24/12 6/27/15 23/28/16 21/25/13 
f 6/27/15 8/29/17 24/30/18 23/28/16 
f 8/29/17 10/31/19 25/32/20 24/30/18 
f 10/31/19 12/33/21 26/34/22 25/32/20 
f 12/33/21 14/35/23 27/36/24 26/34/22 
f 14/35/23 16/37/25 28/38/26 27/36/24 
f 16/37/25 18/39/27 29/40/28 28/38/26 
f 18/39/27 20/41/29 30/42/30 29/40/28 
f 20/41/29 4/23/11 22/26/14 30/42/30 
f 22/26/14 21/25/13 31/43/31 32/44/32 
f 21/25/13 23/28/16 33/45/33 31/43/31 
f 23/28/16 24/30/18 34/46/34 33/45/33 
f 24/30/18 25/32/20 35/47/35 34/46/34 
f 25/32/20 26/34/22 36/48/36 35/47/35 
f 26/34/22 27/36/24 37/49/37 36/48/36 
f 27/36/24 28/38/26 38/50/38 37/49/37 
f 28/38/26 29/40/28 39/51/39 38/50/38 
f 29/40/28 30/42/30 40/52/40 39/51/39 
f 30/42/30 22/26/14 32/44/32 40/52/40 
f 31/43/31 41/53/41 42/54/42 32/44/32 
f 33/45/33 43/55/43 41/53/41 31/43/31 
f 34/46/34 44/56/44 43/55/43 33/45/33 
f 35/47/35 45/57/45 44/56/44 34/46/34 
f 36/48/36 46/58/46 45/57/45 35/47/35 
f 37/49/37 47/59/47 46/58/46 36/48/36 
f 38/50/38 48/60/48 47/59/47 37/49/37 
f 39/51/39 49/61/49 48/60/48 38/50/38 
f 40/52/40 50/62/50 49/61/49 39/51/39 
f 32/44/32 42/54/42 50/62/50 40/52/40 
f 41/53/41 51/63/51 52/64/52 42/54/42 
f 43/55/43 53/65/53 51/63/51 41/53/41 
f 44/56/44 54/66/54 53/65/53 43/55/43 
f 45/57/45 55/67/55 54/66/54 44/56/44 
f 46/58/46 56/68/56 55/67/55 45/57/45 
f 47/59/47 57/69/57 56/68/56 46/58/46 
f 48/60/48 58/70/58 57/69/57 47/59/47 
f 49/61/49 59/71/59 58/70/58 48/60/48 
f 50/62/50 60/72/60 59/71/59 49/61/49 
f 42/54/42 52/64/52 60/72/60 50/62/50 
f 51/63/51 61/73/61 52/64/52 
f 53/65/53 61/73/61 51/63/51 
f 54/66/54 61/73/61 53/65/53 
f 55/67/55 61/73/61 54/66/54 
f 56/68/56 61/73/61 55/67/55 
f 57/69/57 61/73/61 56/68/56 
f 58/70/58 61/73/61 57/69/57 
f 59/71/59 61/73/61 58/70/58 
f 60/72/60 61/73/61 59/71/59 
f 52/64/52 61/73/61 60/72/60 
# 50 polygons - 10 triangles

