# 3ds Max Wavefront OBJ Exporter v0.97b - (c)2007 guruware
# File Created: 31.05.2019 15:35:03

mtllib lance.mtl

#
# object lance
#

v  0.0139 1.4180 -0.0427
v  0.0449 1.4180 0.0000
v  0.0368 1.4019 0.0000
v  0.0114 1.4019 -0.0350
v  -0.0364 1.4180 -0.0264
v  -0.0298 1.4019 -0.0216
v  -0.0364 1.4180 0.0264
v  -0.0298 1.4019 0.0217
v  0.0114 1.4019 0.0350
v  0.0142 1.4180 0.0438
v  0.0066 1.3930 -0.0203
v  0.0213 1.3930 -0.0000
v  -0.0172 1.3930 -0.0125
v  -0.0172 1.3930 0.0125
v  0.0066 1.3930 0.0203
v  0.0368 1.4324 0.0000
v  0.0114 1.4324 -0.0350
v  0.0038 1.4414 -0.0104
v  0.0195 1.4414 0.0004
v  -0.0298 1.4324 -0.0216
v  -0.0156 1.4414 -0.0113
v  -0.0298 1.4324 0.0217
v  -0.0156 1.4414 0.0118
v  0.0119 1.4324 0.0367
v  0.0064 1.4414 0.0198
v  0.0116 1.4725 -0.0314
v  0.0484 1.4725 0.0006
v  -0.0391 1.4725 -0.0287
v  -0.0369 1.4725 0.0204
v  0.0180 1.4725 0.0402
v  0.0006 1.7691 -0.0022
v  -0.0172 0.0000 -0.0125
v  0.0066 0.0000 -0.0203
v  0.0213 0.0000 -0.0000
v  -0.0172 0.0000 0.0125
v  0.0066 0.0000 0.0203
# 36 vertices

vn 0.3086 0.0190 -0.9510
vn 0.9998 0.0189 -0.0076
vn 0.7706 -0.6373 0.0007
vn 0.2384 -0.6379 -0.7323
vn -0.8087 0.0189 -0.5880
vn -0.6233 -0.6379 -0.4523
vn -0.8133 0.0189 0.5815
vn -0.6231 -0.6373 0.4535
vn 0.2324 -0.6591 0.7152
vn 0.3090 -0.0190 0.9509
vn 0.1543 -0.8657 -0.4762
vn 0.4995 -0.8663 -0.0008
vn -0.4047 -0.8657 -0.2946
vn -0.4046 -0.8663 0.2931
vn 0.1541 -0.8667 0.4744
vn 0.7429 0.6692 -0.0138
vn 0.2189 0.7055 -0.6741
vn 0.2981 0.3519 -0.8873
vn 0.9090 0.2941 -0.2954
vn -0.6004 0.6706 -0.4356
vn -0.5566 0.2947 -0.7768
vn -0.6091 0.6692 0.4256
vn -0.7445 0.3412 0.5738
vn 0.2340 0.6532 0.7201
vn 0.2512 0.3547 0.9006
vn 0.3171 -0.2369 -0.9183
vn 0.9654 -0.2473 -0.0828
vn -0.7271 -0.2488 -0.6399
vn -0.7980 -0.2110 0.5645
vn 0.2924 -0.2117 0.9326
vn 0.0020 0.9999 -0.0116
vn -0.6498 -0.5957 -0.4721
vn 0.2483 -0.5957 -0.7638
vn 0.8032 -0.5957 -0.0000
vn -0.6498 -0.5957 0.4721
vn 0.2483 -0.5957 0.7638
vn 0.3091 0.0000 -0.9510
vn 1.0000 0.0000 -0.0000
vn -0.8091 0.0000 -0.5877
vn -0.8091 0.0000 0.5877
vn 0.3091 0.0000 0.9510
# 41 vertex normals

vt 0.9500 0.9868 1.0000
vt 0.7500 0.9868 1.0000
vt 0.7500 0.9736 1.0000
vt 0.9500 0.9736 1.0000
vt 0.1500 0.9868 1.0000
vt -0.0500 0.9868 1.0000
vt -0.0500 0.9736 1.0000
vt 0.1500 0.9736 1.0000
vt 0.3500 0.9868 1.0000
vt 0.3500 0.9736 1.0000
vt 0.5500 0.9736 1.0000
vt 0.5500 0.9868 1.0000
vt 0.7500 1.0000 1.0000
vt 0.9500 1.0000 1.0000
vt 0.5281 1.0000 -0.3820
vt 0.0674 1.0000 -1.2361
vt 0.5500 1.0000 1.0000
vt 0.5691 1.0000 0.2764
vt 0.1500 1.0000 1.0000
vt -0.0500 1.0000 1.0000
vt 0.3500 1.0000 1.0000
vt 0.1500 0.0000 1.0000
vt -0.0500 0.0000 1.0000
vt 0.5101 0.0000 -0.3820
vt 0.3500 0.0000 1.0000
vt 0.5500 0.0000 1.0000
vt 0.9500 0.0000 1.0000
vt 0.7500 0.0000 1.0000
# 28 texture coords

o lance
g lance
usemtl Metal
s 1
f 1/1/1 2/2/2 3/3/3 4/4/4 
f 5/5/5 1/6/1 4/7/4 6/8/6 
f 7/9/7 5/5/5 6/8/6 8/10/8 
f 9/11/9 10/12/10 7/9/7 8/10/8 
f 2/2/2 10/12/10 9/11/9 3/3/3 
f 11/4/11 4/4/4 3/3/3 12/3/12 
f 13/8/13 6/8/6 4/7/4 11/7/11 
f 14/10/14 8/10/8 6/8/6 13/8/13 
f 15/11/15 9/11/9 8/10/8 14/10/14 
f 12/3/12 3/3/3 9/11/9 15/11/15 
f 16/13/16 17/14/17 18/14/18 19/13/19 
f 20/15/20 21/15/21 18/14/18 17/14/17 
f 22/16/22 23/16/23 21/15/21 20/15/20 
f 22/16/22 24/17/24 25/17/25 23/16/23 
f 16/13/16 19/13/19 25/17/25 24/17/24 
f 19/13/19 18/14/18 26/14/26 27/13/27 
f 21/15/21 28/15/28 26/14/26 18/14/18 
f 21/15/21 23/16/23 29/16/29 28/15/28 
f 25/17/25 30/17/30 29/16/29 23/16/23 
f 19/13/19 27/13/27 30/17/30 25/17/25 
f 26/14/26 31/18/31 27/13/27 
f 28/15/28 31/18/31 26/14/26 
f 29/16/29 31/18/31 28/15/28 
f 30/17/30 31/18/31 29/16/29 
f 27/13/27 31/18/31 30/17/30 
f 17/14/17 16/13/16 2/2/2 1/1/1 
f 20/19/20 17/20/17 1/6/1 5/5/5 
f 22/21/22 20/19/20 5/5/5 7/9/7 
f 24/17/24 22/21/22 7/9/7 10/12/10 
f 16/13/16 24/17/24 10/12/10 2/2/2 
usemtl Bois
f 32/22/32 33/23/33 34/24/34 35/25/35 
f 36/26/36 35/25/35 34/24/34 
f 33/27/33 11/4/37 12/3/38 34/28/34 
f 32/22/32 13/8/39 11/7/37 33/23/33 
f 35/25/35 14/10/40 13/8/39 32/22/32 
f 36/26/36 15/11/41 14/10/40 35/25/35 
f 34/28/34 12/3/38 15/11/41 36/26/36 
# 31 polygons - 6 triangles

