# 3ds Max Wavefront OBJ Exporter v0.97b - (c)2007 guruware
# File Created: 12.04.2019 11:19:54

mtllib Pagaie.mtl

#
# object Paddle
#

v  0.0414 0.0239 2.0879
v  0.0414 -0.0239 2.0879
v  0.0414 -0.0239 -1.1806
v  0.0414 0.0239 -1.1806
v  -0.0000 -0.0478 2.0879
v  -0.0000 -0.0478 -1.1806
v  -0.0414 -0.0239 2.0879
v  -0.0414 -0.0239 -1.1806
v  -0.0414 0.0239 2.0879
v  -0.0414 0.0239 -1.1806
v  -0.0000 0.0478 2.0879
v  -0.0000 0.0478 -1.1806
v  0.0678 0.0392 2.0879
v  0.0678 -0.0392 2.0879
v  -0.0000 -0.0783 2.0879
v  -0.0678 -0.0392 2.0879
v  -0.0678 0.0392 2.0879
v  -0.0000 0.0783 2.0879
v  0.0678 0.0392 2.1516
v  0.0678 -0.0392 2.1516
v  -0.0000 -0.0783 2.1516
v  -0.0678 -0.0392 2.1516
v  -0.0678 0.0392 2.1516
v  -0.0000 0.0783 2.1516
v  0.2528 0.0239 -1.2327
v  0.2528 -0.0239 -1.2327
v  0.2528 -0.0239 -1.6390
v  0.2528 0.0239 -1.6390
v  0.0000 -0.0478 -1.6390
v  0.0414 -0.0239 -1.6390
v  -0.0414 -0.0239 -1.6390
v  -0.2528 -0.0239 -1.2327
v  -0.2528 0.0239 -1.2327
v  -0.2528 0.0239 -1.6390
v  -0.2528 -0.0239 -1.6390
v  -0.0000 0.0478 -1.6390
v  -0.0414 0.0239 -1.6390
v  0.0414 0.0239 -1.6390
v  -0.0065 0.0176 -1.9920
v  0.1622 0.0156 -1.9920
v  0.1622 -0.0156 -1.9920
v  -0.0065 -0.0177 -1.9920
v  -0.1752 -0.0156 -1.9920
v  -0.1752 0.0156 -1.9920
v  0.0687 0.0101 -2.1179
v  -0.0065 0.0114 -2.1516
v  0.0687 -0.0101 -2.1179
v  -0.0065 -0.0114 -2.1516
v  -0.0817 -0.0101 -2.1179
v  -0.0817 0.0101 -2.1179
# 50 vertices

vn 1.0000 0.0000 0.0000
vn 0.5000 -0.8660 0.0000
vn -0.5000 -0.8660 0.0000
vn -1.0000 -0.0000 -0.0000
vn -0.5000 0.8660 -0.0000
vn 0.5000 0.8660 -0.0000
vn 0.0000 0.0000 -1.0000
vn 1.0000 0.0000 -0.0000
vn -1.0000 -0.0000 0.0000
vn -0.0000 0.0000 1.0000
vn -0.0000 1.0000 -0.0000
vn 0.2392 0.0000 0.9710
vn 0.0000 -1.0000 0.0000
vn -0.2392 -0.0000 0.9710
vn 0.4983 0.8630 -0.0829
vn 0.0054 0.9998 -0.0217
vn 0.0054 0.9997 -0.0217
vn 0.9686 0.0000 -0.2486
vn 0.0054 -0.9997 -0.0217
vn 0.0054 -0.9998 -0.0217
vn 0.4983 -0.8630 -0.0829
vn -0.4990 -0.8642 -0.0646
vn -0.0054 -0.9998 -0.0215
vn -0.9767 -0.0000 -0.2146
vn -0.0054 0.9998 -0.0215
vn -0.4990 0.8642 -0.0646
vn 0.0206 0.9986 -0.0480
vn 0.8028 0.0000 -0.5962
vn 0.0206 -0.9986 -0.0480
vn -0.0206 -0.9986 -0.0480
vn -0.8028 -0.0000 -0.5962
vn -0.0206 0.9986 -0.0480
vn -0.4090 -0.0000 -0.9125
vn 0.4090 -0.0000 -0.9125
# 34 vertex normals

vt 0.9058 0.9580 0.0000
vt 0.8925 0.9673 0.0000
vt 0.1979 0.2394 0.0000
vt 0.2091 0.2299 0.0000
vt 0.9695 0.8920 0.0000
vt 0.9599 0.9051 0.0000
vt 0.2510 0.1886 0.0000
vt 0.2610 0.1777 0.0000
vt 0.9476 0.9191 0.0000
vt 0.2413 0.1996 0.0000
vt 0.9342 0.9329 0.0000
vt 0.2311 0.2102 0.0000
vt 0.9201 0.9461 0.0000
vt 0.2203 0.2202 0.0000
vt 0.9094 0.9661 0.0000
vt 0.8895 0.9763 0.0000
vt 0.9785 0.8892 0.0000
vt 0.9678 0.9088 0.0000
vt 0.9547 0.9247 0.0000
vt 0.9405 0.9394 0.0000
vt 0.9256 0.9533 0.0000
vt 0.9191 0.9829 0.0000
vt 0.8978 0.9942 0.0000
vt 0.9962 0.8978 0.0000
vt 0.9845 0.9189 0.0000
vt 0.9701 0.9374 0.0000
vt 0.9545 0.9537 0.0000
vt 0.9379 0.9689 0.0000
vt 1.0272 3.2544 0.0000
vt 1.0565 3.2213 0.0000
vt 1.0998 3.2302 0.0000
vt 1.1138 3.2722 0.0000
vt 1.0844 3.3053 0.0000
vt 1.0411 3.2964 0.0000
vt 0.6300 0.7178 0.0000
vt 0.6064 0.7226 0.0000
vt 0.4169 0.5410 0.0000
vt 0.4360 0.5166 0.0000
vt 0.1470 0.0933 0.0000
vt 0.1566 0.0822 0.0000
vt 0.1368 0.1040 0.0000
vt 0.3418 0.9751 0.0000
vt 0.3359 0.9984 0.0000
vt 0.1438 0.7957 0.0000
vt 0.1689 0.7773 0.0000
vt 0.1245 0.1164 0.0000
vt 0.1351 0.1062 0.0000
vt 0.1134 0.1261 0.0000
vt 0.7300 0.6089 0.0000
vt 0.5463 0.4107 0.0000
vt 0.6495 0.3151 0.0000
vt 0.8567 0.5388 0.0000
vt 0.5724 0.8585 0.0000
vt 0.5417 0.8468 0.0000
vt 0.3193 0.6406 0.0000
vt 0.2732 0.6846 0.0000
vt 0.4688 0.9162 0.0000
vt 0.4790 0.9474 0.0000
vt 0.7930 0.1819 0.0000
vt 0.9769 0.3800 0.0000
vt 0.8973 0.5011 0.0000
vt 0.6899 0.2776 0.0000
vt 0.0519 0.0349 0.0000
vt 0.4308 0.1974 0.0000
vt 0.5132 0.1211 0.0000
vt 0.2120 0.4196 0.0000
vt 0.2180 0.4007 0.0000
vt 0.1332 0.4974 0.0000
vt 0.0652 0.0211 0.0000
vt 0.0516 0.5723 0.0000
vt 0.0327 0.5776 0.0000
vt 0.5954 0.0448 0.0000
vt 0.4194 0.0937 0.0000
vt 0.4409 0.0432 0.0000
vt 0.1109 0.4041 0.0000
vt 0.1093 0.3916 0.0000
vt 0.0615 0.4221 0.0000
vt 0.0410 0.4706 0.0000
vt 0.0286 0.4685 0.0000
vt 0.4928 0.0256 0.0000
vt 0.0526 0.4129 0.0000
# 81 texture coords

o Paddle
g Paddle
usemtl Material__62
s off
f 1/1/1 2/2/1 3/3/1 4/4/1 
f 2/5/2 5/6/2 6/7/2 3/8/2 
f 5/6/3 7/9/3 8/10/3 6/7/3 
f 7/9/4 9/11/4 10/12/4 8/10/4 
f 9/11/5 11/13/5 12/14/5 10/12/5 
f 11/13/6 1/1/6 4/4/6 12/14/6 
usemtl Material__308
f 13/15/7 14/16/7 2/2/7 1/1/7 
f 14/17/7 15/18/7 5/6/7 2/5/7 
f 15/18/7 16/19/7 7/9/7 5/6/7 
f 16/19/7 17/20/7 9/11/7 7/9/7 
f 17/20/7 18/21/7 11/13/7 9/11/7 
f 18/21/7 13/15/7 1/1/7 11/13/7 
f 19/22/8 20/23/8 14/16/8 13/15/8 
f 20/24/2 21/25/2 15/18/2 14/17/2 
f 21/25/3 22/26/3 16/19/3 15/18/3 
f 22/26/9 23/27/9 17/20/9 16/19/9 
f 23/27/5 24/28/5 18/21/5 17/20/5 
f 24/28/6 19/22/6 13/15/6 18/21/6 
f 24/29/10 23/30/10 22/31/10 21/32/10 20/33/10 19/34/10 
usemtl Material__62
f 25/35/1 26/36/1 27/37/1 28/38/1 
f 3/8/2 6/7/2 29/39/2 30/40/2 
f 6/7/3 8/10/3 31/41/3 29/39/3 
f 32/42/4 33/43/4 34/44/4 35/45/4 
f 10/12/5 12/14/5 36/46/5 37/47/5 
f 12/14/6 4/4/6 38/48/6 36/46/6 
f 25/49/11 28/50/11 38/51/11 4/52/11 
f 26/36/12 25/35/12 4/53/12 3/54/12 
f 27/37/13 26/36/13 3/54/13 30/55/13 
f 32/42/13 35/45/13 31/56/13 8/57/13 
f 33/43/14 32/42/14 8/57/14 10/58/14 
f 34/59/11 33/60/11 10/61/11 37/62/11 
f 36/46/15 38/48/15 39/63/15 
f 40/64/16 39/65/17 38/51/16 28/50/16 
f 41/66/18 40/67/18 28/38/18 27/37/18 
f 42/68/19 41/66/20 27/37/20 30/55/20 
f 30/40/21 29/39/21 42/69/21 
f 29/39/22 31/41/22 42/69/22 
f 43/70/23 42/68/23 31/56/23 35/45/23 
f 44/71/24 43/70/24 35/45/24 34/44/24 
f 39/65/25 44/72/25 34/59/25 37/62/25 
f 37/47/26 36/46/26 39/63/26 
f 45/73/27 46/74/27 39/65/27 40/64/27 
f 47/75/28 45/76/28 40/67/28 41/66/28 
f 48/77/29 47/75/29 41/66/29 42/68/29 
f 49/78/30 48/77/30 42/68/30 43/70/30 
f 50/79/31 49/78/31 43/70/31 44/71/31 
f 46/74/32 50/80/32 44/72/32 39/65/32 
f 46/81/33 48/77/33 49/78/33 50/79/33 
f 45/76/34 47/75/34 48/77/34 46/81/34 
# 45 polygons - 4 triangles

