# 3ds Max Wavefront OBJ Exporter v0.97b - (c)2007 guruware
# File Created: 04.04.2019 10:59:48

mtllib Pot02.mtl

#
# object Sphere001
#

v  0.0000 0.0000 0.0000
v  0.0000 0.0657 -0.5123
v  0.2561 0.0657 -0.4436
v  0.4436 0.0657 -0.2561
v  0.5123 0.0657 -0.0000
v  0.4436 0.0657 0.2561
v  0.2561 0.0657 0.4436
v  0.0000 0.0657 0.5123
v  -0.2561 0.0657 0.4436
v  -0.4436 0.0657 0.2561
v  -0.5123 0.0657 0.0000
v  -0.4436 0.0657 -0.2561
v  -0.2561 0.0657 -0.4436
v  0.0000 0.3702 -0.8210
v  0.4105 0.3702 -0.7110
v  0.7110 0.3702 -0.4105
v  0.8210 0.3702 -0.0000
v  0.7110 0.3702 0.4105
v  0.4105 0.3702 0.7110
v  0.0000 0.3702 0.8210
v  -0.4105 0.3702 0.7110
v  -0.7110 0.3702 0.4105
v  -0.8210 0.3702 0.0000
v  -0.7110 0.3702 -0.4105
v  -0.4105 0.3702 -0.7110
v  0.4328 0.5637 -0.7497
v  0.0000 0.5637 -0.8657
v  0.7497 0.5637 -0.4328
v  0.8657 0.5637 -0.0000
v  0.7497 0.5637 0.4328
v  0.4328 0.5637 0.7497
v  0.0000 0.5637 0.8657
v  -0.4328 0.5637 0.7497
v  -0.7497 0.5637 0.4328
v  -0.8657 0.5637 0.0000
v  -0.7497 0.5637 -0.4328
v  -0.4328 0.5637 -0.7497
v  0.0000 0.0474 -0.3174
v  0.0000 0.0438 0.0000
v  0.1587 0.0474 -0.2749
v  0.2749 0.0474 -0.1587
v  0.3174 0.0474 -0.0000
v  0.2749 0.0474 0.1587
v  0.1587 0.0474 0.2749
v  0.0000 0.0474 0.3174
v  -0.1587 0.0474 0.2749
v  -0.2749 0.0474 0.1587
v  -0.3174 0.0474 0.0000
v  -0.2749 0.0474 -0.1587
v  -0.1587 0.0474 -0.2749
v  0.3287 0.2177 -0.5693
v  0.0000 0.2177 -0.6574
v  0.5693 0.2177 -0.3287
v  0.6574 0.2177 -0.0000
v  0.5693 0.2177 0.3287
v  0.3287 0.2177 0.5693
v  0.0000 0.2177 0.6574
v  -0.3287 0.2177 0.5693
v  -0.5693 0.2177 0.3287
v  -0.6574 0.2177 0.0000
v  -0.5693 0.2177 -0.3287
v  -0.3287 0.2177 -0.5693
v  0.4143 0.5973 -0.7175
v  0.0000 0.5973 -0.8285
v  0.7175 0.5973 -0.4143
v  0.8285 0.5973 -0.0000
v  0.7175 0.5973 0.4143
v  0.4143 0.5973 0.7175
v  0.0000 0.5973 0.8285
v  -0.4143 0.5973 0.7175
v  -0.7175 0.5973 0.4143
v  -0.8285 0.5973 0.0000
v  -0.7175 0.5973 -0.4143
v  -0.4143 0.5973 -0.7175
v  0.0000 0.5930 -0.8473
v  0.4237 0.5930 -0.7338
v  0.7338 0.5930 -0.4237
v  0.8473 0.5930 -0.0000
v  0.7338 0.5930 0.4237
v  0.4237 0.5930 0.7338
v  0.0000 0.5930 0.8473
v  -0.4237 0.5930 0.7338
v  -0.7338 0.5930 0.4237
v  -0.8473 0.5930 0.0000
v  -0.7338 0.5930 -0.4237
v  -0.4237 0.5930 -0.7338
# 86 vertices

vn 0.0000 -1.0000 -0.0000
vn -0.0000 -0.8780 -0.4787
vn 0.2394 -0.8780 -0.4146
vn 0.4146 -0.8780 -0.2394
vn 0.4787 -0.8780 -0.0000
vn 0.4146 -0.8780 0.2394
vn 0.2394 -0.8780 0.4146
vn 0.0000 -0.8780 0.4787
vn -0.2394 -0.8780 0.4146
vn -0.4146 -0.8780 0.2394
vn -0.4787 -0.8780 0.0000
vn -0.4146 -0.8780 -0.2394
vn -0.2394 -0.8780 -0.4146
vn -0.0000 -0.4693 -0.8830
vn 0.4415 -0.4693 -0.7647
vn 0.7647 -0.4693 -0.4415
vn 0.8830 -0.4693 -0.0000
vn 0.7647 -0.4693 0.4415
vn 0.4415 -0.4693 0.7647
vn 0.0000 -0.4693 0.8830
vn -0.4415 -0.4693 0.7647
vn -0.7647 -0.4693 0.4415
vn -0.8830 -0.4693 0.0000
vn -0.7647 -0.4693 -0.4415
vn -0.4415 -0.4693 -0.7647
vn 0.4939 0.1561 -0.8554
vn -0.0000 0.1561 -0.9877
vn 0.8554 0.1561 -0.4939
vn 0.9877 0.1561 0.0000
vn 0.8554 0.1561 0.4939
vn 0.4939 0.1561 0.8554
vn 0.0000 0.1561 0.9877
vn -0.4939 0.1561 0.8554
vn -0.8554 0.1561 0.4939
vn -0.9877 0.1561 0.0000
vn -0.8554 0.1561 -0.4939
vn -0.4939 0.1561 -0.8554
vn 0.0000 0.9628 0.2703
vn -0.0000 1.0000 0.0000
vn -0.1352 0.9628 0.2341
vn -0.2341 0.9628 0.1352
vn -0.2703 0.9628 0.0000
vn -0.2341 0.9628 -0.1352
vn -0.1352 0.9628 -0.2341
vn -0.0000 0.9628 -0.2703
vn 0.1352 0.9628 -0.2341
vn 0.2341 0.9628 -0.1352
vn 0.2703 0.9628 -0.0000
vn 0.2341 0.9628 0.1352
vn 0.1352 0.9628 0.2341
vn -0.3730 0.6659 0.6461
vn 0.0000 0.6659 0.7460
vn -0.6461 0.6659 0.3730
vn -0.7460 0.6659 0.0000
vn -0.6461 0.6659 -0.3730
vn -0.3730 0.6659 -0.6461
vn -0.0000 0.6659 -0.7460
vn 0.3730 0.6659 -0.6461
vn 0.6461 0.6659 -0.3730
vn 0.7460 0.6659 -0.0000
vn 0.6461 0.6659 0.3730
vn 0.3730 0.6659 0.6461
vn -0.1768 0.9354 0.3062
vn -0.0000 0.9354 0.3536
vn -0.3062 0.9354 0.1768
vn -0.3536 0.9354 0.0000
vn -0.3062 0.9354 -0.1768
vn -0.1768 0.9354 -0.3062
vn -0.0000 0.9354 -0.3536
vn 0.1768 0.9354 -0.3062
vn 0.3062 0.9354 -0.1768
vn 0.3536 0.9354 -0.0000
vn 0.3062 0.9354 0.1768
vn 0.1768 0.9354 0.3062
vn -0.0000 0.7861 -0.6181
vn 0.3090 0.7861 -0.5353
vn 0.5353 0.7861 -0.3090
vn 0.6181 0.7861 0.0000
vn 0.5353 0.7861 0.3090
vn 0.3090 0.7861 0.5353
vn 0.0000 0.7861 0.6181
vn -0.3090 0.7861 0.5353
vn -0.5353 0.7861 0.3090
vn -0.6181 0.7861 0.0000
vn -0.5353 0.7861 -0.3090
vn -0.3090 0.7861 -0.5353
# 86 vertex normals

vt 0.0000 1.0000 0.0000
vt 0.0000 0.7500 0.0000
vt 0.0805 0.7668 0.0000
vt 0.0833 1.0000 0.0000
vt 0.0833 0.7500 0.0000
vt 0.1639 0.7668 0.0000
vt 0.1667 1.0000 0.0000
vt 0.1667 0.7500 0.0000
vt 0.2472 0.7668 0.0000
vt 0.2917 1.0000 0.0000
vt 0.2500 0.7668 0.0000
vt 0.3333 0.7500 0.0000
vt 0.3333 1.0000 0.0000
vt 0.4139 0.7668 0.0000
vt 0.4583 1.0000 0.0000
vt 0.4167 0.7668 0.0000
vt 0.5000 0.7500 0.0000
vt 0.5000 1.0000 0.0000
vt 0.5805 0.7668 0.0000
vt 0.5833 1.0000 0.0000
vt 0.5833 0.7500 0.0000
vt 0.6639 0.7668 0.0000
vt 0.6667 1.0000 0.0000
vt 0.6667 0.7500 0.0000
vt 0.7472 0.7668 0.0000
vt 0.7917 1.0000 0.0000
vt 0.7500 0.7668 0.0000
vt 0.8333 0.7500 0.0000
vt 0.8750 1.0000 0.0000
vt 0.8334 0.7668 0.0000
vt 0.9167 0.7500 0.0000
vt 0.9583 1.0000 0.0000
vt 0.9167 0.7668 0.0000
vt 1.0000 0.7500 0.0000
vt 0.0000 0.5833 0.0000
vt 0.0833 0.5833 0.0000
vt 0.1667 0.5833 0.0000
vt 0.2500 0.5833 0.0000
vt 0.2500 0.7500 0.0000
vt 0.3333 0.5833 0.0000
vt 0.4167 0.5833 0.0000
vt 0.4167 0.7500 0.0000
vt 0.5000 0.5833 0.0000
vt 0.5833 0.5833 0.0000
vt 0.6667 0.5833 0.0000
vt 0.7500 0.5833 0.0000
vt 0.7500 0.7500 0.0000
vt 0.8333 0.5833 0.0000
vt 0.9167 0.5833 0.0000
vt 1.0000 0.5833 0.0000
vt 0.0833 0.5092 0.0000
vt 0.0000 0.5092 0.0000
vt 0.1667 0.5092 0.0000
vt 0.2500 0.5092 0.0000
vt 0.3333 0.5092 0.0000
vt 0.4167 0.5092 0.0000
vt 0.5000 0.5092 0.0000
vt 0.5833 0.5092 0.0000
vt 0.6667 0.5092 0.0000
vt 0.7500 0.5092 0.0000
vt 0.8333 0.5092 0.0000
vt 0.9167 0.5092 0.0000
vt 1.0000 0.5092 0.0000
vt 0.0000 0.8447 0.0000
vt 0.0417 1.0000 0.0000
vt 0.0833 0.8333 0.0000
vt 0.1667 0.8333 0.0000
vt 0.2472 0.8447 0.0000
vt 0.2500 0.8447 0.0000
vt 0.3333 0.8333 0.0000
vt 0.4138 0.8447 0.0000
vt 0.4167 0.8333 0.0000
vt 0.4167 1.0000 0.0000
vt 0.4972 0.8447 0.0000
vt 0.5000 0.8333 0.0000
vt 0.5805 0.8447 0.0000
vt 0.5833 0.8447 0.0000
vt 0.6250 1.0000 0.0000
vt 0.6667 0.8333 0.0000
vt 0.6667 0.8447 0.0000
vt 0.7083 1.0000 0.0000
vt 0.7500 0.8333 0.0000
vt 0.7500 0.8447 0.0000
vt 0.8333 0.8333 0.0000
vt 0.8333 0.8447 0.0000
vt 0.9167 0.8333 0.0000
vt 0.9167 0.8447 0.0000
vt 1.0000 0.8333 0.0000
vt 0.0000 0.8333 0.0000
vt 0.0833 0.6667 0.0000
vt 0.0000 0.6667 0.0000
vt 0.1667 0.6667 0.0000
vt 0.2500 0.8333 0.0000
vt 0.2500 0.6667 0.0000
vt 0.3333 0.6667 0.0000
vt 0.4167 0.6667 0.0000
vt 0.5000 0.6667 0.0000
vt 0.5833 0.8333 0.0000
vt 0.5833 0.6667 0.0000
vt 0.6667 0.6667 0.0000
vt 0.7500 0.6667 0.0000
vt 0.8333 0.6667 0.0000
vt 0.9167 0.6667 0.0000
vt 1.0000 0.6667 0.0000
vt 0.0000 0.5000 0.0000
vt 0.0833 0.5000 0.0000
vt 0.1667 0.5000 0.0000
vt 0.2500 0.5000 0.0000
vt 0.3333 0.5000 0.0000
vt 0.4167 0.5000 0.0000
vt 0.5000 0.5000 0.0000
vt 0.5833 0.5000 0.0000
vt 0.6667 0.5000 0.0000
vt 0.7500 0.5000 0.0000
vt 0.8333 0.5000 0.0000
vt 0.9167 0.5000 0.0000
vt 1.0000 0.5000 0.0000
vt 0.1555 0.8666 0.0000
# 118 texture coords

o Sphere001
g Sphere001
usemtl wire_099070039
s 1
f 1/1/1 2/2/2 3/3/3 
f 1/4/1 3/5/3 4/6/4 
f 1/7/1 4/8/4 5/9/5 
f 1/10/1 5/11/5 6/12/6 
f 1/13/1 6/12/6 7/14/7 
f 1/15/1 7/16/7 8/17/8 
f 1/18/1 8/17/8 9/19/9 
f 1/20/1 9/21/9 10/22/10 
f 1/23/1 10/24/10 11/25/11 
f 1/26/1 11/27/11 12/28/12 
f 1/29/1 12/30/12 13/31/13 
f 1/32/1 13/33/13 2/34/2 
f 2/2/2 14/35/14 15/36/15 3/5/3 
f 3/5/3 15/36/15 16/37/16 4/8/4 
f 4/8/4 16/37/16 17/38/17 5/39/5 
f 5/39/5 17/38/17 18/40/18 6/12/6 
f 6/12/6 18/40/18 19/41/19 7/42/7 
f 7/42/7 19/41/19 20/43/20 8/17/8 
f 8/17/8 20/43/20 21/44/21 9/21/9 
f 9/21/9 21/44/21 22/45/22 10/24/10 
f 10/24/10 22/45/22 23/46/23 11/47/11 
f 11/47/11 23/46/23 24/48/24 12/28/12 
f 12/28/12 24/48/24 25/49/25 13/31/13 
f 13/31/13 25/49/25 14/50/14 2/34/2 
f 26/51/26 15/36/15 14/35/14 27/52/27 
f 28/53/28 16/37/16 15/36/15 26/51/26 
f 29/54/29 17/38/17 16/37/16 28/53/28 
f 30/55/30 18/40/18 17/38/17 29/54/29 
f 31/56/31 19/41/19 18/40/18 30/55/30 
f 32/57/32 20/43/20 19/41/19 31/56/31 
f 33/58/33 21/44/21 20/43/20 32/57/32 
f 34/59/34 22/45/22 21/44/21 33/58/33 
f 35/60/35 23/46/23 22/45/22 34/59/34 
f 36/61/36 24/48/24 23/46/23 35/60/35 
f 37/62/37 25/49/25 24/48/24 36/61/36 
f 27/63/27 14/50/14 25/49/25 37/62/37 
f 38/64/38 39/65/39 40/66/40 
f 41/67/41 39/7/39 42/68/42 
f 42/69/42 39/10/39 43/70/43 
f 43/70/43 39/13/39 44/71/44 
f 44/72/44 39/73/39 45/74/45 
f 45/75/45 39/18/39 46/76/46 
f 46/77/46 39/78/39 47/79/47 
f 47/80/47 39/81/39 48/82/48 
f 48/83/48 39/26/39 49/84/49 
f 49/85/49 39/29/39 50/86/50 
f 50/87/50 39/32/39 38/88/38 
f 38/89/38 40/66/40 51/90/51 52/91/52 
f 40/66/40 41/67/41 53/92/53 51/90/51 
f 41/67/41 42/93/42 54/94/54 53/92/53 
f 42/93/42 43/70/43 55/95/55 54/94/54 
f 43/70/43 44/72/44 56/96/56 55/95/55 
f 44/72/44 45/75/45 57/97/57 56/96/56 
f 45/75/45 46/98/46 58/99/58 57/97/57 
f 46/98/46 47/79/47 59/100/59 58/99/58 
f 47/79/47 48/82/48 60/101/60 59/100/59 
f 48/82/48 49/84/49 61/102/61 60/101/60 
f 49/84/49 50/86/50 62/103/62 61/102/61 
f 50/86/50 38/88/38 52/104/52 62/103/62 
f 52/91/52 51/90/51 63/51/63 64/52/64 
f 51/90/51 53/92/53 65/53/65 63/51/63 
f 53/92/53 54/94/54 66/54/66 65/53/65 
f 54/94/54 55/95/55 67/55/67 66/54/66 
f 55/95/55 56/96/56 68/56/68 67/55/67 
f 56/96/56 57/97/57 69/57/69 68/56/68 
f 57/97/57 58/99/58 70/58/70 69/57/69 
f 58/99/58 59/100/59 71/59/71 70/58/70 
f 59/100/59 60/101/60 72/60/72 71/59/71 
f 60/101/60 61/102/61 73/61/73 72/60/72 
f 61/102/61 62/103/62 74/62/74 73/61/73 
f 62/103/62 52/104/52 64/63/64 74/62/74 
f 75/105/75 64/52/64 63/51/63 76/106/76 
f 76/106/76 63/51/63 65/53/65 77/107/77 
f 77/107/77 65/53/65 66/54/66 78/108/78 
f 78/108/78 66/54/66 67/55/67 79/109/79 
f 79/109/79 67/55/67 68/56/68 80/110/80 
f 80/110/80 68/56/68 69/57/69 81/111/81 
f 81/111/81 69/57/69 70/58/70 82/112/82 
f 82/112/82 70/58/70 71/59/71 83/113/83 
f 83/113/83 71/59/71 72/60/72 84/114/84 
f 84/114/84 72/60/72 73/61/73 85/115/85 
f 85/115/85 73/61/73 74/62/74 86/116/86 
f 86/116/86 74/62/74 64/63/64 75/117/75 
f 27/52/27 75/105/75 76/106/76 26/51/26 
f 26/51/26 76/106/76 77/107/77 28/53/28 
f 28/53/28 77/107/77 78/108/78 29/54/29 
f 29/54/29 78/108/78 79/109/79 30/55/30 
f 30/55/30 79/109/79 80/110/80 31/56/31 
f 31/56/31 80/110/80 81/111/81 32/57/32 
f 32/57/32 81/111/81 82/112/82 33/58/33 
f 33/58/33 82/112/82 83/113/83 34/59/34 
f 34/59/34 83/113/83 84/114/84 35/60/35 
f 35/60/35 84/114/84 85/115/85 36/61/36 
f 36/61/36 85/115/85 86/116/86 37/62/37 
f 37/62/37 86/116/86 75/117/75 27/63/27 
f 39/65/39 41/118/41 40/66/40 
# 72 polygons - 24 triangles

