# 3ds Max Wavefront OBJ Exporter v0.97b - (c)2007 guruware
# File Created: 04.04.2019 11:00:04

mtllib Pot04.mtl

#
# object Sphere002
#

v  -0.0000 0.0000 -0.0000
v  -0.0000 0.1225 0.5143
v  -0.2572 0.1225 0.4454
v  -0.4454 0.1225 0.2572
v  -0.5143 0.1225 -0.0000
v  -0.4454 0.1225 -0.2572
v  -0.2572 0.1225 -0.4454
v  -0.0000 0.1225 -0.5143
v  0.2572 0.1225 -0.4454
v  0.4454 0.1225 -0.2572
v  0.5143 0.1225 -0.0000
v  0.4454 0.1225 0.2572
v  0.2572 0.1225 0.4454
v  -0.0000 0.3412 0.6688
v  -0.3344 0.3412 0.5792
v  -0.5792 0.3412 0.3344
v  -0.6688 0.3412 -0.0000
v  -0.5792 0.3412 -0.3344
v  -0.3344 0.3412 -0.5792
v  -0.0000 0.3412 -0.6688
v  0.3344 0.3412 -0.5792
v  0.5792 0.3412 -0.3344
v  0.6688 0.3412 -0.0000
v  0.5792 0.3412 0.3344
v  0.3344 0.3412 0.5792
v  -0.3697 0.7975 0.6403
v  -0.0000 0.7975 0.7394
v  -0.6403 0.7975 0.3697
v  -0.7394 0.7975 -0.0000
v  -0.6403 0.7975 -0.3697
v  -0.3697 0.7975 -0.6403
v  -0.0000 0.7975 -0.7394
v  0.3697 0.7975 -0.6403
v  0.6403 0.7975 -0.3697
v  0.7394 0.7975 -0.0000
v  0.6403 0.7975 0.3697
v  0.3697 0.7975 0.6403
v  -0.0000 1.0742 0.6773
v  -0.3387 1.0742 0.5866
v  -0.5866 1.0742 0.3387
v  -0.6773 1.0742 -0.0000
v  -0.5866 1.0742 -0.3387
v  -0.3387 1.0742 -0.5866
v  -0.0000 1.0742 -0.6773
v  0.3387 1.0742 -0.5866
v  0.5866 1.0742 -0.3387
v  0.6773 1.0742 -0.0000
v  0.5866 1.0742 0.3387
v  0.3387 1.0742 0.5866
v  0.0000 0.0769 -0.0000
v  -0.1691 0.1113 0.2929
v  -0.0000 0.1113 0.3383
v  -0.2929 0.1113 0.1691
v  -0.3383 0.1113 -0.0000
v  -0.2929 0.1113 -0.1691
v  -0.1691 0.1113 -0.2929
v  -0.0000 0.1113 -0.3383
v  0.1691 0.1113 -0.2929
v  0.2929 0.1113 -0.1691
v  0.3383 0.1113 -0.0000
v  0.2929 0.1113 0.1691
v  0.1691 0.1113 0.2929
v  -0.2929 0.3165 0.5074
v  -0.0000 0.3165 0.5859
v  -0.5074 0.3165 0.2929
v  -0.5859 0.3165 -0.0000
v  -0.5074 0.3165 -0.2929
v  -0.2929 0.3165 -0.5074
v  -0.0000 0.3165 -0.5859
v  0.2929 0.3165 -0.5074
v  0.5074 0.3165 -0.2929
v  0.5859 0.3165 -0.0000
v  0.5074 0.3165 0.2929
v  0.2929 0.3165 0.5074
v  -0.3383 0.7194 0.5859
v  -0.0000 0.7194 0.6765
v  -0.5859 0.7194 0.3383
v  -0.6765 0.7194 -0.0000
v  -0.5859 0.7194 -0.3383
v  -0.3383 0.7194 -0.5859
v  -0.0000 0.7194 -0.6765
v  0.3383 0.7194 -0.5859
v  0.5859 0.7194 -0.3383
v  0.6765 0.7194 -0.0000
v  0.5859 0.7194 0.3383
v  0.3383 0.7194 0.5859
v  -0.3038 1.0833 0.5261
v  -0.0000 1.0833 0.6075
v  -0.5261 1.0833 0.3038
v  -0.6075 1.0833 -0.0000
v  -0.5261 1.0833 -0.3038
v  -0.3038 1.0833 -0.5261
v  -0.0000 1.0833 -0.6075
v  0.3038 1.0833 -0.5261
v  0.5261 1.0833 -0.3038
v  0.6075 1.0833 -0.0000
v  0.5261 1.0833 0.3038
v  0.3038 1.0833 0.5261
v  -0.0000 1.0968 0.6369
v  -0.3185 1.0968 0.5516
v  -0.5516 1.0968 0.3185
v  -0.6369 1.0968 -0.0000
v  -0.5516 1.0968 -0.3185
v  -0.3185 1.0968 -0.5516
v  -0.0000 1.0968 -0.6369
v  0.3185 1.0968 -0.5516
v  0.5516 1.0968 -0.3185
v  0.6369 1.0968 -0.0000
v  0.5516 1.0968 0.3185
v  0.3185 1.0968 0.5516
# 110 vertices

vn -0.0000 -1.0000 -0.0000
vn 0.0000 -0.8014 0.5981
vn -0.2990 -0.8014 0.5179
vn -0.5179 -0.8014 0.2990
vn -0.5981 -0.8014 -0.0000
vn -0.5179 -0.8014 -0.2990
vn -0.2990 -0.8014 -0.5179
vn -0.0000 -0.8014 -0.5981
vn 0.2990 -0.8014 -0.5179
vn 0.5179 -0.8014 -0.2990
vn 0.5981 -0.8014 -0.0000
vn 0.5179 -0.8014 0.2990
vn 0.2990 -0.8014 0.5179
vn 0.0000 -0.3624 0.9320
vn -0.4660 -0.3624 0.8072
vn -0.8072 -0.3624 0.4660
vn -0.9320 -0.3624 0.0000
vn -0.8072 -0.3624 -0.4660
vn -0.4660 -0.3624 -0.8072
vn -0.0000 -0.3624 -0.9320
vn 0.4660 -0.3624 -0.8072
vn 0.8072 -0.3624 -0.4660
vn 0.9320 -0.3624 -0.0000
vn 0.8072 -0.3624 0.4660
vn 0.4660 -0.3624 0.8072
vn -0.4997 0.0325 0.8656
vn 0.0000 0.0325 0.9995
vn -0.8656 0.0325 0.4997
vn -0.9995 0.0325 0.0000
vn -0.8656 0.0325 -0.4997
vn -0.4997 0.0325 -0.8656
vn -0.0000 0.0325 -0.9995
vn 0.4997 0.0325 -0.8656
vn 0.8656 0.0325 -0.4997
vn 0.9995 0.0325 -0.0000
vn 0.8656 0.0325 0.4997
vn 0.4997 0.0325 0.8656
vn 0.0000 0.5677 0.8232
vn -0.4116 0.5677 0.7129
vn -0.7129 0.5677 0.4116
vn -0.8232 0.5677 0.0000
vn -0.7129 0.5677 -0.4116
vn -0.4116 0.5677 -0.7129
vn -0.0000 0.5677 -0.8232
vn 0.4116 0.5677 -0.7129
vn 0.7129 0.5677 -0.4116
vn 0.8232 0.5677 -0.0000
vn 0.7129 0.5677 0.4116
vn 0.4116 0.5677 0.7129
vn 0.0000 1.0000 0.0000
vn 0.2130 0.9047 -0.3689
vn -0.0000 0.9047 -0.4260
vn 0.3689 0.9047 -0.2130
vn 0.4260 0.9047 0.0000
vn 0.3689 0.9047 0.2130
vn 0.2130 0.9047 0.3689
vn 0.0000 0.9047 0.4260
vn -0.2130 0.9047 0.3689
vn -0.3689 0.9047 0.2130
vn -0.4260 0.9047 0.0000
vn -0.3689 0.9047 -0.2130
vn -0.2130 0.9047 -0.3689
vn 0.4329 0.5003 -0.7498
vn -0.0000 0.5003 -0.8658
vn 0.7498 0.5003 -0.4329
vn 0.8658 0.5003 -0.0000
vn 0.7498 0.5003 0.4329
vn 0.4329 0.5003 0.7498
vn 0.0000 0.5003 0.8658
vn -0.4329 0.5003 0.7498
vn -0.7498 0.5003 0.4329
vn -0.8658 0.5003 0.0000
vn -0.7498 0.5003 -0.4329
vn -0.4329 0.5003 -0.7498
vn 0.4999 0.0164 -0.8659
vn -0.0000 0.0164 -0.9999
vn 0.8659 0.0164 -0.4999
vn 0.9999 0.0164 -0.0000
vn 0.8659 0.0164 0.4999
vn 0.4999 0.0164 0.8659
vn 0.0000 0.0164 0.9999
vn -0.4999 0.0164 0.8659
vn -0.8659 0.0164 0.4999
vn -0.9999 0.0164 0.0000
vn -0.8659 0.0164 -0.4999
vn -0.4999 0.0164 -0.8659
vn 0.4312 0.5061 -0.7469
vn -0.0000 0.5061 -0.8625
vn 0.7469 0.5061 -0.4312
vn 0.8625 0.5061 -0.0000
vn 0.7469 0.5061 0.4312
vn 0.4312 0.5061 0.7469
vn 0.0000 0.5061 0.8625
vn -0.4312 0.5061 0.7469
vn -0.7469 0.5061 0.4312
vn -0.8625 0.5061 0.0000
vn -0.7469 0.5061 -0.4312
vn -0.4312 0.5061 -0.7469
vn 0.0000 0.9935 0.1141
vn -0.0570 0.9935 0.0988
vn -0.0988 0.9935 0.0570
vn -0.1141 0.9935 -0.0000
vn -0.0988 0.9935 -0.0570
vn -0.0570 0.9935 -0.0988
vn -0.0000 0.9935 -0.1141
vn 0.0570 0.9935 -0.0988
vn 0.0988 0.9935 -0.0570
vn 0.1141 0.9935 -0.0000
vn 0.0988 0.9935 0.0570
vn 0.0570 0.9935 0.0988
# 110 vertex normals

vt 0.0821 0.9999 0.0000
vt 0.0000 0.7500 0.0000
vt 0.0833 0.7500 0.0000
vt 0.1654 0.9999 0.0000
vt 0.1667 0.7500 0.0000
vt 0.2487 0.9999 0.0000
vt 0.2500 0.7500 0.0000
vt 0.3321 0.9999 0.0000
vt 0.3333 0.7500 0.0000
vt 0.4154 0.9999 0.0000
vt 0.4167 0.7500 0.0000
vt 0.4987 0.9999 0.0000
vt 0.5000 0.7500 0.0000
vt 0.5821 0.9999 0.0000
vt 0.5833 0.7500 0.0000
vt 0.6654 0.9999 0.0000
vt 0.6667 0.7500 0.0000
vt 0.7487 0.9999 0.0000
vt 0.7500 0.7500 0.0000
vt 0.8321 0.9999 0.0000
vt 0.8333 0.7500 0.0000
vt 0.9154 0.9999 0.0000
vt 0.9167 0.7500 0.0000
vt 0.9987 0.9999 0.0000
vt 1.0000 0.7500 0.0000
vt 0.0000 0.5833 0.0000
vt 0.0833 0.5833 0.0000
vt 0.1667 0.5833 0.0000
vt 0.2500 0.5833 0.0000
vt 0.3333 0.5833 0.0000
vt 0.4167 0.5833 0.0000
vt 0.5000 0.5833 0.0000
vt 0.5833 0.5833 0.0000
vt 0.6667 0.5833 0.0000
vt 0.7500 0.5833 0.0000
vt 0.8333 0.5833 0.0000
vt 0.9167 0.5833 0.0000
vt 1.0000 0.5833 0.0000
vt 0.0833 0.5000 0.0000
vt 0.0000 0.5000 0.0000
vt 0.1667 0.5000 0.0000
vt 0.2500 0.5000 0.0000
vt 0.3333 0.5000 0.0000
vt 0.4167 0.5000 0.0000
vt 0.5000 0.5000 0.0000
vt 0.5833 0.5000 0.0000
vt 0.6667 0.5000 0.0000
vt 0.7500 0.5000 0.0000
vt 0.8333 0.5000 0.0000
vt 0.9167 0.5000 0.0000
vt 1.0000 0.5000 0.0000
vt 0.0000 0.3523 0.0000
vt 0.0833 0.3523 0.0000
vt 0.1667 0.3523 0.0000
vt 0.2500 0.3523 0.0000
vt 0.3333 0.3523 0.0000
vt 0.4167 0.3523 0.0000
vt 0.5000 0.3523 0.0000
vt 0.5833 0.3523 0.0000
vt 0.6667 0.3523 0.0000
vt 0.7500 0.3523 0.0000
vt 0.8333 0.3523 0.0000
vt 0.9167 0.3523 0.0000
vt 1.0000 0.3523 0.0000
vt 0.0821 1.0035 0.0000
vt 0.0833 0.8333 0.0000
vt 0.0000 0.8333 0.0000
vt 0.1654 1.0035 0.0000
vt 0.1667 0.8333 0.0000
vt 0.2488 1.0035 0.0000
vt 0.2500 0.8333 0.0000
vt 0.3321 1.0035 0.0000
vt 0.3333 0.8333 0.0000
vt 0.4154 1.0035 0.0000
vt 0.4167 0.8333 0.0000
vt 0.4988 1.0035 0.0000
vt 0.5000 0.8333 0.0000
vt 0.5821 1.0035 0.0000
vt 0.5833 0.8333 0.0000
vt 0.6654 1.0035 0.0000
vt 0.6667 0.8333 0.0000
vt 0.7488 1.0035 0.0000
vt 0.7500 0.8333 0.0000
vt 0.8321 1.0035 0.0000
vt 0.8333 0.8333 0.0000
vt 0.9154 1.0035 0.0000
vt 0.9167 0.8333 0.0000
vt 0.9988 1.0035 0.0000
vt 1.0000 0.8333 0.0000
vt 0.0833 0.6667 0.0000
vt 0.0000 0.6667 0.0000
vt 0.1667 0.6667 0.0000
vt 0.2500 0.6667 0.0000
vt 0.3333 0.6667 0.0000
vt 0.4167 0.6667 0.0000
vt 0.5000 0.6667 0.0000
vt 0.5833 0.6667 0.0000
vt 0.6667 0.6667 0.0000
vt 0.7500 0.6667 0.0000
vt 0.8333 0.6667 0.0000
vt 0.9167 0.6667 0.0000
vt 1.0000 0.6667 0.0000
vt 0.0000 0.3333 0.0000
vt 0.0833 0.3333 0.0000
vt 0.1667 0.3333 0.0000
vt 0.2500 0.3333 0.0000
vt 0.3333 0.3333 0.0000
vt 0.4167 0.3333 0.0000
vt 0.5000 0.3333 0.0000
vt 0.5833 0.3333 0.0000
vt 0.6667 0.3333 0.0000
vt 0.7500 0.3333 0.0000
vt 0.8333 0.3333 0.0000
vt 0.9167 0.3333 0.0000
vt 1.0000 0.3333 0.0000
# 115 texture coords

o Sphere002
g Sphere002
usemtl wire_099070039
s 1
f 1/1/1 2/2/2 3/3/3 
f 1/4/1 3/3/3 4/5/4 
f 1/6/1 4/5/4 5/7/5 
f 1/8/1 5/7/5 6/9/6 
f 1/10/1 6/9/6 7/11/7 
f 1/12/1 7/11/7 8/13/8 
f 1/14/1 8/13/8 9/15/9 
f 1/16/1 9/15/9 10/17/10 
f 1/18/1 10/17/10 11/19/11 
f 1/20/1 11/19/11 12/21/12 
f 1/22/1 12/21/12 13/23/13 
f 1/24/1 13/23/13 2/25/2 
f 3/3/3 2/2/2 14/26/14 15/27/15 
f 4/5/4 3/3/3 15/27/15 16/28/16 
f 5/7/5 4/5/4 16/28/16 17/29/17 
f 6/9/6 5/7/5 17/29/17 18/30/18 
f 7/11/7 6/9/6 18/30/18 19/31/19 
f 8/13/8 7/11/7 19/31/19 20/32/20 
f 9/15/9 8/13/8 20/32/20 21/33/21 
f 10/17/10 9/15/9 21/33/21 22/34/22 
f 11/19/11 10/17/10 22/34/22 23/35/23 
f 12/21/12 11/19/11 23/35/23 24/36/24 
f 13/23/13 12/21/12 24/36/24 25/37/25 
f 2/25/2 13/23/13 25/37/25 14/38/14 
f 26/39/26 15/27/15 14/26/14 27/40/27 
f 28/41/28 16/28/16 15/27/15 26/39/26 
f 29/42/29 17/29/17 16/28/16 28/41/28 
f 30/43/30 18/30/18 17/29/17 29/42/29 
f 31/44/31 19/31/19 18/30/18 30/43/30 
f 32/45/32 20/32/20 19/31/19 31/44/31 
f 33/46/33 21/33/21 20/32/20 32/45/32 
f 34/47/34 22/34/22 21/33/21 33/46/33 
f 35/48/35 23/35/23 22/34/22 34/47/34 
f 36/49/36 24/36/24 23/35/23 35/48/35 
f 37/50/37 25/37/25 24/36/24 36/49/36 
f 27/51/27 14/38/14 25/37/25 37/50/37 
f 26/39/26 27/40/27 38/52/38 39/53/39 
f 28/41/28 26/39/26 39/53/39 40/54/40 
f 29/42/29 28/41/28 40/54/40 41/55/41 
f 30/43/30 29/42/29 41/55/41 42/56/42 
f 31/44/31 30/43/30 42/56/42 43/57/43 
f 32/45/32 31/44/31 43/57/43 44/58/44 
f 33/46/33 32/45/32 44/58/44 45/59/45 
f 34/47/34 33/46/33 45/59/45 46/60/46 
f 35/48/35 34/47/34 46/60/46 47/61/47 
f 36/49/36 35/48/35 47/61/47 48/62/48 
f 37/50/37 36/49/36 48/62/48 49/63/49 
f 27/51/27 37/50/37 49/63/49 38/64/38 
f 50/65/50 51/66/51 52/67/52 
f 50/68/50 53/69/53 51/66/51 
f 50/70/50 54/71/54 53/69/53 
f 50/72/50 55/73/55 54/71/54 
f 50/74/50 56/75/56 55/73/55 
f 50/76/50 57/77/57 56/75/56 
f 50/78/50 58/79/58 57/77/57 
f 50/80/50 59/81/59 58/79/58 
f 50/82/50 60/83/60 59/81/59 
f 50/84/50 61/85/61 60/83/60 
f 50/86/50 62/87/62 61/85/61 
f 50/88/50 52/89/52 62/87/62 
f 52/67/52 51/66/51 63/90/63 64/91/64 
f 51/66/51 53/69/53 65/92/65 63/90/63 
f 53/69/53 54/71/54 66/93/66 65/92/65 
f 54/71/54 55/73/55 67/94/67 66/93/66 
f 55/73/55 56/75/56 68/95/68 67/94/67 
f 56/75/56 57/77/57 69/96/69 68/95/68 
f 57/77/57 58/79/58 70/97/70 69/96/69 
f 58/79/58 59/81/59 71/98/71 70/97/70 
f 59/81/59 60/83/60 72/99/72 71/98/71 
f 60/83/60 61/85/61 73/100/73 72/99/72 
f 61/85/61 62/87/62 74/101/74 73/100/73 
f 62/87/62 52/89/52 64/102/64 74/101/74 
f 64/91/64 63/90/63 75/39/75 76/40/76 
f 63/90/63 65/92/65 77/41/77 75/39/75 
f 65/92/65 66/93/66 78/42/78 77/41/77 
f 66/93/66 67/94/67 79/43/79 78/42/78 
f 67/94/67 68/95/68 80/44/80 79/43/79 
f 68/95/68 69/96/69 81/45/81 80/44/80 
f 69/96/69 70/97/70 82/46/82 81/45/81 
f 70/97/70 71/98/71 83/47/83 82/46/82 
f 71/98/71 72/99/72 84/48/84 83/47/83 
f 72/99/72 73/100/73 85/49/85 84/48/84 
f 73/100/73 74/101/74 86/50/86 85/49/85 
f 74/101/74 64/102/64 76/51/76 86/50/86 
f 76/40/76 75/39/75 87/53/87 88/52/88 
f 75/39/75 77/41/77 89/54/89 87/53/87 
f 77/41/77 78/42/78 90/55/90 89/54/89 
f 78/42/78 79/43/79 91/56/91 90/55/90 
f 79/43/79 80/44/80 92/57/92 91/56/91 
f 80/44/80 81/45/81 93/58/93 92/57/92 
f 81/45/81 82/46/82 94/59/94 93/58/93 
f 82/46/82 83/47/83 95/60/95 94/59/94 
f 83/47/83 84/48/84 96/61/96 95/60/95 
f 84/48/84 85/49/85 97/62/97 96/61/96 
f 85/49/85 86/50/86 98/63/98 97/62/97 
f 86/50/86 76/51/76 88/64/88 98/63/98 
f 99/103/99 88/52/88 87/53/87 100/104/100 
f 100/104/100 87/53/87 89/54/89 101/105/101 
f 101/105/101 89/54/89 90/55/90 102/106/102 
f 102/106/102 90/55/90 91/56/91 103/107/103 
f 103/107/103 91/56/91 92/57/92 104/108/104 
f 104/108/104 92/57/92 93/58/93 105/109/105 
f 105/109/105 93/58/93 94/59/94 106/110/106 
f 106/110/106 94/59/94 95/60/95 107/111/107 
f 107/111/107 95/60/95 96/61/96 108/112/108 
f 108/112/108 96/61/96 97/62/97 109/113/109 
f 109/113/109 97/62/97 98/63/98 110/114/110 
f 110/114/110 98/63/98 88/64/88 99/115/99 
f 38/52/38 99/103/99 100/104/100 39/53/39 
f 39/53/39 100/104/100 101/105/101 40/54/40 
f 40/54/40 101/105/101 102/106/102 41/55/41 
f 41/55/41 102/106/102 103/107/103 42/56/42 
f 42/56/42 103/107/103 104/108/104 43/57/43 
f 43/57/43 104/108/104 105/109/105 44/58/44 
f 44/58/44 105/109/105 106/110/106 45/59/45 
f 45/59/45 106/110/106 107/111/107 46/60/46 
f 46/60/46 107/111/107 108/112/108 47/61/47 
f 47/61/47 108/112/108 109/113/109 48/62/48 
f 48/62/48 109/113/109 110/114/110 49/63/49 
f 49/63/49 110/114/110 99/115/99 38/64/38 
# 96 polygons - 24 triangles

