# 3ds Max Wavefront OBJ Exporter v0.97b - (c)2007 guruware
# File Created: 12.04.2019 11:41:27

mtllib Tent01.mtl

#
# object Tent01
#

v  0.2366 1.1662 1.4188
v  0.5749 0.5857 1.5185
v  0.5748 0.5476 0.7840
v  0.2365 1.0802 0.7485
v  0.5748 0.5476 -0.7828
v  0.5749 0.5857 -1.5173
v  0.2366 1.1662 -1.4186
v  0.2365 1.0802 -0.7483
v  -0.2939 1.1662 -1.4186
v  -0.6322 0.5857 -1.5173
v  -0.6321 0.5476 -0.7828
v  -0.2939 1.0802 -0.7483
v  -0.2939 1.0802 0.7485
v  -0.6321 0.5476 0.7841
v  -0.6322 0.5857 1.5185
v  -0.2940 1.1661 1.4187
v  -0.0272 1.7496 1.4006
v  -0.0272 1.6148 0.7390
v  -0.0272 1.7496 -1.4000
v  -0.0272 1.6148 -0.7384
v  0.9920 0.0045 -0.8346
v  0.9920 0.0041 -1.6702
v  0.9920 0.0041 1.6702
v  0.9919 0.0045 0.8346
v  -1.0464 0.0045 0.8346
v  -1.0465 0.0041 1.6702
v  -1.0465 0.0041 -1.6702
v  -1.0464 0.0045 -0.8346
v  0.2365 1.0449 0.0001
v  0.5747 0.5332 0.0006
v  -0.2938 1.0449 0.0001
v  -0.6321 0.5332 0.0006
v  -0.0272 1.5593 0.0003
v  0.9919 0.0047 0.0000
v  -1.0463 0.0047 -0.0000
v  0.5500 0.5691 1.5190
v  0.2101 1.1524 1.4202
v  0.1877 0.9314 0.0000
v  0.4949 0.4665 0.0005
v  0.2101 1.1524 -1.4200
v  0.5500 0.5691 -1.5178
v  -0.6073 0.5691 -1.5178
v  -0.2675 1.1524 -1.4200
v  -0.2449 0.9313 0.0002
v  -0.5521 0.4665 0.0007
v  -0.6074 0.5690 1.5193
v  -0.2673 1.1526 1.4204
v  -0.0272 1.7201 1.4055
v  -0.0273 1.1106 0.0003
v  -0.0272 1.7201 -1.4048
v  0.9678 0.0034 -1.6700
v  0.9575 0.0041 -0.0001
v  0.9678 0.0034 1.6700
v  -1.0221 0.0034 1.6700
v  -1.0121 0.0041 0.0001
v  -1.0221 0.0034 -1.6700
v  -1.1807 -0.0209 -1.9702
v  -0.6449 1.0496 -1.6760
v  -0.6101 1.0252 -1.6698
v  -1.1041 -0.0212 -1.9627
v  -0.6114 1.0104 -1.6295
v  -1.1031 -0.0209 -1.8835
v  -0.6469 1.0256 -1.6108
v  -1.1791 -0.0203 -1.8421
v  -0.6677 1.0498 -1.6396
v  -1.2271 -0.0203 -1.8957
v  -0.0155 1.7203 -1.4849
v  0.0140 1.6997 -1.4796
v  0.0130 1.6870 -1.4454
v  -0.0172 1.6999 -1.4296
v  -0.0348 1.7205 -1.4540
v  0.1227 1.8272 -1.4372
v  0.1428 1.8131 -1.4336
v  0.1421 1.8044 -1.4103
v  0.1215 1.8133 -1.3994
v  0.1095 1.8273 -1.4161
v  0.7372 0.0112 -1.7145
v  0.8383 0.0116 -1.7612
v  0.4643 0.8270 -1.6666
v  0.4274 0.7902 -1.6359
v  0.8000 0.0118 -1.8698
v  0.4475 0.8262 -1.7248
v  0.6752 0.0115 -1.8902
v  0.4002 0.7888 -1.7301
v  0.6364 0.0111 -1.7943
v  0.3877 0.7666 -1.6752
v  0.0283 1.6917 -1.5075
v  0.0036 1.6671 -1.4870
v  0.0171 1.6912 -1.5464
v  -0.0146 1.6662 -1.5500
v  -0.0229 1.6513 -1.5132
v  -0.1447 1.9466 -1.5047
v  -0.1607 1.9308 -1.4915
v  -0.1520 1.9463 -1.5297
v  -0.1724 1.9302 -1.5320
v  -0.1777 1.9206 -1.5084
v  -1.1026 0.0018 1.9203
v  -0.6053 0.8249 1.8348
v  -0.5932 0.8032 1.7999
v  -1.0772 -0.0001 1.8473
v  -0.5562 0.7833 1.8088
v  -0.9998 -0.0019 1.8659
v  -0.5455 0.7928 1.8493
v  -0.9775 -0.0011 1.9506
v  -0.5759 0.8185 1.8654
v  -1.0410 0.0012 1.9842
v  -0.0038 1.7211 1.5272
v  0.0065 1.7027 1.4976
v  0.0379 1.6858 1.5052
v  0.0470 1.6939 1.5395
v  0.0212 1.7157 1.5531
v  0.2148 1.9679 1.2620
v  0.2219 1.9553 1.2417
v  0.2433 1.9438 1.2469
v  0.2495 1.9493 1.2703
v  0.2319 1.9642 1.2797
v  1.1435 0.0008 1.8223
v  1.1135 -0.0001 1.7573
v  0.4016 0.8404 1.5832
v  0.4236 0.8710 1.6306
v  1.0440 -0.0008 1.7816
v  0.3510 0.8124 1.6009
v  1.0312 -0.0004 1.8615
v  0.3416 0.8257 1.6593
v  1.0927 0.0005 1.8867
v  0.3865 0.8619 1.6776
v  -0.0101 1.7381 1.4103
v  0.0046 1.7586 1.4420
v  -0.0440 1.7194 1.4221
v  -0.0503 1.7283 1.4612
v  -0.0203 1.7526 1.4734
v  -0.3718 2.1116 1.2360
v  -0.3624 2.1248 1.2563
v  -0.3936 2.0995 1.2436
v  -0.3977 2.1053 1.2687
v  -0.3784 2.1209 1.2766
v  0.0326 1.8364 -1.8536
v  0.0485 1.7667 -1.8471
v  -0.0054 1.7293 -1.8496
v  -0.0545 1.7760 -1.8577
v  -0.0311 1.8421 -1.8602
v  0.0549 1.8051 -0.7337
v  0.0184 1.7825 -0.7345
v  -0.0144 1.8102 -0.7310
v  0.0019 1.8499 -0.7280
v  0.0447 1.8467 -0.7297
v  0.0045 1.8134 0.8001
v  -0.0265 1.7943 0.7994
v  -0.0542 1.8178 0.8024
v  -0.0404 1.8514 0.8049
v  -0.0041 1.8487 0.8035
v  0.0644 1.7440 1.8958
v  0.0432 1.7309 1.8953
v  0.0242 1.7470 1.8973
v  0.0337 1.7700 1.8991
v  0.0585 1.7681 1.8981
# 156 vertices

vn 0.8810 0.4695 -0.0582
vn 0.8290 0.5584 -0.0286
vn 0.8230 0.5676 -0.0207
vn 0.8737 0.4848 -0.0398
vn 0.8230 0.5676 0.0207
vn 0.8290 0.5585 0.0286
vn 0.8810 0.4695 0.0582
vn 0.8737 0.4848 0.0398
vn -0.8800 0.4714 0.0585
vn -0.8300 0.5570 0.0286
vn -0.8240 0.5662 0.0207
vn -0.8727 0.4866 0.0400
vn -0.8727 0.4866 -0.0400
vn -0.8240 0.5662 -0.0207
vn -0.8301 0.5569 -0.0286
vn -0.8800 0.4714 -0.0585
vn 0.9028 0.4243 -0.0704
vn 0.8986 0.4359 -0.0503
vn 0.9028 0.4242 0.0704
vn 0.8986 0.4359 0.0503
vn 0.7972 0.6037 0.0101
vn 0.8043 0.5941 0.0143
vn 0.8043 0.5941 -0.0143
vn 0.7971 0.6037 -0.0101
vn -0.9009 0.4281 0.0710
vn -0.8967 0.4398 0.0508
vn -0.9009 0.4281 -0.0710
vn -0.8966 0.4398 -0.0508
vn -0.7992 0.6010 -0.0100
vn -0.8063 0.5914 -0.0142
vn -0.8063 0.5914 0.0143
vn -0.7992 0.6010 0.0100
vn 0.8671 0.4981 0.0000
vn 0.8149 0.5796 -0.0000
vn -0.8660 0.5000 0.0000
vn -0.8159 0.5782 -0.0000
vn 0.8935 0.4490 -0.0000
vn 0.7892 0.6142 0.0000
vn -0.8915 0.4530 -0.0000
vn -0.7913 0.6115 0.0000
vn -0.8053 -0.5902 0.0562
vn -0.8494 -0.5141 0.1192
vn -0.8554 -0.5180 -0.0001
vn -0.8098 -0.5867 0.0000
vn -0.8494 -0.5141 -0.1192
vn -0.8053 -0.5902 -0.0562
vn 0.8063 -0.5888 -0.0562
vn 0.8480 -0.5163 -0.1199
vn 0.8541 -0.5200 -0.0000
vn 0.8107 -0.5854 0.0000
vn 0.8063 -0.5888 0.0562
vn 0.8480 -0.5163 0.1199
vn -0.8461 -0.5095 0.1565
vn -0.8567 -0.5157 0.0001
vn -0.8462 -0.5093 -0.1565
vn -0.7617 -0.6469 -0.0363
vn -0.7622 -0.6474 -0.0000
vn -0.7617 -0.6470 0.0363
vn 0.8434 -0.5137 -0.1577
vn 0.8540 -0.5202 0.0000
vn 0.8433 -0.5138 0.1577
vn 0.7637 -0.6445 0.0362
vn 0.7642 -0.6449 -0.0000
vn 0.7638 -0.6445 -0.0362
vn -0.0569 0.1747 0.9830
vn 0.0328 0.1094 0.9935
vn 0.0313 0.1100 0.9934
vn -0.0571 0.1752 0.9829
vn 0.0328 0.1090 -0.9935
vn -0.0568 0.1749 -0.9830
vn -0.0570 0.1754 -0.9828
vn 0.0313 0.1096 -0.9935
vn 0.0567 0.1751 -0.9829
vn -0.0328 0.1093 -0.9935
vn -0.0313 0.1099 -0.9935
vn 0.0569 0.1757 -0.9828
vn -0.0392 0.1136 0.9928
vn 0.0508 0.1784 0.9827
vn 0.0511 0.1792 0.9825
vn -0.0388 0.1138 0.9927
vn -0.0029 0.0786 0.9969
vn -0.0028 0.0786 0.9969
vn 0.0000 0.0776 -0.9970
vn 0.0001 0.0776 -0.9970
vn -0.0685 0.2096 -0.9754
vn -0.0680 0.2080 0.9758
vn 0.0641 0.2109 0.9754
vn 0.0683 0.2100 -0.9753
vn -0.4344 0.4362 -0.7880
vn -0.3286 0.4623 -0.8236
vn 0.6347 -0.2391 -0.7348
vn 0.5998 -0.0653 -0.7975
vn 0.6842 -0.5693 0.4557
vn 0.7537 -0.4686 0.4608
vn -0.2523 -0.0562 0.9660
vn -0.3680 -0.0212 0.9296
vn -0.8254 0.5419 0.1586
vn -0.8872 0.4612 0.0128
vn -0.2148 0.5345 -0.8174
vn 0.5774 -0.3362 -0.7440
vn 0.5894 -0.7069 0.3911
vn -0.2092 -0.0316 0.9774
vn -0.6876 0.6923 0.2189
vn -0.0893 0.4996 -0.8617
vn 0.6000 -0.4007 -0.6925
vn 0.5979 -0.7458 0.2938
vn -0.1149 -0.1220 0.9859
vn -0.6177 0.7480 0.2429
vn 0.5073 0.8032 0.3122
vn 0.0454 -0.0776 0.9960
vn 0.8881 0.3700 0.2728
vn 0.8640 0.3600 0.3520
vn -0.0186 -0.1399 0.9900
vn 0.6144 0.3940 -0.6836
vn 0.5310 0.3935 -0.7505
vn -0.3965 0.0425 -0.9171
vn -0.5289 -0.0514 -0.8471
vn -0.9132 -0.3376 0.2281
vn -0.8860 -0.3871 0.2553
vn 0.8079 0.4439 0.3876
vn -0.0050 -0.0896 0.9960
vn 0.5342 0.4073 -0.7408
vn -0.5226 -0.1620 -0.8371
vn -0.8414 -0.4623 0.2800
vn 0.7856 0.5299 0.3196
vn -0.0452 -0.0111 0.9989
vn 0.5174 0.3927 -0.7603
vn -0.4280 -0.1957 -0.8823
vn -0.8472 -0.4906 0.2039
vn -0.6221 0.7645 0.1688
vn -0.8388 0.5269 0.1372
vn -0.8229 0.5493 0.1453
vn -0.4553 0.1116 -0.8833
vn -0.5533 0.2792 -0.7848
vn 0.5918 -0.4819 -0.6462
vn 0.5595 -0.3663 -0.7434
vn 0.7875 -0.3572 0.5023
vn 0.7743 -0.3548 0.5241
vn -0.0829 0.2875 0.9542
vn -0.2853 0.2922 0.9128
vn -0.7473 0.6548 0.1130
vn -0.5749 -0.0838 -0.8139
vn 0.4841 -0.6905 -0.5374
vn 0.8229 -0.2383 0.5157
vn 0.0669 0.5053 0.8603
vn -0.7872 0.6115 -0.0799
vn -0.5608 -0.3026 -0.7707
vn 0.3029 -0.7839 -0.5419
vn 0.8777 -0.3352 0.3426
vn 0.1843 0.6525 0.7350
vn 0.5073 0.7999 -0.3206
vn 0.7581 0.6490 0.0643
vn 0.5299 0.2701 -0.8039
vn 0.3221 0.0139 -0.9466
vn 0.8370 0.5460 0.0359
vn -0.5272 -0.5795 -0.6215
vn -0.6397 -0.5242 -0.5622
vn -0.6411 -0.3725 0.6710
vn -0.7754 -0.3556 0.5218
vn 0.3488 0.4780 0.8062
vn 0.1176 0.2955 0.9481
vn 0.4413 0.0204 -0.8971
vn 0.8158 0.5777 0.0263
vn -0.5837 -0.5608 -0.5871
vn -0.7487 -0.2741 0.6036
vn 0.1384 0.4164 0.8986
vn 0.3593 -0.0858 -0.9293
vn 0.7227 0.6872 -0.0732
vn -0.4979 -0.6990 -0.5133
vn -0.7396 -0.4085 0.5349
vn -0.0098 0.4640 0.8858
vn -0.5365 0.7999 -0.2689
vn 0.0962 -0.0712 -0.9928
vn 0.9289 -0.3702 0.0084
vn 0.9296 -0.3681 0.0192
vn -0.0672 -0.9974 0.0275
vn -0.1220 -0.9914 0.0481
vn -0.9722 -0.2341 0.0098
vn -0.9773 -0.2077 0.0427
vn -0.5210 0.8535 -0.0040
vn -0.5580 0.8298 0.0097
vn 0.6543 0.7562 0.0036
vn 0.6189 0.7854 -0.0139
vn 0.9275 -0.3732 -0.0202
vn -0.0928 -0.9954 -0.0230
vn -0.9749 -0.2221 0.0144
vn -0.5321 0.8456 0.0428
vn 0.6298 0.7765 0.0190
vn 0.9285 -0.3638 -0.0738
vn -0.0643 -0.9965 -0.0535
vn -0.9702 -0.2363 0.0542
vn -0.5125 0.8531 0.0982
vn 0.6486 0.7609 0.0189
vn 0.0328 -0.0886 0.9955
# 194 vertex normals

vt 0.2921 0.0519 0.0000
vt 0.3968 0.0341 0.0000
vt 0.4039 0.1484 0.0000
vt 0.3058 0.1558 0.0000
vt 0.4065 0.3925 0.0000
vt 0.4030 0.5068 0.0000
vt 0.2983 0.4929 0.0000
vt 0.3085 0.3883 0.0000
vt 0.2376 0.9516 0.0000
vt 0.1322 0.9689 0.0000
vt 0.1250 0.8543 0.0000
vt 0.2228 0.8477 0.0000
vt 0.2228 0.6155 0.0000
vt 0.1250 0.6087 0.0000
vt 0.1322 0.4941 0.0000
vt 0.2376 0.5115 0.0000
vt 0.1927 0.0557 0.0000
vt 0.2129 0.1586 0.0000
vt 0.1987 0.4919 0.0000
vt 0.2158 0.3882 0.0000
vt 0.5130 0.3993 0.0000
vt 0.5146 0.5292 0.0000
vt 0.5086 0.0095 0.0000
vt 0.5102 0.1397 0.0000
vt 0.3378 0.9460 0.0000
vt 0.3156 0.8442 0.0000
vt 0.3378 0.5171 0.0000
vt 0.3156 0.6188 0.0000
vt 0.0189 0.6004 0.0000
vt 0.0205 0.4698 0.0000
vt 0.0205 0.9934 0.0000
vt 0.0189 0.8628 0.0000
vt 0.3117 0.2719 0.0000
vt 0.4068 0.2705 0.0000
vt 0.2167 0.7316 0.0000
vt 0.1221 0.7315 0.0000
vt 0.2220 0.2732 0.0000
vt 0.5113 0.2696 0.0000
vt 0.3066 0.7315 0.0000
vt 0.0180 0.7316 0.0000
vt 0.4007 0.4690 0.0000
vt 0.3119 0.4626 0.0000
vt 0.3327 0.2670 0.0000
vt 0.4068 0.2671 0.0000
vt 0.3094 0.0720 0.0000
vt 0.4008 0.0653 0.0000
vt 0.1386 0.5223 0.0000
vt 0.2323 0.5347 0.0000
vt 0.2101 0.7332 0.0000
vt 0.1328 0.7332 0.0000
vt 0.1382 0.9440 0.0000
vt 0.2319 0.9317 0.0000
vt 0.2282 0.4581 0.0000
vt 0.2975 0.2670 0.0000
vt 0.2310 0.0758 0.0000
vt 0.4954 0.0452 0.0000
vt 0.4934 0.2671 0.0000
vt 0.4952 0.4890 0.0000
vt 0.3167 0.5336 0.0000
vt 0.2472 0.7332 0.0000
vt 0.3163 0.9329 0.0000
vt 0.0411 0.9645 0.0000
vt 0.0427 0.7330 0.0000
vt 0.0415 0.5014 0.0000
vt 0.2502 0.0605 0.0000
vt 0.4853 0.0500 0.0000
vt 0.0817 0.0703 0.0000
vt 0.2822 0.0443 0.0000
vt 0.1038 0.0280 0.0000
vt 0.3210 0.0232 0.0000
vt 0.2139 0.0477 0.0000
vt 0.4291 0.0156 0.0000
vt 0.1280 0.0328 0.0000
vt 0.3148 0.0278 0.0000
vt 0.4950 0.0141 0.0000
vt -0.0001 0.0690 0.0000
vt 0.5489 0.0387 1.0000
vt 0.5730 0.4881 1.0000
vt 0.5576 0.4895 1.0000
vt 0.5245 0.0534 1.0000
vt 0.6632 0.0536 1.0000
vt 0.6348 0.4887 1.0000
vt 0.6193 0.4867 1.0000
vt 0.6348 0.0587 1.0000
vt 0.6038 0.4850 1.0000
vt 0.6046 0.0483 1.0000
vt 0.5883 0.4857 1.0000
vt 0.5810 0.0359 1.0000
vt 0.5871 0.8304 1.0000
vt 0.5747 0.8344 1.0000
vt 0.6350 0.4884 1.0000
vt 0.6387 0.8312 1.0000
vt 0.6254 0.8310 1.0000
vt 0.6127 0.8281 1.0000
vt 0.5997 0.8274 1.0000
vt 0.5952 0.8947 1.0000
vt 0.5887 0.8998 1.0000
vt 0.6386 0.8327 1.0000
vt 0.6312 0.8972 1.0000
vt 0.6222 0.8965 1.0000
vt 0.6133 0.8943 1.0000
vt 0.6037 0.8941 1.0000
vt 0.6039 0.9043 -1.2361
vt 0.5955 0.9076 -0.3820
vt 0.8231 0.0428 1.0000
vt 0.8564 0.0313 1.0000
vt 0.8258 0.3139 1.0000
vt 0.8074 0.3086 1.0000
vt 0.6767 0.0384 1.0000
vt 0.7126 0.0329 1.0000
vt 0.7516 0.3139 1.0000
vt 0.7328 0.3179 1.0000
vt 0.7515 0.0425 1.0000
vt 0.7696 0.3077 1.0000
vt 0.7832 0.0503 1.0000
vt 0.7886 0.3050 1.0000
vt 0.8150 0.6229 1.0000
vt 0.8026 0.6197 1.0000
vt 0.7325 0.3156 1.0000
vt 0.7644 0.6236 1.0000
vt 0.7517 0.6253 1.0000
vt 0.7771 0.6204 1.0000
vt 0.7898 0.6182 1.0000
vt 0.8037 0.7203 1.0000
vt 0.7972 0.7165 1.0000
vt 0.7515 0.6237 1.0000
vt 0.7743 0.7197 1.0000
vt 0.7662 0.7200 1.0000
vt 0.7820 0.7182 1.0000
vt 0.7898 0.7172 1.0000
vt 0.7989 0.7281 -0.3820
vt 0.7908 0.7263 -1.2361
vt 0.7441 0.9903 1.0000
vt 0.7207 0.6847 1.0000
vt 0.7342 0.6852 1.0000
vt 0.7675 0.9825 1.0000
vt 0.6451 0.9838 1.0000
vt 0.6665 0.6863 1.0000
vt 0.6801 0.6864 1.0000
vt 0.6681 0.9739 1.0000
vt 0.6936 0.6851 1.0000
vt 0.6959 0.9739 1.0000
vt 0.7071 0.6843 1.0000
vt 0.7165 0.9845 1.0000
vt 0.7083 0.3288 1.0000
vt 0.7192 0.3264 1.0000
vt 0.6665 0.6862 1.0000
vt 0.6632 0.3296 1.0000
vt 0.6748 0.3283 1.0000
vt 0.6859 0.3293 1.0000
vt 0.6972 0.3300 1.0000
vt 0.6967 0.1960 1.0000
vt 0.7026 0.1918 1.0000
vt 0.6632 0.3280 1.0000
vt 0.6656 0.1949 1.0000
vt 0.6735 0.1943 1.0000
vt 0.6811 0.1955 1.0000
vt 0.6893 0.1959 1.0000
vt 0.6897 0.1871 -1.2361
vt 0.6973 0.1847 -0.3820
vt 0.8479 0.9809 1.0000
vt 0.8289 0.9717 1.0000
vt 0.8393 0.6403 1.0000
vt 0.8572 0.6390 1.0000
vt 0.9295 0.9738 1.0000
vt 0.9112 0.9621 1.0000
vt 0.9111 0.6389 1.0000
vt 0.9289 0.6416 1.0000
vt 0.8871 0.9637 1.0000
vt 0.8932 0.6383 1.0000
vt 0.8716 0.9757 1.0000
vt 0.8753 0.6380 1.0000
vt 0.8376 0.3408 1.0000
vt 0.8493 0.3411 1.0000
vt 0.9287 0.6345 1.0000
vt 0.8851 0.3398 1.0000
vt 0.8969 0.3374 1.0000
vt 0.8730 0.3403 1.0000
vt 0.8611 0.3408 1.0000
vt 0.8521 0.1758 1.0000
vt 0.8586 0.1787 1.0000
vt 0.8971 0.3408 1.0000
vt 0.8813 0.1767 1.0000
vt 0.8890 0.1776 1.0000
vt 0.8735 0.1768 1.0000
vt 0.8657 0.1772 1.0000
vt 0.8559 0.1680 -0.3820
vt 0.8636 0.1688 -1.2361
vt 0.9076 0.0262 -0.3820
vt 0.9026 0.0434 1.0000
vt 0.8863 0.0448 1.0000
vt 0.8813 0.0286 -0.3820
vt 0.8944 0.0170 -1.2361
vt 0.9489 0.3174 1.0000
vt 0.9386 0.3180 1.0000
vt 0.9705 0.0368 1.0000
vt 0.9896 0.3148 1.0000
vt 0.9790 0.3167 1.0000
vt 0.9535 0.0360 1.0000
vt 0.9690 0.3179 1.0000
vt 0.9360 0.0371 1.0000
vt 0.9589 0.3179 1.0000
vt 0.9203 0.0402 1.0000
vt 0.9403 0.7002 1.0000
vt 0.9309 0.7002 1.0000
vt 0.9892 0.3161 1.0000
vt 0.9788 0.6990 1.0000
vt 0.9692 0.7000 1.0000
vt 0.9596 0.7005 1.0000
vt 0.9500 0.7005 1.0000
vt 0.9434 0.9739 1.0000
vt 0.9379 0.9753 1.0000
vt 0.9783 0.7005 1.0000
vt 0.9676 0.9748 1.0000
vt 0.9613 0.9746 1.0000
vt 0.9551 0.9748 1.0000
vt 0.9488 0.9753 1.0000
vt 0.9466 0.9819 -1.2361
vt 0.9404 0.9820 -0.3820
# 219 texture coords

o Tent01
g Tent01
usemtl wire_153227153
s 1
f 1/1/1 2/2/2 3/3/3 4/4/4 
f 5/5/5 6/6/6 7/7/7 8/8/8 
s 2
f 9/9/9 10/10/10 11/11/11 12/12/12 
f 13/13/13 14/14/14 15/15/15 16/16/16 
s 1
f 17/17/17 1/1/1 4/4/4 18/18/18 
f 8/8/8 7/7/7 19/19/19 20/20/20 
f 21/21/21 22/22/22 6/6/6 5/5/5 
f 2/2/2 23/23/23 24/24/24 3/3/3 
s 2
f 19/25/25 9/9/9 12/12/12 20/26/26 
f 13/13/13 16/16/16 17/27/27 18/28/28 
f 25/29/29 26/30/30 15/15/15 14/14/14 
f 10/10/10 27/31/31 28/32/32 11/11/11 
s 1
f 29/33/33 4/4/4 3/3/3 30/34/34 
f 30/34/34 5/5/5 8/8/8 29/33/33 
s 2
f 31/35/35 12/12/12 11/11/11 32/36/36 
f 32/36/36 14/14/14 13/13/13 31/35/35 
s 1
f 33/37/37 18/18/18 4/4/4 29/33/33 
f 29/33/33 8/8/8 20/20/20 33/37/37 
f 34/38/38 21/21/21 5/5/5 30/34/34 
f 30/34/34 3/3/3 24/24/24 34/38/38 
s 2
f 33/39/39 20/26/26 12/12/12 31/35/35 
f 31/35/35 13/13/13 18/28/28 33/39/39 
f 35/40/40 25/29/29 14/14/14 32/36/36 
f 32/36/36 11/11/11 28/32/32 35/40/40 
s 1
f 36/41/41 37/42/42 38/43/43 39/44/44 
f 40/45/45 41/46/46 39/44/44 38/43/43 
s 2
f 42/47/47 43/48/48 44/49/49 45/50/50 
f 46/51/51 45/50/50 44/49/49 47/52/52 
s 1
f 37/42/42 48/53/53 49/54/54 38/43/43 
f 50/55/55 40/45/45 38/43/43 49/54/54 
f 41/46/46 51/56/56 52/57/57 39/44/44 
f 53/58/58 36/41/41 39/44/44 52/57/57 
s 2
f 43/48/48 50/59/59 49/60/60 44/49/49 
f 48/61/61 47/52/52 44/49/49 49/60/60 
f 46/51/51 54/62/62 55/63/63 45/50/50 
f 56/64/64 42/47/47 45/50/50 55/63/63 
s 4
f 2/41/65 1/42/66 37/42/67 36/41/68 
f 7/45/69 6/46/70 41/46/71 40/45/72 
f 10/65/73 9/66/74 43/66/75 42/65/76 
f 16/67/77 15/68/78 46/68/79 47/67/80 
f 1/42/66 17/53/81 48/53/82 37/42/67 
f 19/69/83 7/70/69 40/70/72 50/69/84 
f 6/46/70 22/56/85 51/56/85 41/46/71 
f 23/58/86 2/41/65 36/41/68 53/58/86 
f 9/71/74 19/72/83 50/72/84 43/71/75 
f 17/73/81 16/74/77 47/74/80 48/73/82 
f 15/68/78 26/75/87 54/75/87 46/68/79 
f 27/76/88 10/65/73 42/65/76 56/76/88 
s 2147483648
f 57/77/89 58/78/90 59/79/91 60/80/92 
f 60/81/92 59/82/91 61/83/93 62/84/94 
f 62/84/94 61/83/93 63/85/95 64/86/96 
f 64/86/96 63/85/95 65/87/97 66/88/98 
f 66/88/98 65/87/97 58/78/90 57/77/89 
f 58/78/90 67/89/99 68/90/100 59/79/91 
f 59/91/91 68/92/100 69/93/101 61/83/93 
f 61/83/93 69/93/101 70/94/102 63/85/95 
f 63/85/95 70/94/102 71/95/103 65/87/97 
f 65/87/97 71/95/103 67/89/99 58/78/90 
f 67/89/99 72/96/104 73/97/105 68/90/100 
f 68/98/100 73/99/105 74/100/106 69/93/101 
f 69/93/101 74/100/106 75/101/107 70/94/102 
f 70/94/102 75/101/107 76/102/108 71/95/103 
f 71/95/103 76/102/108 72/96/104 67/89/99 
s 1
f 76/102/109 75/103/109 74/104/109 73/97/109 72/96/109 
s 2147483648
f 77/105/110 78/106/111 79/107/112 80/108/113 
f 78/109/111 81/110/114 82/111/115 79/112/112 
f 81/110/114 83/113/116 84/114/117 82/111/115 
f 83/113/116 85/115/118 86/116/119 84/114/117 
f 85/115/118 77/105/110 80/108/113 86/116/119 
f 80/108/113 79/107/112 87/117/120 88/118/121 
f 79/119/112 82/111/115 89/120/122 87/121/120 
f 82/111/115 84/114/117 90/122/123 89/120/122 
f 84/114/117 86/116/119 91/123/124 90/122/123 
f 86/116/119 80/108/113 88/118/121 91/123/124 
f 88/118/121 87/117/120 92/124/125 93/125/126 
f 87/126/120 89/120/122 94/127/127 92/128/125 
f 89/120/122 90/122/123 95/129/128 94/127/127 
f 90/122/123 91/123/124 96/130/129 95/129/128 
f 91/123/124 88/118/121 93/125/126 96/130/129 
s 1
f 96/130/130 93/125/130 92/124/130 94/131/130 95/132/130 
s 2147483648
f 97/133/131 98/134/132 99/135/133 100/136/134 
f 100/137/134 99/138/133 101/139/135 102/140/136 
f 102/140/136 101/139/135 103/141/137 104/142/138 
f 104/142/138 103/141/137 105/143/139 106/144/140 
f 106/144/140 105/143/139 98/134/132 97/133/131 
f 98/134/132 107/145/141 108/146/142 99/135/133 
f 99/147/133 108/148/142 109/149/143 101/139/135 
f 101/139/135 109/149/143 110/150/144 103/141/137 
f 103/141/137 110/150/144 111/151/145 105/143/139 
f 105/143/139 111/151/145 107/145/141 98/134/132 
f 107/145/141 112/152/146 113/153/147 108/146/142 
f 108/154/142 113/155/147 114/156/148 109/149/143 
f 109/149/143 114/156/148 115/157/149 110/150/144 
f 110/150/144 115/157/149 116/158/150 111/151/145 
f 111/151/145 116/158/150 112/152/146 107/145/141 
s 1
f 116/158/151 115/159/151 114/160/151 113/153/151 112/152/151 
s 2147483648
f 117/161/152 118/162/153 119/163/154 120/164/155 
f 118/165/153 121/166/156 122/167/157 119/168/154 
f 121/166/156 123/169/158 124/170/159 122/167/157 
f 123/169/158 125/171/160 126/172/161 124/170/159 
f 125/171/160 117/161/152 120/164/155 126/172/161 
f 120/164/155 119/163/154 127/173/162 128/174/163 
f 119/175/154 122/167/157 129/176/164 127/177/162 
f 122/167/157 124/170/159 130/178/165 129/176/164 
f 124/170/159 126/172/161 131/179/166 130/178/165 
f 126/172/161 120/164/155 128/174/163 131/179/166 
f 128/174/163 127/173/162 132/180/167 133/181/168 
f 127/182/162 129/176/164 134/183/169 132/184/167 
f 129/176/164 130/178/165 135/185/170 134/183/169 
f 130/178/165 131/179/166 136/186/171 135/185/170 
f 131/179/166 128/174/163 133/181/168 136/186/171 
s 1
f 136/186/172 133/181/172 132/180/172 134/187/172 135/188/172 
f 137/189/173 138/190/173 139/191/173 140/192/173 141/193/173 
s 2147483648
f 138/190/174 142/194/175 143/195/176 139/191/177 
f 139/196/177 143/197/176 144/198/178 140/199/179 
f 140/199/179 144/198/178 145/200/180 141/201/181 
f 141/201/181 145/200/180 146/202/182 137/203/183 
f 137/203/183 146/202/182 142/194/175 138/190/174 
f 142/194/175 147/204/184 148/205/185 143/195/176 
f 143/206/176 148/207/185 149/208/186 144/198/178 
f 144/198/178 149/208/186 150/209/187 145/200/180 
f 145/200/180 150/209/187 151/210/188 146/202/182 
f 146/202/182 151/210/188 147/204/184 142/194/175 
f 147/204/184 152/211/189 153/212/190 148/205/185 
f 148/213/185 153/214/190 154/215/191 149/208/186 
f 149/208/186 154/215/191 155/216/192 150/209/187 
f 150/209/187 155/216/192 156/217/193 151/210/188 
f 151/210/188 156/217/193 152/211/189 147/204/184 
s 1
f 156/217/194 155/218/194 154/219/194 153/212/194 152/211/194 
# 129 polygons

