# 3ds Max Wavefront OBJ Exporter v0.97b - (c)2007 guruware
# File Created: 30.05.2019 21:45:39

mtllib IslandBigVariations02.mtl

#
# object IslandBig001
#

v  83.4505 -7.0000 -54.7067
v  59.4617 7.2427 -23.9274
v  84.4010 -6.9737 -40.1117
v  -68.5619 2.8974 -21.1570
v  -105.7477 -7.1630 -29.6593
v  -109.6652 -7.1108 39.0003
v  9.1446 -7.1419 97.8389
v  49.1561 -7.1486 102.4814
v  32.7886 2.5965 65.1487
v  45.3416 7.5265 -50.3334
v  49.2375 4.9675 -53.7716
v  42.9916 6.0082 -57.8955
v  -42.0167 11.2130 27.9684
v  -23.8521 9.4276 44.1596
v  -2.4315 11.3997 42.4451
v  -27.1418 7.6906 -56.5362
v  -39.6778 5.3532 -57.3942
v  -35.1143 8.2204 -51.2618
v  53.7332 9.1324 -31.3378
v  41.3452 11.0371 -35.6045
v  57.3859 9.1555 -22.5842
v  39.0291 4.2906 -65.0055
v  61.9260 3.1113 51.6242
v  92.7142 -7.0407 55.4484
v  98.9431 -7.0533 34.0795
v  25.9914 8.7281 -56.4246
v  18.8757 12.4424 -34.8259
v  -55.3823 5.2119 -39.8566
v  -46.0450 7.3097 -46.0990
v  -64.0746 7.4374 2.1257
v  -69.2946 5.8956 14.3568
v  -59.9986 8.6861 16.9562
v  -72.1550 3.1691 22.4314
v  -105.4038 -7.0997 59.0397
v  -49.2849 4.9952 47.8701
v  -53.3552 9.3071 26.4543
v  59.7859 8.8546 -8.8817
v  54.4739 10.4738 -0.3248
v  61.9928 7.5501 -6.0463
v  64.0892 5.3944 -7.7560
v  47.2946 11.6808 -15.5939
v  34.6098 14.0867 -1.7086
v  51.3322 2.4556 60.4773
v  49.4914 4.3686 56.8280
v  27.0336 8.5947 52.5737
v  -11.9603 15.8616 -0.9160
v  -34.7039 13.0083 -15.6823
v  -40.5388 12.5363 6.5260
v  76.9717 -7.1479 92.4475
v  28.0708 6.0404 -65.9510
v  31.8098 2.9405 -71.5873
v  -6.5364 15.7524 10.9206
v  9.9970 15.8417 3.5429
v  -19.2215 11.9021 -40.3077
v  30.1402 14.2595 12.6733
v  56.6914 5.2193 49.8291
v  16.8001 2.9747 -73.3669
v  -27.5573 -7.1643 -106.7658
v  44.6017 -7.0979 -100.0704
v  54.1317 4.9661 -46.2668
v  -87.9629 -7.1279 90.1119
v  -69.8369 -7.1511 102.7705
v  -24.4025 -7.1432 92.8999
v  -33.6469 2.7319 61.1572
v  86.7731 -6.9573 -15.0848
v  65.8590 -7.1512 99.4468
v  33.9349 7.2487 -60.7722
v  -61.4113 -7.0382 -97.3296
v  -51.6582 -7.0839 -105.3031
v  -35.8890 11.2096 -37.3705
v  -46.6641 9.7459 -34.3357
v  -20.0597 13.9814 -28.8392
v  -41.1208 -7.1285 -108.9893
v  -101.4089 -7.1220 -38.5478
v  56.7488 -7.0727 -94.8021
v  66.3802 -7.0504 -87.1962
v  74.8544 -7.0429 -79.1019
v  80.6983 -7.0322 -68.4629
# 78 vertices

vn 0.3855 0.9190 -0.0826
vn 0.5230 0.8424 -0.1294
vn 0.4758 0.8788 -0.0359
vn -0.3172 0.9432 -0.0988
vn -0.2474 0.9669 -0.0621
vn -0.2523 0.9674 0.0229
vn -0.0356 0.9645 0.2616
vn 0.0156 0.9691 0.2461
vn 0.0218 0.9459 0.3238
vn 0.2641 0.9372 -0.2276
vn 0.2998 0.9231 -0.2409
vn 0.3153 0.8846 -0.3437
vn -0.1356 0.9796 0.1484
vn -0.0727 0.9573 0.2797
vn -0.0243 0.9625 0.2702
vn -0.0633 0.9657 -0.2519
vn -0.1983 0.9509 -0.2377
vn -0.1448 0.9555 -0.2571
vn 0.3595 0.9186 -0.1644
vn 0.1261 0.9845 -0.1220
vn 0.4309 0.8949 -0.1159
vn 0.1908 0.9267 -0.3236
vn 0.2662 0.9515 0.1543
vn 0.2996 0.9482 0.1053
vn 0.3231 0.9459 0.0310
vn 0.0247 0.9770 -0.2119
vn 0.0323 0.9914 -0.1267
vn -0.3544 0.9177 -0.1795
vn -0.3207 0.9005 -0.2939
vn -0.3341 0.9407 -0.0578
vn -0.5484 0.8361 0.0166
vn -0.2592 0.9632 0.0712
vn -0.3357 0.9416 0.0264
vn -0.2158 0.9721 0.0917
vn -0.1289 0.9664 0.2226
vn -0.2119 0.9685 0.1311
vn 0.4387 0.8981 -0.0312
vn 0.2874 0.9566 0.0471
vn 0.5949 0.8035 0.0210
vn 0.5562 0.8298 -0.0466
vn 0.1595 0.9858 -0.0526
vn 0.1170 0.9929 -0.0202
vn 0.1267 0.9496 0.2868
vn 0.1563 0.9272 0.3403
vn 0.0324 0.9513 0.3066
vn -0.0478 0.9987 -0.0148
vn -0.1522 0.9875 -0.0418
vn -0.1537 0.9881 0.0113
vn 0.1746 0.9688 0.1761
vn 0.0621 0.9312 -0.3591
vn 0.0923 0.9318 -0.3510
vn -0.0217 0.9963 0.0837
vn 0.0344 0.9993 0.0125
vn -0.0205 0.9763 -0.2157
vn 0.1085 0.9904 0.0856
vn 0.2448 0.9487 0.1998
vn 0.0068 0.9426 -0.3338
vn 0.0302 0.9561 -0.2913
vn 0.0814 0.9504 -0.3003
vn 0.3457 0.9176 -0.1961
vn -0.1517 0.9782 0.1418
vn -0.0552 0.9765 0.2084
vn 0.0131 0.9584 0.2852
vn -0.0316 0.9580 0.2850
vn 0.4582 0.8857 -0.0745
vn 0.0849 0.9735 0.2124
vn 0.1401 0.9461 -0.2920
vn -0.1976 0.9616 -0.1902
vn -0.1235 0.9652 -0.2304
vn -0.1380 0.9792 -0.1488
vn -0.2575 0.9568 -0.1354
vn -0.0501 0.9926 -0.1102
vn -0.0255 0.9638 -0.2655
vn -0.2267 0.9655 -0.1281
vn 0.1547 0.9513 -0.2667
vn 0.2046 0.9493 -0.2386
vn 0.2504 0.9474 -0.1993
vn 0.3177 0.9396 -0.1276
# 78 vertex normals

vt 0.9013 0.7312 0.0000
vt 0.7798 0.5927 0.0000
vt 0.9069 0.6646 0.0000
vt 0.2082 0.5806 0.0000
vt 0.0371 0.6185 0.0000
vt 0.0200 0.3125 0.0000
vt 0.5567 0.0405 0.0000
vt 0.7364 0.0200 0.0000
vt 0.6630 0.1911 0.0000
vt 0.7176 0.7107 0.0000
vt 0.7371 0.7276 0.0000
vt 0.7078 0.7452 0.0000
vt 0.3306 0.3619 0.0000
vt 0.4104 0.2885 0.0000
vt 0.5054 0.2969 0.0000
vt 0.3948 0.7388 0.0000
vt 0.3374 0.7434 0.0000
vt 0.3592 0.7151 0.0000
vt 0.7526 0.6250 0.0000
vt 0.6979 0.6441 0.0000
vt 0.7690 0.5861 0.0000
vt 0.6909 0.7784 0.0000
vt 0.7938 0.2545 0.0000
vt 0.9374 0.2353 0.0000
vt 0.9647 0.3326 0.0000
vt 0.6312 0.7379 0.0000
vt 0.5994 0.6408 0.0000
vt 0.2678 0.6644 0.0000
vt 0.3109 0.6913 0.0000
vt 0.2318 0.4764 0.0000
vt 0.2081 0.4223 0.0000
vt 0.2504 0.4107 0.0000
vt 0.1921 0.3861 0.0000
vt 0.0391 0.2218 0.0000
vt 0.2953 0.2711 0.0000
vt 0.2801 0.3684 0.0000
vt 0.7792 0.5253 0.0000
vt 0.7557 0.4874 0.0000
vt 0.7896 0.5125 0.0000
vt 0.8017 0.5199 0.0000
vt 0.7241 0.5551 0.0000
vt 0.6677 0.4935 0.0000
vt 0.7461 0.2136 0.0000
vt 0.7373 0.2317 0.0000
vt 0.6365 0.2515 0.0000
vt 0.4638 0.4900 0.0000
vt 0.3634 0.5556 0.0000
vt 0.3375 0.4571 0.0000
vt 0.8649 0.0691 0.0000
vt 0.6408 0.7816 0.0000
vt 0.6583 0.8089 0.0000
vt 0.4880 0.4378 0.0000
vt 0.5598 0.4705 0.0000
vt 0.4308 0.6654 0.0000
vt 0.6480 0.4300 0.0000
vt 0.7697 0.2636 0.0000
vt 0.5905 0.8169 0.0000
vt 0.3927 0.9722 0.0000
vt 0.7165 0.9418 0.0000
vt 0.7594 0.6937 0.0000
vt 0.1177 0.0813 0.0000
vt 0.2011 0.0223 0.0000
vt 0.4062 0.0624 0.0000
vt 0.3652 0.2100 0.0000
vt 0.9164 0.5527 0.0000
vt 0.8133 0.0356 0.0000
vt 0.6670 0.7575 0.0000
vt 0.2313 0.9239 0.0000
vt 0.2773 0.9615 0.0000
vt 0.3572 0.6521 0.0000
vt 0.3094 0.6386 0.0000
vt 0.4279 0.6140 0.0000
vt 0.3285 0.9800 0.0000
vt 0.0563 0.6588 0.0000
vt 0.7735 0.9176 0.0000
vt 0.8188 0.8825 0.0000
vt 0.8589 0.8445 0.0000
vt 0.8873 0.7947 0.0000
# 78 texture coords

o IslandBig001
g IslandBig001
usemtl wire_086086086
s 1
f 1/1/1 2/2/2 3/3/3 
f 4/4/4 5/5/5 6/6/6 
f 7/7/7 8/8/8 9/9/9 
f 10/10/10 11/11/11 12/12/12 
f 13/13/13 14/14/14 15/15/15 
f 16/16/16 17/17/17 18/18/18 
f 19/19/19 20/20/20 21/21/21 
f 12/12/12 11/11/11 22/22/22 
f 23/23/23 24/24/24 25/25/25 
f 20/20/20 26/26/26 27/27/27 
f 17/17/17 28/28/28 29/29/29 
f 30/30/30 31/31/31 32/32/32 
f 33/33/33 31/31/31 4/4/4 
f 34/34/34 35/35/35 36/36/36 
f 37/37/37 38/38/38 39/39/39 
f 23/23/23 40/40/40 39/39/39 
f 38/38/38 41/41/41 42/42/42 
f 43/43/43 44/44/44 9/9/9 
f 45/45/45 15/15/15 9/9/9 
f 3/3/3 2/2/2 40/40/40 
f 46/46/46 47/47/47 48/48/48 
f 44/44/44 43/43/43 23/23/23 
f 23/23/23 49/49/49 24/24/24 
f 50/50/50 22/22/22 51/51/51 
f 52/52/52 53/53/53 46/46/46 
f 40/40/40 2/2/2 39/39/39 
f 16/16/16 18/18/18 54/54/54 
f 55/55/55 45/45/45 56/56/56 
f 15/15/15 53/53/53 52/52/52 
f 45/45/45 44/44/44 56/56/56 
f 50/50/50 51/51/51 57/57/57 
f 58/58/58 57/57/57 59/59/59 
f 50/50/50 57/57/57 16/16/16 
f 60/60/60 2/2/2 1/1/1 
f 35/35/35 61/61/61 62/62/62 
f 62/62/62 63/63/63 64/64/64 
f 40/40/40 25/25/25 65/65/65 
f 40/40/40 23/23/23 25/25/25 
f 14/14/14 9/9/9 15/15/15 
f 44/44/44 23/23/23 56/56/56 
f 9/9/9 8/8/8 66/66/66 
f 36/36/36 31/31/31 33/33/33 
f 32/32/32 31/31/31 36/36/36 
f 64/64/64 63/63/63 9/9/9 
f 50/50/50 26/26/26 67/67/67 
f 67/67/67 22/22/22 50/50/50 
f 68/68/68 28/28/28 17/17/17 
f 69/69/69 17/17/17 16/16/16 
f 26/26/26 20/20/20 67/67/67 
f 55/55/55 38/38/38 42/42/42 
f 32/32/32 36/36/36 13/13/13 
f 32/32/32 13/13/13 48/48/48 
f 70/70/70 71/71/71 72/72/72 
f 13/13/13 15/15/15 52/52/52 
f 16/16/16 58/58/58 73/73/73 
f 16/16/16 57/57/57 58/58/58 
f 33/33/33 34/34/34 36/36/36 
f 4/4/4 74/74/74 5/5/5 
f 51/51/51 22/22/22 75/75/75 
f 76/76/76 22/22/22 11/11/11 
f 11/11/11 77/77/77 76/76/76 
f 78/78/78 77/77/77 60/60/60 
f 46/46/46 27/27/27 72/72/72 
f 55/55/55 53/53/53 15/15/15 
f 45/45/45 55/55/55 15/15/15 
f 38/38/38 37/37/37 21/21/21 
f 38/38/38 21/21/21 41/41/41 
f 72/72/72 27/27/27 54/54/54 
f 18/18/18 17/17/17 29/29/29 
f 46/46/46 72/72/72 47/47/47 
f 47/47/47 72/72/72 71/71/71 
f 48/48/48 13/13/13 52/52/52 
f 69/69/69 16/16/16 73/73/73 
f 61/61/61 35/35/35 34/34/34 
f 28/28/28 68/68/68 4/4/4 
f 19/19/19 21/21/21 2/2/2 
f 2/2/2 21/21/21 37/37/37 
f 4/4/4 30/30/30 71/71/71 
f 19/19/19 10/10/10 20/20/20 
f 10/10/10 19/19/19 11/11/11 
f 27/27/27 46/46/46 53/53/53 
f 42/42/42 53/53/53 55/55/55 
f 62/62/62 64/64/64 35/35/35 
f 32/32/32 48/48/48 30/30/30 
f 43/43/43 9/9/9 66/66/66 
f 2/2/2 60/60/60 19/19/19 
f 3/3/3 40/40/40 65/65/65 
f 48/48/48 47/47/47 30/30/30 
f 27/27/27 53/53/53 42/42/42 
f 27/27/27 42/42/42 41/41/41 
f 18/18/18 71/71/71 70/70/70 
f 35/35/35 64/64/64 14/14/14 
f 64/64/64 9/9/9 14/14/14 
f 46/46/46 48/48/48 52/52/52 
f 70/70/70 72/72/72 54/54/54 
f 70/70/70 54/54/54 18/18/18 
f 38/38/38 55/55/55 56/56/56 
f 39/39/39 2/2/2 37/37/37 
f 56/56/56 23/23/23 39/39/39 
f 27/27/27 16/16/16 54/54/54 
f 27/27/27 26/26/26 16/16/16 
f 4/4/4 6/6/6 33/33/33 
f 34/34/34 33/33/33 6/6/6 
f 45/45/45 9/9/9 44/44/44 
f 31/31/31 30/30/30 4/4/4 
f 49/49/49 43/43/43 66/66/66 
f 49/49/49 23/23/23 43/43/43 
f 57/57/57 51/51/51 59/59/59 
f 59/59/59 51/51/51 75/75/75 
f 39/39/39 38/38/38 56/56/56 
f 9/9/9 63/63/63 7/7/7 
f 29/29/29 28/28/28 71/71/71 
f 18/18/18 29/29/29 71/71/71 
f 68/68/68 17/17/17 69/69/69 
f 35/35/35 14/14/14 13/13/13 
f 60/60/60 1/1/1 78/78/78 
f 30/30/30 47/47/47 71/71/71 
f 22/22/22 76/76/76 75/75/75 
f 28/28/28 4/4/4 71/71/71 
f 35/35/35 13/13/13 36/36/36 
f 12/12/12 22/22/22 67/67/67 
f 10/10/10 12/12/12 67/67/67 
f 20/20/20 10/10/10 67/67/67 
f 16/16/16 26/26/26 50/50/50 
f 41/41/41 20/20/20 27/27/27 
f 20/20/20 41/41/41 21/21/21 
f 11/11/11 19/19/19 60/60/60 
f 60/60/60 77/77/77 11/11/11 
f 68/68/68 74/74/74 4/4/4 
# 0 polygons - 129 triangles

