# 3ds Max Wavefront OBJ Exporter v0.97b - (c)2007 guruware
# File Created: 08.05.2019 16:00:01

mtllib IslandSmallV2.mtl

#
# object IslandSmall01
#

v  -0.4903 1.4758 -0.5744
v  -0.9025 1.4889 -0.7295
v  -0.6625 1.5169 0.2044
v  -1.2032 1.5478 0.2877
v  -0.7993 1.5214 0.8868
v  -0.1786 1.4601 1.0015
v  -2.1669 1.5276 0.4674
v  -3.4190 1.3697 0.3098
v  -2.7442 1.4017 2.0693
v  -0.3957 1.4116 2.4561
v  -0.1969 1.4656 0.0701
v  0.5382 1.3644 -1.1850
v  -0.6872 1.3599 -2.1879
v  -1.6202 1.4902 1.9854
v  -4.1407 1.0090 1.7527
v  0.8382 1.1377 4.9552
v  1.1663 0.6629 7.0603
v  1.9989 0.7151 5.8928
v  -3.2332 0.9245 4.5672
v  0.6584 1.3356 0.7190
v  -5.7862 -0.1111 -4.2766
v  -4.0297 0.7218 -3.5488
v  -4.3823 -0.0920 -5.5242
v  1.7008 0.7525 -5.5333
v  0.4148 0.9756 -5.0864
v  0.6541 1.2347 -3.0797
v  2.1494 0.8916 3.6072
v  1.6119 1.0500 4.7662
v  3.6477 0.3139 2.8246
v  2.3249 0.8817 0.6253
v  3.9585 0.2846 0.5694
v  2.4001 0.8743 -4.1268
v  4.2797 -0.0170 -5.7273
v  -0.1601 0.7419 7.1035
v  -0.2277 1.2008 4.6655
v  -1.9936 0.8595 6.2303
v  -1.7924 0.5546 -5.9278
v  -0.4323 0.7238 -6.0491
v  -0.4118 -0.1315 -8.6110
v  -0.8387 1.0993 -4.2066
v  -3.1595 0.9838 -3.3693
v  -2.1122 1.1432 -3.1452
v  -2.6798 0.7493 -4.5330
v  -6.6320 -0.0545 -1.3551
v  -4.7751 0.9118 0.1087
v  -4.6166 0.9789 -1.1639
v  -5.4055 -0.0502 4.4484
v  -3.6272 -0.0694 8.2592
v  -1.6046 0.5743 7.7079
v  -2.4272 0.2237 8.5528
v  -1.1658 0.1787 8.9868
v  -1.6328 1.4597 -1.0449
v  -2.9478 1.3757 -1.0437
v  0.7502 1.2987 2.8668
v  -2.1843 1.2851 3.8620
v  -1.0846 1.2631 4.1393
v  3.3066 0.2930 4.7039
v  1.3558 1.2151 -0.6232
v  -6.2140 -0.0424 1.4131
v  2.9473 0.7579 -2.7154
v  4.9594 -0.0940 -1.5327
v  -3.5690 1.1456 -2.2686
v  -6.5520 -0.0791 -2.9187
v  -4.8080 0.7476 -2.6362
v  -1.9213 -0.2047 -7.9804
v  1.6438 1.1571 -1.8443
v  3.3165 0.5823 -1.1067
v  1.5305 0.0018 -8.1909
v  2.1097 -0.1148 8.0262
v  0.6470 -0.1090 9.2455
v  1.2675 1.2043 2.2283
v  4.3177 -0.2460 4.6474
v  3.1375 -0.1794 6.6873
v  5.1175 -0.2435 1.8880
v  -3.0115 0.2260 -6.0343
v  -3.4544 -0.3225 -6.9783
v  -1.3435 1.3758 -1.8995
v  -1.6015 -0.2730 10.1351
v  -8.2451 -4.5530 -11.3490
v  -11.0381 -4.5485 -8.9568
v  -10.7406 -4.5406 8.8568
v  -6.8196 -4.5554 17.8010
v  -13.0053 -4.5393 -3.6424
v  -12.0324 -4.5347 3.2091
v  11.8311 -4.5620 -2.7624
v  11.4406 -4.5522 -12.3767
v  -12.8305 -4.5444 -6.2222
v  0.5422 -4.5499 -18.2820
v  -2.2583 -4.5538 -16.6670
v  4.3818 -4.5452 -18.5300
v  7.0583 -4.5453 13.7610
v  9.6527 -4.5613 9.5711
v  11.6801 -4.5686 3.7769
v  5.4158 -4.5424 16.1095
v  -5.9108 -4.5548 -13.4671
v  -1.8719 -4.5621 20.5565
v  2.9841 -4.5482 18.9099
# 97 vertices

vn 0.0699 0.9963 -0.0499
vn 0.0244 0.9973 -0.0689
vn 0.0781 0.9968 -0.0151
vn 0.0097 0.9998 -0.0152
vn 0.0565 0.9979 0.0317
vn 0.1172 0.9929 0.0214
vn -0.0714 0.9974 -0.0047
vn -0.2269 0.9738 0.0128
vn -0.1831 0.9791 0.0887
vn 0.0533 0.9961 0.0706
vn 0.1205 0.9927 -0.0081
vn 0.1225 0.9918 -0.0360
vn 0.0018 0.9944 -0.1052
vn -0.0180 0.9975 0.0688
vn -0.3758 0.9194 0.1163
vn 0.0930 0.9844 0.1493
vn 0.2143 0.9309 0.2957
vn 0.3577 0.9084 0.2162
vn -0.3114 0.9334 0.1783
vn 0.1950 0.9808 0.0084
vn -0.3636 0.8788 -0.3091
vn -0.2627 0.9234 -0.2799
vn -0.3225 0.8810 -0.3462
vn 0.1663 0.9591 -0.2293
vn 0.0408 0.9792 -0.1989
vn 0.0862 0.9912 -0.1000
vn 0.3457 0.9373 0.0447
vn 0.2901 0.9500 0.1151
vn 0.3948 0.9162 0.0682
vn 0.3138 0.9492 0.0238
vn 0.3695 0.9288 0.0292
vn 0.2507 0.9612 -0.1155
vn 0.3632 0.9180 -0.1593
vn 0.0312 0.9664 0.2552
vn 0.0033 0.9900 0.1412
vn -0.1398 0.9690 0.2038
vn -0.1783 0.9430 -0.2809
vn -0.0629 0.9595 -0.2746
vn -0.1059 0.9249 -0.3653
vn -0.0705 0.9821 -0.1748
vn -0.1677 0.9581 -0.2323
vn -0.0941 0.9806 -0.1718
vn -0.1983 0.9451 -0.2598
vn -0.5165 0.8561 0.0166
vn -0.4140 0.9087 0.0536
vn -0.3464 0.9367 -0.0508
vn -0.4736 0.8648 0.1670
vn -0.3530 0.8993 0.2582
vn -0.0757 0.9640 0.2549
vn -0.2207 0.9194 0.3257
vn 0.0148 0.9385 0.3450
vn -0.0385 0.9949 -0.0929
vn -0.1342 0.9870 -0.0882
vn 0.1565 0.9865 0.0474
vn -0.1187 0.9826 0.1426
vn -0.0083 0.9909 0.1340
vn 0.4426 0.8838 0.1514
vn 0.2371 0.9713 0.0185
vn -0.5204 0.8471 0.1076
vn 0.3475 0.9374 -0.0237
vn 0.4501 0.8929 -0.0071
vn -0.1878 0.9707 -0.1496
vn -0.4597 0.8763 -0.1439
vn -0.3324 0.9258 -0.1799
vn -0.2571 0.8922 -0.3714
vn 0.2284 0.9734 -0.0192
vn 0.3585 0.9333 0.0222
vn 0.1230 0.9399 -0.3184
vn 0.3783 0.8674 0.3233
vn 0.1950 0.9152 0.3526
vn 0.2519 0.9676 0.0163
vn 0.4662 0.8664 0.1788
vn 0.4501 0.8512 0.2699
vn 0.4557 0.8873 0.0703
vn -0.2812 0.9079 -0.3110
vn -0.3393 0.8613 -0.3781
vn -0.0490 0.9912 -0.1227
vn -0.0580 0.9290 0.3655
vn -0.3544 0.8513 -0.3869
vn -0.3869 0.8600 -0.3328
vn -0.5031 0.8444 0.1839
vn -0.2920 0.9071 0.3031
vn -0.5512 0.8343 0.0082
vn -0.5571 0.8232 0.1097
vn 0.4988 0.8666 -0.0134
vn 0.3529 0.9150 -0.1956
vn -0.4822 0.8594 -0.1702
vn -0.0883 0.9163 -0.3906
vn -0.2630 0.8767 -0.4028
vn 0.1224 0.9319 -0.3415
vn 0.4293 0.8600 0.2757
vn 0.4643 0.8590 0.2156
vn 0.5039 0.8590 0.0909
vn 0.3589 0.8800 0.3110
vn -0.3506 0.8498 -0.3935
vn -0.0410 0.9325 0.3587
vn 0.1895 0.9163 0.3528
# 97 vertex normals

vt 0.3414 0.5456 0.0000
vt 0.3279 0.5508 0.0000
vt 0.3358 0.5187 0.0000
vt 0.3179 0.5155 0.0000
vt 0.3315 0.4953 0.0000
vt 0.3524 0.4914 0.0000
vt 0.2858 0.5087 0.0000
vt 0.2430 0.5136 0.0000
vt 0.2663 0.4532 0.0000
vt 0.3459 0.4411 0.0000
vt 0.3513 0.5235 0.0000
vt 0.3765 0.5670 0.0000
vt 0.3341 0.6016 0.0000
vt 0.3044 0.4565 0.0000
vt 0.2167 0.4628 0.0000
vt 0.3891 0.3542 0.0000
vt 0.4023 0.2802 0.0000
vt 0.4308 0.3212 0.0000
vt 0.2490 0.3651 0.0000
vt 0.3808 0.5013 0.0000
vt 0.1494 0.6745 0.0000
vt 0.2171 0.6480 0.0000
vt 0.1980 0.7210 0.0000
vt 0.4147 0.7193 0.0000
vt 0.3703 0.7026 0.0000
vt 0.3795 0.6324 0.0000
vt 0.4341 0.4009 0.0000
vt 0.4153 0.3606 0.0000
vt 0.4894 0.4284 0.0000
vt 0.4400 0.5050 0.0000
vt 0.4998 0.5079 0.0000
vt 0.4395 0.6707 0.0000
vt 0.5080 0.7299 0.0000
vt 0.3560 0.2781 0.0000
vt 0.3534 0.3641 0.0000
vt 0.2923 0.3081 0.0000
vt 0.2929 0.7331 0.0000
vt 0.3407 0.7369 0.0000
vt 0.3405 0.8306 0.0000
vt 0.3281 0.6719 0.0000
vt 0.2483 0.6417 0.0000
vt 0.2849 0.6351 0.0000
vt 0.2629 0.6837 0.0000
vt 0.1213 0.5699 0.0000
vt 0.1941 0.5196 0.0000
vt 0.1998 0.5640 0.0000
vt 0.1669 0.3644 0.0000
vt 0.2346 0.2318 0.0000
vt 0.3064 0.2559 0.0000
vt 0.2781 0.2242 0.0000
vt 0.3223 0.2092 0.0000
vt 0.3033 0.5615 0.0000
vt 0.2587 0.5605 0.0000
vt 0.3846 0.4267 0.0000
vt 0.2857 0.3912 0.0000
vt 0.3238 0.3817 0.0000
vt 0.4788 0.3622 0.0000
vt 0.4050 0.5481 0.0000
vt 0.1360 0.4715 0.0000
vt 0.4602 0.6221 0.0000
vt 0.5368 0.5828 0.0000
vt 0.2360 0.6025 0.0000
vt 0.1238 0.6253 0.0000
vt 0.1912 0.6153 0.0000
vt 0.2859 0.8087 0.0000
vt 0.4145 0.5907 0.0000
vt 0.4752 0.5665 0.0000
vt 0.4100 0.8152 0.0000
vt 0.4399 0.2423 0.0000
vt 0.3869 0.1994 0.0000
vt 0.4020 0.4489 0.0000
vt 0.5182 0.3635 0.0000
vt 0.4775 0.2901 0.0000
vt 0.5436 0.4620 0.0000
vt 0.2487 0.7380 0.0000
vt 0.2301 0.7742 0.0000
vt 0.3121 0.5914 0.0000
vt 0.3079 0.1663 0.0000
vt 0.1209 0.8198 0.0000
vt 0.0508 0.7538 0.0000
vt 0.0639 0.2907 0.0000
vt 0.1762 0.0686 0.0000
vt 0.0005 0.6108 0.0000
vt 0.0252 0.4355 0.0000
vt 0.6629 0.6010 0.0000
vt 0.6403 0.8449 0.0000
vt 0.0061 0.6797 0.0000
vt 0.3545 0.9951 0.0000
vt 0.2784 0.9556 0.0000
vt 0.4571 0.9995 0.0000
vt 0.5500 0.1763 0.0000
vt 0.6138 0.2860 0.0000
vt 0.6597 0.4346 0.0000
vt 0.5048 0.1146 0.0000
vt 0.1821 0.8756 0.0000
vt 0.3090 0.0005 0.0000
vt 0.4375 0.0435 0.0000
# 97 texture coords

o IslandSmall01
g IslandSmall01
usemtl wire_087225087
s 1
f 1/1/1 2/2/2 3/3/3 
f 2/2/2 4/4/4 3/3/3 
f 5/5/5 6/6/6 3/3/3 
f 7/7/7 8/8/8 9/9/9 
f 5/5/5 10/10/10 6/6/6 
f 6/6/6 11/11/11 3/3/3 
f 12/12/12 13/13/13 1/1/1 
f 14/14/14 5/5/5 4/4/4 
f 4/4/4 5/5/5 3/3/3 
f 11/11/11 12/12/12 1/1/1 
f 11/11/11 1/1/1 3/3/3 
f 15/15/15 9/9/9 8/8/8 
f 16/16/16 17/17/17 18/18/18 
f 19/19/19 9/9/9 15/15/15 
f 12/12/12 11/11/11 20/20/20 
f 21/21/21 22/22/22 23/23/23 
f 24/24/24 25/25/25 26/26/26 
f 27/27/27 28/28/28 18/18/18 
f 29/29/29 30/30/30 27/27/27 
f 31/31/31 30/30/30 29/29/29 
f 24/24/24 32/32/32 33/33/33 
f 34/34/34 35/35/35 36/36/36 
f 37/37/37 38/38/38 39/39/39 
f 40/40/40 13/13/13 26/26/26 
f 41/41/41 42/42/42 43/43/43 
f 44/44/44 45/45/45 46/46/46 
f 19/19/19 47/47/47 48/48/48 
f 49/49/49 50/50/50 51/51/51 
f 52/52/52 42/42/42 53/53/53 
f 7/7/7 52/52/52 53/53/53 
f 54/54/54 10/10/10 16/16/16 
f 55/55/55 56/56/56 14/14/14 
f 18/18/18 57/57/57 27/27/27 
f 32/32/32 24/24/24 26/26/26 
f 58/58/58 20/20/20 30/30/30 
f 45/45/45 44/44/44 59/59/59 
f 47/47/47 19/19/19 15/15/15 
f 33/33/33 60/60/60 61/61/61 
f 45/45/45 8/8/8 46/46/46 
f 42/42/42 41/41/41 62/62/62 
f 21/21/21 63/63/63 64/64/64 
f 51/51/51 34/34/34 49/49/49 
f 39/39/39 65/65/65 37/37/37 
f 43/43/43 23/23/23 22/22/22 
f 66/66/66 30/30/30 60/60/60 
f 60/60/60 30/30/30 67/67/67 
f 68/68/68 25/25/25 24/24/24 
f 24/24/24 33/33/33 68/68/68 
f 17/17/17 69/69/69 18/18/18 
f 34/34/34 51/51/51 70/70/70 
f 22/22/22 21/21/21 64/64/64 
f 64/64/64 62/62/62 22/22/22 
f 71/71/71 27/27/27 30/30/30 
f 28/28/28 27/27/27 54/54/54 
f 72/72/72 57/57/57 73/73/73 
f 29/29/29 74/74/74 31/31/31 
f 61/61/61 31/31/31 74/74/74 
f 67/67/67 61/61/61 60/60/60 
f 10/10/10 35/35/35 16/16/16 
f 34/34/34 16/16/16 35/35/35 
f 55/55/55 36/36/36 56/56/56 
f 48/48/48 36/36/36 19/19/19 
f 14/14/14 56/56/56 10/10/10 
f 14/14/14 10/10/10 5/5/5 
f 66/66/66 32/32/32 26/26/26 
f 12/12/12 26/26/26 13/13/13 
f 73/73/73 57/57/57 18/18/18 
f 73/73/73 18/18/18 69/69/69 
f 6/6/6 10/10/10 54/54/54 
f 20/20/20 71/71/71 30/30/30 
f 29/29/29 72/72/72 74/74/74 
f 75/75/75 76/76/76 23/23/23 
f 42/42/42 40/40/40 43/43/43 
f 13/13/13 40/40/40 42/42/42 
f 52/52/52 7/7/7 4/4/4 
f 14/14/14 4/4/4 7/7/7 
f 68/68/68 39/39/39 38/38/38 
f 46/46/46 62/62/62 64/64/64 
f 46/46/46 64/64/64 63/63/63 
f 7/7/7 9/9/9 14/14/14 
f 14/14/14 9/9/9 55/55/55 
f 2/2/2 52/52/52 4/4/4 
f 13/13/13 42/42/42 77/77/77 
f 53/53/53 62/62/62 46/46/46 
f 42/42/42 62/62/62 53/53/53 
f 58/58/58 12/12/12 20/20/20 
f 26/26/26 12/12/12 66/66/66 
f 31/31/31 67/67/67 30/30/30 
f 61/61/61 67/67/67 31/31/31 
f 10/10/10 56/56/56 35/35/35 
f 56/56/56 36/36/36 35/35/35 
f 44/44/44 46/46/46 63/63/63 
f 37/37/37 40/40/40 38/38/38 
f 25/25/25 68/68/68 38/38/38 
f 47/47/47 15/15/15 59/59/59 
f 50/50/50 49/49/49 36/36/36 
f 34/34/34 36/36/36 49/49/49 
f 50/50/50 36/36/36 48/48/48 
f 50/50/50 48/48/48 78/78/78 
f 43/43/43 75/75/75 23/23/23 
f 37/37/37 43/43/43 40/40/40 
f 60/60/60 33/33/33 32/32/32 
f 60/60/60 32/32/32 66/66/66 
f 2/2/2 13/13/13 77/77/77 
f 1/1/1 13/13/13 2/2/2 
f 17/17/17 34/34/34 70/70/70 
f 34/34/34 17/17/17 16/16/16 
f 7/7/7 53/53/53 8/8/8 
f 8/8/8 53/53/53 46/46/46 
f 71/71/71 54/54/54 27/27/27 
f 71/71/71 20/20/20 54/54/54 
f 27/27/27 57/57/57 29/29/29 
f 57/57/57 72/72/72 29/29/29 
f 16/16/16 28/28/28 54/54/54 
f 16/16/16 18/18/18 28/28/28 
f 20/20/20 6/6/6 54/54/54 
f 11/11/11 6/6/6 20/20/20 
f 43/43/43 22/22/22 41/41/41 
f 41/41/41 22/22/22 62/62/62 
f 78/78/78 51/51/51 50/50/50 
f 78/78/78 70/70/70 51/51/51 
f 59/59/59 15/15/15 45/45/45 
f 8/8/8 45/45/45 15/15/15 
f 36/36/36 55/55/55 19/19/19 
f 19/19/19 55/55/55 9/9/9 
f 75/75/75 65/65/65 76/76/76 
f 52/52/52 2/2/2 77/77/77 
f 52/52/52 77/77/77 42/42/42 
f 58/58/58 66/66/66 12/12/12 
f 30/30/30 66/66/66 58/58/58 
f 17/17/17 70/70/70 69/69/69 
f 25/25/25 38/38/38 40/40/40 
f 25/25/25 40/40/40 26/26/26 
f 43/43/43 37/37/37 75/75/75 
f 37/37/37 65/65/65 75/75/75 
f 21/21/21 23/23/23 79/79/79 80/80/80 
f 48/48/48 47/47/47 81/81/81 82/82/82 
f 59/59/59 44/44/44 83/83/83 84/84/84 
f 33/33/33 61/61/61 85/85/85 86/86/86 
f 63/63/63 21/21/21 80/80/80 87/87/87 
f 65/65/65 39/39/39 88/88/88 89/89/89 
f 68/68/68 33/33/33 86/86/86 90/90/90 
f 72/72/72 73/73/73 91/91/91 92/92/92 
f 61/61/61 74/74/74 93/93/93 85/85/85 
f 73/73/73 69/69/69 94/94/94 91/91/91 
f 74/74/74 72/72/72 92/92/92 93/93/93 
f 23/23/23 76/76/76 95/95/95 79/79/79 
f 39/39/39 68/68/68 90/90/90 88/88/88 
f 44/44/44 63/63/63 87/87/87 83/83/83 
f 47/47/47 59/59/59 84/84/84 81/81/81 
f 78/78/78 48/48/48 82/82/82 96/96/96 
f 70/70/70 78/78/78 96/96/96 97/97/97 
f 76/76/76 65/65/65 89/89/89 95/95/95 
f 69/69/69 70/70/70 97/97/97 94/94/94 
# 19 polygons - 135 triangles

